<svg xmlns="http://www.w3.org/2000/svg" width="1250" height="900" viewBox="0 0 1250 900">
    <g fill="none" fill-rule="evenodd">
        <path fill="#1A3CFA" fill-rule="nonzero" d="M-718 1148l1228.273 6c141.9 0 273.278-74.762 345.632-196.687l348.215-586.78c60.567-102.065 60.567-229.002 0-331.065l-348.215-586.78C783.551-669.239 652.173-744 510.273-744l-1207.378 5.898L-718 1148z"/>
        <g stroke="#000" stroke-width="6" opacity=".05">
            <path d="M470-744c140.842 0 271.239 74.204 343.053 195.219l348.214 586.78c60.008 101.12 60.008 226.882 0 328.002l-348.214 586.78C741.239 1073.797 610.842 1148 470 1148"/>
            <path d="M421-744c140.842 0 271.239 74.204 343.053 195.219l348.214 586.78c60.008 101.12 60.008 226.882 0 328.002l-348.214 586.78C692.239 1073.797 561.842 1148 421 1148"/>
            <path d="M373-744c140.842 0 271.239 74.204 343.053 195.219l348.214 586.78c60.008 101.12 60.008 226.882 0 328.002l-348.214 586.78C644.239 1073.797 513.842 1148 373 1148"/>
            <path d="M324-744c140.842 0 271.239 74.204 343.053 195.219l348.214 586.78c60.008 101.12 60.008 226.882 0 328.002l-348.214 586.78C595.239 1073.797 464.842 1148 324 1148"/>
            <path d="M276-744c140.842 0 271.239 74.204 343.053 195.219l348.214 586.78c60.008 101.12 60.008 226.882 0 328.002l-348.214 586.78C547.239 1073.797 416.842 1148 276 1148"/>
            <path d="M227-744c140.842 0 271.239 74.204 343.053 195.219l348.214 586.78c60.008 101.12 60.008 226.882 0 328.002l-348.214 586.78C498.239 1073.797 367.842 1148 227 1148"/>
        </g>
    </g>
</svg>
