<svg xmlns="http://www.w3.org/2000/svg" width="480" height="375" viewBox="0 0 480 375">
    <defs>
        <linearGradient id="a" x1="25.742%" x2="76.46%" y1="4.162%" y2="100%">
            <stop offset="0%" stop-color="#C0D2FF"/>
            <stop offset="100%" stop-color="#0030FF"/>
        </linearGradient>
        <linearGradient id="b" x1="4.162%" y1="27.314%" y2="74.746%">
            <stop offset="0%" stop-color="#C0D2FF"/>
            <stop offset="100%" stop-color="#0030FF"/>
        </linearGradient>
        <linearGradient id="c" x1="4.162%" y1="33.571%" y2="67.921%">
            <stop offset="0%" stop-color="#C0D2FF"/>
            <stop offset="100%" stop-color="#0030FF"/>
        </linearGradient>
        <linearGradient id="d" x1="4.162%" y1="33.269%" y2="68.25%">
            <stop offset="0%" stop-color="#C0D2FF"/>
            <stop offset="100%" stop-color="#0030FF"/>
        </linearGradient>
        <linearGradient id="e" x1="27.7%" x2="74.325%" y1="4.162%" y2="100%">
            <stop offset="0%" stop-color="#C0D2FF"/>
            <stop offset="100%" stop-color="#0030FF"/>
        </linearGradient>
        <linearGradient id="f" x1="12.83%" x2="90.545%" y1="4.162%" y2="100%">
            <stop offset="0%" stop-color="#C0D2FF"/>
            <stop offset="100%" stop-color="#0030FF"/>
        </linearGradient>
        <linearGradient id="g" x1="24.746%" x2="77.547%" y1="4.162%" y2="100%">
            <stop offset="0%" stop-color="#C0D2FF"/>
            <stop offset="100%" stop-color="#0030FF"/>
        </linearGradient>
        <linearGradient id="h" x1="29.332%" x2="72.545%" y1="4.162%" y2="100%">
            <stop offset="0%" stop-color="#C0D2FF"/>
            <stop offset="100%" stop-color="#0030FF"/>
        </linearGradient>
        <linearGradient id="i" x1="16.602%" x2="86.43%" y1="4.162%" y2="100%">
            <stop offset="0%" stop-color="#C0D2FF"/>
            <stop offset="100%" stop-color="#0030FF"/>
        </linearGradient>
        <linearGradient id="j" x1="4.162%" y1="31.098%" y2="70.618%">
            <stop offset="0%" stop-color="#C0D2FF"/>
            <stop offset="100%" stop-color="#0030FF"/>
        </linearGradient>
        <linearGradient id="k" x1="4.162%" y1="23.788%" y2="78.592%">
            <stop offset="0%" stop-color="#C0D2FF"/>
            <stop offset="100%" stop-color="#0030FF"/>
        </linearGradient>
        <linearGradient id="l" x1="4.162%" y1="7.108%" y2="96.787%">
            <stop offset="0%" stop-color="#C0D2FF"/>
            <stop offset="100%" stop-color="#0030FF"/>
        </linearGradient>
        <linearGradient id="m" x1="4.162%" y1="29.291%" y2="72.59%">
            <stop offset="0%" stop-color="#C0D2FF"/>
            <stop offset="100%" stop-color="#0030FF"/>
        </linearGradient>
        <linearGradient id="n" x1="4.162%" y1="18.963%" y2="83.855%">
            <stop offset="0%" stop-color="#C0D2FF"/>
            <stop offset="100%" stop-color="#0030FF"/>
        </linearGradient>
        <linearGradient id="o" x1="50.014%" x2="50.014%" y1="99.996%" y2="0%">
            <stop offset="0%" stop-color="gray" stop-opacity=".25"/>
            <stop offset="54%" stop-color="gray" stop-opacity=".12"/>
            <stop offset="100%" stop-color="gray" stop-opacity=".1"/>
        </linearGradient>
        <linearGradient id="p" x1="44.205%" x2="51.825%" y1="-58.227%" y2="130.156%">
            <stop offset="0%" stop-color="#C0D2FF"/>
            <stop offset="100%" stop-color="#0030FF"/>
        </linearGradient>
        <linearGradient id="q" x1="50%" x2="50%" y1="0%" y2="100%">
            <stop offset="0%"/>
            <stop offset="100%" stop-color="#FFF"/>
        </linearGradient>
        <linearGradient id="r" x1="4.162%" x2="79.47%" y1="4.255%" y2="129.994%">
            <stop offset="0%" stop-color="#0030FF"/>
            <stop offset="100%" stop-color="#C0D2FF"/>
        </linearGradient>
        <linearGradient id="s" x1="50%" x2="50%" y1="0%" y2="100%">
            <stop offset="0%" stop-color="#E3E5F1"/>
            <stop offset="100%" stop-color="#F3F4F9"/>
        </linearGradient>
    </defs>
    <g fill="none" fill-rule="evenodd">
        <path fill="#1A3CFA" fill-rule="nonzero" d="M278.868 44.2c-30.77-.886-60.076-9.163-88.041-18.22-27.966-9.055-55.727-19.072-85.76-23.87C85.75-.973 63.66-1.41 48.097 7.215c-14.98 8.3-19.816 22.631-22.418 35.933-1.962 10.002-3.112 20.534 2.254 29.896 3.71 6.495 10.337 11.965 14.91 18.191 15.907 21.671 4.665 48.39-12.577 69.545-8.089 9.924-17.47 19.393-23.713 29.957-6.242 10.564-9.118 22.677-3.668 33.44 5.412 10.672 18.31 18.702 32.283 24.349 28.378 11.459 61.82 14.74 94.427 16.6 72.181 4.11 144.752 2.32 217.127.547 26.783-.659 53.686-1.327 80.037-4.779 14.632-1.916 29.737-4.955 40.348-12.294 13.487-9.316 16.826-25.095 7.792-36.777-15.156-19.597-57.044-24.464-67.66-45.494-5.834-11.575.158-24.473 8.631-35.209 18.18-23.03 48.654-43.234 50.259-69.558 1.099-18.094-13.547-36.188-36.197-44.743-23.74-8.968-56.664-7.84-74.203 7.005-18 15.283-49.693 21.18-76.86 20.377z" opacity=".05"/>
        <path stroke="#535461" stroke-width=".927" d="M78.595 370.834s-5.983-33.91-28.188-50.714c-9.317-7.052-16.135-16.641-19.112-27.563a83.19 83.19 0 0 1-2.68-15.82"/>
        <path fill="url(#a)" fill-rule="nonzero" d="M14.692 266.066c1.855 3.633 14.252 10.986 14.252 10.986s1.558-13.737-.311-17.374c-1.869-3.638-6.493-5.155-10.351-3.392-3.859 1.763-5.459 6.143-3.59 9.78z"/>
        <path fill="url(#b)" fill-rule="nonzero" d="M13.51 291.486c3.663 2.092 18.29 1.906 18.29 1.906s-6.599-12.331-10.249-14.423c-3.65-2.093-8.422-.989-10.639 2.468-2.216 3.456-1.062 7.956 2.598 10.049z"/>
        <path fill="url(#c)" fill-rule="nonzero" d="M31.694 325.688c4.276.06 16.802-7.076 16.802-7.076s-12.285-7.497-16.566-7.562c-4.28-.065-7.8 3.164-7.884 7.205-.083 4.041 3.367 7.358 7.648 7.433z"/>
        <path fill="url(#d)" fill-rule="nonzero" d="M51.617 348.62c4.202.747 17.828-4.291 17.828-4.291s-10.77-9.363-14.966-10.096c-4.197-.733-8.255 1.856-9.044 5.846-.788 3.99 1.976 7.799 6.182 8.541z"/>
        <path fill="url(#e)" fill-rule="nonzero" d="M46.799 287.39c-1.461 3.799-12.986 12.317-12.986 12.317s-3.051-13.51-1.59-17.31c1.46-3.8 5.908-5.762 9.929-4.384 4.02 1.378 6.108 5.581 4.647 9.376z"/>
        <path fill="url(#f)" fill-rule="nonzero" d="M69.741 314.502c-2.597 3.215-16.287 8.086-16.287 8.086s1.391-13.756 3.97-16.966a8.058 8.058 0 0 1 10.861-1.392 7.052 7.052 0 0 1 1.456 10.272z"/>
        <path fill="url(#g)" fill-rule="nonzero" d="M88.209 343.744c-1.985 3.582-14.604 10.569-14.604 10.569s-1.109-13.775.876-17.356c1.985-3.582 6.665-4.965 10.458-3.09 3.794 1.874 5.25 6.296 3.27 9.877z"/>
        <path fill="#000" fill-rule="nonzero" d="M14.692 266.066c1.855 3.633 14.252 10.986 14.252 10.986s1.558-13.737-.311-17.374c-1.869-3.638-6.493-5.155-10.351-3.392-3.859 1.763-5.459 6.143-3.59 9.78zM13.51 291.486c3.663 2.092 18.29 1.906 18.29 1.906s-6.599-12.331-10.249-14.423c-3.65-2.093-8.422-.989-10.639 2.468-2.216 3.456-1.062 7.956 2.598 10.049zM31.694 325.688c4.276.06 16.802-7.076 16.802-7.076s-12.285-7.497-16.566-7.562c-4.28-.065-7.8 3.164-7.884 7.205-.083 4.041 3.367 7.358 7.648 7.433zM51.617 348.62c4.202.747 17.828-4.291 17.828-4.291s-10.77-9.363-14.966-10.096c-4.197-.733-8.255 1.856-9.044 5.846-.788 3.99 1.976 7.799 6.182 8.541zM46.799 287.39c-1.461 3.799-12.986 12.317-12.986 12.317s-3.051-13.51-1.59-17.31c1.46-3.8 5.908-5.762 9.929-4.384 4.02 1.378 6.108 5.581 4.647 9.376zM69.741 314.502c-2.597 3.215-16.287 8.086-16.287 8.086s1.391-13.756 3.97-16.966a8.058 8.058 0 0 1 10.861-1.392 7.052 7.052 0 0 1 1.456 10.272zM88.209 343.744c-1.985 3.582-14.604 10.569-14.604 10.569s-1.109-13.775.876-17.356c1.985-3.582 6.665-4.965 10.458-3.09 3.794 1.874 5.25 6.296 3.27 9.877z" opacity=".25"/>
        <path stroke="#535461" stroke-width=".927" d="M77.843 369.943s9.076-33.293-4.011-57.158c-5.491-10.012-7.61-21.387-5.644-32.513a83.534 83.534 0 0 1 4.336-15.486"/>
        <path fill="url(#h)" fill-rule="nonzero" d="M64.371 249.703c.148 4.036 8.315 15.5 8.315 15.5s7.319-11.965 7.17-16.006c-.148-4.04-3.733-7.2-8.009-7.06-4.276.138-7.629 3.525-7.476 7.566z"/>
        <path fill="url(#i)" fill-rule="nonzero" d="M52.387 272.492c2.449 3.312 15.898 8.74 15.898 8.74s-.742-13.797-3.19-17.114a8.044 8.044 0 0 0-10.788-1.814 7.066 7.066 0 0 0-1.92 10.188z"/>
        <path fill="url(#j)" fill-rule="nonzero" d="M54.335 310.707c3.886 1.693 18.402-.033 18.402-.033s-8.018-11.561-11.905-13.255c-3.886-1.693-8.486-.092-10.281 3.577-1.795 3.67-.098 8.017 3.784 9.71z"/>
        <path fill="url(#k)" fill-rule="nonzero" d="M62.706 339.309c3.53 2.292 18.143 2.9 18.143 2.9s-5.835-12.67-9.36-14.958a8.035 8.035 0 0 0-10.772 1.856 7.068 7.068 0 0 0 1.99 10.202z"/>
        <path fill="url(#l)" fill-rule="nonzero" d="M84.577 281.488c-2.968 2.913-17.159 6.295-17.159 6.295s3.01-13.524 5.973-16.437a8.077 8.077 0 0 1 10.96-.204 7.034 7.034 0 0 1 .226 10.346z"/>
        <path fill="url(#m)" fill-rule="nonzero" d="M93.9 315.054c-3.753 1.944-18.357 1.16-18.357 1.16S82.7 304.15 86.451 302.22c3.752-1.93 8.464-.645 10.518 2.9 2.055 3.544.7 7.989-3.07 9.933z"/>
        <path fill="url(#n)" fill-rule="nonzero" d="M98.254 348.857c-3.353 2.514-17.888 4.073-17.888 4.073s4.898-13.023 8.25-15.537a8.058 8.058 0 0 1 10.885 1.183 7.05 7.05 0 0 1-1.247 10.28z"/>
        <path fill="url(#o)" fill-rule="nonzero" d="M460.155 175.537c.279-.76-1.808-4.978-1.808-5.187 0-.208-2.157-2.56-2.157-3.874 0-1.313-2.857-4.147-2.857-4.147s-3.826-1.592-4.243-5.048c-.418-3.456-4.587-3.53-4.596-3.53 0 0 0-.316.028-.794 0-1.076-.033-2.997-.515-4.045a4.105 4.105 0 0 0-2.37-2.01s-.417-2.695-1.252-3.525a3.972 3.972 0 0 1-.979-3.73c.418-1.313-.556-4.64-2.578-5.104-2.022-.464-4.313-1.243-4.313-1.243s-.227.042-.557.088l-.278-.088c-.484.09-.974.15-1.466.18a1.785 1.785 0 0 1-1.177-.389c-.7-.76-6.34-2.213-7.384-2.213-1.043 0-4.04-1.392-4.04-1.392l-2.986-2.282c-.84-.64-2.393-3.248-2.62-3.614l-.028-.051a12.53 12.53 0 0 1-.63-1.82 16.442 16.442 0 0 0 2.587-3.558c.074-.134.14-.273.204-.408.158-.002.314-.027.464-.074.06 0 .12-.046.18-.07a3.039 3.039 0 0 0 1.48-1.767c.051-.149.098-.302.135-.464 0-.051 0-.107.032-.158.033-.051.047-.209.065-.315l.033-.177c.009-.055.032-.208.046-.315.014-.107 0-.116 0-.172 0-.134.033-.264.051-.394.047-.49.12-.979.218-1.462.417-1.855 1.544-3.46 2.347-5.196a9.903 9.903 0 0 0 .594-1.596l.069-.26c.05-.204.097-.412.139-.621 0-.093.037-.186.051-.279.046-.287.088-.575.111-.867a10.758 10.758 0 0 0-.69-4.876c-.525-1.3-1.3-2.468-1.828-3.767-.802-1.968-1.01-4.176-1.99-6.069-1.637-3.145-5.495-4.718-8.667-3.535-1.517.561-2.83 1.656-4.364 2.148-2.06.654-4.258.162-6.386-.135-2.13-.296-4.485-.32-6.196 1.072-1.971 1.6-2.514 4.612-4.364 6.37-.775.738-1.744 1.211-2.565 1.893a4.175 4.175 0 0 0-1.285 1.758c0 .051-.032.098-.046.149-.014.05-.033.116-.046.176a2.42 2.42 0 0 0-.038.209c-.009.07 0 .097 0 .144-.009.123-.009.247 0 .37.014.118.034.234.06.349v.097c0 .033.056.19.089.288a.26.26 0 0 0 0 .056c.037.106.079.208.12.315l.07.158.056.13c.271.51.488 1.048.644 1.605.087.352.066.722-.06 1.062a3.247 3.247 0 0 1-.775 1.012 14.383 14.383 0 0 0-3.14 5.034c-.078.213-.157.426-.226.65l.097.022c.199.061.402.106.607.135.116 0 .232.028.353.037.476.025.953-.012 1.42-.111.115-.024.236-.051.352-.084a8.75 8.75 0 0 0 1.39-.515v.659a16.457 16.457 0 0 0 9.132 14.711c0 .149.042.302.06.464.02.163.033.251.047.376l-.185-.18s-1.257-.622-2.44 1.173c-1.182 1.796-3.409 2.63-3.409 2.63s-12.67 2.005-13.157 3.666l-5.917.343s-2.092.278-2.32 4.64c-.226 4.36-1.32 4.773-1.32 4.773s-2.436 4.287-2.227 6.496c.209 2.208-1.855 3.321-1.855 3.321l-.278 3.94s-2.32-.344-2.927 2.352c-.607 2.695-1.739 3.943-1.739 3.943s-3.83 3.183-4.04 5.878l-2.364 1.452s-5.5-1.243-6.753-3.456l-.385-.362a.348.348 0 0 1-.032-.056.13.13 0 0 0 0 .028c-.826-.78-2.57-2.403-2.32-2.032.163.348.203.74.112 1.114l-.408-.464-1.094-1.216s-8.89-8.35-14.113-8.991c-.07-.135-.403-1.448-1.294-.626a7.262 7.262 0 0 0-.05 10.67l8.324 7.78.213.158 1.79 2.32a27.858 27.858 0 0 0-.765 2.065s0 .041-.023.06c-.042.14-.088.269-.13.399l-.042.14c-.037.129-.079.259-.116.38-.037.12-.041.153-.065.227-.023.074 0 .088-.037.13-.194.696-.324 1.23-.39 1.526l-.463-.144.464.195v.074l-.028.144.427.186c2.439 1.062 14.613 6.402 15.239 7.214.696.896 5.287 3.526 9.465 1.313 4.179-2.213 5.102-5.604 5.102-5.604s4.035-5.6 4.174-6.43c.139-.831 3.274-1.8 3.274-1.8s.278 9.278-1.322 12.656c-1.6 3.377-4.596 18.4-4.596 18.4.196-.04.395-.052.594-.037l-.176.867c.244-.044.493-.044.737 0-.222 1.707-1.502 9.632-1.502 9.632s-.418 3.595-1.113 4.838c-.696 1.244-.766 7.748-.766 7.748l-1.113 4.7c.127.278.268.549.422.812 0 0 1.197 2.654 3.205 4.143a8.493 8.493 0 0 1-.561 2.153 7.458 7.458 0 0 0-.557 3.317s-1.182 5.326-1.043 6.848c.139 1.521-.765 5.256-.765 5.256l-1.294 11.998s-.835 10.443-.418 13.282c.418 2.84-.283 6.704-.283 6.704s.835 8.23.626 9.13c-.208.9-1.252 4.77-.626 6.918.626 2.148.283 8.022.283 8.022s.418 7.743.9 10.234c.482 2.491-.14 5.674-.14 5.674s-.463 5.322-.695 5.322c-.232 0-2.017 3.665 1.67 7.265 3.687 3.6 1.391 3.039 1.391 3.039s-2.922-1.452-2.579 1.521c.334 2.83.794 2.093.835 2.014l-.695 2.273.463.07-.403.464a10.804 10.804 0 0 1-1.391 1.457c-.84.621-.928 2.004-.928 2.004s-5.148 5.604-9.952 8.439c-2.528 1.494-4.708 2.756-5.658 3.8-.858.928-.72 1.698 1.062 2.287 3.76 1.243 10.37 1.856 15.105.278a17.65 17.65 0 0 0 7.378-4.774s2.996-1.521 5.922-.97c2.927.553 8.77-3.247 8.77-3.247l-.106-.984-.311-2.825a2.223 2.223 0 0 1-.487-1.726 8.962 8.962 0 0 0-.246-2.487c-.046-.273-.102-.547-.153-.802l.533-.098s-.69-3.53.562-4.221c1.252-.692.9-9.743.9-9.743s-1.596-2.074-2.435-2.417c-.84-.344-.07-4.64.074-5.192.144-.552 1.252-11.274 1.252-11.274s-.417-3.386.139-4.839c.557-1.452-.668-7.02-.668-7.02s-.417-.69.353-1.52c.77-.831.463-8.231.463-8.231s-.064-3.735-.064-4.705c0-.97.834-4.495 1.6-5.669.765-1.174.278-4.843.278-4.843l.042-.274c0-.107.037-.237.064-.395l.06-.366c.34-2.037.8-4.053 1.378-6.036.928-2.904 1.948-8.021 1.948-8.021l6.493-16.888.074-.2s2.991 5.535 2.991 10.671c0 0 .765 6.157.557 7.818-.209 1.66.617 9.432.617 9.432s.904 11.204.904 11.69c0 .488 1.113 9.131 1.813 10.444.7 1.313-.7 5.326-1.117 5.74-.418.412.139 10.582.139 10.582s-1.044 8.021-1.252 9.682c-.21 1.661-1.044 8.026-.348 10.513.695 2.487.417 2.835.417 2.835s2.51 2.56 1.044 2.783a3.826 3.826 0 0 0-2.783 5.044 64.618 64.618 0 0 0 3.065 7.423s.432-.098 1.15-.242v.822l.084 4.12s.464 3.943.209 4.843c-.204.659-.464 3.758-.617 5.377-.051.59-.079.984-.079.984s0 3.665 7.726 2.56c7.727-1.104 9.118-4.147 9.118-4.147s0-.144.056-.38c.116-.701.366-2.186.57-3.012.279-1.108-2.226-6.086-2.226-6.086s-.417-3.387-1.118-4.148a3.675 3.675 0 0 1-.556-1.452 13.21 13.21 0 0 1-.167-.854 5.1 5.1 0 0 1 .515.093s-.418-2.422 1.187-3.183c1.605-.76 1.183-2.347.974-3.043-.209-.696.626-4.565.626-4.565a2.25 2.25 0 0 1 .557-2.209c.978-.974 1.739-7.748 1.739-7.748l.139-26.143s.491-4.64-.065-6.495c-.557-1.856-1.118-5.46-.353-6.43.766-.97.07-5.46.07-5.46s0-9.48 1.048-11.827c1.048-2.347.696-17.221.696-17.221l.273-9.743s2.277-2.153 1.74-13.375c2.425-.154 5.161-.242 5.565.092.765.627 5.709 3.805 8.63 1.8.627-.278 3.479-2.695 3.479-2.695l-1.225-20.738c.766 1.155 1.23 1.925 1.23 1.925 0-2.904 8.213-12.313 8.213-12.313s7.657-9.887 9.326-11.065c1.67-1.178 4.944-7.4 4.944-7.4a29.999 29.999 0 0 1 1.674-3.456c.793-1.276-1.716-4.598-1.438-5.359zm-17.966 7.256c-2.087.209-6.493 4.983-6.544 6.032-.032.547-.496 1.28-.927 1.855-.033-.417-.07-.844-.102-1.276-.492-6.11-1.025-13.556-.784-14.28.422-1.243.278-6.843.278-6.843l.074-.107c1.392 4.338 5.765 9.456 5.765 9.456s.765 2.213 1.67 2.282c.904.07.57 2.881.57 2.881z"/>
        <path fill="#65617D" fill-rule="nonzero" d="M330.579 181.22s2.536-13.315 10.703-13.384l5.969 12.285-3.98 2.746s-8.644.274-12.692-1.646z"/>
        <path fill="#000" fill-rule="nonzero" d="M347.251 180.121l-3.98 2.746s-6.084.195-10.434-.876a12.481 12.481 0 0 1-2.258-.77s0-.075.046-.214v-.05a30.053 30.053 0 0 1 1.544-4.89c.255-.6.538-1.216.844-1.833 1.197-2.32 2.876-4.556 5.176-5.674a7.033 7.033 0 0 1 2.722-.71h.362l.13.273 2.017 4.148 3.831 7.85z" opacity=".1"/>
        <path fill="#65617D" fill-rule="nonzero" d="M415.035 235.441s8.58-.82 9.331-.204c.752.617 5.626 3.772 8.51 1.782 2.885-1.99.96-8.922.96-9.195 0-.274-.273-10.091-.273-10.091l-5.148-6.932-6.446-12.146-13.171-1.308.343 19.29-.07 9.883 5.964 8.921z"/>
        <path fill="#000" fill-rule="nonzero" d="M415.035 235.441s8.58-.82 9.331-.204c.752.617 5.626 3.772 8.51 1.782 2.885-1.99.96-8.922.96-9.195 0-.274-.273-10.091-.273-10.091l-5.148-6.932-6.446-12.146-13.171-1.308.343 19.29-.07 9.883 5.964 8.921z" opacity=".1"/>
        <path fill="#FBBEBE" fill-rule="nonzero" d="M339.566 167.483s-.686 8.374-5.899 8.509c0 0-1.48-.89-3.469-2.376-4.582-3.428-11.849-10.02-9.84-16.154 2.88-8.782 16.876 7.423 16.876 7.423l1.07 1.206 1.262 1.392z"/>
        <path fill="#000" fill-rule="nonzero" d="M339.566 167.483s-.686 8.374-5.899 8.509c0 0-1.48-.89-3.469-2.376l-.44-.57c.885.461 1.86.724 2.856.77a3.863 3.863 0 0 0 3.71-2.352 29.471 29.471 0 0 0 1.443-3.322c.254-.662.434-1.35.538-2.05l1.261 1.391z" opacity=".1"/>
        <path fill="#E7EFFD" fill-rule="nonzero" d="M337.303 182.663l-1.173-1.512-3.951-5.103-2.013-2.603c.884.464 1.86.727 2.857.77 1.312.032 2.782-.464 3.71-2.348a29.986 29.986 0 0 0 1.442-3.326c.65-1.856.64-2.784.408-3.122-.232-.339 1.456 1.243 2.268 2.013l.028.028.38.357.14.279 1.989 3.976v.167c.195 1.275.867 9.288-6.085 10.424z"/>
        <path fill="#65617D" fill-rule="nonzero" d="M378.402 359.328s-5.764 3.776-8.644 3.248c-2.88-.53-5.835.965-5.835.965a17.381 17.381 0 0 1-7.276 4.736c-4.638 1.578-11.177.956-14.882-.278-1.753-.585-1.897-1.336-1.053-2.269.927-1.039 3.089-2.287 5.565-3.771 4.735-2.812 9.809-8.351 9.809-8.351s.07-1.392.895-1.986c.508-.438.974-.923 1.391-1.448.738-.872 1.429-1.781 1.429-1.781l16.955.492s.287 1.22.515 2.468c.193.809.273 1.641.236 2.473-.088.61.08 1.23.464 1.712l.306 2.783.125 1.007zM413.871 364.065c-.204.821-.463 2.292-.56 2.983l-.061.38s-1.391 3.02-8.983 4.12c-7.592 1.1-7.615-2.542-7.615-2.542s.027-.39.074-.98c.134-1.604.408-4.68.612-5.334.269-.891-.209-4.807-.209-4.807l-.079-4.087-.06-2.84 12.629-1.308c.077.945.214 1.884.408 2.812.077.515.265 1.007.552 1.442.686.757 1.094 4.12 1.094 4.12s2.472 4.941 2.198 6.04z"/>
        <path fill="#000" fill-rule="nonzero" d="M376.756 348.885s.287 1.22.515 2.468c-1.832.338-9.837 1.726-11.836.756-2.267-1.1-7.137-1.717-7.137-1.717l.079-.278c.737-.872 1.428-1.781 1.428-1.781l16.95.552zM410.027 352.462c-3.2-.543-10.203.77-12.986 1.336l-.06-2.84 12.628-1.308c.081.945.22 1.884.418 2.812z" opacity=".1"/>
        <path fill="#3F3D56" fill-rule="nonzero" d="M417.146 248.413l-.274 9.678s.343 14.758-.686 17.092c-1.03 2.333-1.03 11.737-1.03 11.737s.686 4.459-.07 5.42c-.756.96-.204 4.527.344 6.383.547 1.856.07 6.454.07 6.454l-.14 25.943s-.751 6.723-1.716 7.688a2.25 2.25 0 0 0-.547 2.194s-.821 3.842-.617 4.533c.204.691.617 2.264-.96 3.016-1.577.751-1.169 3.159-1.169 3.159-3.77-.895-14.474 1.512-14.474 1.512a64.428 64.428 0 0 1-3.019-7.348 3.801 3.801 0 0 1 2.745-5.006c1.438-.21-1.03-2.747-1.03-2.747s.275-.343-.412-2.811c-.686-2.469.135-8.815.343-10.439l1.234-9.608s-.547-10.086-.135-10.5c.413-.412 1.781-4.393 1.1-5.697-.682-1.303-1.79-9.881-1.79-10.364 0-.482-.886-11.599-.886-11.599s-.826-7.757-.617-9.404c.209-1.647-.552-7.752-.552-7.752 0-5.103-2.95-10.573-2.95-10.573l-.074.2-6.358 16.757s-1.03 5.075-1.92 7.956a52.062 52.062 0 0 0-1.34 5.962l-.06.367c0 .153-.047.283-.06.385l-.043.278s.464 3.637-.278 4.806c-.742 1.17-1.577 4.668-1.577 5.628s.07 4.667.07 4.667.273 7.344-.464 8.17c-.737.826-.348 1.508-.348 1.508s1.234 5.567.687 7.001c-.548 1.434-.135 4.802-.135 4.802s-1.099 10.643-1.234 11.19c-.134.548-.895 4.807-.07 5.15.826.343 2.399 2.398 2.399 2.398s.347 8.996-.89 9.678c-1.24.682-.553 4.176-.553 4.176s-9.943 1.92-12.206.82c-2.263-1.099-7.137-1.716-7.137-1.716l.681-2.254c-.041.078-.496.811-.82-2-.34-2.95 2.54-1.512 2.54-1.512s2.264.552-1.39-3.016c-3.655-3.568-1.856-7.21-1.647-7.21.209 0 .691-5.28.691-5.28s.617-3.159.135-5.632c-.483-2.472-.89-10.16-.89-10.16s.342-5.832-.274-7.957c-.617-2.124.408-5.975.616-6.866.21-.89-.64-9.038-.64-9.038s.687-3.841.274-6.653c-.413-2.811.413-13.18.413-13.18l1.233-11.942s.89-3.712.756-5.22c-.134-1.507 1.035-6.791 1.035-6.791a7.426 7.426 0 0 1 .547-3.294c.686-1.392.96-5.902.96-5.902l6.59-15.101 3.246-13.315 43.562-.413s.162 1.155.427 3.247c.264 2.093.635 5.201 1.048 9.038.38 3.484.798 7.58 1.201 12.141 1.317 14.559-1.465 17.166-1.465 17.166z"/>
        <path fill="#FBBEBE" fill-rule="nonzero" d="M413.115 128.234L402.96 139.08s-13.032-5.22-11.66-7.001c.53-.692.464-2.872.14-5.275-.464-3.805-1.512-8.18-1.512-8.18s22.776-3.711 20.87.135c-.7 1.392-.58 3.043-.144 4.56a17.168 17.168 0 0 0 2.462 4.914z"/>
        <path fill="#000" fill-rule="nonzero" d="M410.783 118.77c-.7 1.391-1.035 1.54-.599 3.057-2.977 3.187-6.766 6.685-11.478 6.685-2.522.004-5.01-.579-7.267-1.703-.464-3.804-1.512-8.179-1.512-8.179s22.776-3.711 20.856.14z" opacity=".1"/>
        <path fill="#FBBEBE" fill-rule="nonzero" d="M415.04 111.76c-.15 8.915-7.418 16.064-16.332 16.064-8.913 0-16.181-7.15-16.331-16.065v-.232c.064-9.022 7.427-16.283 16.445-16.22 9.018.065 16.277 7.43 16.213 16.452h.005z"/>
        <path fill="#000" fill-rule="nonzero" d="M417.4 219.528c-2.16 0-9.363.08-17.414.204h-.097l-2.658.047h-.083c-9.545.153-18.954-1.712-22.725-1.36-8.023.752 2.885-7.423 2.885-7.423a67.12 67.12 0 0 0 18.286 1.856l2.319-.12c7.29-.413 14.623-1.1 18.453-2.25.255 2.124.622 5.21 1.035 9.046z" opacity=".1"/>
        <path fill="#5F5D7E" fill-rule="nonzero" d="M417.4 219.115c-2.16 0-9.363.08-17.414.204h-.097l-2.658.047h-.083c-9.545.153-18.954-1.712-22.725-1.36-8.023.757 2.885-7.423 2.885-7.423a67.12 67.12 0 0 0 18.286 1.856l2.319-.12c7.29-.413 14.623-1.1 18.453-2.246.255 2.125.622 5.196 1.035 9.042z"/>
        <path fill="#000" fill-rule="nonzero" d="M394.319 132.762l-12.624 5.906-9.74 75.358s5.76-2.607 9.058-.96c3.298 1.647 13.45.139 13.45.139s7.42-.413 8.51.413c1.09.825 13.987-3.452 13.987-3.452s2.319-5.215.547-6.031c-1.771-.817.566-8.913.566-8.913l-1.113-54.36-2.198-7-5.9-3.568-6.028 4.801-2.88.413-5.635-2.746z" opacity=".1"/>
        <path fill="#E7EFFD" fill-rule="nonzero" d="M394.319 131.94l-12.624 5.902-9.74 75.363s5.76-2.608 9.058-.96c3.298 1.646 13.45.134 13.45.134s7.42-.408 8.51.413c1.09.821 13.996-3.433 13.996-3.433s2.32-5.215.548-6.032c-1.772-.816.556-8.935.556-8.935l-1.113-54.356-2.198-6.996-5.9-3.572-6.028 4.806-2.88.413-5.635-2.746z"/>
        <path fill="#000" fill-rule="nonzero" d="M394.11 135.439s3.636 4.324 3.571 5.219c-.065.895-.209 3.02-.209 3.02l-2.745 5.568s-1.507 6.93-1.507 8.374c0 1.443-2.403 13.918-2.403 13.918l-2.889 19.221-3.636 25.192 3.71 6.38 4.388-3.712 5.834-44.891 1.233-8.852s1.304-15.923 1.304-17.57c0-1.647-.752-5.97-.752-5.97s.89-4.12 4.596-5.104-.273-.209-.273-.209l-2.13-1.712-1.854.752s-5.139-1.545-6.238.376z" opacity=".1"/>
        <path fill="url(#p)" fill-rule="nonzero" d="M393.697 135.03s3.641 4.324 3.571 5.215c-.07.89-.208 3.02-.208 3.02l-2.741 5.568s-1.512 6.931-1.512 8.374c0 1.443-2.402 13.918-2.402 13.918l-2.88 19.217-3.636 25.192 3.71 6.384 4.392-3.712 5.83-44.886 1.238-8.848s1.303-15.922 1.303-17.57c0-1.646-.752-5.97-.752-5.97s.89-4.12 4.596-5.08-.273-.205-.273-.205l-2.129-1.716-1.855.756s-5.152-1.582-6.252.343z"/>
        <path fill="#000" fill-rule="nonzero" d="M391.3 127.82s-.552.414-.687 3.16c-.134 2.747-2.059 8.922-2.059 8.922s7.138-4.941 10.704-4.394l-7.958-7.687z" opacity=".1"/>
        <path fill="#E7EFFD" fill-rule="nonzero" d="M391.3 127s-.552.408-.687 3.154c-.134 2.747-2.059 8.922-2.059 8.922s7.138-4.941 10.704-4.389L391.3 127z"/>
        <path fill="#000" fill-rule="nonzero" d="M410.783 125.626l-11.26 9.882s9.47 5.628 10.703 7.001c1.234 1.373 2.467-13.454 2.467-13.454l-1.91-3.429z" opacity=".1"/>
        <path fill="#E7EFFD" fill-rule="nonzero" d="M411.195 124.8l-11.25 9.887s9.465 5.628 10.708 7.001c1.243 1.373 2.467-13.454 2.467-13.454l-1.925-3.434z"/>
        <path fill="#000" fill-rule="nonzero" d="M391.708 127.82s-1.234-.616-2.398 1.17a7.792 7.792 0 0 1-3.362 2.607s-12.49 1.99-12.986 3.638l-5.834.343s-2.059.274-2.263 4.598c-.204 4.323-1.303 4.736-1.303 4.736s-2.403 4.255-2.194 6.45c.209 2.194-1.855 3.298-1.855 3.298l8.575 22.306s.278 9.195-1.303 12.56c-1.582 3.363-4.526 18.255-4.526 18.255s1.233-.274 1.164.548c-.07.82-1.466 9.817-1.466 9.817s-.413 3.567-1.099 4.806c-.686 1.239-.756 7.683-.756 7.683l-1.094 4.667s2.606 5.837 6.585 5.01c3.98-.825 11.181-16.4 11.181-16.4l4.601-16.817 3.566-16.61 1.03-11.255 1.646-24.914 2.403-16.474s2.652-8.866 1.688-10.021z" opacity=".1"/>
        <path fill="#65617D" fill-rule="nonzero" d="M391.3 127s-1.239-.617-2.403 1.164a7.75 7.75 0 0 1-3.362 2.607s-12.485 1.99-12.985 3.638l-5.835.343s-2.054.278-2.263 4.602c-.209 4.324-1.303 4.733-1.303 4.733s-2.402 4.259-2.194 6.453c.21 2.194-1.855 3.294-1.855 3.294l8.58 22.306s.274 9.196-1.303 12.56c-1.577 3.363-4.531 18.26-4.531 18.26s1.233-.278 1.168.547c-.064.826-1.511 9.813-1.511 9.813s-.413 3.572-1.1 4.806c-.686 1.234-.75 7.688-.75 7.688l-1.1 4.667s2.606 5.832 6.586 5.01c3.979-.82 11.195-16.404 11.195-16.404l4.596-16.814 3.566-16.609 1.03-11.26 1.646-24.913 2.402-16.47s2.686-8.857 1.726-10.021z"/>
        <path fill="#000" fill-rule="nonzero" d="M347.251 180.121l-3.98 2.746s-6.084.195-10.434-.876l-2.212-.984-.464-.195.464.144c2.296.682 4.09.668 5.496.195 5.63-1.898 5.008-11.2 4.79-13.301 0-.214-.037-.348-.046-.4a.13.13 0 0 1 0-.027l.032.056a3.071 3.071 0 0 0 .51.63l1.99 3.976v.167l3.854 7.869z" opacity=".1"/>
        <path fill="#65617D" fill-rule="nonzero" d="M361.03 153.287l-1.925.547-.274 3.911s-2.263-.343-2.88 2.32-1.716 3.915-1.716 3.915-3.775 3.155-3.979 5.832l-2.319 1.443s-5.421-1.239-6.655-3.433c0 0 2.472 17.709-10.703 13.385 0 0 14.752 6.448 15.438 7.344.687.895 5.213 3.498 9.331 1.303 4.119-2.194 5.01-5.567 5.01-5.567s3.978-5.567 4.113-6.384c.134-.816 3.246-1.786 3.246-1.786l5.9-14.275-12.587-8.555z"/>
        <path fill="#000" fill-rule="nonzero" d="M409.206 133.861l1.99-9.06s.89 2.95 1.785 3.637l2.95 2.268s2.949 1.37 3.979 1.37c1.03 0 6.585 1.442 7.271 2.198.687.756 3.432.204 3.432.204s2.264.757 4.253 1.234c1.99.478 2.95 3.777 2.537 5.104a3.958 3.958 0 0 0 .96 3.711c.825.826 1.238 3.503 1.238 3.503a4.017 4.017 0 0 1 2.319 1.99c.686 1.508.464 4.802.464 4.802l-10.203 14.415s.134 5.567-.274 6.797c-.408 1.23 1.438 22.236 1.438 22.236l2.129 36.1s-2.815 2.403-3.432 2.677c-.617.273-1.234-12.763-1.234-13.246 0-.482-15.847-23.75-15.847-23.75s-2.129-3.428-2.129-4.175c0-.747-1.99-7.687-1.99-7.687l-3.018-13.385 1.382-40.943z" opacity=".1"/>
        <path fill="#65617D" fill-rule="nonzero" d="M443.26 154.029v.789L433.057 169.2s.14 5.567-.269 6.792c-.24.719.283 8.105.77 14.173.343 4.375.668 8.064.668 8.064l.904 15.31 1.22 20.784s-2.81 2.404-3.427 2.677c-.617.274-1.234-12.763-1.234-13.245 0-.483-15.851-23.745-15.851-23.745s-2.129-3.438-2.129-4.175c0-.738-1.99-7.688-1.99-7.688l-3.014-13.385 1.368-40.905 1.122-9.057s1.716 2.956 2.607 3.638l2.95 2.264s2.949 1.392 3.978 1.392c1.03 0 6.59 1.438 7.277 2.194.686.756 3.427.204 3.427.204s2.263.756 4.253 1.234c1.99.478 2.954 3.777 2.541 5.104a3.95 3.95 0 0 0 .96 3.711c.821.821 1.234 3.498 1.234 3.498a4.035 4.035 0 0 1 2.319 1.995c.491.998.538 2.905.52 3.995z"/>
        <path fill="#000" fill-rule="nonzero" d="M359.397 336.887c.339 0 14.748.548 14.474 2.881-.273 2.334-14.474-2.88-14.474-2.88zM362.62 340.798s9.674 1.578 7.133 3.02c-2.541 1.443-7.133-3.02-7.133-3.02zM398.595 335.375s16.055 1.391 13.653 3.16c-2.402 1.767-8.097 2.054-8.348 2.124-.25.07-5.305-5.284-5.305-5.284zM396.652 342.445s8.918 1.508 9.191 3.248c.274 1.74-9.191-3.248-9.191-3.248zM401.59 301.126s8.163 1.921 8.645 3.248l-8.644-3.248zM370.096 307.028s-4.253 1.234-.134 3.711c4.118 2.478.134-3.711.134-3.711zM388.967 241.07c.464 0 7.958-2.47 10.565-1.393a17.38 17.38 0 0 0 5.83 1.11l-16.395.282zM389.927 248.891l-.074.682-6.377 16.758s-1.03 5.075-1.92 7.956a52.062 52.062 0 0 0-1.34 5.962l5.662-35.13 4.049 3.772z" opacity=".1"/>
        <path fill="#3F3D56" fill-rule="nonzero" d="M399.889 219.32l-2.658.046h-.083l-1.558-6.918 2.318-.125z"/>
        <path fill="#FBBEBE" fill-rule="nonzero" d="M432.26 210.94l-1.712 1.392-5.7 4.7s-15.438 8.24-19.69.413c-3.748-6.894 13.754-11.816 17.97-12.888.57-.144.895-.218.895-.218l8.237 6.602z"/>
        <path fill="#000" fill-rule="nonzero" d="M366.326 143.47s3.019 1.391 3.71 3.294c.691 1.902-3.71-3.294-3.71-3.294zM356.995 164.06s-4.392 5.353-2.607 7.422c1.786 2.07 2.607-7.423 2.607-7.423zM435.483 146.49s-4.118.413-4.253 3.98l4.253-3.98zM397.338 202.77c.408-.412 9.878-14.414 12.058-13.175l-12.058 13.176zM415.04 111.76c.004 2.69-.66 5.34-1.934 7.71l-.12-.023c-1.035-.218-1.573-1.425-2.366-2.176a3.213 3.213 0 0 0-3.71-.52 3.772 3.772 0 0 0-1.818 3.521c-.524-2.199-.357-4.532-.867-6.736-.51-2.204-2.045-4.43-4.15-4.468-.928 0-1.963.33-2.621-.348-.394-.408-.464-1.053-.77-1.554-1.503-2.431-6.08-1.202-7.949.046-1.869 1.248-4.035 3.248-6.358 4.315.064-9.022 7.427-16.283 16.445-16.22 9.018.065 16.277 7.43 16.213 16.452h.005z" opacity=".1"/>
        <path fill="#7C5C5C" fill-rule="nonzero" d="M396.689 106.758c.297.496.375 1.141.77 1.55.653.681 1.715.329 2.62.347 2.105.037 3.64 2.264 4.15 4.468.51 2.204.344 4.537.868 6.736a3.763 3.763 0 0 1 1.822-3.52 3.213 3.213 0 0 1 3.71.519c.794.751 1.332 1.958 2.366 2.176 1.034.218 2.031-.775 2.407-1.856.375-1.081.348-2.287.593-3.42.464-2.138 1.855-3.896 2.635-5.933a10.753 10.753 0 0 0-.07-7.664c-.515-1.29-1.28-2.45-1.804-3.735-.788-1.958-.993-4.176-1.957-6.031-1.614-3.123-5.417-4.682-8.547-3.508-1.49.557-2.783 1.642-4.3 2.13-2.026.654-4.197.162-6.293-.13-2.096-.293-4.42-.32-6.108 1.057-1.943 1.592-2.472 4.58-4.299 6.324-.765.733-1.716 1.202-2.523 1.856-.807.654-1.507 1.684-1.391 2.783.12 1.42 1.512 2.71.997 4.027a3.247 3.247 0 0 1-.76 1.007 14.35 14.35 0 0 0-3.321 5.651c3.668 1.15 7.643-2.9 10.518-4.816 1.841-1.22 6.414-2.454 7.917-.018z"/>
        <path fill="#000" fill-rule="nonzero" d="M432.26 210.94l-1.712 1.392c-1.507-2.505-7.689-7.515-7.689-7.515l.27-.26c.57-.144.894-.218.894-.218l8.237 6.602z" opacity=".1"/>
        <path fill="#E7EFFD" fill-rule="nonzero" d="M433.906 208.398s-.617 1.531-1.247 2.849c-.631 1.317-1.327 2.524-1.36 1.545-.069-1.92-8.027-8.374-8.027-8.374l1.08-1.049 1.248-1.215 8.306 6.244z"/>
        <path fill="#000" fill-rule="nonzero" d="M434.18 198.238l.904 15.31c-2.133-3.317-7.986-11.817-11.747-11.543l9.113-10.49c.38-.422.73-.87 1.048-1.34.343 4.375.682 8.063.682 8.063z" opacity=".1"/>
        <path fill="#000" fill-rule="nonzero" d="M433.906 208.398s-.617 1.531-1.247 2.849c-2.393-3.28-5.682-7.154-8.307-7.887l1.248-1.216 8.306 6.254z" opacity=".1"/>
        <path fill="#65617D" fill-rule="nonzero" d="M440.765 152.874l2.472 1.92s4.114.07 4.526 3.503c.413 3.433 4.174 5.01 4.174 5.01s2.81 2.812 2.81 4.116c0 1.304 2.13 3.637 2.13 3.846 0 .209 2.059 4.393 1.78 5.145-.278.752 2.199 4.05 1.443 5.284a30.454 30.454 0 0 0-1.647 3.434s-3.223 6.18-4.87 7.344c-1.646 1.164-9.196 10.981-9.196 10.981s-8.093 9.335-8.093 12.216c0 0-7.884-13.176-12.558-12.833l9.127-10.503s1.576-1.712 1.646-2.742c.07-1.03 4.392-5.767 6.451-5.971 0 0 .339-2.816-.552-2.886-.89-.07-1.646-2.264-1.646-2.264s-6.03-7.135-6.108-11.668c-.079-4.533 8.111-13.932 8.111-13.932z"/>
        <path fill="#000" fill-rule="nonzero" d="M444.401 159.392s-5.76 4.259-4.526 5.628c1.233 1.368 4.526-5.628 4.526-5.628zM444.675 176.966s10.704-3.433 11.803 0h-11.803zM378.402 359.328s-5.764 3.776-8.644 3.248c-2.88-.53-5.835.965-5.835.965a17.381 17.381 0 0 1-7.276 4.736c-4.638 1.578-11.177.956-14.882-.278-1.753-.585-1.897-1.336-1.053-2.269 4.03.803 13.032 2.404 15.457 1.24 3.154-1.513 7.685-4.807 7.685-4.807s5.904-.822 6.725-.822c.584 0 5.143-1.883 7.717-2.96l.106.947zM413.31 367.048l-.06.38s-1.391 3.02-8.983 4.12c-7.592 1.1-7.615-2.542-7.615-2.542s.027-.39.074-.98c2.411.915 7.67 1.936 16.584-.978zM369.173 158.57s0 15.65-1.34 17.195c-1.34 1.544 1.34-17.194 1.34-17.194zM431.021 163.614l1.99 5.595s.793-5.493-1.99-5.595z" opacity=".1"/>
        <g fill="#000" fill-rule="nonzero" opacity=".1">
            <path d="M382.511 103.622c.501-1.29-.816-2.552-.988-3.935a2.58 2.58 0 0 0-.217 1.244c.088 1.039.853 2.009 1.057 2.974.057-.09.107-.185.148-.283zM405.282 118.403c-.491-2.162-.348-4.454-.848-6.62-.501-2.167-2.046-4.431-4.146-4.469-.928 0-1.967.335-2.62-.343-.4-.408-.465-1.058-.775-1.554-1.503-2.436-6.076-1.202-7.95.046-2.782 1.856-6.659 5.767-10.258 4.886-.171.413-.33.835-.464 1.266 3.669 1.15 7.643-2.9 10.519-4.815 1.855-1.244 6.446-2.478 7.949-.042.297.496.375 1.141.77 1.55.653.681 1.715.329 2.62.347 2.105.037 3.64 2.264 4.15 4.468.51 2.204.344 4.537.868 6.736-.034-.493.029-.987.185-1.456zM415.597 115.832c-.371 1.086-1.35 2.088-2.407 1.856-1.058-.232-1.573-1.424-2.361-2.18a3.245 3.245 0 0 0-3.71-.515 3.74 3.74 0 0 0-1.823 3.322 3.6 3.6 0 0 1 1.619-1.986 3.213 3.213 0 0 1 3.71.52c.793.751 1.33 1.957 2.365 2.175 1.034.218 2.031-.774 2.407-1.855a9.38 9.38 0 0 0 .376-1.972 5.151 5.151 0 0 1-.176.635zM418.824 106.48c-.77 2.036-2.17 3.79-2.634 5.933-.093.432-.148.872-.2 1.318.464-2.134 1.856-3.883 2.63-5.915.342-.915.556-1.872.636-2.844a10.39 10.39 0 0 1-.432 1.507z"/>
        </g>
        <ellipse cx="319.675" cy="156.01" fill="#E6E8EC" fill-rule="nonzero" rx="1" ry="1"/>
        <ellipse cx="378.917" cy="367.665" fill="#4363EC" fill-rule="nonzero" opacity=".1" rx="40.042" ry="4.087"/>
        <path fill="#DCDFED" fill-rule="nonzero" d="M231.675 99.557l-121.28 78.713 79.147 142.801a5.524 5.524 0 0 0 3.525 2.691l71.712 17.5a5.527 5.527 0 0 0 6.28-2.974l35.57-73.929 38.985-52.133-92.513-109.49c-5.326-6.301-14.501-7.662-21.426-3.179z"/>
        <path fill="url(#q)" fill-rule="nonzero" d="M346.848 212.843l-.344.464-22.836 30.541-.412.552-15.393 20.585-30.423 63.24-.853 1.768-4.295 8.921a5.527 5.527 0 0 1-6.289 2.974l-71.712-17.509a5.514 5.514 0 0 1-3.525-2.69l-6.896-12.42-1.238-2.237-49.776-89.847-.427-.765-20.805-37.533 2.514-1.633 19.056-12.364.44-.288 40.13-26.046 2.533-1.642 56.603-36.74c6.924-4.492 16.108-3.132 21.435 3.174l42.203 49.966 1.855 2.227 30.632 36.253.167.2 15.402 18.223 1.938 2.296.316.33z" opacity=".1"/>
        <path fill="#000" fill-rule="nonzero" d="M328.005 191.376l-3.738 25.981-1.127 7.84-.645 16.703-.05 1.303-3.354 87.268a5.535 5.535 0 0 1-6.73 5.182l-36.145-8.073-.39-.088-92.703-20.696-1.702-.38-50.963-11.386 1.169-78.462.037-2.621.352-23.75.39-26.212 40.13-26.046 2.532-1.642c37.222 3.818 86.724 11.162 120.26 16.4l1.855 2.227 30.608 36.253.214.2z" opacity=".1"/>
        <path fill="url(#r)" fill-rule="nonzero" d="M332.239 160.57l-4.401 30.62-4.035 28.041-1.127 7.822-.645 16.702-3.404 88.572a5.535 5.535 0 0 1-6.729 5.182l-36.536-8.161-92.702-20.696-52.666-11.766 1.206-81.083.352-23.75.413-27.78.422-28.575c8.71-.412 23.04.52 40.149 2.241 38.307 3.846 90.527 11.627 124.67 16.985 20.906 3.28 35.033 5.646 35.033 5.646z"/>
        <path fill="#000" fill-rule="nonzero" d="M343.406 209.6l-19.603 9.617-100.049 49.085-92.202-76.23-18.638-15.435-2.514 1.633 20.805 37.533-1.206 81.083 52.665 11.766 6.883 12.42a5.514 5.514 0 0 0 3.524 2.69l71.713 17.5a5.527 5.527 0 0 0 6.275-2.974l4.294-8.921 36.536 8.16a5.531 5.531 0 0 0 6.729-5.182l3.404-88.571 23.249-31.084.065-.784-1.93-2.306z" opacity=".1"/>
        <path fill="#DCDFED" fill-rule="nonzero" d="M110.395 178.27l-8.269 141.655a5.53 5.53 0 0 0 4.318 5.72l219.604 48.784a5.526 5.526 0 0 0 6.692-4.95l12.87-157.253-121.856 59.788-113.359-93.744z"/>
        <path fill="#000" fill-rule="nonzero" d="M103.638 323.168l114.087-70.412a8.373 8.373 0 0 1 10.667 1.67l102.112 119.136c.371.427.552.12 0 0l-226.866-50.394c-.649-.144-.566.339 0 0z" opacity=".1"/>
        <path fill="url(#s)" fill-rule="nonzero" d="M104.454 323.052l112.91-68.232a8.851 8.851 0 0 1 11.26 1.773l101.19 116.417a1.22 1.22 0 0 1-1.183 1.99l-223.81-49.716a1.215 1.215 0 0 1-.367-2.232z"/>
    </g>
</svg>
