<svg xmlns="http://www.w3.org/2000/svg" width="325" height="280" viewBox="0 0 325 280">
    <defs>
        <linearGradient id="a" x1="50%" x2="50%" y1="0%" y2="100%">
            <stop offset="0%" stop-color="#789CF7"/>
            <stop offset="99.427%" stop-color="#0B39FF"/>
        </linearGradient>
        <linearGradient id="b" x1="50%" x2="50%" y1="0%" y2="100%">
            <stop offset="0%" stop-color="#789CF7"/>
            <stop offset="99.427%" stop-color="#0B39FF"/>
        </linearGradient>
        <linearGradient id="c" x1="50%" x2="50%" y1="0%" y2="100%">
            <stop offset="0%" stop-color="#A6A4BF"/>
            <stop offset="100%" stop-color="#DDDCED"/>
        </linearGradient>
        <linearGradient id="d" x1="50%" x2="50%" y1="0%" y2="100%">
            <stop offset="0%" stop-color="#A6A4BF"/>
            <stop offset="100%" stop-color="#DDDCED"/>
        </linearGradient>
        <linearGradient id="e" x1="50%" x2="50%" y1="0%" y2="100%">
            <stop offset="0%" stop-color="#A6A4BF"/>
            <stop offset="100%" stop-color="#DDDCED"/>
        </linearGradient>
        <linearGradient id="f" x1="50%" x2="50%" y1="0%" y2="100%">
            <stop offset="0%" stop-color="#A6A4BF"/>
            <stop offset="100%" stop-color="#DDDCED"/>
        </linearGradient>
        <linearGradient id="g" x1="50%" x2="50%" y1="0%" y2="100%">
            <stop offset="0%" stop-color="#A6A4BF"/>
            <stop offset="100%" stop-color="#DDDCED"/>
        </linearGradient>
        <linearGradient id="h" x1="4.162%" y1="4.37%" y2="99.773%">
            <stop offset="0%" stop-color="#C0D2FF"/>
            <stop offset="100%" stop-color="#0030FF"/>
        </linearGradient>
        <linearGradient id="i" x1="0%" y1=".227%" y2="99.773%">
            <stop offset="4.162%" stop-color="#C0D2FF"/>
            <stop offset="100%" stop-color="#0030FF"/>
        </linearGradient>
        <linearGradient id="j" x1="99.983%" x2=".019%" y1="50%" y2="50%">
            <stop offset="0%" stop-color="gray" stop-opacity=".25"/>
            <stop offset="54%" stop-color="gray" stop-opacity=".12"/>
            <stop offset="100%" stop-color="gray" stop-opacity=".1"/>
        </linearGradient>
    </defs>
    <g fill="none" fill-rule="evenodd">
        <ellipse cx="281.588" cy="272.99" fill="#4363EC" fill-rule="nonzero" opacity=".1" rx="26.406" ry="6.994"/>
        <path fill="#1A3CFA" fill-rule="nonzero" d="M312.388 226.127c-7.106 5.88-17.217 8.315-26.995 9.852l-1.646.25c-10.213 1.52-20.54 2.33-30.901 2.822-5.545.267-11.089.457-16.633.626l-4.345.128c-5.641.167-11.294.33-16.957.492-5.544.157-11.088.304-16.632.442-7.1.173-14.201.317-21.302.431-5.544.087-11.088.148-16.632.18a1391.5 1391.5 0 0 1-21.302-.04c-5.548-.056-11.092-.154-16.632-.291a896.096 896.096 0 0 1-21.302-.801c-4.817-.235-9.63-.517-14.441-.847l-2.192-.154c-20.65-1.485-41.672-4.15-59.743-12.569l-.487-.23c-.242-.113-.485-.227-.727-.346a65.43 65.43 0 0 1-9.5-5.558c-5.344-3.803-9.756-8.443-12.087-13.949-3.654-8.635-1.722-18.341 2.45-26.784 4.174-8.444 10.439-16.066 15.857-24.017a101.825 101.825 0 0 0 4.494-7.223c8.754-15.538 13.096-60.506 3.919-75.48a66.549 66.549 0 0 0-3.919-5.531c-2.238-2.912-4.514-5.823-6.052-9.046-3.586-7.5-2.816-15.934-1.509-23.946 1.751-10.653 4.961-22.127 14.993-28.782 10.409-6.912 25.183-6.563 38.1-4.076 20.085 3.84 38.623 11.878 57.337 19.128 18.713 7.249 38.316 13.878 58.891 14.592 4.42.15 8.845-.01 13.242-.48a84.149 84.149 0 0 0 17.251-3.626c8.098-2.66 15.466-6.664 20.928-12.227 11.716-11.893 33.732-12.793 49.606-5.61 15.148 6.853 24.943 21.357 24.22 35.844-.823 16.127-12.927 29.385-24.018 42.984a259.224 259.224 0 0 0-3.966 4.967c-.722.93-1.43 1.861-2.124 2.795-1.217 1.648-2.393 30.292-3.502 31.97-5.667 8.597-9.673 18.923-5.772 28.205 2.189 5.197 6.365 9.162 11.398 12.624 11.278 7.753 26.846 12.97 33.849 23.823 6.034 9.355 3.8 21.981-5.217 29.458z" opacity=".1"/>
        <ellipse cx="56.463" cy="268.852" fill="url(#a)" fill-rule="nonzero" rx="16.636" ry="3.191"/>
        <ellipse cx="56.186" cy="267.495" fill="#3F3D56" fill-rule="nonzero" rx="1.938" ry="2.53"/>
        <ellipse cx="56.186" cy="264.403" fill="#3F3D56" fill-rule="nonzero" rx="1.938" ry="2.53"/>
        <ellipse cx="56.186" cy="261.311" fill="#3F3D56" fill-rule="nonzero" rx="1.938" ry="2.53"/>
        <ellipse cx="56.186" cy="258.22" fill="#3F3D56" fill-rule="nonzero" rx="1.938" ry="2.53"/>
        <ellipse cx="56.186" cy="255.128" fill="#3F3D56" fill-rule="nonzero" rx="1.938" ry="2.53"/>
        <ellipse cx="56.186" cy="252.036" fill="#3F3D56" fill-rule="nonzero" rx="1.938" ry="2.53"/>
        <ellipse cx="56.186" cy="248.944" fill="#3F3D56" fill-rule="nonzero" rx="1.938" ry="2.53"/>
        <path fill="#1C49FE" fill-rule="nonzero" d="M63.438 227.784c.264-.337.504-.69.72-1.06l-5.089-.835 5.504.043a9.265 9.265 0 0 0 .178-7.336l-7.386 3.822 6.81-5.004a9.284 9.284 0 0 0-8.478-4.605 9.28 9.28 0 0 0-7.991 5.403 9.241 9.241 0 0 0 1.144 9.563 9.313 9.313 0 0 0-1.056 1.689l6.606 3.424-7.044-2.359a9.247 9.247 0 0 0 1.494 8.694 9.243 9.243 0 0 0 1 12.523 9.295 9.295 0 0 0 12.591 0 9.243 9.243 0 0 0 1-12.523 9.248 9.248 0 0 0 0-11.448l-.003.009z"/>
        <path fill="url(#b)" fill-rule="nonzero" d="M46.866 233.508a9.208 9.208 0 0 0 1.984 5.723 9.243 9.243 0 0 0 1 12.524 9.295 9.295 0 0 0 12.591 0 9.243 9.243 0 0 0 1-12.524c1.24-1.575-16.575-6.763-16.575-5.723z" opacity=".1"/>
        <path fill="url(#c)" fill-rule="nonzero" d="M101.11 200.819v65.797c-4.818-.235-9.631-.517-14.442-.847l-2.192-.155V200.82c0-.681.272-1.335.754-1.816a2.577 2.577 0 0 1 1.82-.752h11.485c.683 0 1.338.27 1.82.752.483.481.754 1.135.754 1.816z"/>
        <path fill="url(#d)" fill-rule="nonzero" d="M122.41 267.434V156.857a2.57 2.57 0 0 1 2.574-2.568h11.486c.682 0 1.337.27 1.82.752.482.481.753 1.135.753 1.816v110.865l-16.632-.288z"/>
        <path fill="url(#e)" fill-rule="nonzero" d="M160.345 267.78v-87.923a2.57 2.57 0 0 1 2.573-2.568h11.486a2.57 2.57 0 0 1 2.573 2.568v87.734l-16.632.19z"/>
        <path fill="url(#f)" fill-rule="nonzero" d="M214.911 114.642v152.076c-5.544.157-11.088.305-16.632.442V114.642a2.57 2.57 0 0 1 2.573-2.568h11.486a2.57 2.57 0 0 1 2.573 2.568z"/>
        <path fill="url(#g)" fill-rule="nonzero" d="M252.846 92.984V265.18c-5.545.384-11.089.655-16.633.896V92.984c0-2.031 1.152-3.678 2.574-3.678h11.485c1.421 0 2.574 1.647 2.574 3.678z"/>
        <path stroke="#3F3D56" stroke-linecap="round" stroke-width="2.036" d="M92.939 162.447l37.934-42.216 37.934 21.254 37.934-65.216 36.332-8.124"/>
        <ellipse cx="92.793" cy="162.447" fill="url(#h)" fill-rule="nonzero" rx="8.17" ry="8.152"/>
        <ellipse cx="130.727" cy="120.231" fill="url(#i)" fill-rule="nonzero" rx="8.17" ry="8.152"/>
        <ellipse cx="168.661" cy="141.485" fill="url(#i)" fill-rule="nonzero" rx="8.17" ry="8.152"/>
        <ellipse cx="206.595" cy="76.269" fill="url(#i)" fill-rule="nonzero" rx="8.17" ry="8.152"/>
        <ellipse cx="275.618" cy="112.056" fill="url(#i)" fill-rule="nonzero" rx="8.17" ry="8.152"/>
        <ellipse cx="68.188" cy="260.619" fill="#4363EC" fill-rule="nonzero" opacity=".1" rx="5.451" ry="1"/>
        <path fill="#A8A8A8" fill-rule="nonzero" d="M64.529 256.348s3.108-.097 4.044-.763c.937-.667 4.783-1.456 5.016-.393.234 1.062 4.67 5.31 1.168 5.34-3.502.028-8.156-.548-9.09-1.116-.934-.568-1.138-3.068-1.138-3.068z"/>
        <path fill="#000" fill-rule="nonzero" d="M74.812 260.159c-3.502.029-8.153-.545-9.09-1.113-.712-.433-.995-1.985-1.091-2.701h-.102s.195 2.5 1.132 3.068c.937.568 5.58 1.144 9.09 1.115 1.012 0 1.362-.367 1.342-.9-.14.324-.525.525-1.281.53z" opacity=".2"/>
        <ellipse cx="310.418" cy="268.421" fill="#4363EC" fill-rule="nonzero" opacity=".1" rx="10.012" ry="1.689"/>
        <path fill="#A8A8A8" fill-rule="nonzero" d="M303.704 260.575s5.71-.175 7.432-1.398c1.721-1.222 8.783-2.681 9.209-.722.426 1.96 8.585 9.754 2.136 9.806-6.449.052-14.981-1.002-16.7-2.038-1.718-1.036-2.077-5.648-2.077-5.648z"/>
        <path fill="#000" fill-rule="nonzero" d="M322.589 267.58c-6.449.052-14.981-1.002-16.7-2.038-1.307-.795-1.83-3.648-2.004-4.95h-.19s.362 4.597 2.077 5.64c1.716 1.042 10.254 2.099 16.7 2.038 1.862 0 2.504-.676 2.469-1.654-.26.582-.969.952-2.352.964z" opacity=".2"/>
        <g fill-rule="nonzero" transform="translate(236.98 114.699)">
            <path fill="url(#j)" d="M.058 6.317A3.24 3.24 0 0 0 .78 8.035c.523.591 1.305.861 2.008 1.214a7.926 7.926 0 0 1 3.879 4.456c1.2 3.5 1.355 7.203 2.883 10.581 1.529 3.379 3.324 6.624 4.643 10.085.75 1.963 1.348 4.005 2.448 5.792a8.985 8.985 0 0 0 2.007 2.308 53.186 53.186 0 0 0-.108 3.79c.495-.01.96.234 1.233.648.267.41.45.87.54 1.35.494 2.043-.115 4.218.329 6.271a31.873 31.873 0 0 1-1.082 17.159c-.494 1.397-1.114 6.022-.587 7.408 1.96-.198 3.698 1.005 5.533 1.801a7.601 7.601 0 0 1-.26 3.242c-.66 1.898-.656 3.962-.645 5.968l.09 14.86c0 1.884.025 3.793.498 5.62.537 2.056 1.665 4.152 1.629 6.277-.097 4.574 2.065 8.932 1.892 13.47-.032.872-.151 1.736-.234 2.6a29.561 29.561 0 0 0 .173 6.913c.656 4.56 2.39 9.043 1.957 13.628-.029.31-.133.72-.425.84.36.407.742.81 1.132 1.195a1.027 1.027 0 0 1-.314.328 3.188 3.188 0 0 1-1.377.36 2.918 2.918 0 0 0-1.575.512 2.265 2.265 0 0 0-.656 1.203 3.24 3.24 0 0 0 .433 2.694c.321.405.742.72 1.221.915 1.666.72 3.576.198 5.314-.328l6.805-2.06a2.293 2.293 0 0 0 1.107-.577 1.21 1.21 0 0 0 .27-.583c1.503.36 3.154-.083 4.686-.54l6.806-2.064a2.26 2.26 0 0 0 1.106-.576c.248-.302.35-.697.278-1.08.05-.022.1-.037.151-.062.52-.234 1.082-.692.955-1.243-.09-.36-.45-.569-.605-.9a1.3 1.3 0 0 1 .252-1.272c.267-.36.627-.659.872-1.037.786-1.203.253-2.784-.043-4.192-.638-3.008-.047-6.148-.45-9.195-.137-1.027-.386-2.035-.584-3.055-.42-2.409-.698-4.84-.833-7.282-.26-3.487-1.23-6.923-.674-10.38.27-2.03.384-4.077.342-6.123a26.632 26.632 0 0 0-.17-3.905c-.14-.965-.388-1.912-.497-2.881a26.099 26.099 0 0 1-.057-3.274 32.362 32.362 0 0 0-.67-7.247c-.722-3.274-2.077-6.407-2.654-9.688.195.043.39.086.577.137.022-2.522-2.188-8.003-3.006-10.395a3.02 3.02 0 0 1-.216-.918c.05-.417.125-.83.227-1.236.104-.871-.36-1.7-.487-2.571a6.028 6.028 0 0 1 .133-1.83c.58-3.224 1.302-6.422 2.023-9.617.314-1.157.423-2.36.32-3.555a4.46 4.46 0 0 1 1.082-3.54 4.2 4.2 0 0 0 .8-1.005c.12-.32.174-.663.159-1.005a16.135 16.135 0 0 0-.65-4.376c.635-1.149.87-2.56 1.053-3.893.404-2.943.808-5.9.793-8.871a15.026 15.026 0 0 0-.648-4.683 18.574 18.574 0 0 0-1.233-2.715c-1.896-3.649-3.71-7.488-6.103-10.83-.72-1.016-.267-2.417-.216-3.67.054-1.514-.544-2.965-1.132-4.355A7.144 7.144 0 0 0 41.872.72 2.203 2.203 0 0 0 40.286 0a2.39 2.39 0 0 0-1.69 1.034A5.568 5.568 0 0 0 37.581 5.2a8.054 8.054 0 0 0 1.835 3.937 8.926 8.926 0 0 0 1.582 1.501c.596 1.893 1.197 3.783 1.803 5.673.951 3.008 1.903 6.03 3.244 8.875.393.825.825 1.664.872 2.575.05.983-.36 1.92-.688 2.845a20.065 20.065 0 0 0-1.161 6 2.066 2.066 0 0 0-.303.167c-1.135.741-1.492 2.359-2.674 3.021-.689.386-1.525.36-2.297.537-.068 0-.137.036-.209.058-.028-.144-.057-.285-.075-.433a1.162 1.162 0 0 1 0-.277 12.104 12.104 0 0 0 4.48-4.264 3.9 3.9 0 0 0 .53-1.08c.097-.463.116-.938.054-1.405a22.4 22.4 0 0 0-.667-4.629 7.696 7.696 0 0 0-2.411-3.922c-.591-.475-1.273-.832-1.86-1.311-1.146-.926-1.932-2.294-3.244-2.982a3.906 3.906 0 0 0-4.906 1.268c-.175.351-.42.662-.721.914a7.41 7.41 0 0 0-.67.36c-.397.318-.419.926-.289 1.42.246 1.014.384 2.05.411 3.094a7.559 7.559 0 0 0-.022 9.785c0 .67 0 1.34-.025 2.01 0 .126 0 .256-.025.382a2.6 2.6 0 0 1-1.081-.72c-.404-.505-.476-1.247-.97-1.66a2.737 2.737 0 0 0-1.182-.433 7.345 7.345 0 0 1-2.884-1.365c-.667-.515-1.359-1.174-2.138-1.325a47.384 47.384 0 0 0-4.686-7.146c-.45-.53-.86-1.092-1.225-1.682-.775-1.35-1.006-2.94-1.496-4.42-1.37-4.149-4.787-7.477-5.62-11.77-.302-1.556-1.29-2.91-1.968-4.344-.458-.969-.962-1.991-1.878-2.546-1.178-.72-2.808-.39-3.788.58A4.547 4.547 0 0 0 .058 6.317zm42.798 145.758a3.188 3.188 0 0 1-1.377.36 6.648 6.648 0 0 0-.721.116c-.09-.757-.14-1.524-.198-2.27-.191-2.445-.573-4.872-.952-7.296-.396-2.522-.584-5.28-1.442-7.7-1.38-3.941-2.779-8-2.602-12.175.04-.947.158-1.887.209-2.83.115-2.338-.213-4.726.36-6.999.256-1.033.692-2.02.858-3.072.106-.95.118-1.908.036-2.86a37.98 37.98 0 0 1 .818-9.85c.67.875.89 2.006 1.082 3.09l1.351 7.326c.804 4.347 1.514 8.957 3.645 12.825-.3 1.394-.595 2.882-.101 4.214.212.577.562 1.08.778 1.664.36.97.31 2.035.419 3.062.234 2.16 1.128 4.286.472 6.371a31.057 31.057 0 0 0-1.309 6.613 16.091 16.091 0 0 1-.216 1.862c-.115.555-.303 1.08-.407 1.65a5.46 5.46 0 0 0 .104 2.402c.162.434.262.889.296 1.35 0 .462-.566.793-1.02.865.133.173.277.339.425.5a1.577 1.577 0 0 1-.508.782z"/>
            <path fill="#3F3D56" d="M28.621 156.232a2.918 2.918 0 0 0-1.575.511c-.339.32-.568.738-.656 1.196-.259.91-.1 1.89.433 2.672.322.404.742.718 1.221.912 1.666.72 3.576.194 5.314-.328l6.805-2.046a2.286 2.286 0 0 0 1.107-.573 1.5 1.5 0 0 0 .029-1.75 3.402 3.402 0 0 0-1.442-1.149c-2.116-1.03-4.502-1.264-6.827-1.307-.865 0-1.72-.21-2.307.457-.31.36-.253.746-.721 1.052-.429.218-.9.339-1.38.353z"/>
            <path fill="#3F3D56" d="M41.479 152.493a2.947 2.947 0 0 0-1.575.512c-.338.32-.568.738-.656 1.195-.259.912-.1 1.892.432 2.676.323.402.744.714 1.222.908 1.669.72 3.576.198 5.313-.324l6.806-2.05a2.286 2.286 0 0 0 1.106-.572 1.497 1.497 0 0 0 .03-1.747 3.413 3.413 0 0 0-1.443-1.149c-2.12-1.03-4.505-1.268-6.83-1.31-.865 0-1.716-.206-2.307.46-.31.36-.253.742-.721 1.048a3.138 3.138 0 0 1-1.377.353z"/>
            <path fill="#696791" d="M35.564 78.694a83.906 83.906 0 0 1 12.071-.339c.266-.002.53.039.783.123.886.36 1.023 1.52 1.106 2.467.36 3.847 2.04 7.43 2.884 11.198a31.97 31.97 0 0 1 .67 7.203 25.81 25.81 0 0 0 .058 3.242c.108.961.36 1.905.498 2.863.152 1.287.208 2.584.169 3.88a39.764 39.764 0 0 1-.342 6.075c-.556 3.433.414 6.844.674 10.316.129 2.428.402 4.847.818 7.243.198 1.012.447 2.013.584 3.032.403 3.03-.188 6.148.45 9.138.296 1.397.83 2.968.044 4.163-.246.36-.606.667-.873 1.03a1.285 1.285 0 0 0-.252 1.265c.155.327.515.544.606.893.14.551-.437 1.001-.956 1.235-3.91 1.765-8.954.523-11.592-2.86.454-.071 1.01-.4 1.02-.86a4.859 4.859 0 0 0-.296-1.34 5.398 5.398 0 0 1-.104-2.384c.104-.555.292-1.08.407-1.64.108-.612.18-1.23.217-1.85a30.669 30.669 0 0 1 1.308-6.57c.656-2.071-.238-4.167-.472-6.328-.108-1.023-.062-2.078-.418-3.044-.217-.569-.566-1.08-.779-1.65-.494-1.328-.198-2.805.101-4.188-2.13-3.843-2.84-8.424-3.644-12.743l-1.352-7.275c-.202-1.08-.422-2.201-1.081-3.073a37.486 37.486 0 0 0-.819 9.786c.082.946.07 1.898-.036 2.842-.165 1.044-.602 2.028-.858 3.05-.558 2.259-.23 4.629-.36 6.952-.05.94-.17 1.873-.21 2.813-.176 4.149 1.223 8.183 2.603 12.098.848 2.402 1.035 5.132 1.442 7.646.36 2.41.76 4.82.952 7.25.177 2.234.256 4.65 1.647 6.405-1.272.824-2.584 1.664-4.073 1.948a7.524 7.524 0 0 1-5.018-.972 15.781 15.781 0 0 1-3.965-3.368c.292-.1.397-.526.426-.832.432-4.56-1.302-9.004-1.958-13.542a29.15 29.15 0 0 1-.173-6.865c.083-.861.202-1.722.235-2.586.173-4.506-2-8.846-1.922-13.355.036-2.115-1.081-4.196-1.629-6.239-.472-1.8-.487-3.71-.497-5.582l-.09-14.767c0-1.996 0-4.042.645-5.925.793-2.27-.116-4.873-.253-7.272a30.02 30.02 0 0 0 11.604 1.293z"/>
            <path fill="#A0616A" d="M22.713 36.266a47.055 47.055 0 0 0-5.518-8.706c-.45-.525-.86-1.084-1.226-1.67-.775-1.344-1.006-2.922-1.496-4.391-1.37-4.12-4.787-7.43-5.62-11.692-.302-1.548-1.29-2.88-1.968-4.322-.457-.961-.962-1.977-1.878-2.52-1.178-.721-2.808-.39-3.788.575a4.496 4.496 0 0 0-1.16 3.8c.067.628.318 1.221.72 1.708.523.587 1.305.853 2.008 1.206a7.883 7.883 0 0 1 3.879 4.427c1.2 3.475 1.355 7.156 2.883 10.513 1.529 3.357 3.324 6.577 4.643 10.01.75 1.948 1.348 3.961 2.448 5.762 1.099 1.8 2.815 3.31 4.887 3.58a12.039 12.039 0 0 1 .588-3.847c.45-1.419 1.25-3.09.598-4.433zM45.03 38.96a19.889 19.889 0 0 1 1.17-7.485c.332-.918.722-1.85.69-2.827-.048-.908-.48-1.74-.873-2.56-1.355-2.828-2.307-5.825-3.244-8.814l-1.802-5.637a8.76 8.76 0 0 1-1.583-1.495 7.957 7.957 0 0 1-1.835-3.911 5.49 5.49 0 0 1 1.013-4.135 2.397 2.397 0 0 1 1.69-1.03 2.214 2.214 0 0 1 1.587.72A7.098 7.098 0 0 1 43.198 4.1c.588 1.383 1.186 2.824 1.132 4.322-.05 1.246-.515 2.636.216 3.648 2.394 3.321 4.207 7.135 6.103 10.762.484.865.896 1.767 1.233 2.698.463 1.51.682 3.082.649 4.66 0 2.95-.39 5.89-.793 8.814-.256 1.833-.592 3.829-1.98 5.042-1.441-1.844-2.89-3.645-4.729-5.085z"/>
            <ellipse cx="35.859" cy="32.891" fill="#A0616A" rx="7.48" ry="7.474"/>
            <path fill="#A0616A" d="M39.482 40.76c.18 1.351.905 2.561 1.611 3.728.425.72.97 1.488 1.802 1.567a36.348 36.348 0 0 1-6.794 2.73c-.8.269-1.637.404-2.48.4a6.072 6.072 0 0 1-2.066-.53 10.264 10.264 0 0 1-5.835-6.814c.93.025 1.862-.046 2.779-.212a2.044 2.044 0 0 0 1.362-.67 2.16 2.16 0 0 0 .281-1.203c.036-1.246.04-2.496 0-3.742a14.79 14.79 0 0 1 5.436.67c.721.234 1.442.515 2.163.698.454.115 1.705 0 2.04.263.552.371-.425 2.197-.3 3.116z"/>
            <path fill="#FF9601" d="M36.194 45.302a4.705 4.705 0 0 1 3.583-4.181c.772-.173 1.608-.151 2.297-.533 1.182-.66 1.539-2.266 2.674-3.004 1.136-.738 2.747-.328 3.735.605.987.933 1.488 2.262 1.892 3.562.603 1.758.93 3.599.97 5.457.015.34-.04.679-.159.997a4.164 4.164 0 0 1-.8.998 4.413 4.413 0 0 0-1.082 3.519 10.077 10.077 0 0 1-.32 3.53c-.721 3.176-1.442 6.35-2.023 9.555a5.927 5.927 0 0 0-.133 1.8c.112.869.591 1.69.487 2.558a9.67 9.67 0 0 0-.227 1.228c.023.314.096.621.216.911.818 2.374 3.028 7.813 3.006 10.327-3.839-.984-9.498-1.203-13.463-1.221-1.09-.012-2.18.036-3.266.144-2.606.28-5.273 1.04-7.8.338-2.347-.652-4.423-2.52-6.849-2.287-.526-1.376.094-5.968.588-7.358A31.47 31.47 0 0 0 20.6 55.2c-.443-2.039.166-4.203-.328-6.227a3.712 3.712 0 0 0-.54-1.344 1.442 1.442 0 0 0-1.234-.645 45.847 45.847 0 0 1 .902-9.699c.238-1.135.72-2.474 1.885-2.669 1.03-.176 1.896.695 2.725 1.333a7.324 7.324 0 0 0 2.884 1.354c.422.05.827.198 1.182.432.494.41.566 1.15.97 1.65.72.897 2.332.821 2.844 1.855.111.308.202.623.27.943a3.465 3.465 0 0 0 1.19 1.535 6.692 6.692 0 0 0 2.843 1.584z"/>
            <path fill="#2D293D" d="M29.782 24.946c-.13-.494-.108-1.081.288-1.412.199-.155.458-.213.67-.36.3-.252.546-.562.722-.912a3.917 3.917 0 0 1 4.898-1.242c1.302.68 2.087 2.042 3.244 2.96.588.476 1.27.829 1.86 1.304a7.638 7.638 0 0 1 2.412 3.897c.383 1.504.607 3.045.667 4.596.061.465.043.938-.054 1.397a3.91 3.91 0 0 1-.53 1.08c-1.19 1.802-2.758 3.437-4.722 4.366-1.965.93-4.355 1.08-6.294.108a1.081 1.081 0 0 1-.483-.385 1.386 1.386 0 0 1-.076-.832 5.69 5.69 0 0 0-.627-3.188c-.36-.72-.9-1.34-1.19-2.085a7.26 7.26 0 0 1-.338-2.586c-.033-2.266.122-4.524-.447-6.706z"/>
        </g>
    </g>
</svg>
