<svg xmlns="http://www.w3.org/2000/svg" width="265" height="200" viewBox="0 0 265 200">
    <defs>
        <linearGradient id="a" x1="50.001%" x2="50.001%" y1="100%" y2=".008%">
            <stop offset="0%" stop-color="gray" stop-opacity=".25"/>
            <stop offset="54%" stop-color="gray" stop-opacity=".12"/>
            <stop offset="100%" stop-color="gray" stop-opacity=".1"/>
        </linearGradient>
        <linearGradient id="b" x1="49.974%" x2="49.974%" y1="100.001%" y2="0%">
            <stop offset="0%" stop-color="gray" stop-opacity=".25"/>
            <stop offset="54%" stop-color="gray" stop-opacity=".12"/>
            <stop offset="100%" stop-color="gray" stop-opacity=".1"/>
        </linearGradient>
        <linearGradient id="c" x1="50.021%" x2="50.021%" y1="99.975%" y2="-.017%">
            <stop offset="0%" stop-color="gray" stop-opacity=".25"/>
            <stop offset="54%" stop-color="gray" stop-opacity=".12"/>
            <stop offset="100%" stop-color="gray" stop-opacity=".1"/>
        </linearGradient>
        <linearGradient id="d" x1="49.989%" x2="49.989%" y1="100%" y2="-.003%">
            <stop offset="0%" stop-color="gray" stop-opacity=".25"/>
            <stop offset="54%" stop-color="gray" stop-opacity=".12"/>
            <stop offset="100%" stop-color="gray" stop-opacity=".1"/>
        </linearGradient>
        <linearGradient id="e" x1="49.963%" x2="49.963%" y1="99.964%" y2=".021%">
            <stop offset="0%" stop-color="gray" stop-opacity=".25"/>
            <stop offset="54%" stop-color="gray" stop-opacity=".12"/>
            <stop offset="100%" stop-color="gray" stop-opacity=".1"/>
        </linearGradient>
    </defs>
    <g fill="none" fill-rule="evenodd">
        <path fill="#1A3CFA" fill-rule="nonzero" d="M3.09 94.537c4.188 16.314 13.054 30.416 27.067 37.251 29.134 14.207 94.798 6.88 143.812-1.53 25.36-4.351 47.635-16.349 63.826-33.256L3.09 94.537zM260.126 17.749h-26.893c-1.28 0-2.327-.954-2.327-2.119 0-1.165 1.045-2.118 2.327-2.118h4.653c-1.28 0-2.327-.954-2.327-2.119 0-1.165 1.045-2.116 2.327-2.116h-3.32c-1.28 0-2.327-.954-2.327-2.119 0-1.165 1.045-2.118 2.327-2.118h14.036c-3.115-1.321-6.747-2.259-10.949-2.75-38.275-4.48-51.941-1.518-56.769 1.53a56.344 56.344 0 0 1-19.671 7.86c-23.615 4.439-67.779 9.78-107.808-1.713C33.51 4.258 18.725 13.921 9.86 30.04h254.935c-.332-4.689-1.328-9.02-3.157-12.807a2.439 2.439 0 0 1-1.512.516zM.807 60.486a98.548 98.548 0 0 0 1.045 28.463l236.122 7.87a100.734 100.734 0 0 0 16.405-22.791L.807 60.486zM94.19 80.791h-4.653c1.277 0 2.327.953 2.327 2.118s-1.047 2.117-2.327 2.117H62.655c-1.277 0-2.326-.952-2.326-2.117s1.047-2.118 2.326-2.118h4.654c-1.278 0-2.327-.954-2.327-2.119 0-1.165 1.047-2.119 2.327-2.119h-3.325c-1.277 0-2.327-.95-2.327-2.116 0-1.165 1.047-2.118 2.327-2.118h26.893c1.28 0 2.327.953 2.327 2.118s-1.045 2.116-2.327 2.116h3.313c1.28 0 2.327.954 2.327 2.12 0 1.164-1.04 2.118-2.327 2.118zM264.807 30.186L7.019 35.9C3.88 43.247 1.801 51.551.842 60.16H260.29a92.757 92.757 0 0 0 3.745-15.462c.773-5.06 1.082-9.954.773-14.512zM53.184 48.909H48.53c1.277 0 2.326.954 2.326 2.119 0 1.165-1.047 2.119-2.326 2.119H21.64c-1.278 0-2.327-.954-2.327-2.12 0-1.164 1.047-2.118 2.327-2.118h4.653c-1.277 0-2.327-.95-2.327-2.116 0-1.165 1.047-2.119 2.327-2.119h-3.325c-1.277 0-2.326-.953-2.326-2.118s1.047-2.119 2.326-2.119h26.893c1.28 0 2.327.954 2.327 2.119 0 1.165-1.045 2.118-2.327 2.118h3.323c1.277 0 2.326.954 2.326 2.119 0 1.165-1.049 2.116-2.326 2.116z" opacity=".1"/>
        <ellipse cx="154.798" cy="174.405" fill="#1A3CFA" fill-rule="nonzero" opacity=".1" rx="17.503" ry="3.928"/>
        <ellipse cx="195.469" cy="186.879" fill="#1A3CFA" fill-rule="nonzero" opacity=".1" rx="31.577" ry="2.591"/>
        <ellipse cx="68.686" cy="182.951" fill="#1A3CFA" fill-rule="nonzero" opacity=".1" rx="31.577" ry="3.928"/>
        <ellipse cx="116.83" cy="163.288" fill="#1A3CFA" fill-rule="nonzero" opacity=".1" rx="23.759" ry="3.928"/>
        <ellipse cx="123.463" cy="196.005" fill="#1A3CFA" fill-rule="nonzero" opacity=".1" rx="19.02" ry="3.928"/>
        <path fill="url(#a)" fill-rule="nonzero" d="M134.585 69.844c-.503-3.381-3.576-11.272-3.576-11.272a12.825 12.825 0 0 0-.182-.698c-2.18-7.488-5.197-8.14-5.197-8.14l-10.81-2.325c.09.057.17.13.233.217a1.501 1.501 0 0 0-.17.025 4.232 4.232 0 0 1-.947-2.046 5.651 5.651 0 0 1-.053-.347 7.598 7.598 0 0 0-.966-11.681c.51-.542.526-1.296.144-2.05-.851-1.767-2.703-2.885-4.606-3.432-1.455-.416-3.025-.55-4.472-.095-.821.26-1.57.698-2.34 1.086-1.436.716-3.025 1.284-4.098 2.463-.251.274-.484.625-.41.988.056.27.27.48.408.719.31.537.232 1.214.02 1.8-.211.586-.52 1.13-.667 1.73-.147.6-.09 1.307.36 1.737.217.167.442.322.675.465.247.21.464.454.645.724.428.573.854 1.15 1.28 1.728a17.8 17.8 0 0 1 1.602 2.434c.32.628.566 1.298.992 1.86.124.165.267.315.425.447l-.125-.048c.374.38.888.59 1.421.579h.065a.391.391 0 0 0 .261-.107v.232c.026.83.021 1.714-.037 2.544l-.1-.05a.873.873 0 0 0-.93.097l-9.952 7.981s-2.164 2.958-1.861 8.065l-1.745 7.659s-2.18 6.497-.503 11.137c1.678 4.64 2.65 7.293 2.65 7.293s.67 5.272 1.678 5.702c1.007.43 1.442.663 1.442.663l.2 1.26s.068.124.187.33c.733 1.275 3.448 5.773 5.025 5.291.199 1.222.284 2.459.256 3.696l1.561 10.476s1.089 2.85 1.022 4.342c-.068 1.493 1.27 3.621 1.27 3.621a6.916 6.916 0 0 0-.67 4.872c.637 2.791 1.442 15.647 1.442 15.647l1.164 3.116-.033 3.654a3.488 3.488 0 0 1-.721 1.627c-.754.82-.698 1.766-2.515 2.884-1.817 1.119-2.969 1.542-2.969 3.023-.002.207-.02.413-.056.617-.167 1.088-.493 1.679 2.848 1.995 3.925.372 6.542-2.186 6.542-2.186s.577-1.046 3.295-1.47c0 0 .93-.049.98-.87.018-.283.013-.825 0-1.423-.045-1.137-.154-2.465-.299-2.53-.181-.081-.497-1.226-.607-1.64h.756s.698-5.272 0-8.686c-.698-3.414-.067-5.834-.067-5.834l-.135-9.017s-.93-.995-.2-2.753 0-10.442 0-10.442.27-3.116 1.04-3.847c.77-.73.037-4.565 0-4.765l1.373 4.603s.602 9.148 1.88 10.804l.367 4.144s2.615 3.814 2.113 5.868c-.503 2.053.537 9.481.537 9.481v7.593s-1.175 3.05.465 4.144l.698-.027c-.232.216-.411.541-.684.823-.314.323-.493 1.553-.593 2.611-.084.896-.112 1.666-.112 1.666s.698 1.116 2.013 1.193c1.314.076 5.647 3.37 5.647 3.37s4.278 0 5.386-.233l.065-.016c.355-.112.654-.356.835-.682.222-.378.293-.825.2-1.253-.137-.654-.656-1.37-1.805-1.98-2.86-1.506-3.285-2.918-3.285-2.918l-1.878-2.816h.268s-.166-2.984 1.877-6.333l-.133-14.751s.838-5.072-.602-7.826c0 0-.119-2.916.844-3.811.964-.896-1.282-9.944-1.282-9.944s-.465-4.859-1.012-9.291c2.264 2.146 4.612-5.582 5.007-6.956h.058l-.025-.1.025-.098s-.502-1.786-.135-1.423c.368.363 1.275-.995 1.275-.995s-.134-7.393 1.443-11.119c1.577-3.725-.7-12.8-.7-12.8zm-6.748 4.705l.012-.021c.233 4.514-.044 14.146-.044 14.146s-.312 1.235-.645 2.689l-.232-9.151-.233-8.621 1.142.958zm-28.875-3.112s1.14 14.254 0 16.31c-.323.586-.596 1.627-.821 2.816-.377-.989-1.175-3.31-.889-4.54.37-1.59-.738-5.77-.738-5.867 0-.098-.1-2.326.698-4.028.798-1.702.275-2.44.275-2.44s.67-2.79 1.475-2.25z"/>
        <path fill="#D38884" fill-rule="nonzero" d="M101.74 103.54c-.993 4.365-4.944-2.235-5.844-3.82-.117-.206-.182-.327-.182-.327l.428-2.007 2.264-.93c.358.187.698.408 1.014.66 1.24.975 3.085 3.042 2.32 6.424zM132.388 96.398s0 .032-.025.097c0 .028-.019.065-.03.105-.39 1.363-2.692 9.035-4.917 6.905-2.433-2.326-1.251-7.703-1.251-7.703h.016l5.118-.523 1.015 1.042.074.077z"/>
        <path fill="#444053" fill-rule="nonzero" d="M129.427 134.153l.13 14.652c-2.008 3.325-1.843 6.279-1.843 6.279l-6.617.26c-1.614-1.086-.465-4.111-.465-4.111v-7.545s-1.021-7.37-.528-9.411c.493-2.042-2.073-5.814-2.073-5.814l-.363-4.114c-1.252-1.644-1.845-10.726-1.845-10.726l-1.343-4.586c.038.198.736 4.026 0 4.73-.735.705-1.02 3.817-1.02 3.817s.723 8.623 0 10.365c-.724 1.742.195 2.732.195 2.732l.132 8.952s-.626 2.402.065 5.79c.691 3.389 0 8.624 0 8.624h-7.098l.032-3.654-1.149-3.093s-.791-12.767-1.417-15.533a6.937 6.937 0 0 1 .656-4.837s-1.314-2.104-1.25-3.586c.066-1.481-1.014-4.307-1.014-4.307l-1.53-10.397a20.192 20.192 0 0 0-.759-5.924c-.889-2.963-2.206-6.846-2.206-6.846l1.487.132 7.501.668s18.238-1.226 19.055-.207c.172.333.289.692.344 1.063.82 3.676 1.901 15.195 1.901 15.195s2.206 8.984 1.259 9.872c-.947.888-.83 3.781-.83 3.781 1.419 2.733.593 7.78.593 7.78z"/>
        <path fill="#B07473" fill-rule="nonzero" d="M114.008 159.602c-.051.817-.96.865-.96.865-2.667.419-3.235 1.456-3.235 1.456s-2.559 2.542-6.419 2.172c-3.28-.316-2.962-.9-2.792-1.981.033-.202.051-.405.054-.61 0-1.48 1.135-1.902 2.913-3.023 1.777-1.12 1.728-2.048 2.468-2.862.74-.814.817-2.393.817-2.393.837-1.459 2.962.232 2.962.232.1.516 3.257.444 3.257.444s.419 1.68.635 1.777c.142.065.249 1.381.29 2.512.024.593.029 1.13.01 1.411z"/>
        <path fill="#000" fill-rule="nonzero" d="M114.008 159.602c-.051.817-.96.865-.96.865-2.667.419-3.235 1.456-3.235 1.456s-2.559 2.542-6.419 2.172c-3.28-.316-2.962-.9-2.792-1.981 1.466.363 4.267.87 5.903-.019 2.273-1.232 3.904-2.093 3.904-2.093l3.592-1.807c.021.589.026 1.126.007 1.407z" opacity=".1"/>
        <path fill="#B07473" fill-rule="nonzero" d="M134.103 163.995a1.42 1.42 0 0 1-.819.677l-.063.016c-1.086.233-5.286.233-5.286.233s-4.246-3.281-5.53-3.356c-1.284-.074-1.975-1.186-1.975-1.186s.025-.763.107-1.651c.1-1.051.274-2.272.584-2.593.567-.593.698-1.395 1.975-.888 0 0 1.824-3.214 3.974-.73l2.224 3.371s.419 1.396 3.236 2.91c1.126.604 1.629 1.316 1.77 1.965.09.42.02.86-.197 1.232z"/>
        <path fill="#000" fill-rule="nonzero" d="M134.103 163.995c-.251.212-.528.44-.819.677l-.063.016c-1.086.233-5.286.233-5.286.233s-4.246-3.281-5.53-3.356c-1.284-.074-1.975-1.186-1.975-1.186s.025-.763.107-1.651c1.307.39 3.287 1.081 3.818 1.825.814 1.133 3.287 2.714 3.287 2.714s4.611-.444 6.659-.504c.09.42.019.86-.198 1.232z" opacity=".1"/>
        <path fill="#D38884" fill-rule="nonzero" d="M116.158 49.16l-6.072 6.417s-7.36-.542-6.075-2.714c.654-1.107.756-3.423.698-5.437a43.553 43.553 0 0 0-.254-3.596s10.32-5.135 9.54-.346a7.878 7.878 0 0 0-.029 2.732c.44 2.419 2.192 2.944 2.192 2.944z"/>
        <path fill="#000" fill-rule="nonzero" d="M113.985 43.484a7.878 7.878 0 0 0-.028 2.732 7.577 7.577 0 0 1-5.402 2.254c-1.396 0-2.906-1.147-4.035-1.81-.053-1.944-.065-2.83-.065-2.83s10.32-5.135 9.53-.346z" opacity=".1"/>
        <path fill="#D38884" fill-rule="nonzero" d="M116.158 40.472a7.607 7.607 0 0 1-14.458 3.301 7.6 7.6 0 0 1 2.111-9.243 7.608 7.608 0 0 1 9.485.003 7.601 7.601 0 0 1 2.862 5.94z"/>
        <path fill="#000" fill-rule="nonzero" d="M126.504 97.526c-1.894 4.504-14.076 4.597-14.076 4.597v-4.911l-.737-.05c.319 1.408-.447 4.838-.447 4.838-9.627 1.358-11.975-4.126-11.975-4.126l.335-1.876 7.501.667s18.238-1.225 19.055-.207c.173.335.29.695.344 1.068z" opacity=".1"/>
        <path fill="#1A3CFA" fill-rule="nonzero" d="M112.428 101.53V96.62l-.737-.047c.319 1.395-.447 4.837-.447 4.837-7.245 1.021-10.367-1.83-11.468-3.304a4.5 4.5 0 0 1-.507-.819l2.941-16.535.698-24.335 1.054-4.27.244-2.048v-.024h.026l.749.321 4.483 1.938 5.093-3.845.075-.053.253-.193.421.337 1.047.84 3.358 21.672s5.816 16.686 6.905 23.42c.044.27.08.522.107.756.719 6.15-14.295 6.263-14.295 6.263z"/>
        <ellipse cx="110.009" cy="52.812" fill="#67647E" fill-rule="nonzero" rx="1" ry="1"/>
        <ellipse cx="110.209" cy="56.76" fill="#67647E" fill-rule="nonzero" rx="1" ry="1"/>
        <ellipse cx="110.642" cy="63.153" fill="#67647E" fill-rule="nonzero" rx="1" ry="1"/>
        <ellipse cx="111.356" cy="70.04" fill="#67647E" fill-rule="nonzero" rx="1" ry="1"/>
        <ellipse cx="111.789" cy="76.505" fill="#67647E" fill-rule="nonzero" rx="1" ry="1"/>
        <ellipse cx="112.221" cy="83.391" fill="#67647E" fill-rule="nonzero" rx="1" ry="1"/>
        <ellipse cx="112.049" cy="90.202" fill="#67647E" fill-rule="nonzero" rx="1" ry="1"/>
        <path fill="#000" fill-rule="nonzero" d="M104.495 83.156s-.484 6.332-1.373 8.174c-.889 1.842-1.284 7.01-1.284 7.01l-2.064-.233a4.5 4.5 0 0 1-.507-.819l2.94-16.535.699-24.334 1.056-4.272.244-2.05.028-.011a.833.833 0 0 1 .735.012l.098.05c-.03.085-.057.17-.084.259-.805 2.519-1.105 7.16-1.105 7.16s1.163 8.491 1.284 12.44-.667 13.149-.667 13.149z" opacity=".1"/>
        <path fill="#000" fill-rule="nonzero" d="M99.42 97.123c-.022.053-.049.105-.079.154-.8 1.35-2.829 2.209-3.445 2.444-.117-.207-.182-.328-.182-.328l.428-2.007 2.264-.93c.359.19.698.413 1.014.667z" opacity=".1"/>
        <path fill="#67647E" fill-rule="nonzero" d="M93.937 64.807l-1.878 1.119-1.71 7.602s-2.14 6.449-.496 11.056c1.645 4.607 2.602 7.244 2.602 7.244s.658 5.232 1.647 5.66c.989.428 1.414.659 1.414.659l.198 1.25s2.68-.909 3.627-2.511c.947-1.602-.698-5.581-.698-5.581s-1.414-3.391-1.051-4.97c.363-1.58-.726-5.726-.726-5.814 0-.088-.098-2.305.698-4 .795-1.695.265-2.419.265-2.419l-.496-4.837-3.396-4.458z"/>
        <path fill="#000" fill-rule="nonzero" d="M126.66 96.102s-4.972 1.875-6.551.233c-1.58-1.642-1.417-9.347-1.417-9.347s-1.513-14.216-2.469-16.55c-.956-2.336-.465-19.187-.465-19.187s-.642-2.179-1.203-2.749a.61.61 0 0 0-.119-.095l.193.042.675.144 1.047.84 3.357 21.672s5.817 16.686 6.906 23.42l.046 1.577z" opacity=".1"/>
        <path fill="#000" fill-rule="nonzero" d="M132.388 96.595h-.056c-.625.082-6.149.75-6.172-.4 0-.133.006-.265.02-.397l5.12-.524 1.014 1.042c.018.068.032.126.046.172l.028.107z" opacity=".1"/>
        <path fill="#67647E" fill-rule="nonzero" d="M127.088 57.193l3.63 1.893s3.024 7.828 3.508 11.184c0 0 2.24 8.99.698 12.688-1.542 3.698-1.414 11.037-1.414 11.037s-.889 1.35-1.252.989c-.363-.36.133 1.414.133 1.414s-6.205.823-6.231-.396c-.026-1.218 1.424-7.042 1.424-7.042s.395-13.853-.165-16.025c-.561-2.172-.33-15.742-.33-15.742z"/>
        <path fill="#000" fill-rule="nonzero" d="M116.258 71.949s-2.043 5-2.701 5.33c-.659.33.132 1.644.132 1.644s3.72-5.197 2.569-6.974zM115.039 54.41c.023-.096-2.436 2.41-3.095 2.79-.658.38 2.404-.023 3.095-2.79zM108.192 71.553s-3.753 2.426-3.258 3.387c.496.96 3.258-3.387 3.258-3.387zM115.006 106.96s3.195 2.054 8.164 2.559l-8.164-2.559zM107.335 111.898s2.962 3.72 4.314 3.816c1.352.095-4.314-3.816-4.314-3.816zM111.484 126.48c-.133.064-1.68 3.355-3.257 3.455-1.578.1 3.257-3.456 3.257-3.456zM125.21 133.688s2.937-.658 3.59 1.447c0-.007-.197-.665-3.59-1.447zM123.235 145.726s3.558-.726 4.314.262c.756.989-4.314-.262-4.314-.262zM113.173 147.41c0 .032-3.62.725-3.49 1.185.13.46 3.862.396 3.995-.33a.697.697 0 0 0-.505-.856zM122.051 150.53s5.95-.725 5.584.526c-.365 1.251-5.584-.526-5.584-.526zM90.907 77.28c.033.097 3.918.625 4.444 1.876 0 0-3.818-1.78-4.42-1.78M96.373 87.447s-3.227 1.02-2.997 2.558c.23 1.537-.328-.712 2.997-2.558zM94.87 95.28s1.174-1.613 2.294-1.317c1.119.295-2.294 1.316-2.294 1.316zM113.296 34.533c-.113.11-.24.204-.377.281-.93.542-1.186 1.377-1.628 2.34-.412.88-.866 1.813-1.696 2.313-1.073.647-2.485.41-3.6.973a2.79 2.79 0 0 0-1.489 2.75c.071.429.177.85.317 1.261.253.89.368 1.813.34 2.737a.465.465 0 0 1 0 .082 7.6 7.6 0 0 1 .135-13.664 7.606 7.606 0 0 1 8.008.927h-.01z" opacity=".1"/>
        <path fill="#585268" fill-rule="nonzero" d="M113.098 32.244c-.835-1.753-2.652-2.865-4.52-3.407-1.426-.411-2.976-.546-4.39-.093-.808.256-1.54.698-2.297 1.077-1.41.712-2.96 1.274-4.02 2.444-.25.272-.465.621-.403.982.054.267.263.465.398.711.305.535.233 1.207.021 1.789-.212.58-.512 1.12-.656 1.718-.144.598-.088 1.298.354 1.723.197.189.451.307.665.465a3.5 3.5 0 0 1 .63.717l1.257 1.716c.59.76 1.116 1.569 1.573 2.416.312.624.553 1.289.972 1.845.42.555 1.07 1.002 1.764.941a.342.342 0 0 0 .279-.132.367.367 0 0 0 .035-.175 8.922 8.922 0 0 0-.333-2.728 7.87 7.87 0 0 1-.316-1.26 2.802 2.802 0 0 1 1.489-2.751c1.117-.563 2.529-.326 3.6-.97.832-.502 1.286-1.435 1.695-2.325.45-.963.698-1.798 1.629-2.34.93-.542 1.037-1.44.574-2.363z"/>
        <path fill="#000" fill-rule="nonzero" d="M109.692 156.493s1.164 1.481.861 2.326c-.302.844-.86-2.326-.86-2.326zM125.432 160.2s.258-1.986 1.293-2.005c1.036-.018 1.087-.107 1.878.198.791.305 1.533.777 1.296.847-.237.07-1.361-1.135-2.515-.52a8.31 8.31 0 0 0-1.952 1.48zM106.221 54.823l3.257-2.281s-4.765-2.814-5.332-2.419c-.568.396-.959 3.954-.959 3.954l3.034.746z" opacity=".1"/>
        <path fill="#E1E7EF" fill-rule="nonzero" d="M106.207 54.677l3.257-2.326s-4.765-2.814-5.332-2.418c-.568.395-.959 4.148-.959 4.148l3.034.596z"/>
        <path fill="#1A3CFA" fill-rule="nonzero" d="M106.207 54.677l3.257-2.326s-4.765-2.814-5.332-2.418c-.568.395-.959 4.148-.959 4.148l3.034.596z"/>
        <path fill="#67647E" fill-rule="nonzero" d="M104.672 49.951l-.098-.049a.845.845 0 0 0-.915.096l-9.771 7.923s-2.124 2.937-1.829 8.005l5.763 8.16s.658-2.763 1.447-2.237c0 0 1.12 14.151 0 16.19-1.119 2.04-1.612 9.675-1.612 9.675l3.785.428s.396-5.168 1.284-7.01c.89-1.841 1.373-8.174 1.373-8.174s.8-9.2.668-13.149c-.133-3.949-1.284-12.44-1.284-12.44s.323-4.976 1.189-7.418z"/>
        <path fill="#000" fill-rule="nonzero" d="M114.406 53.381l-4.06-1.502s5.17-5.66 5.817-2.52l-1.757 4.022z" opacity=".1"/>
        <path fill="#E1E7EF" fill-rule="nonzero" d="M114.406 53.184l-4.06-1.503s5.17-5.66 5.817-2.52l-1.757 4.023z"/>
        <path fill="#1A3CFA" fill-rule="nonzero" d="M114.406 53.184l-4.06-1.503s5.17-5.66 5.817-2.52l-1.757 4.023z"/>
        <path fill="#000" fill-rule="nonzero" d="M114.273 48.367a.233.233 0 0 1 .168.038l-.168-.038z" opacity=".1"/>
        <path fill="#67647E" fill-rule="nonzero" d="M114.664 47.974l10.772 2.326s2.965.658 5.105 8.095c2.14 7.438-2.932 16.55-2.932 16.55l-1.119-.952.561 21.719s-4.972 1.874-6.552.232c-1.58-1.642-1.414-9.353-1.414-9.353s-1.515-14.214-2.471-16.551c-.956-2.338-.465-19.184-.465-19.184s-.88-3.012-1.485-2.882z"/>
        <path fill="#000" fill-rule="nonzero" d="M124.52 61.814c-.151.14-.328 6.712.33 11.714a63.813 63.813 0 0 0 1.861 9.016l-.977-20.04s-.754-1.118-1.214-.69zM123.203 56.153c.263.166 1.417 2.896.889 4.014-.528 1.119-.89-4.014-.89-4.014zM113.036 32.244a5.945 5.945 0 0 0-2.369-2.479 5.63 5.63 0 0 1 1.775 2.093c.466.93.328 1.86-.577 2.37s-1.186 1.377-1.628 2.34c-.412.88-.866 1.813-1.699 2.325-1.07.647-2.482.407-3.599.97a2.809 2.809 0 0 0-1.489 2.753c.072.428.178.848.319 1.258.253.89.368 1.813.34 2.738.002.06-.011.12-.038.174a.333.333 0 0 1-.277.133c-.279.021-.559-.031-.812-.152.37.367.876.565 1.396.547a.275.275 0 0 0 .312-.307 8.92 8.92 0 0 0-.337-2.737 7.637 7.637 0 0 1-.319-1.26 2.802 2.802 0 0 1 1.489-2.752c1.117-.563 2.53-.325 3.6-.97.832-.502 1.286-1.435 1.695-2.325.45-.963.698-1.798 1.629-2.34.93-.542 1.054-1.456.589-2.379z" opacity=".1"/>
        <path fill="url(#b)" fill-rule="nonzero" d="M179.314 61.449c-3.206-.063-6.036-2.326-7.639-5.09a5.115 5.115 0 0 1-.772-2.18c.011-.176.04-.35.088-.52.098-.26.176-.527.233-.799a1.395 1.395 0 0 0 0-.325v-.019c.077-.588-.27-1.163-.698-1.565-.428-.402-.966-.698-1.412-1.098-1.378-1.209-1.796-3.148-1.822-4.995v-.098c.016-.79.08-1.583.072-2.374a9.98 9.98 0 0 0-.058-1.344c-.133-1.119-.558-2.258-1.438-2.972-2.294-1.86-6.151.077-8.527-1.682-.577-.43-1.045-1.065-1.745-1.232-.528-.128-1.077.044-1.594.216-1.75.577-3.701 1.335-4.385 3.023-.391.97-.282 2.077-.64 3.058-.233.659-.677 1.224-1 1.847a2.89 2.89 0 0 0-.373 1.542c-.028.279.01.56.114.82.122.315.317.595.57.817a2.71 2.71 0 0 1-.34.544c-.446.547-1.132.93-1.598 1.475-.86.997-.828 2.353-.405 3.525.424 1.172 1.19 2.24 1.717 3.382.233.495.41 1.048.175 1.542-.165.341-.507.602-.772.897a2.82 2.82 0 0 0-.698 1.558c-5.238 1.196-5.242 5.403-5.242 5.403l-2.83 7.111s-.453 1.198-.986 2.78l-3.348-.6 2.327 3.892c-.44 1.586-.752 3.056-.65 3.796 0 0-1.04 4.883.81 5.737l4.081 1.835c.177.108.367.193.565.253l.166.075c.12.058.26.058.381 0H141.697a.55.55 0 0 0 .233-.035.465.465 0 0 0 .204-.221.07.07 0 0 1 0-.023l1.222-.354 1.035 1.226c.466.328.93.611 1.37.867l-1.602 15.912s-.259 21.163-1.04 25.986c-.289 1.786-.291 3.005-.182 3.832l-.03.052c.193 1.36.698 1.627.698 1.627v-.018l.03.018c.236-.617.516-1.217.838-1.795v.349c-.017 1.795-.072 4.31-.259 5.944-.316 2.79.81 11.989.81 11.989l.389 8.372a7.737 7.737 0 0 1-.954 4.079c-.93 1.672-2.12 4.025-2.206 5.07a1.046 1.046 0 0 0 0 .17l-1.996 2.4s-.78 1.204.982 1.69c.947.263 2.58 0 3.892-.31a2.6 2.6 0 0 0 2.017-2.53 8.952 8.952 0 0 1 1.648-3.16l.328 1.928 2.196.544.281-5.284c.114-.296.165-.613.152-.93.432-3.758-1.02-3.42-1.02-3.42.04.032.064.079.07.13l-.07-.129c-.89-1.758-.465-4.65-.465-4.65s1.164-8.373 1.561-10.584c.287-1.563.168-6.68.073-9.535 0-.119 0-.233-.012-.347 3.406-.044 7.58-.158 10.51-.442v.345l-.54 19.779a10.854 10.854 0 0 1-.76 3.679c0 .023-.015.044-.025.067a16.04 16.04 0 0 0-1.072 5.184l-.252 6.279v.174c-.437.168-1.128.654-1.147 2.063-.03 2.065 3.611 1.377 3.611 1.377 3.64 0 3.67-3.786 3.67-3.786s.113-3.472.288-5.796c.174-2.323-.55-1.811-.55-1.811l-.055 6.61v.05-5.793l.056-.84V165.482l.458-6.816s3.353-11.358 3.872-13.537c.37-1.549.216-6.214.095-8.793 0-.119 0-.233-.019-.342a27.182 27.182 0 0 1 2.327-.102h.17s-.172-18.242-.607-25.117c-.435-6.874-1.126-13.165-2.86-15.058-1.047-1.144-2.506-4.676-3.49-7.293a36.511 36.511 0 0 0 6.415 2.093c5.488 1.15 4.737-3.614 4.737-3.614l-.556-9.007h.037a45.906 45.906 0 0 0-.605-7.042c-.29-1.786-.735-3.632-1.415-5.116a42.434 42.434 0 0 0 1.762-.737c1.491-.658 3.17-1.59 3.385-3.198h-.072c.028-.116.047-.234.056-.353zm-34.022 13.023c.011.93-.024 2.544-.08 4.328l-1.742-2.326 1.747-2.832.075.83zm24.075 8.242l-2.903-.93a13.024 13.024 0 0 1 1.794-2.219l.25-.232-.09.018.14-.128.083-.018-.132.128.158-.033a4.95 4.95 0 0 0 .989 1.988c1.042 1.138-.286 1.426-.286 1.426h-.003z"/>
        <path fill="#A27772" fill-rule="nonzero" d="M151.73 166.433l-.34 6.437-2.166-.542-.456-2.677z"/>
        <path fill="#000" fill-rule="nonzero" d="M151.73 166.433l-.34 6.437-2.166-.542-.456-2.677z" opacity=".1"/>
        <path fill="#CC818C" fill-rule="nonzero" d="M159.68 173.723l3.303.684 2.45-2.163v-6.095l.056-.833V165.114l.456-6.774s3.306-11.277 3.82-13.442c.363-1.535.212-6.168.09-8.728-.048-1.05-.09-1.751-.09-1.751l-7.294-1.766-.153 5.605-.533 19.637a10.877 10.877 0 0 1-.747 3.654l-.025.067a15.975 15.975 0 0 0-1.06 5.144l-.246 6.245v.172l-.028.546z"/>
        <path fill="#000" fill-rule="nonzero" d="M165.489 165.119v.172-.177zM159.68 173.723l3.303.684 2.45-2.163v-.518a.698.698 0 0 1-.351.558l-.035.02a6.587 6.587 0 0 1-3.709.733l-1.289-.11c-.117.012-.232.04-.342.085v.172l-.028.54z" opacity=".1"/>
        <path fill="#B07473" fill-rule="nonzero" d="M165.047 172.474l.035-.018a.698.698 0 0 0 .356-.605l.053-6.56s.712-.51.54 1.797c-.172 2.307-.284 5.754-.284 5.754s-.028 3.758-3.618 3.758c0 0-3.59.684-3.562-1.367.028-2.052 1.482-2.135 1.482-2.135l1.29.111a6.57 6.57 0 0 0 3.708-.735z"/>
        <path fill="#CC818C" fill-rule="nonzero" d="M142.472 172.328c.084 1.481 4.444.625 4.444.625l2.933-5.693s2.45-1.88 1.224-3.532a2.635 2.635 0 0 1-.179-.281l-.012-.014a1.78 1.78 0 0 1-.072-.133c-.88-1.744-.446-4.605-.446-4.605s1.137-8.316 1.538-10.509c.281-1.549.165-6.63.072-9.472-.038-1.181-.072-1.974-.072-1.974l-7.239-1.938v2.158c-.016 1.784-.072 4.28-.255 5.903-.312 2.76.798 11.902.798 11.902l.383 8.319a7.702 7.702 0 0 1-.93 4.049c-.908 1.66-2.094 4-2.176 5.034a1.021 1.021 0 0 0-.011.16z"/>
        <path fill="#000" fill-rule="nonzero" d="M142.472 172.328c.084 1.481 4.444.625 4.444.625l2.933-5.693s2.45-1.88 1.224-3.532a2.635 2.635 0 0 1-.179-.281c-.04.862-.986 3.023-.986 3.023s-2.422 4.844-3.192 5.953c-.77 1.11-4.116-.207-4.242-.253a1.018 1.018 0 0 0-.002.158z" opacity=".1"/>
        <path fill="#B07473" fill-rule="nonzero" d="M150.81 163.293s1.434-.333 1.005 3.398c.034.862-.399 1.677-1.133 2.132-1.026.644-2.608 2.03-3.408 4.726a2.577 2.577 0 0 1-1.99 2.511c-1.293.303-2.905.568-3.838.307-1.738-.483-.968-1.679-.968-1.679l1.994-2.365s3.476 1.368 4.244.256c.767-1.112 3.192-5.951 3.192-5.951s1.328-3.021.902-3.335z"/>
        <path fill="#000" fill-rule="nonzero" d="M162.471 133.344l-.153 5.605c1.942-.189 3.334-.451 3.571-.821.514-.795 2.38-1.13 3.967-1.268-.049-1.048-.09-1.75-.09-1.75l-7.295-1.766zM144.663 137.642c.186-.38.46-.71.799-.963.767-.426.684 2.735.684 2.735s2.559.023 5.828-.019c-.038-1.181-.072-1.976-.072-1.976l-7.239-1.935s.014.897 0 2.158z" opacity=".1"/>
        <path fill="#444053" fill-rule="nonzero" d="M143.838 138.39s.856-2.325 1.628-2.739c.773-.414.684 2.733.684 2.733s18.804.172 19.744-1.282c.94-1.453 6.41-1.367 6.41-1.367s-.17-18.112-.598-24.944c-.429-6.833-1.11-13.072-2.82-14.951-1.105-1.217-2.678-5.152-3.65-7.775-.529-1.432-.88-2.477-.88-2.477l-17.948 1.024-.146 1.453-1.906 19.051s-.256 21.017-1.026 25.8c-.77 4.784.508 5.475.508 5.475z"/>
        <g fill="#000" fill-rule="nonzero" opacity=".1">
            <path d="M164.433 137.102c.93-1.45 6.41-1.367 6.41-1.367s-.17-18.112-.599-24.944c-.428-6.833-1.11-13.072-2.82-14.951-1.11-1.221-2.677-5.152-3.65-7.775a93.722 93.722 0 0 1-.851-2.398l1.396-.079s.35 1.045.881 2.477c.973 2.623 2.543 6.558 3.649 7.775 1.71 1.879 2.394 8.116 2.82 14.95.425 6.836.6 24.945.6 24.945s-5.47-.084-6.413 1.367c-.802 1.24-14.638 1.298-18.654 1.286 5.153-.011 16.505-.165 17.23-1.286zM144.005 135.651c.347-.193.519.342.605.99-.31.564-.58 1.148-.807 1.75 0 0-.496-.268-.698-1.628.283-.486.598-.944.9-1.112z"/>
        </g>
        <path fill="#585268" fill-rule="nonzero" d="M149.384 41.767c-1.242 1.693.014 4.1-1.319 5.747-.44.544-1.117.93-1.575 1.465-.85.99-.817 2.337-.4 3.5.416 1.163 1.163 2.223 1.693 3.358.233.49.405 1.042.173 1.53-.163.34-.5.598-.764.891-.856.956-.879 2.284-.418 3.41.46 1.125 1.34 2.092 2.208 3.046.342.374.774.788 1.344.777.3-.023.59-.118.845-.277a8.603 8.603 0 0 0 3.918-11.23c-.721-1.728-1.924-3.384-1.936-5.21 0-1.448.745-2.832.877-4.274.16-1.753-.877-4.537-2.994-5.302.14 1.125-1.021 1.7-1.652 2.57z"/>
        <path fill="#000" fill-rule="nonzero" d="M149.384 41.767c-1.242 1.693.014 4.1-1.319 5.747-.44.544-1.117.93-1.575 1.465-.85.99-.817 2.337-.4 3.5.416 1.163 1.163 2.223 1.693 3.358.233.49.405 1.042.173 1.53-.163.34-.5.598-.764.891-.856.956-.879 2.284-.418 3.41.46 1.125 1.34 2.092 2.208 3.046.342.374.774.788 1.344.777.3-.023.59-.118.845-.277a8.603 8.603 0 0 0 3.918-11.23c-.721-1.728-1.924-3.384-1.936-5.21 0-1.448.745-2.832.877-4.274.16-1.753-.877-4.537-2.994-5.302.14 1.125-1.021 1.7-1.652 2.57zM163.162 103.351c-2.487.13-4.827 1.2-7.005 2.41-2.178 1.209-4.286 2.579-6.629 3.437M161.617 109.21a10.255 10.255 0 0 0-6.456 3.139c-.605.64-1.126 1.356-1.756 1.97a7.804 7.804 0 0 1-3.462 1.96M162.127 113.667a11.29 11.29 0 0 0-5.193 3.13c-.382.412-.728.852-1.11 1.263-2.059 2.21-4.967 3.382-7.775 4.491" opacity=".1"/>
        <path fill="#CC818C" fill-rule="nonzero" d="M161.915 51.842c.055 1.986.226 3.968.512 5.935.233 1.395.558 2.65 1.026 3.207 1.368 1.628-6.666 3.802-6.666 3.802l-4.744-3.674s3.76-3.46 2.008-6.835c-1.752-3.375 7.864-2.435 7.864-2.435z"/>
        <path fill="#000" fill-rule="nonzero" d="M146.257 88.065h18.974c-.528-1.432-.88-2.477-.88-2.477l-17.947 1.024-.147 1.453z" opacity=".1"/>
        <path fill="#1A3CFA" fill-rule="nonzero" d="M145.036 87.723h20.285c-.57-2.04 0-3.925.812-5.376a11.884 11.884 0 0 1 2.125-2.754l.14-.128 7.081-1.567.382-.084s.058-12.872-4.502-14.64c-4.56-1.767-7.294-4.155-7.294-4.155l-6.266 1.934-4.616-2.325c-1.482 1.593-5.414.967-5.414.967-6.437.74-6.437 5.582-6.437 5.582s3.76 8.77 4.046 8.77c.286 0-.342 13.776-.342 13.776z"/>
        <path fill="#000" fill-rule="nonzero" d="M152.039 79.54s-4.137-.917-5.544-2.52M172.897 74.737l-4.798 3.93c.035.313.088.624.159.93l.14-.127 7.081-1.568-2.582-3.165zM159.907 86.356s1.05.59 2.657 1.367h2.757c-.57-2.04 0-3.925.812-5.376l-4.86-1.573c1.654 1.538-1.366 5.582-1.366 5.582z" opacity=".1"/>
        <path fill="#1A3CFA" fill-rule="nonzero" d="M144.18 63.633l-2.848 1.537-2.792 7.063s-2.906 7.744-2.622 9.795c0 0-1.024 4.842.798 5.695l4.746 2.15a.442.442 0 0 0 .57-.61c-.677-1.282-1.421-3.286-.233-4.389l-1.368-2.846 4.944-8.088 1.652-2.791-2.847-7.516z"/>
        <path fill="#000" fill-rule="nonzero" d="M150.515 77.923c.247 1.005 1.08 2.558 3.836 3.137l3.025 2.477 3.218 1.458 1.312.593.556-4.016-1.263-.698-1.473-.804s-3.322-6.017-8.583-3.489a1.163 1.163 0 0 0-.628 1.342z" opacity=".1"/>
        <path fill="#CC818C" fill-rule="nonzero" d="M150.687 77.581c.247 1.007 1.077 2.559 3.834 3.138l3.025 2.476 3.22 1.458 1.31.594.556-4.017-1.264-.697-1.46-.798s-3.325-6.016-8.586-3.477a1.163 1.163 0 0 0-.635 1.323z"/>
        <ellipse cx="156.615" cy="49.705" fill="#000" fill-rule="nonzero" opacity=".1" rx="7.35" ry="7.347"/>
        <ellipse cx="156.615" cy="49.535" fill="#CC818C" fill-rule="nonzero" rx="7.35" ry="7.347"/>
        <path fill="#000" fill-rule="nonzero" d="M161.168 65.233l-2.21-4.293s3.234-1.307 3.47-2.821c.234-1.514 3.098 1.774 2.48 2.865-.62 1.09-3.74 4.249-3.74 4.249z" opacity=".1"/>
        <path fill="#1A3CFA" fill-rule="nonzero" d="M161.168 64.89l-2.21-4.292s3.234-1.307 3.47-2.821c.234-1.514 3.098 1.776 2.48 2.865-.62 1.088-3.74 4.249-3.74 4.249z"/>
        <path fill="#F6F8FB" fill-rule="nonzero" d="M143.08 75.981l12.211 16.412s-4.502 2.449-10.702-1.935l-2.678-3.19-7.645-12.882 8.813 1.595z"/>
        <path fill="#CC818C" fill-rule="nonzero" d="M140.676 84.905l1.112-.03s6.793-6.591 8.462-3.256c1.668 3.334-4.232 6.45-4.232 6.45l-1.794.968-2.338.698-1.496-2.007.286-2.823z"/>
        <path fill="#000" fill-rule="nonzero" d="M142.316 88.465c.102.38.2.798.028 1.149a.465.465 0 0 1-.203.22.519.519 0 0 1-.232.033 2.339 2.339 0 0 1-1.533-.758 7 7 0 0 1-.994-1.437c-.302-.528-.616-1.112-.51-1.712.122-.653.699-1.107 1.264-1.474 1.126-.744 1.163.123 1.41 1.081.246.959.512 1.93.77 2.898z" opacity=".1"/>
        <path fill="#1A3CFA" fill-rule="nonzero" d="M142.146 88.465c.1.38.2.798.028 1.149a.465.465 0 0 1-.202.22.524.524 0 0 1-.233.033 2.327 2.327 0 0 1-1.533-.758 6.919 6.919 0 0 1-.996-1.437c-.303-.528-.617-1.112-.507-1.712.118-.653.698-1.107 1.26-1.474 1.13-.744 1.164.123 1.413 1.081.249.959.51 1.93.77 2.898z"/>
        <path fill="#000" fill-rule="nonzero" d="M145.378 73.94l.567-.96-.495 1.783zM160.775 84.653l1.31.594.556-4.017-1.263-.697c.872 1 .11 2.848-.603 4.12zM166.033 79.99s-4.23.259-6.026-.895" opacity=".1"/>
        <g fill="#000" fill-rule="nonzero" opacity=".1">
            <path d="M165.508 82.688a11.903 11.903 0 0 1 2.124-2.755c.201-.127.41-.24.626-.34l6.593-1.353.382-.084s.058-12.872-4.5-14.64a27.392 27.392 0 0 1-7.11-4.002l.5-.154s2.734 2.391 7.294 4.156c4.56 1.765 4.5 14.64 4.5 14.64h-.684l-6.747 1.29s-.291.282-.38.363a13.07 13.07 0 0 0-2.156 2.851 7.146 7.146 0 0 0-.566 5.405h-.698c-.563-2.04.019-3.925.822-5.377zM147.5 59.967c.109-.016.214-.032.328-.044.462.066.928.104 1.396.114a12.695 12.695 0 0 1-1.724-.07zM157.171 61.295l-4.174-2.111c.083-.068.16-.142.233-.221l4.355 2.202-.414.13z"/>
        </g>
        <path fill="#1A3CFA" fill-rule="nonzero" d="M173.062 74.386l2.792 3.419.57 9.283s.74 4.726-4.672 3.586c-5.412-1.14-11.675-4.66-11.675-4.66s3.025-4.044 1.368-5.581l7.75 2.507s1.31-.287.284-1.424-1.207-3.19-1.207-3.19l4.79-3.94z"/>
        <path fill="#000" fill-rule="nonzero" d="M174.323 84.193l1.538 1.765a2.217 2.217 0 0 1-1.538-1.765zM171.7 83.907l2.395 3.074-1.196.286zM147.837 46.163c-.263-.644-.06-1.396.256-2.003.316-.607.751-1.18.989-1.834.351-.973.244-2.073.628-3.024.677-1.686 2.601-2.44 4.325-3.023.51-.17 1.052-.34 1.573-.214.698.165 1.151.798 1.721 1.223 2.341 1.745 6.147-.176 8.411 1.67.866.698 1.287 1.84 1.417 2.949.13 1.11 0 2.235-.014 3.353-.037 1.959.33 4.1 1.796 5.398.442.39.963.684 1.396 1.089.433.404.773.97.698 1.555-.057.27-.135.534-.232.791-.291 1.021.144 2.093.674 3.023 1.582 2.737 4.372 4.993 7.534 5.056-.212 1.595-1.862 2.521-3.339 3.175-1.861.834-3.843 1.653-5.893 1.548-2.05-.104-4.188-1.416-4.546-3.435-.124-.697-.107-1.537-.698-1.9-.363-.22-.833-.165-1.224-.33-.565-.232-.845-.867-1.03-1.45a13.055 13.055 0 0 1-.608-3.722c-.026-1.498.172-3.132-.677-4.365-.786-1.142-2.182-1.72-3.09-2.77-.837-.972-1.747-2.144-3.12-2.325-1.898-.268-5.826 2.311-6.947-.435z" opacity=".1"/>
        <path fill="#585268" fill-rule="nonzero" d="M147.837 45.82c-.263-.643-.06-1.394.256-2.001s.751-1.182.989-1.835c.351-.972.244-2.072.628-3.024.677-1.688 2.601-2.441 4.325-3.023.51-.17 1.052-.34 1.573-.214.698.165 1.151.798 1.721 1.224 2.341 1.744 6.147-.177 8.411 1.67.866.697 1.287 1.839 1.417 2.95.13 1.112 0 2.233-.014 3.352-.037 1.958.33 4.1 1.796 5.397.442.391.963.684 1.396 1.089.433.404.773.97.698 1.555-.057.27-.135.534-.232.791-.291 1.021.144 2.093.674 3.023 1.587 2.728 4.365 4.991 7.527 5.054-.212 1.595-1.861 2.52-3.339 3.177-1.861.832-3.843 1.65-5.893 1.546-2.05-.104-4.188-1.416-4.546-3.435-.124-.697-.107-1.537-.698-1.9-.363-.22-.833-.165-1.224-.33-.565-.233-.845-.867-1.03-1.451a13.041 13.041 0 0 1-.608-3.721c-.026-1.498.172-3.133-.677-4.365-.786-1.142-2.182-1.721-3.09-2.77-.837-.972-1.747-2.144-3.12-2.326-1.891-.265-5.819 2.32-6.94-.432z"/>
        <path fill="#000" fill-rule="nonzero" d="M153.053 64.7l4.214-3.419s-2.885-1.562-3.23-2.895c-.344-1.333-2.652.633-2.417 1.828.235 1.195 1.433 4.486 1.433 4.486z" opacity=".1"/>
        <path fill="#1A3CFA" fill-rule="nonzero" d="M153.218 64.186l4.214-3.416s-2.885-1.563-3.215-2.896c-.33-1.332-2.653.633-2.418 1.828.235 1.196 1.42 4.484 1.42 4.484z"/>
        <ellipse cx="157.597" cy="63.63" fill="#000" fill-rule="nonzero" opacity=".1" rx="1" ry="1"/>
        <ellipse cx="157.597" cy="65.491" fill="#000" fill-rule="nonzero" opacity=".1" rx="1" ry="1"/>
        <ellipse cx="157.597" cy="67.349" fill="#000" fill-rule="nonzero" opacity=".1" rx="1" ry="1"/>
        <g fill="#000" fill-rule="nonzero" opacity=".1">
            <path d="M149.538 41.072c.332-.914.26-1.94.572-2.86a3.125 3.125 0 0 0-.356.655c-.386.96-.277 2.06-.63 3.024l-.024.056c.173-.278.32-.57.438-.875zM176.12 64.093c-1.862.833-3.844 1.651-5.894 1.547-2.05-.105-4.188-1.417-4.546-3.433-.124-.698-.107-1.54-.698-1.902-.363-.221-.833-.165-1.224-.33-.565-.233-.845-.868-1.03-1.452a13.041 13.041 0 0 1-.608-3.72c-.026-1.496.174-3.13-.675-4.366-.788-1.142-2.184-1.718-3.092-2.77-.837-.97-1.747-2.144-3.12-2.325-1.882-.256-5.816 2.325-6.928-.423a2.162 2.162 0 0 1 .072-1.589c-.082.137-.16.275-.233.414-.316.619-.516 1.36-.254 2.005 1.12 2.744 5.047.165 6.93.423 1.372.186 2.281 1.36 3.12 2.326.906 1.05 2.302 1.628 3.089 2.772.851 1.232.651 2.867.677 4.363.021 1.263.226 2.516.607 3.72.186.587.465 1.214 1.03 1.452.392.165.862.111 1.225.33.6.363.584 1.212.698 1.902.362 2.016 2.498 3.328 4.546 3.433 2.047.104 4.02-.712 5.893-1.547 1.35-.6 2.852-1.43 3.257-2.79-.647.883-1.791 1.493-2.843 1.96z"/>
        </g>
        <path fill="url(#c)" fill-rule="nonzero" d="M217.237 77.219c-4.925-2.833-6.787-3.53-6.796-3.53l-.102-.073a4.096 4.096 0 0 1-1.24-1.567 3.27 3.27 0 0 1 0-.305c.077-1.5 1.144-2.865 2.156-4.056l2.59-3.044a3 3 0 0 0 .668-1.056c.052-.212.075-.43.07-.648v-.266c-.014-.755-.035-1.514-.063-2.27-.024-.66-.193-1.492-.854-1.627-.344-.07-.8.053-.982-.233a.565.565 0 0 1-.044-.393.135.135 0 0 0 0 .033v-.037c.128-.51.21-1.031.244-1.556a2.12 2.12 0 0 0-.107-.789c-.381-1.095-1.7-1.546-2.866-1.753-1.166-.207-2.473-.384-3.204-1.296a9.472 9.472 0 0 0-.638-.876 2.515 2.515 0 0 0-1.19-.589 6.75 6.75 0 0 0-4.335.377c-.563.251-1.129.59-1.747.554-.62-.038-1.192-.484-1.825-.591-1.023-.175-2.003.577-2.508 1.467a3.587 3.587 0 0 0-.465 1.73v.103a2.53 2.53 0 0 0 .665 1.767c.443.465 1.099.772 1.282 1.375.075.244.056.51.124.758.007.03.016.061.028.09l-.033.045a7.672 7.672 0 0 0-1.629 4.73 7.852 7.852 0 0 0 5.52 7.442v.232c0 .93-.268 1.9-1.071 2.605l-6.978 2.786s-4.206-.5-5.723 5.644c-.242 1.02-.33 2.07-.26 3.117.055.93-.073 2.558-1.164 4.667-1.724 3.377-1.33 11.128 2.196 11.895 3.33.726 4.633.424 4.77.389v.135c-.056 1.455-.584 14-2.503 15.516-.53.42-.433.698 0 .895 0 0 0 .082-.012.233-.058.93-.354 4.418-1.629 6.4-1.491 2.302-1.335 15.581-1.335 15.581l-1.017 7.828s.626 4.835 0 5.68c-.56.75-1.305 18.636-1.461 22.515h-.065a1.89 1.89 0 0 0-1.508.93c-.823 1.338-3.708 3.81-3.708 3.81-.626.888-2.941 1.74-4.165 2.14a2.588 2.588 0 0 0-.465.204c-.459.25-.826.637-1.052 1.107a1.188 1.188 0 0 0-.112.93c.312.766 6.82 1.305 8.467.535 1.293-.602 6.421-1.395 8.55-1.707a1.754 1.754 0 0 0 1.522-1.52c.04-.27-.03-.545-.196-.761-.407-.505-.614-1.884-.698-2.79.173-.071.335-.167.48-.284a20.422 20.422 0 0 1 1.163-8.212c1.568-4.144 2.038-11.819 1.647-16.807 0 0 4.781-20.568 8.546-22.486.058.074 1.884 2.416 2.117 9.67.233 7.367 2.899 12.202 2.899 12.202s-1.177 12.51 0 17.19l-1.538 7.384a2.67 2.67 0 0 1-.186-.17s.046.205.11.533l-.033.158.067.014c.175.93.433 2.533.326 3.489-.06.537-.212 1.274-.314 1.997-.163 1.138-.207 2.24.39 2.482.982.395 6.748.93 7.725-.335a1.811 1.811 0 0 0 .284-1.896 1.918 1.918 0 0 0-.284-.483s-1.53-2.5-1.098-4.263c.08-.348.014-.714-.184-1.012.067-.865.416-4.87 1.32-8.27.981-3.692 3.05-11.79 1.528-17.113a7.865 7.865 0 0 0-.196-.614 22.976 22.976 0 0 1-.863-8.98 18.292 18.292 0 0 1 0-7.827c.942-4.298 1.6-8.519 1.6-8.519s.52-5.679.066-9.16c0-.075-.02-.15-.03-.233l.246-.056s-1.333-5.91-1.803-9.67c-.111-.888-.256-2.011-.414-3.211.434-.072.86-.179 1.277-.319 4.233-1.458 5.566-14.65 5.566-14.65v-4.187s1.424-6.435-3.516-9.274zm-31.54 101.916c-.13-.065-.206-.11-.206-.11l.207.11z"/>
        <path fill="#65617D" fill-rule="nonzero" d="M214.683 153.388c1.835 5.277-.308 13.842-1.303 17.675-.996 3.832-1.3 8.414-1.3 8.414-3.903.611-6.734-.154-6.734-.154l1.608-7.876c-1.15-4.666 0-17.133 0-17.133s-2.602-4.819-2.832-12.16c-.233-7.226-2.008-9.563-2.064-9.635-3.671 1.911-8.338 22.409-8.338 22.409.381 4.97-.08 12.619-1.608 16.744a20.69 20.69 0 0 0-1.147 8.181c-.535.466-1.28.53-2.094.4-2.184-.353-4.804-2.234-4.804-2.234s.84-22.326 1.454-23.172c.614-.847 0-5.661 0-5.661l.993-7.8s-.153-13.233 1.301-15.526c1.256-1.98 1.545-5.465 1.6-6.379v-.232l2.216-2.651s21.423-1.607 23.033 0c.393.393.637 1.29.782 2.418.442 3.47-.065 9.128-.065 9.128s-.643 4.207-1.562 8.489c-.55 2.571-.55 5.23 0 7.802a23.346 23.346 0 0 0 .864 8.953z"/>
        <path fill="#A27772" fill-rule="nonzero" d="M213.342 186.923c-.956 1.263-6.58.728-7.538.335-.584-.232-.54-1.342-.381-2.474.1-.719.246-1.454.307-1.989.151-1.376-.466-4.17-.466-4.17s1.262 1.34 1.566 0c.135-.585.605-.885 1.094-1.037a2.858 2.858 0 0 1 1.987.124c.993.432 2.65 1.35 2.354 2.593-.42 1.755 1.07 4.248 1.07 4.248.116.146.21.307.28.48.27.631.165 1.36-.273 1.89z"/>
        <path fill="#000" fill-rule="nonzero" d="M213.342 186.923c-.956 1.263-6.58.728-7.538.335-.584-.232-.54-1.342-.381-2.474.605.283 1.628.518 3.343.36.4-.038.802-.05 1.203-.037 1.218.055 2.438.03 3.653-.074.268.632.16 1.362-.28 1.89zM193.718 154.919c.381 4.97-.08 12.618-1.608 16.744a20.69 20.69 0 0 0-1.147 8.181c-.535.465-1.28.53-2.094.4.465-3.225 2.429-17.123 3.688-28.104 1.435-12.505 8.143-21.107 8.143-21.107l1.337 1.472c-3.652 1.916-8.32 22.414-8.32 22.414z" opacity=".1"/>
        <path fill="#FBBEBE" fill-rule="nonzero" d="M211.046 74.537l-.93 4.589-4.577 7.686-5.642-2.41s-7.678-8.03-2.85-9.176a4.273 4.273 0 0 0 1.6-.712c.948-.714 1.245-1.751 1.25-2.767a8.48 8.48 0 0 0-.777-3.289l9.87-3.098a15.829 15.829 0 0 0-.699 3.996c-.076 2.688.931 4.011 1.743 4.651.3.24.644.42 1.012.53z"/>
        <path fill="#000" fill-rule="nonzero" d="M208.98 65.36a15.829 15.829 0 0 0-.698 3.996 7.81 7.81 0 0 1-8.378 2.39 8.48 8.48 0 0 0-.784-3.288l9.86-3.098z" opacity=".1"/>
        <path fill="#FBBEBE" fill-rule="nonzero" d="M210.113 64.098c.001 3.156-1.9 6.001-4.817 7.21a7.808 7.808 0 0 1-8.507-1.69 7.8 7.8 0 0 1-1.693-8.503 7.806 7.806 0 0 1 7.211-4.817 7.77 7.77 0 0 1 7.806 7.8z"/>
        <path fill="#000" fill-rule="nonzero" d="M211.046 74.537l-.93 4.589-4.577 7.686-5.642-2.41s-7.678-8.03-2.85-9.176a4.273 4.273 0 0 0 1.6-.712c-.87 2.39 2.723 7.365 2.723 7.365.419.616 1.377.233 1.377.233 2.315-.352 6.575-7.005 7.27-8.112.305.245.654.428 1.03.537zM215.464 119.02c-1.358.31-8.876 1.973-11.726 1.557-3.136-.465-9.234-.763-9.234-.763s-3.883.21-5.079-.337v-.233l2.215-2.651s21.423-1.607 23.033 0c.403.402.647 1.3.791 2.428z" opacity=".1"/>
        <path fill="#1A3CFA" fill-rule="nonzero" d="M201.367 82.11s-4.036-5.582-2.515-7.768l-6.819 2.79s-4.104-.497-5.584 5.626a10.649 10.649 0 0 0-.253 3.107c.055.93-.07 2.558-1.124 4.651-1.682 3.365-1.3 11.091 2.143 11.86 3.443.77 4.665.382 4.665.382s-.466 13.995-2.448 15.602c-1.982 1.607 5.072 1.224 5.072 1.224s6.098.307 9.237.765c3.138.458 11.935-1.607 11.935-1.607s-1.3-5.889-1.761-9.635c-.46-3.747-1.533-11.728-1.533-11.728l7.803-10.567s1.377-6.386-3.443-9.217c-4.821-2.83-6.634-3.523-6.634-3.523s-4.844 7.884-7.368 8.265c.005 0-.954.386-1.373-.228z"/>
        <path fill="#000" fill-rule="nonzero" d="M192.415 84.326s-.075 2.525.384 3.518c.458.993 2.142 6.512 2.142 6.512h-3.827s2.066-2.219 1.915-3.29c-.151-1.073-.614-6.74-.614-6.74z" opacity=".1"/>
        <path fill="#FBBEBE" fill-rule="nonzero" d="M203.74 103.37s-8.45-2.065-9.236-3.823c-.786-1.759-2.957-5.696-2.957-5.696l.89-1.2 4.11 3.223s4.886 3.9 7.194 4.284c2.308.384 0 3.212 0 3.212z"/>
        <path fill="#000" fill-rule="nonzero" d="M203.74 103.37s-8.45-2.065-9.236-3.823c-.786-1.759-2.957-5.696-2.957-5.696l.89-1.2 4.11 3.223s4.886 3.9 7.194 4.284c2.308.384 0 3.212 0 3.212z" opacity=".05"/>
        <path fill="#FBBEBE" fill-rule="nonzero" d="M211.046 93.428v4.581h-.735c-3.64 0-7.222.926-10.405 2.693l-1.382.765-.37.207-2.373-5.348 2.22-1.989h.114c.542.054 2.89.249 3.885-.086.945-.32 2.117-1.337 4.9-.628 1.37.351 2.543 1.886 3.872 1.407l.274-1.602z"/>
        <path fill="#000" fill-rule="nonzero" d="M218.43 85.084l1.53 1.72v4.17s-1.301 13.154-5.431 14.607c-4.13 1.454-11.507-.841-11.507-.841s-1.906-5.047-1.015-5.35c.891-.302 7.876-2.148 7.876-2.148s-.098-7.716 1.43-10.012c0 0-.993-7.188 2.45-7.342 3.444-.153 4.668 5.196 4.668 5.196z" opacity=".1"/>
        <path fill="#1A3CFA" fill-rule="nonzero" d="M218.663 85.084l1.531 1.72v4.17s-1.3 13.154-5.432 14.607c-4.132 1.454-11.508-.841-11.508-.841s-1.905-5.047-1.012-5.35c.894-.302 7.876-2.148 7.876-2.148s-.1-7.716 1.43-10.012c0 0-.995-7.188 2.448-7.342 3.444-.153 4.667 5.196 4.667 5.196z"/>
        <path fill="#000" fill-rule="nonzero" d="M207.973 67.41a3.073 3.073 0 0 0-.175-1.491c-.216-.466-.721-.817-1.214-.698-.654.153-.931 1.005-1.578 1.21-.542.171-1.133-.212-1.396-.717-.263-.505-.265-1.098-.265-1.665v-1.916c0-.698-.023-1.447-.451-1.993-.533-.68-1.787-.977-2.625-.95a2.227 2.227 0 0 0-1.498.603c-.447.381-.966.66-1.575.56a1.356 1.356 0 0 1-1.098-.948v-.024a7.805 7.805 0 0 1 13.713 2.456 7.798 7.798 0 0 1-2.113 7.898c.135-.77.226-1.546.275-2.326z" opacity=".1"/>
        <path fill="#7C5C5C" fill-rule="nonzero" d="M197.196 60.128c-.52-.08-.947-.45-1.1-.951-.063-.247-.047-.51-.12-.754-.178-.602-.82-.914-1.251-1.372-.86-.914-.805-2.416-.195-3.516.493-.886 1.447-1.628 2.447-1.46.619.106 1.163.546 1.782.588.62.042 1.164-.3 1.706-.551a6.429 6.429 0 0 1 4.239-.377c.434.087.836.29 1.163.588.222.28.43.571.621.872.712.907 1.99 1.086 3.127 1.291 1.138.205 2.425.656 2.792 1.749.25.725 0 1.512-.135 2.265a.683.683 0 0 0 .03.465c.18.293.624.17.959.233.644.137.81.967.835 1.628.027.753.047 1.507.06 2.262a2.88 2.88 0 0 1-.067.838c-.14.393-.36.752-.649 1.053l-2.527 3.035c-1.12 1.344-2.31 2.912-2.093 4.651-.53.233-1.164-.22-1.336-.777-.172-.555-.035-1.162.084-1.723a21.12 21.12 0 0 0 .405-2.988 3.064 3.064 0 0 0-.175-1.489c-.216-.465-.721-.816-1.214-.697-.656.153-.931 1.004-1.578 1.209-.542.172-1.133-.212-1.396-.716-.263-.505-.265-1.096-.265-1.663v-1.919c0-.697-.023-1.446-.451-1.993-.533-.679-1.787-.976-2.625-.949a2.227 2.227 0 0 0-1.496.603c-.449.384-.968.665-1.577.565z"/>
        <path fill="#000" fill-rule="nonzero" d="M198.957 84.135l2.396 9.84s1.89-.012-2.396-9.84zM207.144 82.49s-3.136 5.136-1.912 10.447l.584.042s-1.042-2.458 1.328-10.488zM209.124 111.553s3.853-1.274 4.132 1.682c.01 0-.716-2.026-4.132-1.682zM198 94.574s-.765 5.35.613 7.496c0 0-2.792 1.146-6.733.918l-.466-8.414h6.587z" opacity=".1"/>
        <path fill="#000" fill-rule="nonzero" d="M198.524 101.467l-.37.207-2.373-5.348 2.22-1.989h.114c-.035.265-.654 4.863.41 7.13z" opacity=".1"/>
        <path fill="#1A3CFA" fill-rule="nonzero" d="M198 94.347s-.765 5.348.613 7.493c0 0-2.792 1.148-6.733.918l-2.678-8.411H198z"/>
        <path fill="#A27772" fill-rule="nonzero" d="M191.384 183.667a1.733 1.733 0 0 1-1.487 1.517c-2.077.309-7.082 1.1-8.345 1.702-1.608.765-7.957.233-8.264-.535-.09-.312-.05-.647.109-.93a2.452 2.452 0 0 1 1.026-1.102c.148-.083.304-.151.465-.205 1.196-.398 3.455-1.244 4.065-2.133 0 0 2.817-2.462 3.62-3.793a1.838 1.838 0 0 1 1.47-.916c.67-.03 1.417.307 1.725 1.775 0 0 3.669 2.093 4.653.258 0 0 .153 2.818.763 3.59.168.22.24.499.2.772z"/>
        <path fill="#000" fill-rule="nonzero" d="M191.384 183.667a1.733 1.733 0 0 1-1.487 1.517c-2.077.309-7.082 1.1-8.345 1.702-1.608.765-7.957.233-8.264-.535-.09-.312-.05-.647.109-.93a2.452 2.452 0 0 1 1.026-1.102c1.035.697 3.334 1.358 8.39.57 4.823-.754 7.212-1.491 8.376-1.994.166.22.237.5.195.772z" opacity=".1"/>
        <g fill="#000" fill-rule="nonzero" opacity=".1">
            <path d="M212.26 58.607v-.037c.11-.572.275-1.163.233-1.737-.049.469-.126.935-.232 1.395a.846.846 0 0 0 0 .379zM207.796 65.765c.122.276.186.573.188.875a2.636 2.636 0 0 0-.188-1.22c-.214-.464-.72-.815-1.212-.697-.656.154-.931 1.005-1.58 1.21-.54.172-1.13-.212-1.396-.717-.265-.504-.265-1.097-.265-1.665v-1.916c0-.698-.024-1.447-.452-1.993-.535-.682-1.786-.977-2.624-.951a2.23 2.23 0 0 0-1.498.604c-.45.382-.966.66-1.578.56a1.363 1.363 0 0 1-1.098-.948c-.063-.247-.047-.512-.119-.756-.179-.6-.82-.914-1.251-1.37a2.504 2.504 0 0 1-.645-1.628 2.606 2.606 0 0 0 .645 1.961c.43.465 1.072.77 1.251 1.37.072.232.056.509.119.756.153.5.58.87 1.098.948.612.1 1.129-.179 1.578-.56a2.23 2.23 0 0 1 1.498-.605c.838-.025 2.094.27 2.624.951.428.547.45 1.298.452 1.993v1.917c0 .567 0 1.163.265 1.663s.85.89 1.396.718c.642-.205.93-1.056 1.58-1.21.493-.106.998.261 1.212.71zM214.085 63.66a2.94 2.94 0 0 1-.652 1.052l-2.527 3.035c-1.063 1.276-2.187 2.755-2.093 4.386.076-1.496 1.119-2.856 2.093-4.042l2.527-3.035c.29-.3.512-.659.652-1.051.063-.275.086-.558.067-.84a2.208 2.208 0 0 1-.067.495zM207.496 71.62a1.788 1.788 0 0 1-.077-.408c-.021.253.005.509.077.753.172.554.802 1.012 1.335.775a3.254 3.254 0 0 1-.028-.335c-.53.211-1.144-.24-1.307-.784z"/>
        </g>
        <path fill="#000" fill-rule="nonzero" d="M182.064 178.888s.8 1.396 3.699.168M206.565 179.228s2.499 2.942 5.649.965M213.838 144.44s-1.766 1.102-1.822 1.732c-.056.63.912-.465.912-.465l.91-1.267zM214.536 152.895a3.693 3.693 0 0 1-2.175.85c-1.322.057-1.21 1.778-.347 1.262s2.522-2.112 2.522-2.112zM214.871 154s-.847 4.16-1.536 3.358" opacity=".1"/>
        <path fill="url(#d)" fill-rule="nonzero" d="M51.26 185.181s5.316 1.459 7.875-.481c2.56-1.94 3.67-1.316 3.67-1.316s6.102-.337 6.605-1.78c.502-1.441-2.341-6.678-2.341-6.678-.202-.466-.498-1.056-.63-1.056l.027-2.21.884-9.244c2.04-5.23.038-11.988.038-11.988l-.366-1.677a4.24 4.24 0 0 1 .347-2.79l3.706-7.442c.199-.492.432-.97.698-1.428a36.343 36.343 0 0 1 1.294-2.15c.449-.697.993-1.488 1.652-2.4 1.64-2.271 2.503-5.115 2.95-7.208l.198.655h.044l.053.012h.089l.095.016h.035l1.14 14.503c.07 5.655 2.148 8.786 2.148 8.786l-.287 12.486c.391 3.007-.465 7.016-.858 8.616l-.898 2.026a2.435 2.435 0 0 0-1.324 1.841c-.177 1.496-1.752 4.719-1.752 4.719-.61.772-1.933 2.858-1.933 2.858s-.624 2.014-.238 2.768c.387.753 3.616.676 3.616.676 3.688.817 6.514-1.162 6.335-2.525-.179-1.363.575-1.71.575-1.71 1.466-.465 1.324-1.458 1.324-1.458a9.122 9.122 0 0 0-1.11-5.94l-.233.538a8.176 8.176 0 0 1 .442-3.17l-.135.093-.041.026h-.014c.232-2.04 2.375-5.814 2.375-5.814 3.937-6.902 2.506-16.256 2.506-16.256l-.61-2.916-.035-1.1a36.698 36.698 0 0 1 .594-7.837c.211-1.145.43-2.526.598-4.05.353-3.218 1.493-6.539 2.02-7.946l.155-.028h.019c.214-.037.43-.074.649-.116h.042s.125-.679.232-1.835a32.56 32.56 0 0 0 .114-2.746c.016-3.244-.48-6.47-1.468-9.56l.119-.17s.281-.382.795-1.042a119.5 119.5 0 0 1 4.228-5.08c3.246-3.7 2.292-7.441 2.292-7.441s-2.35-8.607-3.397-13.775c-.598-2.944-1.72-4.946-2.578-6.128a12.19 12.19 0 0 0 .326-2.483c.07-1.53.016-3.126-.673-4.5-.688-1.375-2.154-2.46-3.685-2.277a1.41 1.41 0 0 1-.66 0 1.005 1.005 0 0 1-.436-.38c-.896-1.234-.954-2.895-.675-4.392.28-1.498.852-2.93 1.108-4.433.256-1.502.14-3.17-.817-4.36-1.124-1.396-3.083-1.789-4.544-2.837-1.026-.738-1.796-1.796-2.878-2.45-1.082-.653-2.094-.404-3.269-.157-1.975.416-3.852.607-5.72 1.455a15.237 15.237 0 0 0-4.987 3.626 4.73 4.73 0 0 0-1.112 1.753c-.465 1.538.445 3.175.254 4.766-.135 1.127-.8 2.109-1.329 3.116-.528 1.007-.93 2.202-.516 3.256.651 1.646 2.776 1.995 4.32 2.872.207.1.383.254.512.444.382.665-.398 1.356-.888 1.946-.281.345-.48.749-.582 1.182a4.214 4.214 0 0 0-2.53 3.051c-.523 2.342.282 5.298.992 7.251-.775 4.351.233 6.068.975 6.726a3.732 3.732 0 0 1 1.293 2.544v.081c.05.791.133 1.58.245 2.365-.026-.183-.051-.379-.065-.465-.608 1.124-1.764 3.993-2.415 8.821a26.501 26.501 0 0 1-.59 3.072 16.793 16.793 0 0 0-.492 5.493l.116 1.565a.493.493 0 0 1-.316-.104l.816 1.495v2.523c0 1.138-.21 2.266-.619 3.328-.058.154-.12.307-.188.465-.21.425-.305.897-.275 1.37-1.756 2.69-5.784 17.77-5.784 17.77-2.184 4.944.18 8.14.18 8.14s1.144 13.765 1.358 14.476c.214.712.689 9.103.689 9.103v.667a1.566 1.566 0 0 0-.398-.114c-1.915-.107-2.434 2.916-2.434 2.916l-3.918 3.74s-1.789-.302-4.42 1.672c-2.631 1.974 1.7 3.774 1.7 3.774zm39.122-79.555l-.012-.042-.107.063-.044.025-.021.014-1.806-6.37a10.572 10.572 0 0 1-.132-5.24l1.396-6.11v-1.47l4.436 11.818c.284 1.593-2.352 5.451-3.71 7.312z"/>
        <path fill="#FDC2CC" fill-rule="nonzero" d="M92.329 124.851s-1.792 4.356-2.248 8.535a55.034 55.034 0 0 1-.588 4 36.538 36.538 0 0 0-.573 7.737l.035 1.086.582 2.877s1.396 9.24-2.46 16.047c0 0-2.284 4.076-2.354 6.007l-1.547.597-3.127-.877s1.51-5.411 1.02-9.204l.28-12.326s-2.03-3.083-2.1-8.665l-1.194-15.316 14.274-.498zM78.055 122.67s-.384 5.972-3.338 10.088c-2.955 4.116-3.583 5.902-3.583 5.902l-3.64 7.354a4.21 4.21 0 0 0-.341 2.751l.358 1.656s1.968 6.674-.035 11.84l-.95 9.976h-5.55s-.466-8.29-.668-8.993c-.203-.702-1.336-14.297-1.336-14.297s-2.326-3.163-.176-8.045c0 0 4.85-18.267 6.149-17.95 1.298.315 13.11-.282 13.11-.282z"/>
        <path fill="#000" fill-rule="nonzero" d="M66.948 150.433l-.356-1.656a4.184 4.184 0 0 1 .34-2.763l3.639-7.36s.63-1.791 3.582-5.903c2.837-3.953 3.304-9.618 3.337-10.053l.565-.028s-.384 5.972-3.338 10.088c-2.955 4.116-3.583 5.902-3.583 5.902l-3.64 7.354a4.21 4.21 0 0 0-.341 2.751l.358 1.656s1.968 6.674-.035 11.84l-.95 9.976h-.562l.95-9.977c2.002-5.165.034-11.827.034-11.827zM84.17 171.147c.07-1.93 2.354-6.007 2.354-6.007 3.867-6.814 2.46-16.047 2.46-16.047l-.596-2.879-.035-1.086a36.538 36.538 0 0 1 .572-7.737c.207-1.13.421-2.493.586-4 .44-4.024 2.118-8.21 2.24-8.517l.578-.023s-1.792 4.356-2.248 8.535a55.034 55.034 0 0 1-.588 4 36.538 36.538 0 0 0-.573 7.737l.035 1.086.582 2.877s1.396 9.24-2.46 16.047c0 0-2.284 4.076-2.354 6.007l-1.547.597-.326-.09 1.32-.5z" opacity=".1"/>
        <path fill="#D39999" fill-rule="nonzero" d="M82.378 171.077a2.69 2.69 0 0 0 2.56-.317 8.252 8.252 0 0 0-.21 4.638c.633 2.53-5.905-2.038-5.905-2.038l1.396-3.188s.542 1.01 2.159.905z"/>
        <path fill="#000" fill-rule="nonzero" d="M82.864 171.219a2.614 2.614 0 0 0 2.078-.466 8.252 8.252 0 0 0-.21 4.638c.633 2.53-5.904-2.038-5.904-2.038l1.396-3.188s.404.777 1.593.898c.36.042.705.09 1.047.156z" opacity=".1"/>
        <path fill="#FDC2CC" fill-rule="nonzero" d="M67.546 111.977h2.731V96.486l-2.05-.367z"/>
        <path fill="#000" fill-rule="nonzero" d="M67.546 111.977h2.731V96.486l-2.05-.367z" opacity=".05"/>
        <path fill="#7E5659" fill-rule="nonzero" d="M80.83 172.272s1.723-.107 2.495 1.44l.95.737.465-1.089a9.066 9.066 0 0 1 1.074 5.868s.14.981-1.3 1.44c0 0-.738.35-.563 1.685.174 1.335-2.599 3.303-6.22 2.494 0 0-3.163.072-3.55-.668-.386-.74.247-2.705.247-2.705s1.3-2.06 1.896-2.82c0 0 1.547-3.187 1.724-4.652.177-1.465 1.868-2.54 2.783-1.73z"/>
        <path fill="#D39999" fill-rule="nonzero" d="M66.58 173.572l.028-2.184s-3.143.905-5.688-.118c0 0 .214 2.195-.14 2.495-.353.3 1.177 3.126 1.177 3.126l1.71 1.79 2.941-1.07.798-2.511s-.616-1.528-.826-1.528z"/>
        <path fill="#000" fill-rule="nonzero" d="M66.58 173.572l.028-2.184s-3.143.905-5.688-.118c0 0 .214 2.195-.14 2.495-.353.3 1.177 3.126 1.177 3.126l1.71 1.79 2.941-1.07.798-2.511s-.616-1.528-.826-1.528z" opacity=".1"/>
        <path fill="#7E5659" fill-rule="nonzero" d="M60.587 172.781s1.67.193 1.459 2.326c-.212 2.133.088 0 .088 0s1.775.719 2.408 1.72c.633 1.003 1.775-.894 1.862-1.439.086-.544.798-.77.798-.77s2.792 5.175 2.298 6.598c-.493 1.424-6.486 1.751-6.486 1.751s-1.091-.614-3.604 1.3c-2.513 1.914-7.732.466-7.732.466s-4.253-1.775-1.668-3.721c2.585-1.947 4.34-1.652 4.34-1.652l3.848-3.707s.51-2.979 2.389-2.872z"/>
        <path fill="#865A61" fill-rule="nonzero" d="M80.538 50.453c1.063.645 1.82 1.691 2.826 2.42 1.434 1.034 3.358 1.42 4.46 2.801.931 1.177 1.052 2.821.8 4.305-.25 1.484-.813 2.9-1.086 4.38-.272 1.478-.216 3.118.663 4.336.103.164.25.294.426.375.214.05.436.05.65 0 1.502-.182 2.945.893 3.62 2.249.674 1.355.728 2.932.658 4.444-.058 1.24-.198 2.504-.742 3.62-.93 1.898-2.867 3.07-4.777 3.968a37.002 37.002 0 0 1-3.813 1.54c-.893.302-1.836.574-2.764.416-1.59-.274-2.715-1.719-4.223-2.284-1.235-.465-2.606-.297-3.92-.181-1.122.098-2.403.095-3.176-.723-.991-1.052-.544-2.747-.037-4.1a2.92 2.92 0 0 1-2.066-4.772c.48-.584 1.245-1.266.87-1.924a1.275 1.275 0 0 0-.503-.437c-1.514-.865-3.601-1.212-4.239-2.835-.41-1.044-.014-2.225.505-3.218.52-.993 1.164-1.966 1.305-3.077.187-1.572-.698-3.189-.248-4.705a4.716 4.716 0 0 1 1.09-1.735 14.974 14.974 0 0 1 4.887-3.579c1.835-.84 3.676-1.028 5.616-1.437 1.163-.247 2.126-.507 3.218.153z"/>
        <path fill="#FDC2CC" fill-rule="nonzero" d="M70.275 73.865s-4.45-.232-5.293 3.56c-.842 3.794 1.826 9.226 1.826 9.226l3.467-12.786z"/>
        <path fill="#000" fill-rule="nonzero" d="M70.275 73.865s-4.45-.232-5.293 3.56c-.842 3.794 1.826 9.226 1.826 9.226l3.467-12.786z" opacity=".05"/>
        <path fill="#FDC2CC" fill-rule="nonzero" d="M67.434 85.153l1.687 1.335 7.87.352 4.915-3.373 4.997-8.572c-3.055-.779-4.29-2.888-4.75-4.86a10.637 10.637 0 0 1-.098-4.06s-8.013-4.147-7.03 2.325c.136.794.16 1.603.075 2.405-.465 3.79-4.146 3.076-4.146 3.076l-1.412 2.177-1.617 5.349-.49 3.846z"/>
        <path fill="#000" fill-rule="nonzero" d="M75.033 68.29c.135.795.16 1.604.074 2.405a7.106 7.106 0 0 0 7.052-.66 10.637 10.637 0 0 1-.097-4.06s-8.013-4.147-7.03 2.316z" opacity=".1"/>
        <ellipse cx="78.06" cy="63.96" fill="#FDC2CC" fill-rule="nonzero" rx="7.098" ry="7.095"/>
        <path fill="#1A3CFA" fill-rule="nonzero" d="M73.039 83.8c.172 0 .342.026.512.042.93.093 4.818.302 7.033-2.342 2.478-2.958 5.777-6.612 5.912-6.76l3.357 1.013s-2.657-.944-4.42 3.996a5.115 5.115 0 0 0 1.729 5.886 5.32 5.32 0 0 0 2.196.93.012.012 0 0 1 0 .012v2.167l-1.373 6.047a10.477 10.477 0 0 0 .13 5.174l2.094 7.398c-.316.218-13.308 9.051-21.986 2.951.033-.265 1.105-8.947.36-13.195a29.327 29.327 0 0 1-.388-3.284v-.082a3.702 3.702 0 0 0-1.273-2.511c-.781-.698-1.84-2.558-.793-7.475a18.055 18.055 0 0 1 1.163-3.541l2.91-6.575 2.683.054c-.232.288-3.343 4.172-3.68 6.674-.33 2.398-.738 3.128 3.834 3.421z"/>
        <path fill="#FDC2CC" fill-rule="nonzero" d="M92.113 76.91s2.624 2.248 3.655 7.353c1.03 5.104 3.327 13.584 3.327 13.584s.93 3.7-2.25 7.353c-3.18 3.653-5.296 6.512-5.296 6.512l-2.093 3.083a2.627 2.627 0 0 1-1.508 1.065c-.954.252-2.42.433-3.69-.262a2.148 2.148 0 0 1-.93-2.714l.465-1.077s-4.312 2.716-4.686 1.216c-.375-1.5 5.014-2.997 5.014-2.997s4.45-.75 5.35-2.856c0 0 4.78-6.137 4.405-8.244L89.26 86.56s-5.772-.762-3.804-7.244c1.968-6.481 6.657-2.407 6.657-2.407z"/>
        <path fill="#65617D" fill-rule="nonzero" d="M64.512 123.56s10.544 2.107 13.029 1.826l.268.89s4.001.896 13.05-.539a75.61 75.61 0 0 0 1.84-.314l.212-.037s.123-.67.22-1.812c.217-2.593.294-7.614-1.533-12.753l-1.521-4.684s-9.404 5.635-15.63 5.116a33.275 33.275 0 0 0-1.664-.109c-1.277-.049-3.257 0-4.544-1.03l-2.699.465v7.674a9.192 9.192 0 0 1-.61 3.284 13.83 13.83 0 0 1-.185.465 2.44 2.44 0 0 0-.233 1.558z"/>
        <path fill="#000" fill-rule="nonzero" d="M77.806 123.888v2.389s4.607 1.03 15.102-.891c0 0 .124-.67.221-1.812-3.22.517-12.1 1.759-15.323.314z" opacity=".1"/>
        <path fill="#000" fill-rule="nonzero" d="M64.512 123.56s10.544 2.107 13.029 1.826l.268.89v-2.388c-1.201.498-9.772-1.567-12.878-2.341a13.83 13.83 0 0 1-.186.465 2.44 2.44 0 0 0-.233 1.548z" opacity=".1"/>
        <path fill="#65617D" fill-rule="nonzero" d="M90.074 120.898l.782 4.846a75.61 75.61 0 0 0 1.84-.314c-.244-1.416-.777-4.65-.63-5.188l-.984-.842-1.008 1.498z"/>
        <path fill="#000" fill-rule="nonzero" d="M90.184 120.793l.781 4.849c.591-.095 1.205-.2 1.84-.314-.243-1.416-.776-4.651-.63-5.188l-.984-.845-1.007 1.498z" opacity=".1"/>
        <g fill="#000" fill-rule="nonzero" opacity=".05">
            <path d="M73.881 111.251a33.092 33.092 0 0 0-1.663-.11c-1.243-.046-3.139 0-4.432-.95l.45-.08c1.295 1.026 3.258.982 4.545 1.03.556.02 1.107.064 1.663.11.182.016.368.026.556.03-.373.01-.747 0-1.119-.03zM90.293 125.737a83.575 83.575 0 0 0 1.84-.311l.214-.04s.124-.67.22-1.812c.218-2.593.295-7.614-1.534-12.753l-1.433-4.419c.305-.172.465-.272.465-.272l1.522 4.684c1.826 5.14 1.75 10.16 1.533 12.753-.098 1.142-.221 1.812-.221 1.812l-.212.04c-.634.114-1.248.218-1.84.311-4.228.67-7.35.833-9.481.814a59.82 59.82 0 0 0 8.927-.807zM76.973 125.386v.026h-.302c.115-.008.215-.017.302-.026z"/>
        </g>
        <ellipse cx="91.384" cy="120.984" fill="#D39999" fill-rule="nonzero" rx="1" ry="1"/>
        <path fill="#FDC2CC" fill-rule="nonzero" d="M65.992 104.407c.642-4.767 1.775-7.6 2.373-8.71.023.152.084.643.112.794.12.697.014 1.576.05 2.462l-.595 10.782.798 3.372c.75 2.67-2.026.56-2.026.56-.575 1.266-1.629 1.126-1.629 1.126l-.144-1.935a16.705 16.705 0 0 1 .484-5.425c.252-.997.445-2.007.577-3.026z"/>
        <path fill="#000" fill-rule="nonzero" d="M65.992 104.407c.642-4.767 1.775-7.6 2.373-8.71.023.152.084.643.112.794.12.697.014 1.576.05 2.462l-.595 10.782.798 3.372c.75 2.67-2.026.56-2.026.56-.575 1.266-1.629 1.126-1.629 1.126l-.144-1.935a16.705 16.705 0 0 1 .484-5.425c.252-.997.445-2.007.577-3.026z" opacity=".05"/>
        <path fill="#FDC2CC" fill-rule="nonzero" d="M92.696 110.223c-.504.654-.781 1.028-.781 1.028l-2.094 3.082a2.615 2.615 0 0 1-1.508 1.065c-.954.25-2.42.435-3.69-.263a2.144 2.144 0 0 1-.93-2.712l.465-1.079s-4.311 2.716-4.686 1.219c-.375-1.498 5.014-2.998 5.014-2.998s4.45-.749 5.351-2.858c0 0 .389-.498.93-1.26"/>
        <path fill="#65617D" fill-rule="nonzero" d="M90.074 115.388s-5.097-.495-6.712-3.409l-.74 2.407s5.351 3.693 6.573 3.214l.88-2.212z"/>
        <path fill="#000" fill-rule="nonzero" d="M89.893 115.365s-5.095-.495-6.712-3.412l-.738 2.4s5.351 3.694 6.57 3.214l.88-2.202z" opacity=".1"/>
        <path fill="#65617D" fill-rule="nonzero" d="M66.871 114.028s-1.784.632-2.136.281l.803 1.477 1.517-1.163-.184-.595z"/>
        <path fill="#000" fill-rule="nonzero" d="M66.871 114.028s-1.784.632-2.136.281l.803 1.477 1.517-1.163-.184-.595zM77.806 123.888v-3.081l-.733 3.156zM85.035 60.214c-.43.605-1.177.912-1.912 1.007-.736.095-1.48.014-2.222 0-1.164-.019-2.401.16-3.353.844-.607.435-1.063 1.047-1.538 1.628-1.438 1.756-3.434 3.4-5.7 3.216-.399 0-.78-.16-1.059-.446a1.697 1.697 0 0 1-.27-.963 22 22 0 0 1 .138-4.34c.09-.89.312-1.762.656-2.588a8.837 8.837 0 0 1 1.577-2.251 9.648 9.648 0 0 1 2.753-2.205 4.939 4.939 0 0 1 3.443-.444c1.356.37 2.413 1.43 3.706 1.977 1.478.62 5.4 2.279 3.781 4.565z" opacity=".1"/>
        <path fill="#865A61" fill-rule="nonzero" d="M85.035 59.933c-.43.604-1.177.911-1.912 1.007-.736.095-1.48.013-2.222 0-1.164-.021-2.401.158-3.353.841-.607.435-1.063 1.047-1.538 1.628-1.438 1.756-3.434 3.4-5.7 3.217a1.468 1.468 0 0 1-1.059-.447 1.69 1.69 0 0 1-.27-.963 22 22 0 0 1 .138-4.34c.09-.89.312-1.762.656-2.588a8.777 8.777 0 0 1 1.577-2.248 9.615 9.615 0 0 1 2.753-2.207 4.939 4.939 0 0 1 3.443-.445c1.356.37 2.413 1.43 3.706 1.977 1.478.623 5.4 2.277 3.781 4.568z"/>
        <path fill="#FDC2CC" fill-rule="nonzero" d="M68.24 110.11l-.02.848-.19-.811z"/>
        <path fill="#000" fill-rule="nonzero" d="M68.24 110.11l-.02.848-.19-.811zM86.182 78.872c-1.97 6.481 3.774 7.242 3.774 7.242l4.616 12.365c.374 2.107-4.407 8.244-4.407 8.244-.333.786-1.163 1.384-2.07 1.826.53-.323.956-.791 1.228-1.349 0 0 4.779-6.135 4.404-8.242l-4.616-12.367s-5.742-.76-3.774-7.242c.659-2.165 1.63-3.151 2.61-3.505-.676.544-1.297 1.486-1.765 3.028z" opacity=".05"/>
        <g fill="#000" fill-rule="nonzero" opacity=".1">
            <path d="M86.28 84.76c.27.334.582.63.93.882a5.29 5.29 0 0 0 2.197.93V86.816a5.273 5.273 0 0 1-1.992-.881 4.827 4.827 0 0 1-1.135-1.175zM68.43 94.033v.081c.073 1.105.206 2.205.4 3.295.698 4.01-.216 11.97-.346 13.07l-.233-.149c.035-.265 1.107-8.946.363-13.193a29.457 29.457 0 0 1-.389-3.284v-.08a3.587 3.587 0 0 0-.626-1.78c.483.577.773 1.29.831 2.04zM72.713 73.967l-2.275-.044a.012.012 0 0 0-.012 0l-2.908 6.572a18.113 18.113 0 0 0-1.163 3.542c-.847 3.977-.314 5.958.332 6.937-.728-.858-1.48-2.814-.542-7.209.26-1.218.646-2.406 1.152-3.544l2.93-6.572 2.682.053c-.021.045-.093.133-.196.265zM89.86 75.751l.04.012-.04-.012z"/>
            <path d="M89.025 75.714l-2.28-.686c-.135.149-3.432 3.802-5.91 6.76-2.214 2.645-6.098 2.438-7.033 2.345-.17-.019-.342-.033-.512-.045-2.543-.162-3.543-.465-3.878-1.107.477.466 1.526.698 3.667.828.172 0 .342.026.511.042.931.093 4.819.3 7.034-2.342 2.478-2.96 5.777-6.614 5.912-6.762l3.317 1.004a2.074 2.074 0 0 0-.828-.037z"/>
        </g>
        <path fill="#000" fill-rule="nonzero" d="M62.03 176.16s-3.211.877-3.832-.5M82.413 175.502s-3.723.96-4.584-.525" opacity=".1"/>
        <path fill="url(#e)" fill-rule="nonzero" d="M136.092 173.42c.054-.464.13-.93.214-1.394.368-2.01-.193-3.926-.465-4.717-.086-.244-.149-.381-.149-.381-1.482-.405-7.324 4.125-9.453 5.832-.737 0-1.538.033-2.413.091a12.54 12.54 0 0 1-1.144.03h-1.396c-1.976-1.59-8.09-6.374-9.611-5.96 0 0-.063.137-.15.381-.283.791-.844 2.707-.476 4.717.083.465.16.93.214 1.395.114 1.02.542 2.981 2.094 4.305.332 2.418 1.577 5.597 2.536 7.528.071.364.18.72.325 1.062-.395 1.526-.851 3.517-.72 4.186 0 0-2.067-.5-2.276 1.986v.077c-.747.342-1.68 1.126-.63 2.768.126.202.315.356.539.44.186.064.368.064.349-.196l1.291 1.453s2.34.27 2.369-1.088l.137.02c.314.047.642.087.98.122l.162.537s-1.756-.037-1.277 1.044c0 0 .442.41.593.26 0 0-.232.71.684.71 0 0 .985.52 1.368.149.384-.372 1.18-.93 1.254-1.163.021-.063.03-.614.035-1.377h.152c1.96.047 4.043-.016 5.937-.118h.154c0 .825.011 1.434.032 1.5.077.232.875.783 1.257 1.162.381.38 1.365-.148 1.365-.148.912 0 .684-.71.684-.71.154.15.596-.26.596-.26.48-1.082-1.28-1.044-1.28-1.044l.21-.698.97-.081.153-.014c-.093 1.476 2.367 1.193 2.367 1.193l1.293-1.454c-.02.26.16.26.347.195.219-.086.403-.242.523-.444 1.585-2.476-1.342-3.002-1.342-3.002a1.436 1.436 0 0 0-.277-.044c0-.042 0-.086.012-.128a5.1 5.1 0 0 0 .018-.982c-.11-.448-.83-1.162-1.742-1.267-.596-.074-.608-2.81-.547-4.705a5.41 5.41 0 0 0 .093-1.079 5.69 5.69 0 0 0-.233-1.728c1.164-1.972 2.094-4.04 2.199-4.65 1.533-1.336 1.961-3.29 2.075-4.31z"/>
        <path fill="#1A3CFA" fill-rule="nonzero" d="M133.84 192.27c-.093 1.288-.342 3.356-.342 3.356s-1.035.125-2.636.27l-1.086.092c-.833.068-1.769.133-2.757.189-1.827.1-3.832.163-5.724.116-.945-.02-1.861-.07-2.71-.153-.38-.038-.747-.082-1.096-.133-2.169-.323-3.723-.942-3.855-2.028a6.276 6.276 0 0 1-.05-1.395c.203-2.442 2.192-1.95 2.192-1.95-.128-.674.354-2.769.745-4.285.247-.956.465-1.682.465-1.682l13.988-.93h.046a.684.684 0 0 1 .684.719c-.083 1.677-.202 5.516.484 5.602.88.11 1.575.805 1.682 1.244.02.323.01.647-.03.968zM121.96 173.865s-5.274 6.347-7.815 4.588a3.373 3.373 0 0 1-.174-.127c-1.708-1.293-2.157-3.377-2.275-4.435a20.153 20.153 0 0 0-.208-1.368c-.35-1.974.187-3.853.466-4.63.084-.233.142-.374.142-.374 1.756-.489 9.864 6.346 9.864 6.346z"/>
        <path fill="#1A3CFA" fill-rule="nonzero" d="M119.127 174.451s-1.662 1.163-4.004 3.075a8.46 8.46 0 0 1-1.164.8c-1.707-1.293-2.156-3.377-2.275-4.435a20.153 20.153 0 0 0-.207-1.368c-.351-1.974.186-3.853.465-4.63 3.285.228 7.185 6.558 7.185 6.558z"/>
        <path fill="#FFF" fill-rule="nonzero" d="M119.127 174.451s-1.662 1.163-4.004 3.075a8.46 8.46 0 0 1-1.164.8c-1.707-1.293-2.156-3.377-2.275-4.435a20.153 20.153 0 0 0-.207-1.368c-.351-1.974.186-3.853.465-4.63 3.285.228 7.185 6.558 7.185 6.558z" opacity=".5"/>
        <path fill="#000" fill-rule="nonzero" d="M117.319 173.826s-.887.625-2.138 1.641a4.502 4.502 0 0 1-.614.426c-.91-.698-1.164-1.802-1.215-2.365a9.755 9.755 0 0 0-.11-.733c-.119-.832-.03-1.68.259-2.47 1.738.122 3.818 3.5 3.818 3.5z" opacity=".1"/>
        <path fill="#1A3CFA" fill-rule="nonzero" d="M125.378 173.865s5.275 6.347 7.815 4.588c.058-.041.119-.083.175-.127 1.708-1.293 2.157-3.377 2.275-4.435.051-.465.126-.914.205-1.368.354-1.974-.186-3.853-.465-4.63-.084-.233-.145-.374-.145-.374-1.752-.489-9.86 6.346-9.86 6.346z"/>
        <path fill="#1A3CFA" fill-rule="nonzero" d="M128.21 174.451s1.663 1.163 4.006 3.075a8.46 8.46 0 0 0 1.152.8c1.708-1.293 2.157-3.377 2.275-4.435.051-.465.126-.914.205-1.368.354-1.974-.186-3.853-.465-4.63-3.27.228-7.173 6.558-7.173 6.558z"/>
        <path fill="#FFF" fill-rule="nonzero" d="M128.21 174.451s1.663 1.163 4.006 3.075a8.46 8.46 0 0 0 1.152.8c1.708-1.293 2.157-3.377 2.275-4.435.051-.465.126-.914.205-1.368.354-1.974-.186-3.853-.465-4.63-3.27.228-7.173 6.558-7.173 6.558z" opacity=".5"/>
        <path fill="#000" fill-rule="nonzero" d="M130.031 173.82s.882.624 2.125 1.629c.19.158.396.3.612.423.905-.686 1.144-1.79 1.207-2.351.026-.233.065-.486.11-.728a5.09 5.09 0 0 0-.245-2.456c-1.74.126-3.809 3.484-3.809 3.484zM130.964 183.742c-.665 1.051-1.372 2-2.019 2.572-2.094 1.86-11.135 1.12-11.721 1.026-.124-.021-.38-.387-.698-.98.246-.955.465-1.68.465-1.68l13.973-.938z" opacity=".1"/>
        <path fill="#1A3CFA" fill-rule="nonzero" d="M123.808 173.333a12.5 12.5 0 0 1-1.105.027c-1.887-.032-8.243.052-8.948 2.617-.831 3.023 2.882 11.118 3.466 11.216.584.098 9.623.83 11.724-1.026 2.1-1.855 4.835-7.674 4.688-8.202 0 0 2.606-5.493-9.825-4.632z"/>
        <path fill="#000" fill-rule="nonzero" d="M123.608 178.235s-4.653-.716-6.836 3.86a5.58 5.58 0 0 0 .412 5.626c.726 1.02 1.791 1.781 3.274 1.163 3.294-1.356 3.15-10.65 3.15-10.65z" opacity=".1"/>
        <path fill="#000" fill-rule="nonzero" d="M123.461 177.942s-4.653-.716-6.835 3.86a5.58 5.58 0 0 0 .411 5.626c.726 1.02 1.792 1.781 3.274 1.163 3.294-1.356 3.15-10.65 3.15-10.65z" opacity=".1"/>
        <path fill="#1A3CFA" fill-rule="nonzero" d="M123.461 178.088s-4.653-.716-6.835 3.86a5.58 5.58 0 0 0 .411 5.626c.726 1.021 1.792 1.782 3.274 1.163 3.294-1.356 3.15-10.649 3.15-10.649z"/>
        <path fill="#FFF" fill-rule="nonzero" d="M123.461 178.088s-4.653-.716-6.835 3.86a5.58 5.58 0 0 0 .411 5.626c.726 1.021 1.792 1.782 3.274 1.163 3.294-1.356 3.15-10.649 3.15-10.649z" opacity=".5"/>
        <path fill="#3F2B3B" fill-rule="nonzero" d="M118.443 182.09s-.635.587-.391.733c.244.147.39-.732.39-.732zM119.127 182.84s-.347.765-.1.848c.246.084.393-.548.393-.548l-.293-.3zM117.593 183.995s-.34.903 0 .903 0-.903 0-.903z"/>
        <path stroke="#3F2B3B" stroke-width=".5" d="M117.172 186.412s.68 1.735 2.448 1.611M118.761 186.923s.698.684 1.464.196"/>
        <path fill="#000" fill-rule="nonzero" d="M124.203 178.235s4.654-.716 6.836 3.86a5.58 5.58 0 0 1-.412 5.626c-.723 1.02-1.791 1.781-3.273 1.163-3.304-1.356-3.15-10.65-3.15-10.65z" opacity=".1"/>
        <path fill="#000" fill-rule="nonzero" d="M124.34 177.942s4.654-.716 6.836 3.86a5.58 5.58 0 0 1-.412 5.626c-.723 1.02-1.791 1.781-3.273 1.163-3.288-1.356-3.15-10.65-3.15-10.65z" opacity=".1"/>
        <path fill="#1A3CFA" fill-rule="nonzero" d="M124.34 178.088s4.654-.716 6.836 3.86a5.58 5.58 0 0 1-.412 5.626c-.723 1.021-1.791 1.782-3.273 1.163-3.288-1.356-3.15-10.649-3.15-10.649z"/>
        <path fill="#FFF" fill-rule="nonzero" d="M124.34 178.088s4.654-.716 6.836 3.86a5.58 5.58 0 0 1-.412 5.626c-.723 1.021-1.791 1.782-3.273 1.163-3.288-1.356-3.15-10.649-3.15-10.649z" opacity=".5"/>
        <path fill="#3F2B3B" fill-rule="nonzero" d="M129.36 182.09s.634.587.39.733c-.244.147-.39-.732-.39-.732zM128.675 182.84s.347.765.1.848c-.247.084-.393-.548-.393-.548l.293-.3zM130.21 183.995s.338.903 0 .903c-.337 0 0-.903 0-.903z"/>
        <path stroke="#3F2B3B" stroke-width=".5" d="M130.63 186.412s-.68 1.735-2.448 1.611M129.043 186.923s-.698.684-1.466.196"/>
        <path fill="#3F2B3B" fill-rule="nonzero" d="M121.69 191.342c.124-.023 2.444-1.026 4.835 0h-4.834z"/>
        <path fill="#000" fill-rule="nonzero" d="M117.489 196.014c-2.169-.323-3.723-.942-3.855-2.028a6.276 6.276 0 0 1-.05-1.395c.261-.14.54-.241.829-.303.393-.109.88-.035 1.905.259 1.027.293.952 1.5 1.164 3.074a1.3 1.3 0 0 1 .007.393z" opacity=".1"/>
        <path fill="#1A3CFA" fill-rule="nonzero" d="M114.266 192.44s-2.82.516-1.293 2.948c.12.198.304.35.521.43.18.063.351.063.333-.192l1.247 1.427s2.49.294 2.27-1.28c-.218-1.575-.146-2.792-1.163-3.075-1.017-.284-1.517-.368-1.915-.258z"/>
        <path stroke="#3F2B3B" stroke-width=".5" d="M114.939 194.077s.598 1.365 1.428.218M113.566 194.619s.31 1.293 1.482.33"/>
        <path fill="#000" fill-rule="nonzero" d="M133.84 192.27c-.093 1.288-.342 3.356-.342 3.356s-1.035.125-2.636.27a1.35 1.35 0 0 1 0-.27c.219-1.575.147-2.791 1.163-3.075.954-.258 1.44-.353 1.815-.281z" opacity=".1"/>
        <path fill="#1A3CFA" fill-rule="nonzero" d="M134.096 192.44s2.822.516 1.296 2.948a1.05 1.05 0 0 1-.521.43c-.18.063-.354.063-.335-.192l-1.245 1.427s-2.492.294-2.27-1.28c.22-1.575.146-2.792 1.163-3.075 1.016-.284 1.521-.368 1.912-.258z"/>
        <path stroke="#3F2B3B" stroke-width=".5" d="M133.426 194.077s-.6 1.365-1.429.218M134.799 194.619s-.312 1.293-1.485.33"/>
        <path fill="#000" fill-rule="nonzero" d="M121.295 196.293c-.945-.02-1.861-.07-2.71-.153l-.845-2.842a1.843 1.843 0 0 1-.077-.519 1.81 1.81 0 0 1 3.618-.012c.01 1.107.019 2.51.014 3.526z" opacity=".1"/>
        <path fill="#1A3CFA" fill-rule="nonzero" d="M117.593 193.298l.996 3.353s-1.694-.037-1.23 1.026c0 0 .425.402.572.256 0 0-.221.697.658.697 0 0 .95.514 1.317.147.368-.368 1.138-.917 1.212-1.135.047-.144.033-2.949.017-4.884a1.805 1.805 0 0 0-1.808-1.79 1.808 1.808 0 0 0-1.734 2.33z"/>
        <path stroke="#3F2B3B" stroke-width=".5" d="M118.938 197.519s-.74.697-.349 1.109M118.62 197.074s-.685.233-.685.859"/>
        <path fill="#000" fill-rule="nonzero" d="M130.65 192.78c0 .175-.025.35-.074.518l-.789 2.69c-.833.068-1.768.133-2.757.189 0-1.005 0-2.342.016-3.41a1.807 1.807 0 0 1 3.616.012h-.012z" opacity=".1"/>
        <path fill="#1A3CFA" fill-rule="nonzero" d="M130.718 193.298l-.996 3.353s1.696-.037 1.233 1.026c0 0-.426.402-.572.256 0 0 .218.697-.661.697 0 0-.95.514-1.317.147-.367-.368-1.135-.917-1.21-1.135-.046-.144-.032-2.949-.016-4.884a1.808 1.808 0 1 1 3.539.54z"/>
        <path stroke="#3F2B3B" stroke-width=".5" d="M129.375 197.519s.74.697.35 1.109M129.701 197.074s.684.233.684.859"/>
        <path fill="#000" fill-rule="nonzero" d="M123.463 177.356s-3.445-.11-3.555 2.558c-.109 2.667 5.384 1.537 5.384 1.537s2.308-.31 1.906-1.93c-.403-1.621-1.243-2.019-3.735-2.165z" opacity=".1"/>
        <path fill="#000" fill-rule="nonzero" d="M123.463 177.063s-3.445-.11-3.555 2.558c-.109 2.667 5.384 1.537 5.384 1.537s2.308-.31 1.906-1.93c-.403-1.621-1.243-2.019-3.735-2.165z" opacity=".1"/>
        <path fill="#3F2B3B" fill-rule="nonzero" d="M123.463 177.21s-3.445-.11-3.555 2.557c-.109 2.668 5.384 1.538 5.384 1.538s2.308-.31 1.906-1.93c-.403-1.622-1.243-2.02-3.735-2.166z"/>
        <path fill="#000" fill-rule="nonzero" d="M115.776 190.647s1.164.413 1.396 1.206M132.179 190.06s-.826.347-.768 1.793" opacity=".1"/>
        <ellipse cx="116.266" cy="196.692" fill="#1A3CFA" fill-rule="nonzero" rx="1" ry="1" transform="rotate(-29.887 116.266 196.692)"/>
        <ellipse cx="132.638" cy="195.894" fill="#1A3CFA" fill-rule="nonzero" rx="1" ry="1" transform="rotate(-60 132.638 195.894)"/>
        <ellipse cx="116.266" cy="196.692" fill="#FFF" fill-rule="nonzero" opacity=".5" rx="1" ry="1" transform="rotate(-29.887 116.266 196.692)"/>
        <ellipse cx="132.638" cy="195.894" fill="#FFF" fill-rule="nonzero" opacity=".5" rx="1" ry="1" transform="rotate(-60 132.638 195.894)"/>
        <ellipse cx="45.043" cy="166.526" fill="#1A3CFA" fill-rule="nonzero" opacity=".1" rx="6.266" ry="1.058"/>
        <ellipse cx="20.36" cy="181.533" fill="#1A3CFA" fill-rule="nonzero" opacity=".1" rx="6.266" ry="1.058"/>
        <ellipse cx="13.836" cy="168.107" fill="#1A3CFA" fill-rule="nonzero" rx="9.355" ry="1.581"/>
        <path fill="#1A3CFA" fill-rule="nonzero" d="M9.967 165.52a2.705 2.705 0 0 1-.893-1.343c-.114-.535.114-1.175.623-1.37.573-.219 1.185.177 1.648.577.463.4.995.858 1.603.774a2.439 2.439 0 0 1-.754-2.284.93.93 0 0 1 .21-.465c.316-.34.893-.193 1.274.075 1.208.85 1.547 2.493 1.552 3.972.123-.535.02-1.089.023-1.628.003-.54.154-1.163.614-1.447.285-.157.606-.237.931-.232.544-.019 1.15.035 1.522.432.465.493.342 1.324-.06 1.86-.403.538-1.013.885-1.574 1.261a3.47 3.47 0 0 0-1.126 1.072c-.034.061-.062.125-.083.191h-3.4a9.409 9.409 0 0 1-2.11-1.444z"/>
        <ellipse cx="239.833" cy="175.377" fill="#1A3CFA" fill-rule="nonzero" opacity=".1" rx="6.266" ry="1.058"/>
        <path fill="#A8A8A8" fill-rule="nonzero" d="M235.627 170.458s3.573-.11 4.653-.877c1.08-.767 5.495-1.681 5.763-.45.267 1.23 5.372 6.113 1.335 6.146-4.036.032-9.374-.628-10.448-1.284-1.075-.656-1.303-3.535-1.303-3.535z"/>
        <path fill="#000" fill-rule="nonzero" d="M247.448 174.851c-4.034.033-9.374-.628-10.449-1.284-.819-.497-1.144-2.286-1.254-3.111h-.118s.232 2.881 1.3 3.535c1.068.653 6.415 1.316 10.449 1.283 1.163 0 1.568-.423 1.545-1.037-.16.382-.605.614-1.473.614z" opacity=".2"/>
    </g>
</svg>
