<svg xmlns="http://www.w3.org/2000/svg" width="298" height="200" viewBox="0 0 298 200">
    <defs>
        <linearGradient id="a" x1="50.005%" x2="50.005%" y1="100.027%" y2="-.01%">
            <stop offset="0%" stop-color="gray" stop-opacity=".25"/>
            <stop offset="54%" stop-color="gray" stop-opacity=".12"/>
            <stop offset="100%" stop-color="gray" stop-opacity=".1"/>
        </linearGradient>
        <linearGradient id="b" x1="50.979%" x2="48.987%" y1="100.245%" y2="-.814%">
            <stop offset="0%" stop-color="gray" stop-opacity=".25"/>
            <stop offset="54%" stop-color="gray" stop-opacity=".12"/>
            <stop offset="100%" stop-color="gray" stop-opacity=".1"/>
        </linearGradient>
        <linearGradient id="c" x1="50.006%" x2="50.006%" y1="99.984%" y2="-.001%">
            <stop offset="0%" stop-color="gray" stop-opacity=".25"/>
            <stop offset="54%" stop-color="gray" stop-opacity=".12"/>
            <stop offset="100%" stop-color="gray" stop-opacity=".1"/>
        </linearGradient>
    </defs>
    <g fill="none" fill-rule="nonzero">
        <path fill="#1A3CFA" d="M147.584 41.019c-22.332.17-3.784-4.874-24.298-10.495-20.514-5.622-20.861-11.934-42.755-14.511-14.082-1.666-30.108-1.404-41.18 5.047-10.651 6.202-13.8 16.366-15.357 25.748-1.17 7.06-1.742 14.466 2.38 20.892 2.863 4.458 7.792 8.117 11.26 12.363 12.076 14.776 4.59 33.789-7.384 49.057-5.609 7.151-12.173 14.035-16.446 21.606-4.274 7.57-6.054 16.123-1.828 23.533 4.191 7.347 13.742 12.637 24.011 16.23 20.862 7.3 25.185 8.738 48.874 9.202 52.435 1.022 65.004-2.095 117.43-5.208 19.403-1.152 38.891-2.313 57.906-5.41 10.56-1.72 21.439-4.237 28.957-9.653 9.543-6.877 11.576-18.02 4.734-25.975-11.479-13.34-41.975-15.672-50.181-30.136-4.516-7.962-.496-17.151 5.365-24.893 12.605-16.608 34.193-31.545 34.7-50.04.35-12.698-10.73-25.01-27.356-30.42-17.434-5.678-41.274-4.035-53.602 6.82-12.674 11.158-35.505 16.095-55.23 16.243z" opacity=".1"/>
        <path fill="#1A3CFA" d="M235.501 173.795s-3.879-2.558-7.723-.741c0 0 1.184 2.28 6.05 2.063l1.673-1.322zM235.978 173.93s1.18 4.493-1.777 7.55c0 0-1.78-1.852-.016-6.389l1.793-1.16zM240.816 169.618s-.287-3.82-8.919-2.555c0 0-.038 2.467 2.992 3.634 3.03 1.167 4.415.183 5.927-1.079zM241.346 169.593s3.649 1.17.395 9.262c0 0-2.405-.536-2.84-3.757-.436-3.221.864-4.335 2.445-5.505zM246.232 164.17s.495-6.287-8.326-5.64c0 0-.631 5.678 6.77 7.155l1.556-1.515zM252.048 157.076s-1.209-7.126-10.023-5.003c0 0-.035 6.16 8.584 6.7l1.44-1.697zM256.321 149.738s-2.026-6.94-10.762-4.864c0 0 2.08 6.243 10.182 6.145l.58-1.28zM260.368 142.571s-1.98-7.202-10.415-5.047c0 0 2.815 6.842 9.856 6.268l.559-1.221zM262.978 135.763s-1.522-8.807-9.386-6.858c0 0 2.281 8.013 8.805 8.14l.58-1.282zM265.42 127.54s-1.824-8.88-9.783-6.31c0 0 3.12 8.391 9.222 7.524l.561-1.215zM266.935 119.883s-2.9-8.877-9.051-8.637c0 0 2.966 9.379 8.521 10.41l.53-1.773zM267.898 112.416s-3.156-10.687-8.165-9.864c0 0 2.187 8.17 7.985 11.53l.18-1.666zM268.46 103.495s-2.958-8.905-7.89-9.262c0 0 2.01 8.764 7.789 11.575l.1-2.313zM269.04 95.205s-3.69-8.915-6.943-9.117c0 0 1.603 8.78 6.628 10.58l.315-1.463zM269.45 87.454s-2.265-9.684-5.529-10.486c0 0 .445 7.922 5.201 11.212l.329-.726zM270.669 77.331s-2.386-7.716-5.028-8.893c0 0 .524 9.098 4.419 10.783l.609-1.89zM271.698 70.685l.483-13.61s-4.93 10.272-.846 16.01l.363-2.4zM275.513 57.16s3.554-9.936 4.419-10.491c0 0-6.975 6.448-6.293 14.741l1.874-4.25zM246.475 164.126s6.255-.82 6.066 8.02c0 0-5.653.917-7.496-6.389l1.43-1.63zM252.364 156.836s7.23-.022 6.627 9.022c0 0-6.065 1.082-8.07-7.312l1.443-1.71zM256.39 150.322s6.562-3.076 10.763 4.864c0 0-6.063 2.562-11.34-3.58l.578-1.284zM260.513 142.637s6.719-3.271 10.664 4.483c0 0-6.997 2.41-11.217-3.256l.553-1.227z"/>
        <path fill="#1A3CFA" d="M262.89 135.956s6.466-6.177 11.63.07c0 0-6.61 5.078-11.927 1.305l.296-1.375zM265.054 127.328s6.508-6.31 11.627.29c0 0-7.303 5.183-11.857 1.035l.23-1.325zM266.272 119.63s5.012-7.886 10.91-6.122c0 0-5.197 8.35-10.856 7.978l-.054-1.855zM267.75 112.366s5.05-9.934 9.824-8.202c0 0-3.639 7.634-9.954 9.877l.13-1.675zM268.097 102.987s5.191-7.817 10.055-6.864c0 0-4.245 7.927-10.557 9.126l.502-2.262zM268.491 95.013s4.024-8.77 7.297-8.833c0 0-1.935 8.71-7.025 10.322l-.272-1.49zM269.29 87.265s4.472-8.886 7.833-8.902c0 0-2.288 7.596-7.685 9.681l-.148-.779zM269.962 77.877s3.345-7.35 6.116-8.183c0 0-1.672 8.959-5.747 10.132l-.37-1.949z"/>
        <path fill="#1A3CFA" d="M272.095 70.426l7.477-11.382s-1.916 11.23-8.566 13.565l1.09-2.183zM277.227 58.076s8.692-5.994 9.004-6.966c0 0-4.418 8.398-12.624 9.88l3.62-2.914zM277.748 55.379s9.976-9.584 12.523-9.575c0 0-8.228.376-12.763 9.067l.24.508z"/>
        <path fill="#444053" d="M270.06 79.3l.363.047c1.874-14.669 4.607-23.344 7.697-24.407l-.12-.347c-3.276 1.136-6.021 9.678-7.94 24.707z"/>
        <path fill="#444053" d="M267.304 114.37l.55.046c.113-1.369.202-2.772.262-4.167.523-12.139 1.335-23.287 2.404-31.643l-.315-.395c-1.07 8.373-2.112 19.858-2.635 32.016a98.835 98.835 0 0 1-.266 4.142z"/>
        <path fill="#444053" d="M225.257 180.776c.098-.041 9.764-4.356 19.797-14.65a79.628 79.628 0 0 0 14.47-20.505c4.637-9.441 7.465-21.044 8.415-32.315l-.575.268c-2.127 25.3-13.653 42.587-22.814 52.003-9.936 10.199-19.492 14.47-19.587 14.511l.294.688z"/>
        <path fill="#FFF" d="M248.403 9.84v163.539c0 4.86-4.693 8.832-10.487 8.832H55.93c-5.795 0-10.488-3.955-10.488-8.832V9.839C45.442 4.97 50.135 0 55.93 0l181.973.54c5.794 0 10.5 4.444 10.5 9.3z"/>
        <path fill="#3F3D56" d="M248.403 9.89v7.57H45.443V9.89a9.887 9.887 0 0 1 2.9-6.997A9.896 9.896 0 0 1 55.347 0h183.166c5.463.002 9.891 4.429 9.891 9.89z"/>
        <ellipse cx="57.214" cy="8.729" fill="#FA5959" opacity=".8" rx="3.497" ry="3.495"/>
        <ellipse cx="67.386" cy="8.729" fill="#FED253" opacity=".8" rx="3.497" ry="3.495"/>
        <ellipse cx="77.558" cy="8.729" fill="#8CCF4D" opacity=".8" rx="3.497" ry="3.495"/>
        <path fill="#1A3CFA" d="M227.254 45.199v17.665c0 .527-.988.947-2.21.947h-46.62c-1.218 0-2.21-.426-2.21-.947V45.2c0-.527.985-1.063 2.21-1.063h46.62c1.225-.004 2.21.533 2.21 1.063z" opacity=".2"/>
        <path fill="#1A3CFA" d="M198.619 50.442h24.289v1h-24.289z"/>
        <path fill="#1A3CFA" d="M186.33 48.562a5.756 5.756 0 1 0-3.175 10.558v-.382a1.31 1.31 0 0 1 1.152-1.296 2.285 2.285 0 0 0 4.008 0 1.31 1.31 0 0 1 1.152 1.296v.407a5.756 5.756 0 0 0-3.137-10.583zm2.26 7.3a2.281 2.281 0 0 1-4.555 0 2.497 2.497 0 0 1 1.31-3.348.76.76 0 0 1 .64-1.174h.054a.76.76 0 0 0-.606 1.136h.022a.823.823 0 0 1 0-.151c0-.159.051-.314.146-.442a.757.757 0 0 1 .726-.536h.053a.754.754 0 0 0-.58.34.76.76 0 0 1 1.18.634.773.773 0 0 1 0 .086 2.502 2.502 0 0 1 1.856 2.416c-.008.36-.092.714-.247 1.038zM198.619 52.53h24.289v1h-24.289zM198.619 54.618h24.289v1h-24.289zM198.619 56.71h24.289v1h-24.289zM133.802 94.47v17.666c0 .523-.985.946-2.21.946h-46.62c-1.218 0-2.21-.429-2.21-.946V94.47c0-.527.985-1.063 2.21-1.063h46.627c1.218 0 2.203.536 2.203 1.063z" opacity=".2"/>
        <path fill="#1A3CFA" d="M105.164 99.716h24.289v1h-24.289z"/>
        <path fill="#1A3CFA" d="M92.878 97.833a5.756 5.756 0 1 0-3.175 10.562v-.386a1.306 1.306 0 0 1 1.152-1.293 2.285 2.285 0 0 0 4.008 0c.656.078 1.15.633 1.152 1.293v.41a5.756 5.756 0 0 0-3.137-10.586zm2.256 7.3a2.281 2.281 0 0 1-4.554 0 2.505 2.505 0 0 1 1.31-3.347.764.764 0 0 1 .64-1.174h.057a.76.76 0 0 0-.609 1.136h.025a.763.763 0 0 1 0-.149c.048-.48.4-.877.871-.98h.029a.764.764 0 0 0-.58.34.764.764 0 0 1 1.18.637.773.773 0 0 1 0 .085 2.5 2.5 0 0 1 1.628 3.47l.003-.019zM105.164 101.804h24.289v1h-24.289zM105.164 103.893h24.289v1h-24.289zM105.164 105.981h24.289v1h-24.289zM121.212 38.448v17.666c0 .523-.984.946-2.209.946H72.39c-1.215 0-2.21-.43-2.21-.946V38.448c0-.527.988-1.063 2.21-1.063h46.62c1.219 0 2.203.536 2.203 1.063z" opacity=".2"/>
        <path fill="#1A3CFA" d="M92.575 43.694h24.289v1H92.575z"/>
        <path fill="#1A3CFA" d="M92.575 45.782h24.289v1H92.575zM92.575 47.871h24.289v1H92.575zM92.575 49.959h24.289v1H92.575zM80.279 41.81a5.759 5.759 0 1 0-3.156 10.562v-.975a1.31 1.31 0 0 1 1.152-1.296 2.285 2.285 0 0 0 4.008 0 1.306 1.306 0 0 1 1.152 1.296v.997a5.756 5.756 0 0 0-3.156-10.583zm2.525 7.03a.388.388 0 0 1-.076.097.316.316 0 0 1-.167.057h-.117a2.288 2.288 0 0 1-4.479-.65c0-.394.104-.782.3-1.123l-.025-.016a.76.76 0 0 1 .076-1.057c.147-.083.307-.142.473-.173.5-.148.926-.475 1.2-.918.007.115.007.231 0 .347a.508.508 0 0 1 .722-.025c.06.084.129.163.205.233.08.042.166.067.256.073l.574.072c.238.006.467.09.654.237.1.11.173.242.217.385.17.39.296.797.376 1.214.08.421.02.857-.174 1.24l-.015.006zM201.271 122.019v17.666c0 .526-.984.946-2.209.946h-46.624c-1.218 0-2.21-.426-2.21-.946v-17.666c0-.527.986-1.06 2.21-1.06h46.63c1.219-.016 2.203.517 2.203 1.06z" opacity=".2"/>
        <path fill="#1A3CFA" d="M172.634 127.249h24.289v1h-24.289z"/>
        <path fill="#1A3CFA" d="M172.634 129.338h24.289v1h-24.289zM172.634 131.429h24.289v1h-24.289zM172.634 133.517h24.289v1h-24.289zM160.344 125.37a5.756 5.756 0 1 0-3.175 10.558v-.975a1.31 1.31 0 0 1 1.152-1.294 2.285 2.285 0 0 0 4.008 0c.656.078 1.15.634 1.152 1.294v1a5.756 5.756 0 0 0-3.137-10.584zm2.525 7.024a.353.353 0 0 1-.076.101.316.316 0 0 1-.167.057h-.12a2.285 2.285 0 1 1-4.176-1.773h-.025a.76.76 0 0 1 .076-1.057c.147-.083.307-.142.473-.173a2.111 2.111 0 0 0 1.2-.915c.008.116.008.232 0 .347a.508.508 0 0 1 .722-.025c.06.084.128.162.206.23.078.044.165.07.255.076l.575.072c.237.005.467.088.653.237.1.111.174.242.218.385.17.39.296.797.375 1.214.076.417.013.847-.18 1.224h-.01z" opacity=".2"/>
        <path fill="url(#a)" d="M146.29 179.9l-6.924-10.036s-.13-2.485-.584-3.066c-.454-.58-.098-1.87-.098-1.87s.486-.71.066-.777c-.42-.066-.066-1.646-.066-1.646l-.031-2.524s.388-2.423.066-3.003a.946.946 0 0 1 .031-1.032s.389-1.388 0-1.744c-.388-.357-.293-2.524-.195-4.227.098-1.704-.679-2.678-.679-2.937 0-.259-2.556-2.773-2.556-3 0-.227-1.62-1.161-2.591-1.42-.972-.258-1.455-.45-1.424-.58.032-.13-1.52-.631-1.52-.631s-1.358-.098-1.879-.773c-.52-.675-2.098-.877-2.146-.88l-.028-.136-.029-.145c.12-.205.234-.416.338-.63.032-.067.06-.13.089-.196.57.002 1.126-.17 1.593-.496a2.16 2.16 0 0 0 .774-1.548 3.415 3.415 0 0 0-.376-1.72c-.284-.58-.7-1.183-.559-1.814.063-.27.228-.51.316-.776a2.05 2.05 0 0 0-.234-1.53c-.243-.466-.583-.88-.858-1.334a5.178 5.178 0 0 1-.682-1.893 2.914 2.914 0 0 0-.252-1.028 1.969 1.969 0 0 0-.568-.574 5.683 5.683 0 0 0-3.472-1.054c-.88.032-1.761.268-2.635.161a9.661 9.661 0 0 1-1.537-.4c-1.086-.316-2.339-.455-3.282.167-.944.621-1.323 1.842-1.964 2.798-.568.842-1.394 1.552-1.827 2.448V130a3.11 3.11 0 0 0-.24.653 4.648 4.648 0 0 0 .142 2.139c.05.37.237.708.524.946.316.205.758.158 1.133.224a7.252 7.252 0 0 0-.205 1.72 7.395 7.395 0 0 0 5.283 7.088v.195c0 .186-.01.371-.031.556 0 0-3.254-.67-4.125-.215-.871.454-2.591.804-2.84 1.063-.25.259-.906.066-1.49 1.577s-.647 3.067-1.389 3.786c-.742.72-1.133 1.195-1.168 1.713-.034.517.098.63-.192.804-.29.174-.713.84-.584 1.098a.915.915 0 0 1-.357.968c-.311.22-.483.589-.451.969 0 0-.196.71-.647.87-.451.161-.745 1.228-.745 1.228l-1.467 1.687-2.91-3.217a1.228 1.228 0 0 0-1.73-.089l-1.433 1.272c-.551.133-1.05.43-1.43.851-.31.32-.56.693-.738 1.101l-.782.704a1.98 1.98 0 0 0-.202 2.192l1.865 2.06v.02c-.661.054-1.29.31-1.802.731-2.78 2.454-2.816 4.713-2.393 5.744.423 1.032 3.949 5.004 3.949 5.004s2.048 2.662 5.005 4.079l-.022.022a2.76 2.76 0 0 0-.174.201l-.047.064a.451.451 0 0 0-.044.063l-.054.075-.04.063-.058.095-.034.06-.067.126-.022.041a5.977 5.977 0 0 0-.079.177l-.028.066c0 .041-.032.085-.05.126l-.029.085c0 .041-.028.083-.041.127l-.028.091a4.42 4.42 0 0 0-.038.142c0 .029-.016.057-.022.085-.007.029-.035.155-.05.234a.788.788 0 0 0 0 .091c-.014.055-.023.111-.03.167 0 .038 0 .076-.015.117-.016.041-.016.104-.022.161-.006.057 0 .079 0 .123v.612c-.066 3.786.155 4.325.155 4.325a2.095 2.095 0 0 0 1.716 1.287c.186.013.373.004.556-.028 1.682-.294 5.63-.969 7.022-.71.836.154 2.386-.076 3.487-.284l.29-.057.203.631.631-.177.543.316.344.195c.631 2.164 3.232 1.426 3.232 1.426l.615.357 6.246.16c.7.425 1.44.78 2.21 1.06.102.032.208.055.315.07.578.047 1.159.057 1.739.032.48 0 .849-.032.849-.032s-.064-1.694-.155-3.593a50.977 50.977 0 0 0 5.785-.473c3.336-.587 4.734-3.619 5.239-5.237.151.662.257 1.333.316 2.01.136.59.309 1.172.517 1.74.182.46.422.895.713 1.294 2.459-.839.97-2.097.452-2.646-.518-.55.356-1 .356-1s.682-.455.632-.874c-.05-.42-.098-.87 2.105-.84 2.203.032 2.054-1.788 2.054-1.788zm-34.173-20.607c.028.186.334 2.174.612 2.698.08.348.104.707.073 1.063-1.304-.104-2.66-.161-2.66-.161a.315.315 0 0 1 .068.167l-.205-.047-.3-.073 2.405-3.65.007.003zm-4.76 7.571l2.257.36.19.028a8.047 8.047 0 0 0-.117 1.067c0 .031.05.072.123.12a3.387 3.387 0 0 0-.045.533c.038.18 1.092.564 2.304.886-.019.063-.034.126-.05.183-1.07-.562-2.752-.823-2.948-1.24-.196-.416-5.92-2.42-5.92-2.42s-.212-.11-.572-.283l1.509.284.413-.041c.94.234 1.894.408 2.856.52v.003z"/>
        <path fill="#65617D" d="M138.924 181.303s-.9 5.42-5.454 6.22c-4.554.802-19.756.632-19.756.632s-8.692-1.262-11.835-8.59c-3.144-7.328-5.167-10.262-2.472-10.388 2.696-.127 17.226 4.905 18.06 4.968.832.063 22.259-11.148 21.457 7.158z"/>
        <path fill="#000" d="M138.924 181.303s-.9 5.42-5.454 6.22c-4.554.802-19.756.632-19.756.632s-8.692-1.262-11.835-8.59c-3.144-7.328-5.167-10.262-2.472-10.388 2.696-.127 17.226 4.905 18.06 4.968.832.063 22.259-11.148 21.457 7.158z" opacity=".05"/>
        <path fill="#3F3D56" d="M98.151 187.319a2.08 2.08 0 0 0 1.695 1.293c.184.012.368.002.55-.032 1.666-.287 5.58-.946 6.958-.703.83.155 2.367-.076 3.472-.28.726-.136 1.262-.266 1.262-.266s-1.281-4.265-1.442-4.39c-.16-.127-5.785-3.509-5.785-3.509l-4.447-.315a2.339 2.339 0 0 0-1.505.886c-.47.568-.874 1.499-.9 3.025-.079 3.757.142 4.29.142 4.29z"/>
        <path fill="#000" d="M98.151 187.319a2.08 2.08 0 0 0 1.695 1.293 18.189 18.189 0 0 1-1.206-1.76l.023-3.11a5.481 5.481 0 0 1 1.751-4.625s-2.342.16-2.405 3.911c-.063 3.751.142 4.29.142 4.29z" opacity=".05"/>
        <path fill="#000" d="M117.435 180.533l4.137-3.236 6.511-6.414-1.764-.079c-.265.168-1.004.698-1.032 1.341-.032.782-1.758.054-2.658.502-.899.448-5.292 6.07-6.056 6.034-.764-.034-1.38-.39-1.698.155a.315.315 0 0 1-.025.035l2.585 1.662zM98.9 180.01l.447.205c3.156 1.347 7.023 4.167 7.313 4.68.177.316 2.427 1.68 4.163 2.701.726-.135 1.262-.265 1.262-.265s-1.281-4.265-1.442-4.39c-.161-.127-5.782-3.509-5.782-3.509l-4.447-.315c-.602.089-1.145.41-1.515.892z" opacity=".1"/>
        <path fill="#65617D" d="M90.17 170.82c.416 1.025 3.913 4.969 3.913 4.969s2.21 2.886 5.365 4.233c3.156 1.347 7.026 4.167 7.313 4.681.186.316 2.692 1.836 4.456 2.874l.398.23.874.508.464.265s1.073-.86 2.143-1.728c1.07-.868 2.108-1.716 2.124-1.764.032-.097.448-1.186.35-1.262-.05-.031-.268-.476-.675-.99a4.547 4.547 0 0 0-1.632-1.35 4.632 4.632 0 0 1-2.117-2.208s-.142-.101-.354-.237a4.293 4.293 0 0 0-1.442-.63c-.707-.09-2.02-1.53-2.02-1.53a3.953 3.953 0 0 1-1.262-1.316c-.338-.704-5.312-4.101-5.773-4.417l12.069 7.726 2.888 1.852 4.137-3.237 6.511-6.413-2.15-.095c-3.155-.139-8.782-.353-9.493-.192a5.368 5.368 0 0 1-1.764.113s-1.603.073-2.66-.486c-1.058-.558-2.73-.82-2.923-1.233-.192-.413-5.87-2.404-5.87-2.404s-7.73-4.1-10.487-1.665c-2.759 2.435-2.806 4.681-2.383 5.706z"/>
        <path fill="#EE8E9E" d="M115.093 147.287l.994 3.303 1.281 7.438 4.715.316 1.367-2.265 1.36-2.256s.85-3.006 1.462-5.914c.54-2.571.89-5.07.315-5.341-.52-.24-.861-1.107-1.086-2.038a6.149 6.149 0 0 1-.075-.347 18.137 18.137 0 0 1-.316-2.391s-9.881-.514-8.502 3.558c.247.695.373 1.427.372 2.164 0 .185-.011.369-.031.552a4.615 4.615 0 0 1-1.856 3.221z"/>
        <path fill="#E3E8F4" d="M113.038 146.741l.354 5.612.801 4.776.9 2.209.802 12.1s7.732.896 9.613 0a.824.824 0 0 0 .34-.264c2.273-3.43 1.528-13.36 1.528-13.36l.874-6.423-.577-3.328-1.395-.148-1.076-.114s-.243.297-.59.76c-.947 1.262-2.702 3.723-2.585 4.754.16 1.41-.193 2.84-.739 3.076-.546.237-.994.612-1.089.227a1.734 1.734 0 0 1-.098-1.025c.098-.546-.416-2.208-.416-2.208s-.865-1.956-.802-2.789c.063-.833-.094-1.795-.353-2.019-.259-.224-.61-.45-.316-1.476.294-1.025-1.262-3.022-1.262-3.022l-3.914 2.662z"/>
        <path fill="#000" d="M123.254 160.754l.316 9.587 1.853 1.028a.802.802 0 0 0 .34-.268c2.273-3.43 1.528-13.36 1.528-13.36l.865-6.413-.578-3.328-1.395-.148c.54-2.571.893-5.067.316-5.338-.521-.243-.865-1.107-1.086-2.038l-1.004 6.78s.086.608.114 1.24c.041.4.014.804-.082 1.195-.224.577-.063 1.602-.063 1.602-.578 1.02-.868 2.906-1.007 4.732-.19 2.423-.117 4.729-.117 4.729z" opacity=".1"/>
        <path fill="#1A3CFA" d="M125.441 140.315s1.616.202 2.128.874c.51.672 1.862.77 1.862.77s1.54.514 1.505.63c-.035.118.451.316 1.414.578.963.262 2.566 1.186 2.566 1.413 0 .228 2.525 2.723 2.525 2.982 0 .258.767 1.217.672 2.917-.095 1.7-.193 3.846.192 4.2.385.353 0 1.731 0 1.731a.946.946 0 0 0-.031 1.025c.316.578-.066 2.981-.066 2.981l.034 2.502s-.353 1.577.063 1.634c.417.057-.063.77-.063.77s-.353 1.284.095 1.861c.448.577.578 3.044.578 3.044l6.864 9.972s.095 1.826-2.086 1.795c-2.181-.032-2.15.416-2.083.832.066.417-.61.868-.61.868s-.867.448-.353.994c.515.545 1.989 1.795-.448 2.627a5.797 5.797 0 0 1-.707-1.28 14.928 14.928 0 0 1-.514-1.732s-.224-2.439-.673-2.757c-.448-.319-.385-1.861-.385-1.861s.632-1.262-.255-1.764c-.887-.501-13.921-7.725-13.921-7.725l-.316-9.587s-.224-7.085 1.123-9.464c0 0-.16-1.025.064-1.602.224-.578-.032-2.439-.032-2.439l.858-6.789z"/>
        <path fill="#000" d="M117.034 144.17s-3.226-.665-4.103-.217c-.877.448-2.566.8-2.821 1.06-.256.258-.9.063-1.478 1.577-.577 1.514-.63 3.044-1.379 3.75-.748.707-1.123 1.187-1.155 1.698-.031.51.098.63-.192.801-.29.17-.704.836-.578 1.092.126.255 6.672 5.899 6.672 5.899s.316 2.148.61 2.694c.293.545-.317 8.047-.964 8.558-.646.511 4.343.464 4.343.464s.227-4.921.42-5.18c.192-.259-.13-5.514-.13-5.514s-.031-4.49.386-5.678c.416-1.19.369-5.13.369-5.13s.37-2.366.817-2.918c.448-.552-.817-2.956-.817-2.956z" opacity=".1"/>
        <path fill="#1A3CFA" d="M116.94 144.073s-3.226-.663-4.104-.215c-.877.448-2.566.801-2.821 1.057-.256.255-.9.066-1.474 1.577s-.631 3.047-1.38 3.75c-.747.704-1.123 1.187-1.154 1.701-.032.514.094.631-.193.801-.287.17-.707.833-.577 1.092.129.259 6.671 5.899 6.671 5.899s.316 2.148.61 2.69c.293.543-.316 8.048-.963 8.562-.647.515 4.33.464 4.33.464s.224-4.921.417-5.177c.192-.255-.13-5.514-.13-5.514s-.031-4.489.385-5.678c.417-1.19.373-5.13.373-5.13s.366-2.365.814-2.917c.448-.552-.805-2.962-.805-2.962z"/>
        <path fill="#000" d="M116.598 141.356c.248.695.374 1.427.373 2.165a7.349 7.349 0 0 0 8.439-3.332 18.137 18.137 0 0 1-.316-2.39s-9.875-.515-8.496 3.557z" opacity=".1"/>
        <path fill="#EE8E9E" d="M111.725 136.29a7.326 7.326 0 0 0 6.96 7.301 7.326 7.326 0 0 0 1.504-14.552 7.328 7.328 0 0 0-8.464 7.251z"/>
        <path fill="#1A3CFA" d="M107.01 153.284l-1.764.546a.908.908 0 0 1-.353.946 1.07 1.07 0 0 0-.449.946s-.192.707-.63.868c-.44.16-.736 1.218-.736 1.218l-1.477 1.7s-.546.448-.448.672c.098.224-.578.287-.578.287l.354 5.71 3.045.574 1.894-.193 1.54-.574 1.348-.804.609-1.577 2.692-4.101-5.047-6.218z"/>
        <path fill="#EE8E9E" d="M101.01 160.946s-3.913-5.643-6.832-2.596c-2.92 3.047 1.187 7.981 2.15 7.82.962-.16 5.55-.416 5.55-.416l-.867-4.808z"/>
        <path fill="#000" d="M111.883 134.763a.89.89 0 0 1 .54.243c.246.262.259.726.584.89.12.05.253.066.382.044.852-.123 1.344-1.085 2.165-1.35a2.21 2.21 0 0 1 1.436.123c.183.061.346.17.473.315.275.357.082.877.208 1.306.177.597.887.833 1.506.909.618.076 1.31.123 1.72.587.275.35.39.8.315 1.24a.99.99 0 0 0 0 .46c.17.48 1.004.41 1.222.028.158-.274.11-.504.483-.58.269-.023.54.024.786.136a5.718 5.718 0 0 0 2.032.315 7.341 7.341 0 0 0-.957-7.768 7.35 7.35 0 0 0-12.879 3.118l-.016-.016z" opacity=".1"/>
        <path fill="#3F3D56" d="M121.197 139.328a.99.99 0 0 1 0-.46c.074-.44-.04-.89-.316-1.24-.41-.464-1.105-.508-1.72-.587-.615-.079-1.329-.315-1.505-.909-.127-.429.066-.946-.209-1.306a1.057 1.057 0 0 0-.473-.315 2.21 2.21 0 0 0-1.436-.126c-.82.265-1.313 1.227-2.165 1.35a.685.685 0 0 1-.382-.044c-.316-.164-.338-.631-.584-.89-.391-.413-1.13-.148-1.606-.454a1.46 1.46 0 0 1-.518-.946 4.594 4.594 0 0 1-.142-2.127c.278-1.192 1.345-2.009 2.026-3.028.631-.946.991-2.148 1.944-2.78.953-.63 2.178-.485 3.254-.166a9.112 9.112 0 0 0 1.525.4c.864.108 1.735-.129 2.61-.157a5.594 5.594 0 0 1 3.446 1.047c.226.147.417.34.562.568.146.322.232.668.252 1.022.102.662.332 1.299.676 1.874.271.45.609.86.852 1.328.272.456.355 1 .23 1.517-.082.265-.243.502-.315.773-.142.63.271 1.224.552 1.801a3.4 3.4 0 0 1 .375 1.71 2.157 2.157 0 0 1-.77 1.536 2.753 2.753 0 0 1-1.625.492 5.787 5.787 0 0 1-2.074-.315 1.579 1.579 0 0 0-.782-.136c-.376.076-.316.316-.486.58-.193.398-1.026.468-1.196-.012z"/>
        <path fill="#000" d="M117.242 180.726l4.138-3.237 6.51-6.413-2.149-.095a1.4 1.4 0 0 0-.454.874c-.032.785-1.758.057-2.658.505-.899.448-5.292 6.069-6.056 6.031-.764-.038-1.38-.388-1.698.155l-.025.038a.912.912 0 0 1-.49.29l2.882 1.852z" opacity=".1"/>
        <path fill="#65617D" d="M108.9 180.502l2.08 6.624.316 1.041.991-.271 2.184-.6 9.72-2.668a8.436 8.436 0 0 0 3.5-.947 10.586 10.586 0 0 1 6.041-1.318c1.285.12 2.715-.432 3.901-2.625 0 0 2.692-7.95-4.103-10.224s-7.126 1.208-7.126 1.208l-.091.057c-.266.167-1.004.697-1.032 1.34-.032.783-1.758.055-2.658.502-.9.448-5.286 6.095-6.05 6.06-.764-.034-1.38-.39-1.698.155a.315.315 0 0 1-.025.035c-.237.315-.947.403-1.424.416h-.445l-.06.019-.492.145-3.528 1.05z"/>
        <path fill="#000" d="M109.44 167.615l1 .161.417-4.136s-.457-.069-1.032-.202c.152.575-.195 2.808-.385 4.177z" opacity=".1"/>
        <path fill="#000" d="M135.667 148.29s2.982-.864 2.247 7.6c-.735 8.463-6.255 13.817-6.255 13.817s-6.353 2.788-9.206 2.34c-2.853-.448-4.933-.545-4.933-.545a7.303 7.303 0 0 0-2.888-.77c-1.603-.063-4.97-1.057-5.05-1.379-.078-.321.837-5.031.452-5.385 0 0 4.49.183 4.939.508.448.325 1.089.092 1.578 0 .49-.091 1.957-1.372 4.876-.252 0 0 .994.098 1.38-.16a1.383 1.383 0 0 1 1.003-.064c.247-.084.48-.203.694-.353.098-.126.868 0 .868 0a.341.341 0 0 0 .48-.224 2.1 2.1 0 0 1 .448-.704s.868-4.874 2.503-6.7c.267-.23.4-.58.353-.93-.13-.515 2.66-7.833 6.511-6.799zM112.423 179.448l4.235 5.126.029-.031c.031-.095.448-1.187.35-1.262-.098-.076-.833-1.669-2.31-2.34a4.396 4.396 0 0 1-1.812-1.65l-.492.157z" opacity=".1"/>
        <path fill="#000" d="M112.47 188.315l.464.265s1.073-.86 2.143-1.728c1.07-.868 2.108-1.716 2.124-1.764.032-.097.448-1.186.35-1.262-.05-.031-.268-.476-.675-.99-2.872-.804-1.041 1.19-.798 1.28 0 0-3.497-.8-3.69 3.004-.025.4.002.802.082 1.195z" opacity=".1"/>
        <path fill="#3F3D56" d="M116.02 189.927l.613.354 6.189.16c.694.422 1.428.775 2.19 1.054.103.032.209.055.316.07.574.045 1.15.055 1.726.031.474 0 .84-.031.84-.031s-.294-7.805-.515-8.625c-.104-.394-.63-.315-1.136-.11a7.326 7.326 0 0 0-1.108.561s-2.629.253-3.048.48c-.42.227-1.604-.13-2.342 0-.739.129-2.052-.868-2.052-.868-3.591-1.186-1.578 1.025-1.316 1.123 0 0-3.493-.801-3.686 3.003-.192 3.805 3.33 2.798 3.33 2.798z"/>
        <path fill="#565387" d="M124.971 186.915c.067 1.615 1.326 3.621 2.08 4.681.473 0 .84-.031.84-.031s-.294-7.805-.515-8.625c-.104-.394-.631-.315-1.136-.11-.622 1.164-1.322 2.782-1.269 4.085z"/>
        <path fill="#000" d="M124.971 186.915c.067 1.615 1.326 3.621 2.08 4.681.473 0 .84-.031.84-.031s-.294-7.805-.515-8.625c-.104-.394-.631-.315-1.136-.11-.622 1.164-1.322 2.782-1.269 4.085z" opacity=".1"/>
        <path fill="#000" d="M123.914 187.13c.426 1.558.42 3.308 1.098 4.365.103.032.209.055.316.07.574.045 1.15.055 1.726.031.474 0 .84-.031.84-.031s-.294-7.805-.515-8.625c-.104-.394-.63-.315-1.136-.11a7.326 7.326 0 0 0-1.108.561s-1.767 1.741-1.221 3.738z" opacity=".05"/>
        <path fill="#000" d="M102.557 171.312s3.074.997 5.681 4.54l-5.68-4.54z" opacity=".1"/>
        <g fill="#000" opacity=".1">
            <path d="M127.543 132.84l-.019.069a2.16 2.16 0 0 1-.107.268c.031-.117.074-.23.126-.338zM110.147 131.284c.054-.219.134-.43.237-.631-.016.054-.031.11-.044.167-.12.71-.071 1.439.142 2.126.045.37.23.709.518.947.476.315 1.215.04 1.603.45.25.263.262.73.584.89.12.055.255.07.385.045.852-.12 1.344-1.082 2.165-1.347.477-.124.983-.08 1.433.123.184.06.35.168.476.315.275.353.082.877.208 1.306.177.593.887.83 1.503.909.615.078 1.31.12 1.723.586.278.349.393.8.315 1.24-.034.15-.034.307 0 .458.17.482 1.004.41 1.222.031.158-.278.11-.505.483-.584.269-.02.54.026.786.136.666.23 1.368.338 2.073.316a2.797 2.797 0 0 0 1.625-.493 1.94 1.94 0 0 0 .5-.608 2.05 2.05 0 0 1-.692 1.088 2.753 2.753 0 0 1-1.625.492 5.778 5.778 0 0 1-2.074-.315 1.579 1.579 0 0 0-.786-.136c-.372.076-.315.315-.483.58-.217.382-1.05.451-1.221-.028a1.031 1.031 0 0 1 0-.46 1.552 1.552 0 0 0-.316-1.24c-.413-.464-1.104-.508-1.723-.587-.618-.079-1.325-.316-1.502-.909-.126-.429.066-.946-.208-1.306a1.057 1.057 0 0 0-.474-.315 2.21 2.21 0 0 0-1.436-.126c-.82.265-1.313 1.227-2.165 1.35a.695.695 0 0 1-.385-.044c-.315-.164-.334-.631-.584-.89-.388-.413-1.126-.148-1.603-.454a1.46 1.46 0 0 1-.518-.946 4.594 4.594 0 0 1-.142-2.136z"/>
        </g>
        <path fill="#000" d="M128.039 156.946c-.587.792-1.263 1.527-1.777 2.366a4.487 4.487 0 0 0-.78 2.798c.537-.552.783-1.315 1.124-2.006.574-1.173 1.433-2.167 2.156-3.243.138-.205 1.025-1.394.577-1.45-.37-.048-1.089 1.264-1.3 1.535z" opacity=".1"/>
        <path fill="#FFF" d="M111.801 144l6.429 12.151c.192.36-.331 1.013-1.168 1.458L84.975 174.57c-.836.442-1.673.508-1.862.145l-6.429-12.148c-.193-.363.29-1.092 1.127-1.533l32.087-16.962c.84-.445 1.714-.436 1.903-.073z"/>
        <path fill="#1A3CFA" d="M111.801 144l6.429 12.151c.192.36-.331 1.013-1.168 1.458L84.975 174.57c-.836.442-1.673.508-1.862.145l-6.429-12.148c-.193-.363.29-1.092 1.127-1.533l32.087-16.962c.84-.445 1.714-.436 1.903-.073z" opacity=".2"/>
        <path fill="#1A3CFA" d="M93.997 158.046l16.715-8.835.31.588-16.714 8.835z"/>
        <path fill="#1A3CFA" d="M94.758 159.486l16.715-8.835.311.588-16.715 8.835zM95.518 160.92l16.715-8.835.31.588-16.714 8.835zM96.28 162.36l16.714-8.835.311.588-16.714 8.835zM84.864 161.205a4.479 4.479 0 0 0 1.66 8.42l-.353-.67a1.019 1.019 0 0 1 .316-1.311 1.778 1.778 0 0 0 2.758-1.458c.48-.181 1.02.021 1.262.473l.363.688a4.478 4.478 0 0 0-.709-5.317 4.483 4.483 0 0 0-5.303-.825h.006zm4.302 3.915a.24.24 0 0 1-.016.095.265.265 0 0 1-.094.1l-.08.045a1.779 1.779 0 1 1-3.521.315h-.022a.596.596 0 0 1-.332-.757c.07-.111.159-.21.262-.29.29-.283.465-.663.492-1.066.045.078.084.159.117.242a.398.398 0 0 1 .486-.28c.073.035.15.063.227.085.07 0 .14-.014.206-.041l.42-.161a.631.631 0 0 1 .826.114c.258.206.493.44.7.697.205.257.32.573.33.902z" opacity=".2"/>
        <path fill="#EE8E9E" d="M98.476 162.132c-.031 4.23 8.727 5.13 8.727 5.13l2.237.353 1 .161.417-4.136s-.457-.069-1.032-.202c-.845-.198-1.944-.539-2.174-1.018-.385-.802-9.143-4.52-9.175-.288z"/>
        <path fill="#1A3CFA" d="M135.588 147.64s2.983-.864 2.247 7.6c-.735 8.463-6.255 13.817-6.255 13.817s-6.353 2.788-9.206 2.34c-2.853-.447-4.94-.545-4.94-.545a7.303 7.303 0 0 0-2.887-.77c-1.603-.063-4.97-1.057-5.05-1.379-.079-.321.837-5.047.452-5.384 0 0 4.49.183 4.939.507.448.325 1.089.092 1.578 0 .489-.091 1.956-1.375 4.876-.252 0 0 .994.098 1.379-.16a1.383 1.383 0 0 1 1.004-.064c.247-.084.48-.203.694-.353.098-.126.868 0 .868 0a.338.338 0 0 0 .48-.224c.1-.263.253-.503.448-.707 0 0 .868-4.87 2.502-6.7.268-.23.401-.578.354-.928-.123-.514 2.67-7.813 6.517-6.798z"/>
        <g transform="translate(173 53.336)">
            <path fill="url(#b)" d="M70.73 134.115a51.3 51.3 0 0 1-.72-2.959s.019-1.732-.808-3l-.016-.432-.126-3.205c.199-.588.448-1.158.745-1.704.536-1.025-.18-4.684-.18-4.684s-2.336-5.108-1.941-8.417c.394-3.309-4.946-14.444-4.946-14.444-.01-1.09.104-2.179.338-3.243a2.58 2.58 0 0 0 .035-.682.713.713 0 0 0 0-.082v.025c-.158-2.167-2.03-6.167-2.03-6.167l-.069-7.763s.922-4.615-1.104-10.682c-.707-2.116-1.171-3.817-1.474-5.129-.035-.148-.07-.29-.098-.429 3.658-.7 6.448-1.262 6.448-1.262s-2.475-8.833-3.977-10.347c-1.502-1.514-2.84-6.369-2.84-6.369s-.991-6.274.148-8.16c1.14-1.887 1.183-5.098 1.183-5.098s2.69-2.117 3.002-3.023c.312-.905.81-2.936.77-3.993-.041-1.057-.423-1.997-.316-2.559.108-.561-.912-2.646-.489-3.668.109-.314.159-.644.148-.975v-.041a13.6 13.6 0 0 0-.344-2.606 7.43 7.43 0 0 0-2.796-1.36l-.07-.236-.18-.631a3.486 3.486 0 0 0-.277-.151v-.228l-.06-.905.354-2.053c.716-3.575-4.034-3.922-4.034-3.922a2.468 2.468 0 0 0-1.382-1.12c-.966-.315.044 5.335.505 5.679.344.258 1.445 1.993 1.976 2.839l.088.139a2.152 2.152 0 0 0-.208.236l.227 1.221.035.19c-.3.399-.537.841-.704 1.312 0 0 .9.914.767 1.98-.133 1.067.356 2.373.382 2.442-.054-.056-.688-.69-1.288-.504-.6.186-2.282.757-2.282.757s-1.262.271-1.133.545c.13.275-.805 1.54-.805 1.54l-3.534-3.098a7.733 7.733 0 0 1-.11-.287 8.082 8.082 0 0 1-.351-1.404 7.68 7.68 0 0 0 1.076-.388c.353-.133.67-.35.921-.63.316-.42.373-.979.493-1.49.23-1.003.776-1.908 1.155-2.867.63-1.611.79-3.368.464-5.066a3.362 3.362 0 0 0-.58-1.461c-.588-.744-1.607-1.019-2.365-1.6-.757-.58-1.262-1.495-2.14-1.92C45.426.19 44.485.26 43.62.453a13.85 13.85 0 0 0-4.765 1.94c-.483.315-1.017.675-1.578.593-.493-.07-.865-.448-1.196-.811a.262.262 0 0 1 0-.047l-.042-.041a6.02 6.02 0 0 0-.429 2.567c0 .136 0 .272.032.407v.142a.76.76 0 0 1 0 .12.722.722 0 0 1-.02.183c-.069.178-.177.338-.315.47-.099.123-.187.254-.265.391 0-.047.025-.094.041-.142a1.993 1.993 0 0 0-.315 1.089c-.009.28.093.554.284.76.177.16.37.303.574.426a6.158 6.158 0 0 0-.06 1.135 6.596 6.596 0 0 0 3.428 5.499c.044.095.085.19.129.287.48 1.13.858 2.451.76 3.69 0 .092-.018.184-.031.272-.013.088-.082.098-.117.148 0 0-5.627.272-6.997-.877-1.37-1.148-3.231 3.057-3.231 3.057s-2.001.47-2.421.095c-.42-.376-2.771.05-2.771.05a5.076 5.076 0 0 0-3.563-1.148 10.445 10.445 0 0 0-2.639-1.334l-.066-.02a2.899 2.899 0 0 0-1.262-.113s-2.857-2.18-3.712-3.375c-.855-1.196-4.873-5.6-4.892-5.622l-.022-.217-.07-.663a2.384 2.384 0 0 1-.343.044l-.086-.227a12.14 12.14 0 0 0-.89-1.842s-.031-.84.206-1.057c.236-.218-.228-3.274-.228-3.274S4.03-2.724 1.963 1.714c0 0-4.103 2.978-.445 6.117 0 0 1.442.631 1.663 1.167.145.347.663 1.313 1.01 1.953l.155.287-.038.035.072.545.029.212c-.65.404-1.09.798-.97 1.079.218.474.372.975.462 1.489 0 0 5.138 5.946 5.873 8.545 0 0 13.445 7.303 17.79 7.694l-.568 3.925a31.109 31.109 0 0 0-.05 3.186c.088.836-.34 4.65-.34 4.65s-.537 5.605-1.14 6.413c-.603.807-.363 4.145-.363 4.145a28.17 28.17 0 0 1-.682 4.776c-.552 2.142 0 4.748 0 4.748s-1.998 5.104 3.118 1.498c0 0 2.57-.259 5.53-.473V64c0 .382.019.795.031 1.23.07 2.878.205 6.84.452 9.833.438 5.29 2.455 15.7 2.455 15.7l.202 5.269a7.233 7.233 0 0 0-.092 1.511 9.776 9.776 0 0 0 1.61 5.233l.54 3.496s1.035 2.28 1.107 3.662c.001.113-.008.226-.028.338-.03.178-.038.359-.025.54 0 1.595 1.117 5.378 1.117 5.378s.205 3.845.789 4.047c.502.17-.571 2.243-.893 2.84a1.132 1.132 0 0 1-.025-.111c-.041.079-.067.12-.067.12a2.74 2.74 0 0 0-.142.98c-.047.54.223 1.058.691 1.329 1.12.63 1.73 1.16.812 1.42-.341.066-.679.152-1.01.255 0-.044-.038-.089-.054-.13a.63.63 0 0 0-.353.688c.027.456.162.9.394 1.294 1.004 2.028 1.673 2.785 1.673 2.785l.438-.066c-.06.17-.139.334-.236.486-.16.247-.377.454-.632.602a1.992 1.992 0 0 1-.776.316 2.21 2.21 0 0 0-1.603.858c-.546.763-.868 1.791.315 2.637l4.179 1.262s7.126.65 6.688-.928c-.439-1.577-.72-2.959-.72-2.959a6.307 6.307 0 0 0-.685-2.798 3.47 3.47 0 0 0-.265-.407l.25-.038s.381-3.533 1.047-4.23c.155-.158.186-.278.145-.369.064-.196-.12-.316-.356-.353 0 .044-.029.091-.044.138a3.54 3.54 0 0 0-.692-.05s-.315-1.83.423-2.524a.706.706 0 0 0 .123-.552 2.986 2.986 0 0 0-.107-.744.192.192 0 0 0-.022.044c-.445-1.656-1.824-4.262-1.824-4.262s-.12-1.672.315-2.356c.436-.685-.41-9.092-.41-9.092s.02-4.079-.574-5.953c-.594-1.873.476-4.15.476-4.15s0-.045-.019-.124v-.028s-.034-.25-.091-.631a.205.205 0 0 1 0 .04c-.155-1.072-.451-3.015-.631-3.914-.281-1.262-.228-7.42-.228-7.42l.947-2.662 2.02 4.448 2.194 5.95s1.019 1.233 1.092 2.523v.19c-.008.134-.008.269 0 .403-.005.76.233 1.503.678 2.12 0 0 .631 2.84 1.464 3.52.834.682.89 2.089.89 2.089s1.14 4.1 1.629 4.798c.41.596.495 2.274.511 2.789v.151s.196 1.47.237 2.71V113.582c.01.337-.017.675-.082 1.006v-.148c-.17.849-.236 1.715-.196 2.58.032 1.486.316 3.234 1.263 4.23 1.625 1.726 2.597 1.464 2.597 1.464s-.663 2.259-1.578 2.742a.666.666 0 0 0-.098.066c0-.041-.019-.085-.025-.126a1.079 1.079 0 0 0-.24.839c-.028.984.653 2.555 1.262 3.265.226.205.5.35.796.423a1.55 1.55 0 0 1-.14.097c-.101.06-.206.114-.315.161-.147.07-.305.118-.467.139a2.225 2.225 0 0 0-1.603.858c-.543.763-.868 1.789.316 2.637l4.178 1.262s7.114.615 6.663-.962z"/>
            <path fill="#2D293D" d="M43.746 137.79l-4.047-1.262c-1.133-.848-.82-1.877-.293-2.64a2.13 2.13 0 0 1 1.55-.855c.27-.05.526-.157.75-.316.25-.147.46-.354.61-.602a2.952 2.952 0 0 0 .397-1.558s4.33-1.451 5.58-.215c.222.225.411.48.562.757.428.873.656 1.83.666 2.801 0 0 .278 1.382.7 2.96.424 1.577-6.475.93-6.475.93zM63.2 135.074l-4.044-1.262c-1.136-.845-.823-1.874-.296-2.634a2.108 2.108 0 0 1 1.55-.855c.156-.024.308-.072.45-.142.11-.046.215-.1.316-.16 1.095-.657 1.007-2.162 1.007-2.162s4.333-1.45 5.58-.214c.168.166.316.352.442.552.801 1.262.786 3.003.786 3.003s.277 1.388.7 2.962c.423 1.574-6.492.912-6.492.912z"/>
            <path fill="#000" d="M48.293 130.355c.222.225.411.48.562.757l-6.54 1.012a2.952 2.952 0 0 0 .398-1.558s4.33-1.448 5.58-.211zM68.189 128.19l.047 1.231c-.947 1.722-5.908 1.543-7.375.754.108-.047.214-.1.315-.161 1.095-.656 1.007-2.16 1.007-2.16s4.333-1.452 5.58-.215c.162.167.305.352.426.552z" opacity=".1"/>
            <path fill="#65617D" d="M68.766 122.866a10.824 10.824 0 0 0-.716 1.703l.167 4.417c-1.044 1.892-6.87 1.495-7.69.52-.821-.975-1.759-3.561-.881-4.044.877-.483 1.514-2.738 1.514-2.738s-.946.258-2.524-1.467c-1.578-1.726-1.282-5.704-1.039-6.663.243-.959-.16-4.129-.16-4.129s-.029-2.233-.502-2.94c-.474-.707-1.578-4.798-1.578-4.798s-.054-1.394-.862-2.092c-.808-.697-1.42-3.52-1.42-3.52a3.658 3.658 0 0 1-.65-2.375c.113-1.401-1.06-2.865-1.06-2.865l-2.131-5.95-1.96-4.45-.9 2.665s-.044 6.145.23 7.42c.275 1.274.74 4.662.74 4.662s-1.033 2.275-.455 4.152c.577 1.877.565 5.955.565 5.955s.824 8.401.404 9.089c-.42.688-.316 2.356-.316 2.356s2.478 4.82 1.777 5.518c-.7.697-.407 2.523-.407 2.523s1.578-.06.921.631c-.656.691-1.013 4.23-1.013 4.23l-6.716 1.041s-.65-.757-1.622-2.788c-.972-2.032.098-1.846.988-2.104.89-.259.316-.792-.786-1.423-1.101-.63-.53-2.158-.53-2.158s1.512-2.795.947-2.997c-.565-.201-.77-4.047-.77-4.047s-1.291-4.53-1.06-5.77c.23-1.24-1.055-4.148-1.055-4.148l-.524-3.498a9.662 9.662 0 0 1-1.483-6.59l-.196-5.43s-1.966-10.41-2.392-15.715c-.275-3.388-.413-8.02-.477-10.912-.034-1.621-.047-2.697-.047-2.697l24.008-3.435a20.03 20.03 0 0 0 .574 3.561c.297 1.312.748 3.013 1.436 5.13 1.967 6.069 1.083 10.684 1.083 10.684l.076 7.76s2.32 5.104 1.94 6.909c-.223 1.07-.329 2.16-.315 3.252 0 0 5.179 11.139 4.803 14.448-.375 3.31 1.894 8.42 1.894 8.42s.691 3.672.17 4.697z"/>
            <path fill="#000" d="M53.864 94.336l7.3-1.262s-3.993 4.404-7.3 1.262z" opacity=".05"/>
            <path fill="#000" d="M59.82 85.95s.35 2.585-1.203 3.622c.01 0 2.84-.555 1.202-3.621zM59.062 77.714s-5.94 5.284-8.206 4.953c-2.266-.331 8.206-4.953 8.206-4.953zM44.86 97.074s-4.618 1.237-4.684 3.11c-.066 1.874 4.684-3.11 4.684-3.11z" opacity=".1"/>
            <path fill="#000" d="M46.782 120.276s-6.53 1.48-4.637 2.243c1.894.763 4.996 1.318 4.996 1.318s2.124.029-.36-3.561z" opacity=".05"/>
            <g fill="#000" opacity=".05">
                <path d="M40.883 123.888a1.31 1.31 0 0 1-.631-.93c-.038.075-.063.12-.063.12s-.556 1.526.53 2.157c.126.072.243.142.353.211.196-.044.404-.079.606-.139.865-.243.275-.788-.795-1.42zM49.332 123.128c.173-.174.151-.603.019-1.149a3.097 3.097 0 0 0-.316 1.628c.062-.18.164-.343.297-.48zM47.249 95.418a7.568 7.568 0 0 0-.366 2.07c.107-.49.26-.969.457-1.43l-.091-.64zM62.211 91.91c.038-.202.051-.407.038-.612-.066.42-.11.808-.139 1.148.032-.173.064-.353.101-.536zM47.855 115.25c.112-.404.151-.824.116-1.242a4.197 4.197 0 0 0-.258 1.577c.033-.117.081-.229.142-.334zM49.641 125.717a21.944 21.944 0 0 0-.631 3.47l-6.716 1.042s-.647-.758-1.62-2.786a7.647 7.647 0 0 1-.21-.486c-.398.202-.54.631.037 1.833.972 2.028 1.622 2.786 1.622 2.786l6.716-1.041s.366-3.534 1.01-4.228c.313-.356.095-.526-.208-.59zM40.34 116.042s.205 3.849.77 4.05c.259-.646.423-1.26.17-1.346-.567-.202-.77-4.05-.77-4.05s-1.293-4.53-1.06-5.767c.234-1.237-1.054-4.148-1.054-4.148l-.527-3.499a9.662 9.662 0 0 1-1.483-6.59l-.209-5.41s-1.966-10.41-2.392-15.716c-.274-3.388-.413-8.022-.476-10.912 0-.523-.02-.987-.029-1.378l-.192.028s0 1.073.05 2.697c.063 2.89.202 7.524.473 10.912.43 5.29 2.396 15.716 2.396 15.716l.208 5.41a9.662 9.662 0 0 0 1.484 6.59l.523 3.499s1.288 2.908 1.055 4.148c-.234 1.24 1.063 5.766 1.063 5.766zM60.693 127.989a6.522 6.522 0 0 1-1.167-2.606c-.666.631.217 3.028.997 3.953.82.975 6.647 1.366 7.691-.518l-.04-1.063c-1.45 1.559-6.704 1.161-7.48.234zM68.934 121.364a10.824 10.824 0 0 0-.717 1.704l.029.782c.117-.29.284-.678.517-1.139.16-.445.225-.92.19-1.391l-.02.044zM60.83 122.56c.196-.437.362-.887.498-1.347 0 0-.947.258-2.525-1.467-1.146-1.262-1.304-3.707-1.209-5.316-.243.947-.536 4.937 1.038 6.663 1.039 1.13 1.796 1.407 2.197 1.467zM57.443 110.304c.14 1.095.22 2.196.24 3.3.02-.175.051-.35.094-.52.243-.947-.16-4.127-.16-4.127s-.032-2.233-.506-2.943c-.473-.71-1.578-4.798-1.578-4.798s-.053-1.394-.864-2.088c-.812-.694-1.42-3.52-1.42-3.52a3.67 3.67 0 0 1-.65-2.38c.113-1.4-1.061-2.86-1.061-2.86l-2.134-5.953-1.96-4.448-.902 2.659v.849l.735-2.161 1.96 4.448 2.127 5.95s1.174 1.46 1.06 2.86a3.652 3.652 0 0 0 .65 2.379s.61 2.839 1.42 3.52c.812.682.863 2.089.863 2.089s1.107 4.1 1.578 4.798c.47.697.508 2.946.508 2.946z"/>
            </g>
            <path fill="#FFCDD3" d="M58.178 7.506l-.34 2.054.06.905.043.669-2.32.315-.28-.473c-.515-.855-1.578-2.593-1.92-2.839-.441-.344-1.429-5.978-.495-5.678.572.195 1.05.595 1.345 1.123 0 0 4.601.353 3.907 3.924z"/>
            <path fill="#000" d="M57.941 11.134l-2.32.315-.28-.473a2.058 2.058 0 0 1 2.556-.523l.044.68z" opacity=".1"/>
            <path fill="#DCE6F2" d="M58.557 12.216l-3.043.83-.082-.455-.22-1.224s1.151-1.665 2.957-.517l.176.63.212.736z"/>
            <path fill="#FFCDD3" d="M8.663 9.635l-3.21 1.893s-.135-.252-.315-.605c-.338-.631-.84-1.61-.982-1.956-.214-.533-1.61-1.167-1.61-1.167-3.556-3.155.424-6.117.424-6.117 1.994-4.436 4.63 1.3 4.63 1.3s.454 3.056.224 3.274c-.23.218-.196 1.054-.196 1.054.337.59.625 1.207.862 1.845.113.29.173.48.173.48z"/>
            <path fill="#000" d="M8.663 9.635l-3.21 1.893s-.135-.252-.315-.605c.445-.404 2.035-1.799 2.575-1.758.258.025.518.025.777 0 .113.281.173.47.173.47z" opacity=".1"/>
            <path fill="#DCE6F2" d="M9.036 10.613L5.422 12.57l-.104-.788-.073-.546S7.31 9.326 7.944 9.37c.315.032.634.02.946-.037l.07.659.076.621z"/>
            <path fill="#FFCDD3" d="M49.77 21.364s-15.988 2.43-13.025 1.34c2.064-.763 2.84-2.122 2.96-3.598.092-1.24-.274-2.562-.74-3.695a16.114 16.114 0 0 0-1.547-2.839s12.015-7.22 9.783-.99a9.756 9.756 0 0 0-.584 2.934c-.036.994.11 1.987.43 2.93a8.77 8.77 0 0 0 2.723 3.918z"/>
            <path fill="#000" d="M47.214 11.585a9.756 9.756 0 0 0-.584 2.934c-1.117 1.016-2.389 1-4.018 1.063-1.262.047-2.625.404-3.648-.161a16.114 16.114 0 0 0-1.546-2.84s12.015-7.223 9.796-.996z" opacity=".1"/>
            <ellipse cx="42.158" cy="9.38" fill="#FFCDD3" rx="6.647" ry="6.644"/>
            <path fill="#000" d="M49.77 21.364s-15.988 2.43-13.025 1.34c2.064-.763 2.84-2.122 2.96-3.598.768-.9 2.349-1.578 3.368-1.956a4.796 4.796 0 0 1 2.907-.158c.38.096.743.247 1.08.448a8.77 8.77 0 0 0 2.71 3.924zM58.557 12.216l-3.043.83-.082-.455a2.721 2.721 0 0 1 2.913-1.123l.212.748zM9.036 10.613L5.422 12.57l-.104-.788a26.756 26.756 0 0 1 3.654-1.773l.064.605zM57.68 61.579c-6.18 1.22-14.982 2.839-16.412 2.463-1.18-.315-4.898-.129-8.133.108a308.913 308.913 0 0 1-.047-2.697l24.008-3.436a20.03 20.03 0 0 0 .583 3.562z" opacity=".1"/>
            <path fill="#1A3CFA" d="M63.827 59.882s-20.343 4.3-22.568 3.716c-2.225-.584-13.48.574-13.48.574-4.945 3.596-3.02-1.505-3.02-1.505s-.546-2.603 0-4.748c.349-1.57.567-3.166.653-4.772 0 0-.24-3.341.344-4.146.584-.804 1.095-6.41 1.095-6.41s.41-3.814.316-4.65c-.095-.835.047-3.183.047-3.183l.568-3.93c-4.207-.398-17.228-7.716-17.228-7.716-.717-2.596-5.681-8.55-5.681-8.55a6.402 6.402 0 0 0-.448-1.491c-.37-.88 4.585-2.858 4.585-2.858s3.914 4.416 4.734 5.628c.82 1.21 3.595 3.381 3.595 3.381.414-.06.837-.022 1.234.11l.063.02c.911.32 1.771.77 2.553 1.337a4.85 4.85 0 0 1 3.453 1.152s2.276-.423 2.68-.048c.404.376 2.344-.088 2.344-.088s1.793-4.205 3.122-3.054c1.328 1.152 6.776.884 6.776.884.688-.991 2.427-1.751 3.519-2.149a4.796 4.796 0 0 1 2.906-.16c.417.101.813.274 1.171.51l3.428 3.108s.902-1.262.78-1.54c-.124-.277 1.098-.542 1.098-.542s1.597-.565 2.209-.757c.612-.193 1.193.454 1.246.507-.025-.069-.495-1.403-.372-2.441.123-1.038-.748-1.981-.748-1.981 1.77-4.87 6.331-1.026 6.331-1.026s.606 2.603.196 3.625c-.41 1.022.568 3.104.476 3.666-.091.561.281 1.498.316 2.558.035 1.06-.439 3.088-.739 3.994-.3.905-2.903 3.016-2.903 3.016s-.044 3.186-1.146 5.072c-1.101 1.887-.132 8.161-.132 8.161s1.306 4.864 2.761 6.372 3.866 10.354 3.866 10.354z"/>
            <path fill="#000" d="M32.56 24.33s-.684-1.818-1.262-1.963a13.395 13.395 0 0 1-1.644-.662l.315-.7s2.118.492 2.478 1.094c.36.603.114 2.23.114 2.23zM21.19 20.69c-.092.56-5.05 1.26-5.05 1.26l2.414-2.614.063.019a9.994 9.994 0 0 1 2.572 1.334z" opacity=".1"/>
            <ellipse cx="6.526" cy="13.585" fill="#575988" rx="1" ry="1"/>
            <ellipse cx="7.132" cy="14.456" fill="#575988" rx="1" ry="1"/>
            <ellipse cx="7.723" cy="15.257" fill="#575988" rx="1" ry="1"/>
            <ellipse cx="8.341" cy="16.128" fill="#575988" rx="1" ry="1"/>
            <ellipse cx="60.94" cy="14.055" fill="#575988" rx="1" ry="1"/>
            <ellipse cx="61.028" cy="14.875" fill="#575988" rx="1" ry="1"/>
            <ellipse cx="61.107" cy="15.695" fill="#575988" rx="1" ry="1"/>
            <path fill="#000" d="M33.17 39.443c-.054-.063 13.135 15.331 22.55 5.78-.004 0-15.351 2.684-22.55-5.78zM26.261 47.976s7.537-.085 8.408 2.047l.085 2.253c-.426.26-.957.28-1.401.053-.774-.378-5.413-2.523-6.975-1.34l-.117-3.013z" opacity=".1"/>
            <path fill="#000" d="M26.403 47.97s7.205-.082 8.039 1.953l.082 2.148a1.383 1.383 0 0 1-1.342.05c-.738-.363-5.176-2.397-6.668-1.277l-.11-2.874z" opacity=".22"/>
            <path fill="#000" d="M29.742 31.48a24.2 24.2 0 0 0 3.112 4.894 19.637 19.637 0 0 0 4.734 4.233s-7.682-8.098-7.846-9.126zM26.943 22.834s1.464 5.363 4.772 7.085l-4.772-7.085zM25.04 23.456c-.038-.101-.947 4.328 4.418 6.549.01 0-2.266-.676-4.418-6.55zM57.765 18.557c-.082 0 2.676 1.612 3.436 2.381 0 0-1.849-2.555-3.436-2.381z" opacity=".1"/>
            <path fill="#2D293D" d="M40.593 15.465a1.044 1.044 0 0 0 1.183.994c2.03.047 4.14.057 5.997-.795a2.26 2.26 0 0 0 .886-.631c.316-.42.36-.975.477-1.489.224-1 .748-1.893 1.117-2.864a9.482 9.482 0 0 0 .448-5.089 3.387 3.387 0 0 0-.561-1.46c-.568-.748-1.56-1.02-2.292-1.603-.732-.583-1.227-1.498-2.073-1.924C45.01.219 44.099.288 43.25.478a13.183 13.183 0 0 0-4.608 1.937c-.47.315-.984.672-1.543.59-.49-.073-.855-.467-1.184-.836a6.183 6.183 0 0 0-.385 2.911c.026.144.026.292 0 .436a1.337 1.337 0 0 1-.293.47c-.477.599-.754 1.53-.237 2.094.224.25.559.376.78.631.391.451.29 1.126.315 1.723a.874.874 0 0 0 .17.583.862.862 0 0 0 .828.164c.278-.096.573-.135.868-.117.316.091.592.287.782.556.988 1.138 1.401 2.432 1.85 3.845z"/>
            <g fill="#000" opacity=".1">
                <path d="M48.852 14.503c-.24.28-.546.496-.89.63-1.843.853-3.951.846-5.98.796a1.045 1.045 0 0 1-1.187-.99c-.445-1.417-.862-2.71-1.844-3.862a1.452 1.452 0 0 0-.779-.555 2.308 2.308 0 0 0-.871.117.862.862 0 0 1-.827-.164.892.892 0 0 1-.17-.584c0-.596.088-1.262-.316-1.722-.218-.253-.555-.379-.78-.631a1.312 1.312 0 0 1-.18-1.328c-.33.577-.457 1.306-.025 1.782.224.246.562.372.78.63.391.452.293 1.127.315 1.726a.87.87 0 0 0 .17.58.852.852 0 0 0 .828.165c.28-.095.576-.134.87-.117.315.093.59.288.78.555.982 1.155 1.395 2.445 1.843 3.862.066.352.264.665.553.877.199.086.414.126.631.116 2.03.048 4.14.054 5.996-.798.344-.135.649-.352.89-.63.12-.167.209-.353.266-.55a.915.915 0 0 1-.073.095zM35.559 5.33a.946.946 0 0 0 .19-.344 1.189 1.189 0 0 0 0-.436 6.177 6.177 0 0 1 .22-2.413l-.041-.044a6.193 6.193 0 0 0-.385 2.912c.015.107.02.216.016.324z"/>
            </g>
            <path fill="#000" d="M39.564 19.535s8.338.782 9.035-.496M55.559 15.484s4.607-.17 5.68 1.517" opacity=".1"/>
        </g>
        <path fill="url(#c)" d="M65.445 108.284c-.179-.96-.284-1.93-.315-2.905 0-1.168-1.578-2.209-1.578-2.209s-.982-2.27-1.626-2.602c-.643-.331-2.673-3.306-2.673-3.306a2.693 2.693 0 0 0-.609-1.603 22.961 22.961 0 0 1-1.654-2.495c-.271-.334-.135-.568-.542-2.505a5.415 5.415 0 0 0-.076-.293c0-.044-.029-.082-.041-.123a3.273 3.273 0 0 0 .77-3.388 1.391 1.391 0 0 0-.388-.6c-.461-.375-1.196-.22-1.67-.577l.502-2.227c.123-.542.186-1.236-.294-1.53a2.406 2.406 0 0 0-.561-.19c-.827-.261-1.291-1.132-1.503-1.964a6.735 6.735 0 0 1-.164-2.461c.092-.789.316-1.558.41-2.35a6.487 6.487 0 0 0-1-4.183 3.263 3.263 0 0 0-1.322-1.246c-.508-.227-1.099-.256-1.578-.555-1.017-.631-.966-2.174-1.774-3.06-.808-.887-2.244-.877-3.424-.574-1.18.302-2.352.823-3.563.687-.78-.085-1.512-.438-2.292-.52a2.292 2.292 0 0 0-.672.031l.016-.028c-.58.104-1.111.426-1.247.975-.03.13-.043.264-.038.397 0 .316.076.65.082.946a.92.92 0 0 1-.22.672c-.155.168-.386.256-.537.426a.694.694 0 0 0-.199.502c0 .486.606.912 1.013 1.107a7.165 7.165 0 0 0-2.092 5.114 7.271 7.271 0 0 0 4.418 6.659c-.019.06-.035.117-.057.177a9.373 9.373 0 0 1-.397 1.031 2.046 2.046 0 0 0-1.714.19c-.78.533-2.3.501-2.708.4-.407-.1-4.636-.63-4.974-.501-.337.129-1.016-.467-1.455.334-.438.801-.63 1.237-1.082 1.435-.452.199-1.218.836-1.117.969.1.132-1.118.946-1.118.946s-1.047 1.101-1.657 1.237c-.609.135-1.893.968-1.893.968l-1.49 1.167s-1.117.167-.78-.6c.338-.766-.609-1.737-.609-1.737s-1.893-3.84-1.893-4.637c0-.799-1.556-4.174-1.556-4.174l-.193-.019a12.134 12.134 0 0 0-.088-.25c-.284-.804-.653-1.788-.947-2.368-.536-1.101-.883-1.227-.883-1.227S5.828 70.719 1.564 72.22c-4.264 1.501 7.783 5.975 8.866 6.445.378.16.65.69.842 1.306a5.607 5.607 0 0 0-2.32 2.11s2.604 5.773 2.67 7.208c.067 1.436 1.796 5.442 1.796 5.442s.631 2.971 4.128 2.804c0 0 4.804.88 5.852 0 1.047-.88 1.997-1.577 2.506-1.675.375-.123.705-.356.946-.669 0 0-1.578 10.013-2.367 10.884-.789.87-7.681 12.116-5.213 14.116a49.485 49.485 0 0 0 6.192 4.101c.211.104.84-.946 1.739-1.687v.577c.015 4 .536 10.095 1.278 11.457 1.082 2.004.631 5.877.631 5.877a4.673 4.673 0 0 0 1.83.439c.032.13.07.265.108.407.596 2.252 1.562 5.735 2.054 6.662.748 1.404 1.288 5.843 1.288 5.843s.439 4.372.271 4.974c-.066.23.221 2.044.67 4.347-.275 3.13-.79 9.164-.878 11.357v.366a2.478 2.478 0 0 0 0 .41c.038.21.023.427-.044.63-.19.605-.436 1.19-.735 1.748-.016.057-.2.436-.316.849-.268.117-.603.41-.789 1.12-.338 1.303-.846 4.908-.846 4.908s-.202 2.208-.609 2.704c-.407.495-.811 3.637 2.064 4.038 2.875.4 4.128-1.527 4.128-1.527l-.1-8.738c.057-.075.107-.155.148-.24v-.019c.019-.044.04-.085.06-.136.018-.05 0-.04.025-.063.025-.022.028-.07.04-.107a.177.177 0 0 1 0-.038c.28-.837.364-1.728.244-2.602v-.114-.066a.404.404 0 0 0 0-.06.609.609 0 0 1 0-.076v-.054c0-.056 0-.116.019-.176a.117.117 0 0 1 0-.035v-.104a.243.243 0 0 0 0-.047c0-.035.016-.073.022-.11v-.026c.025-.13.06-.259.095-.394v-.029l.037-.132c.045-.142.092-.28.14-.42v-.028l.047-.13v-.015c.047-.133.097-.262.148-.385v-.035l.047-.11v-.032l.104-.246.799 2.464s.439 1.836.202 2.268c-.237.432.271 2.24.609 2.271l-.316 2.272a34.707 34.707 0 0 0-.315 3.785c-.022.142-.044.265-.06.36-.218 1.16.315 2.965.315 2.965 2.674 3.155 5.855.246 5.855.246s.372-1.672 0-2.003c-.373-.331-.202-1.536-.202-1.536s.167-2.972.202-5.142c.035-2.17-1.777-4.08-1.777-4.08l-.101.092c-.316-.848-.704-1.842-.631-2.287.136-.766-.373-8.877-.373-8.877.186-2.17.225-4.349.117-6.523l.126-1.082c.206-1.745.37-3.237.436-4.016v-.092c.016-.21.025-.36.022-.432 0-.258 0-.583.025-.924.067-.946.212-1.981.212-1.981l.71-4.306s.54-2.101 1.32-3.271l.09-.149c.032-.05.064-.107.095-.167v-.025l.095-.18v-.025c.11-.215.227-.464.347-.735l.029-.06.091-.208.035-.082.091-.209c0-.028.022-.053.035-.082.035-.085.07-.17.107-.255l.05-.123c.03-.063.054-.126.08-.193l.07-.164.047-.123.075-.186c0-.028.026-.056.035-.085.192-.483.382-.946.546-1.394.054-.136.104-.265.151-.391 1.733.107 2.91.205 2.91.205s.543-3.906.373-6.477c-.117-1.754.208-3.962.426-5.183l.066-.362.047.037c.85.666 1.455-1.536 1.455-1.536s-.227-2.06-.533-4.549c0-.082-.022-.167-.032-.249.49.104.983.18 1.48.227 0 0 .272-.025.632-.072a17.937 17.937 0 0 0 3.213 1.438l1.792-3.337c.339-.689.734-1.347 1.184-1.969.543-.669 2.47-2.804 2.436-3.205-.035-.4.631-2.703 1.32-3.738.687-1.035 1.088-3.136 1.05-3.306zm-7.511 2.524c-.71.3-1.389 1.968-1.42 2.47-.032.501-.78 2.703-1.56 2.971-.713.246-2.082 1.502-2.3 1.704-.224.022-.477.05-.742.094-.296-2.107-.59-3.848-.78-4.202-.539-1.003.597-4.205.597-4.205s.114-3.236.824-4.006.543-2.703.543-2.703.167-.802.237-1.168c.069-.366 1.006 0 1.013 0 0 0 1.827 1 2.098 2.502.272 1.502 2.266 4.1 2.266 4.1s-.315.9 0 1.37c.316.47-.063.786-.773 1.085l-.003-.012z"/>
        <path fill="#4C4981" d="M9 82.293a5.458 5.458 0 0 1 5.466-2.564v3.899H12.11l-1.869-.483L9 82.293z"/>
        <path fill="#000" d="M9 82.293a5.458 5.458 0 0 1 5.466-2.564v3.899H12.11l-1.869-.483L9 82.293z" opacity=".1"/>
        <path fill="#AE6E79" d="M14.633 80.76l-2.9 2.035s-.025-.41-.098-.965c-.145-1.05-.47-2.628-1.17-2.934-1.068-.467-12.94-4.93-8.73-6.43 4.21-1.498 10.664 3.417 10.664 3.417s.334.114.865 1.215c.28.577.63 1.561.927 2.363.256.725.442 1.3.442 1.3z"/>
        <path fill="#4C4981" d="M37.824 83.893l.328-.158.928 1.057-.758 1.615-1.29-.517.3-1.29z"/>
        <path fill="#444053" d="M33.43 178.508s-.833-.098-1.167 1.199c-.335 1.296-.833 4.899-.833 4.899s-.2 2.208-.6 2.697c-.4.489-.798 3.63 2.033 4.031 2.83.401 4.068-1.523 4.068-1.523l-.101-8.738-3.4-2.565zM43.312 178.902s1.783 1.893 1.752 4.07c-.032 2.176-.202 5.132-.202 5.132s-.164 1.199.202 1.533c.366.335 0 1.997 0 1.997s-3.134 2.909-5.766-.243c0 0-.515-1.801-.316-2.962.199-1.16.799-6.388.799-6.388l3.531-3.139z"/>
        <path fill="#AE6E79" d="M47.73 139.054s-1.801 5.047-2.568 6.195c-.767 1.148-1.298 3.268-1.298 3.268l-.7 4.3a23.57 23.57 0 0 0-.234 2.9c.032.964-1.732 15.056-1.732 15.056l-2.8 3.565s-1.234 2.498-1.035 3.533c.199 1.034-.133 2.697-.533 3.195 0 0-.067 3.265-.168 4-.1.735.37 2.798 0 3.155-.369.356-5.264.199-5.4-.4-.135-.6.603-3.5.603-3.5l.433-2.797s.864-1.533.666-2.032c-.2-.498.366-1.666.4-1.766.035-.101.947-1.732.767-2.363-.18-.631 1.032-14.06 1.032-14.06l3.434-24.088 9.134 1.839z"/>
        <path fill="#000" d="M47.73 139.054s-.27.757-.65 1.754c-.593 1.577-1.448 3.728-1.918 4.441-.767 1.167-1.3 3.265-1.3 3.265l-.698 4.3c-.138.96-.216 1.927-.234 2.896 0 .381-.255 2.817-.584 5.618-.505 4.287-1.148 9.442-1.148 9.442l-2.803 3.564s-.142.287-.316.704c-.35.817-.845 2.145-.713 2.839.199 1.035-.132 2.7-.533 3.199 0 0-.066 3.268-.167 3.997-.101.728.369 2.8 0 3.154-.37.353-5.265.202-5.4-.4-.136-.603.6-3.496.6-3.496l.435-2.801s.865-1.533.666-2.032c-.2-.498.366-1.665.4-1.766.035-.101.947-1.732.767-2.366-.129-.483.537-8.372.859-12.114.104-1.18.173-1.943.173-1.943l2.954-20.722.237-1.672.243-1.694 9.13 1.833z" opacity=".1"/>
        <path fill="#AE6E79" d="M44.73 189.17c.03.366-4.7.9-5.366.499-.666-.4 0-5.363 0-5.363l.316-2.265c-.335-.035-.834-1.833-.6-2.268.233-.435-.202-2.265-.202-2.265l-.786-2.46-.48-1.502c-.776-1.72-1.893-6.625-2.607-10.284-.441-2.3-.722-4.101-.66-4.344.168-.6-.267-4.962-.267-4.962s-.53-4.417-1.263-5.83c-.486-.927-1.436-4.416-2.026-6.653-.3-1.151-.508-1.978-.508-1.978s5.05-.422 8.092-.57c1.408-.067 2.392-.076 2.275.04-.116.117-.142.726-.135 1.606 0 2.287.331 6.31.669 7.388.467 1.498.947 5.994.732 6.429-.215.435-.133 3.331-.133 3.331.343 1.178.539 2.393.584 3.619.106 2.17.067 4.345-.116 6.51 0 0 .501 8.095.366 8.862-.136.766 1.066 3.154 1.066 3.63 0 .477.303 3.632.303 3.632s.714 4.832.745 5.198zM47.361 91.855l-.574.63-.372.401-2.184 2.319-5.634.631-2.992-.801-.742-.196s0-1.505.136-3.309c.19-2.312.647-5.123 1.733-5.886a4.303 4.303 0 0 0 1.262-1.606c.218-.434.4-.884.546-1.347.022-.06.038-.117.057-.174.247-.807.425-1.635.53-2.473 0 0 .72-.397 1.717-.861 2.61-1.218 7.117-2.896 5.548.861a14.163 14.163 0 0 0-.653 1.94c-.524 2.095-.177 3.363.215 4.063.067.12.143.235.227.344.105.147.233.277.379.385l.65 4.117.054.34.097.622z"/>
        <path fill="#000" d="M46.396 80.262c-.297.713.145-.584 0 0-1.187.845-3.986 3.249-5.561 3.249-1.06 0-1.38-.192-2.292-.602a14.79 14.79 0 0 0 .587-2.647s9.43-5.199 7.266 0z" opacity=".1"/>
        <path fill="#AE6E79" d="M48.791 75.883a7.257 7.257 0 0 1-7.265 7.262 7.257 7.257 0 0 1-7.259-7.255 7.257 7.257 0 0 1 7.259-7.256 7.257 7.257 0 0 1 7.259 7.256l.006-.007z"/>
        <path fill="#000" d="M49.83 108.079l-1.033 2.7s-.845.038-2.158.079c-4.419.142-14.203.316-14.641-.814-.1-.288-.152-.59-.152-.896-.06-1.735.751-4.4.751-4.4s.468-5.332.468-5.562c0-.23-.401-3.981-.401-3.981l.798-2.997 2.235-1.577s1 1.533 1.6 1.666c.6.132 1.401.867 1.401.867s1.963 1.199 2.597.53c.635-.669 5.568-3.596 5.568-3.596l2.6 2.864.366 15.117z" opacity=".1"/>
        <path fill="#FFF" d="M49.83 108.48l-1.033 2.7s-.845.038-2.158.076h-.13l-1.915.05c-3.523.079-8.38.1-10.914-.268-.947-.139-1.578-.316-1.682-.6-.06-.16-.1-.326-.12-.495a3.967 3.967 0 0 1-.032-.4c-.06-1.735.751-4.417.751-4.417s.468-5.331.468-5.564c0-.234-.401-3.966-.401-3.966l.798-2.997L35 91.524l.698-.49c.234.352.49.688.767 1.007.213.29.501.516.833.656.6.136 1.401.868 1.401.868s1.963 1.202 2.597.533c.486-.511 3.472-2.344 4.867-3.18l.7-.42.351.388 2.25 2.48.366 15.113z"/>
        <path fill="#000" d="M14.633 80.76l-2.9 2.035s-.025-.41-.098-.965c1.433-.603 2.304-1.94 2.556-2.37.256.726.442 1.3.442 1.3z" opacity=".1"/>
        <path fill="#1A3CFA" d="M24.83 87.656l-.63-.164s-1.036 1.098-1.636 1.23c-.6.133-1.865.969-1.865.969l-1.467 1.164s-1.102.167-.767-.6c.334-.766-.6-1.731-.6-1.731S16 84.69 16 83.893s-1.534-4.164-1.534-4.164S12.531 83.492 9 82.293c0 0 2.566 5.764 2.632 7.196.066 1.432 1.767 5.432 1.767 5.432s.632 2.965 4.065 2.798c0 0 4.734.88 5.766 0s1.967-1.577 2.468-1.672c.37-.124.695-.355.931-.665V91.42l-1.799-3.764z"/>
        <path fill="#000" d="M18.897 91.42s.833 3.097.316 3.432l-.316-3.432zM46.639 111.256c-4.419.141-14.203.315-14.641-.811-.1-.288-.152-.591-.152-.896l14.483.763.31.944zM47.73 139.054s-.27.757-.646 1.754c-1.84-.114-4.277-.23-6.59-.246-.82 0-1.622 0-2.377.025-1.307 0-2.61.146-3.885.432a10.255 10.255 0 0 1-3.471.445c-.3-1.152-.508-1.978-.508-1.978s5.05-.423 8.092-.571l.243-1.694 9.143 1.833z" opacity=".1"/>
        <path fill="#65617D" d="M51.628 126.87l-.565 1.2s-.079.356-.18.924c-.214 1.217-.536 3.422-.422 5.173.17 2.565-.367 6.46-.367 6.46s-12.264-1.03-15.862 0c-3.598 1.032-5.365 0-5.365 0s.432-3.864-.631-5.86c-.732-1.37-1.244-7.445-1.263-11.436 0-1.845.092-3.243.316-3.523.732-.903 3.866-9.896 3.866-9.896l.713.038 1.894.1 10.854.571 1.7.089.18.552 5.132 15.609z"/>
        <path fill="#4C4981" d="M57.028 122.87l.101 1.067s-5.365-1.748-5.1-3.896c.265-2.148 0-1.893 0-1.893l4.318.366.681 4.357z"/>
        <path fill="#000" d="M57.028 122.87l.101 1.067s-5.365-1.748-5.1-3.896c.265-2.148 0-1.893 0-1.893l4.318.366.681 4.357zM22.482 92.28c.55.467 1.197.804 1.894.985a1.231 1.231 0 0 1-.559-.262c-.385-.274-.75-.57-1.12-.861-.297-.233-.672-.631-1.042-.716.246.313.523.6.827.855zM22.564 93.685c.174.194.314.417.414.659.086.275.126.563.12.852.043.408-.007.822-.149 1.208l-.874-2.073a22.57 22.57 0 0 0-.48-1.047c-.078-.145-.574-.745-.517-.87.164-.364 1.325 1.072 1.486 1.27zM46.594 105.18a2.79 2.79 0 0 0 1.578-.729c-.886.11-1.723.458-2.597.631a3.861 3.861 0 0 1-2.42-.22c.994.498 2.36.513 3.44.318zM44.092 99.082a.597.597 0 0 1-.452-.114 42.995 42.995 0 0 1-1.969-1.192 11.946 11.946 0 0 1-1.925-1.331c1.322 1.195 2.553 2.205 4.346 2.637zM45.941 106.148c.348.016.697-.012 1.038-.082.346-.073.651-.273.856-.561a.483.483 0 0 0-.363.057 6.132 6.132 0 0 1-3.346.4c.54.23 1.238.183 1.815.186zM39.626 121.615a10.7 10.7 0 0 1-2.13.42c-.562.025-1.125.015-1.686-.032l-2.73-.173-1.366-.089c-.161 0-.82 0-.496-.315.164-.155 1.076-.057 1.31-.063.454 0 .906-.022 1.357-.025.903 0 1.809 0 2.711.056 1.014.04 2.024.114 3.03.221zM36.467 122.965c-.464-.019-1.06.259-1.537.316-.533.064-1.07.087-1.607.066a9.042 9.042 0 0 1-3.102-.63c2.086.103 4.166.166 6.246.248zM30.628 124.394c.202.041.401.095.597.161 1.148.331 2.373.041 3.531-.246-.29.435-.83.631-1.341.745a6.315 6.315 0 0 1-2.616.094c-.275-.053-.947-.151-1.099-.435-.208-.42.672-.36.928-.319zM37.082 126.543c.345.07.685.158 1.02.265 1.294.315 2.638-.12 3.938-.417a18.228 18.228 0 0 1 4.769-.441c-.287 0-.742.252-1.023.337-.369.11-.741.211-1.114.316a22.832 22.832 0 0 1-6.798.634c-.697-.038-1.893.034-2.506-.316a2.772 2.772 0 0 1 1.714-.378zM37.565 85.454s.066 3.07-.435 4.467c-.155.435-.401 1.24-.666 2.142-.294 1-.613 2.12-.859 2.987-.246.868-.407 1.467-.407 1.467s-1.127 9.168-1.42 13.533v.228a9.93 9.93 0 0 1-.082.766c-.65 4.338-4.393 11.025-5.65 11.562-.39.18-.748.425-1.057.725 0-1.845.092-3.243.316-3.523.732-.903 3.866-9.896 3.866-9.896l.713.038a3.967 3.967 0 0 1-.031-.401c-.06-1.735.75-4.417.75-4.417s.468-5.33.468-5.564c0-.234-.401-3.965-.401-3.965l.799-2.997 1.536-1.076c.19-2.312.647-5.123 1.733-5.886a4.303 4.303 0 0 0 1.263-1.606c.217.028-.177-.161-.177-.161l-.259 1.577z" opacity=".1"/>
        <path fill="#1A3CFA" d="M38.152 83.735a1.995 1.995 0 0 0-1.688.192c-.767.53-2.266.499-2.667.398-.401-.101-4.567-.631-4.898-.499-.332.133-1-.466-1.433.332-.433.798-.631 1.233-1.067 1.435-.436.202-1.202.833-1.101.965.1.133-1.099.947-1.099.947l2.43 7.886s-1.578 9.994-2.332 10.858c-.754.865-7.574 12.095-5.132 14.095a49.217 49.217 0 0 0 6.098 4.1c.268.133 1.234-1.665 2.569-2.233 1.335-.567 5.466-8.079 5.738-12.33.27-4.253 1.432-13.761 1.432-13.761s1.433-5.199 1.935-6.596c.502-1.398.42-4.47.42-4.47l.795-1.319z"/>
        <path fill="#000" d="M51.628 126.87l-.565 1.2s-.079.356-.18.924a.524.524 0 0 1-.287-.123c-.833-.67-5.734-5.697-5.965-10.164a80.534 80.534 0 0 1-.037-7.395c.018-.397.031-.63.034-.69 0 0 3.787-4.6 3.365-6.23-.423-1.632-1.433-10.364-1.433-10.364l-.149-1.145-.252-1.933-.597-4.688.632.145c.105.147.233.277.378.385l.65 4.117 2.25 2.479.367 15.091-1.032 2.7s-.846.039-2.159.077h-.13l5.11 15.615z" opacity=".1"/>
        <path fill="#1A3CFA" d="M53.73 101.95s-.947-.366-1 0a22.929 22.929 0 0 1-.234 1.164s.164 1.933-.533 2.7c-.698.766-.811 3.997-.811 3.997s-1.12 3.198-.59 4.198c.192.363.492 2.183.792 4.36.19 1.36.378 2.858.549 4.224.315 2.489.527 4.543.527 4.543s-.6 2.208-1.433 1.533c-.833-.675-5.734-5.704-5.968-10.161a80.813 80.813 0 0 1-.044-7.205c.025-.571.044-.893.044-.893s3.787-4.596 3.368-6.227c-.42-1.631-1.433-10.363-1.433-10.363l-.177-1.347-.186-1.45-.041-.316-.603-4.65c.107.022 3.847.867 4.34 1.36.492.492 3.531 1.198 3.531 1.198.938.256 1.663 1 1.894 1.943.028.092.05.19.072.29.401 1.934.269 2.165.537 2.499.268.334-2.6 8.603-2.6 8.603z"/>
        <path fill="#000" d="M51.903 122.593c-1.37-.265-3.387-.899-3.342-2.287.044-1.303 1.61-1.77 2.793-1.937.205 1.36.378 2.858.549 4.224z" opacity=".1"/>
        <path fill="#AE6E79" d="M56.129 121.905c-.054.117-.281.218-.58.316-.728.174-1.466.294-2.21.36 0 0-4.633-.366-4.567-2.464.047-1.508 2.14-1.893 3.317-1.997.46-.041.783-.035.783-.035s3.459 3.388 3.257 3.82z"/>
        <path fill="#000" d="M56.129 121.905c-.054.117-.281.218-.58.316-1.21-1.615-2.895-3.688-3.719-3.87 0 0 .095-.092.25-.231.46-.041.782-.035.782-.035s3.469 3.388 3.267 3.82z" opacity=".1"/>
        <path fill="#1A3CFA" d="M54.961 93.155l1.367.198a23.482 23.482 0 0 0 1.634 2.499c.367.455.577 1.015.6 1.6 0 0 2.001 2.964 2.632 3.299.631.334 1.6 2.6 1.6 2.6s1.578 1.03 1.578 2.207c.027.972.127 1.94.3 2.896.032.167-.233 2.234-.902 3.265-.67 1.032-1.332 3.331-1.298 3.732.035.4-1.868 2.524-2.401 3.199a13.46 13.46 0 0 0-1.165 1.965l-1.767 3.331s-3.734-5.495-5.1-5.795c0 0 1.533-1.466 2.3-1.731.767-.265 1.5-2.467 1.534-2.966.035-.498.698-2.167 1.398-2.467.7-.3 1.067-.599.767-1.066-.3-.467 0-1.366 0-1.366s-1.966-2.6-2.234-4.1c-.269-1.502-2.064-2.5-2.064-2.5l-1.035-2.523 2.256-6.277z"/>
        <path fill="#000" d="M59.92 105.59a4.322 4.322 0 0 1 2.691-1.019c-.63.11-1.3.246-1.76.688a4.02 4.02 0 0 0-.487.63c-.16.228-1.445 1.862-1.65 1.606-.307-.39.946-1.684 1.205-1.905zM56.902 104.013c.414-.037.776-.294.947-.672.162-.376.262-.776.296-1.183.098-.682.237-1.357.414-2.022.045-.137.068-.28.066-.423a1.195 1.195 0 0 0-.123-.407 2.902 2.902 0 0 0-.29-.606c-.25.281-.316.909-.42 1.262-.122.454-.239.909-.35 1.363-.054.24-.518 2.688-.54 2.688zM55.722 90.565c-.136.174-.29.333-.461.473-.533.432-1.263.798-1.338 1.48a1.63 1.63 0 0 1-.08.659c-.173.296-.602.274-.946.214a1.667 1.667 0 0 1-.798-.293c-.357-.316-.392-.852-.663-1.234a1.686 1.686 0 0 0-1.351-.605c-.511-.016-1.02.097-1.528.123a4.234 4.234 0 0 1-.978-.067 4.142 4.142 0 0 1-.982-.293 3.359 3.359 0 0 1-.315-.151 4.29 4.29 0 0 1-.947-.653c-.498-.46-.912-1.089-.87-1.77.07-.409.165-.813.283-1.211.205-1.177-.577-2.29-1.426-3.133-.338-.331-.698-.66-1.036-1a4.99 4.99 0 0 1-1.22-1.735 5.285 5.285 0 0 1-.219-2.17c.079-.743.101-1.49.067-2.237-.253-2.65-2.525-4.678-4.779-5.785l-.097-.05a7.261 7.261 0 0 1 12.55 3.474 7.254 7.254 0 0 1-2.767 7.15 3.635 3.635 0 0 0-.066.249c-.524 2.095-.177 3.363.215 4.063.107.022 3.847.868 4.34 1.36.491.492 3.53 1.198 3.53 1.198a2.672 2.672 0 0 1 1.882 1.944z" opacity=".1"/>
        <path fill="#444053" d="M35.536 69.196c.148-.17.375-.26.527-.426.47-.511 0-1.347.173-2.022.187-.751 1.105-1.08 1.875-.997.77.082 1.49.432 2.257.517 1.193.136 2.348-.382 3.512-.684 1.165-.303 2.57-.316 3.374.57.805.887.745 2.41 1.742 3.057.461.297 1.042.316 1.54.552.546.282.998.715 1.304 1.246a6.524 6.524 0 0 1 .981 4.174c-.082.789-.315 1.558-.404 2.347a6.842 6.842 0 0 0 .161 2.454c.212.83.666 1.7 1.484 1.962.19.04.376.104.552.19.47.29.41.984.29 1.523l-.505 2.224c.467.357 1.19.202 1.645.578.179.161.31.368.381.599a3.277 3.277 0 0 1-.978 3.577c-.533.436-1.262.798-1.338 1.483.02.222-.007.445-.079.656-.174.297-.603.274-.947.215a1.635 1.635 0 0 1-.795-.294c-.36-.315-.391-.852-.663-1.233a1.686 1.686 0 0 0-1.35-.606c-.515-.016-1.02.098-1.531.123a4.505 4.505 0 0 1-3.223-1.164 2.334 2.334 0 0 1-.874-1.767c.073-.41.168-.815.284-1.214.205-1.174-.577-2.29-1.423-3.13-.846-.838-1.843-1.618-2.257-2.738-.517-1.388 0-2.933-.154-4.416-.253-2.65-2.525-4.678-4.775-5.782-.515-.25-1.373-.909-.786-1.574z"/>
        <path fill="#000" d="M53.358 92.073c-.357-.316-.388-.849-.66-1.234a1.698 1.698 0 0 0-1.354-.602c-.511-.016-1.016.097-1.527.123a4.52 4.52 0 0 1-3.223-1.149c-.501-.46-.912-1.091-.874-1.77.073-.408.168-.812.284-1.21.205-1.177-.577-2.29-1.426-3.133-.85-.842-1.84-1.619-2.257-2.738-.514-1.385 0-2.934-.151-4.417-.253-2.65-2.525-4.681-4.779-5.785-.527-.259-1.385-.915-.798-1.578.148-.17.372-.255.527-.422.47-.511 0-1.35.174-2.026a1.07 1.07 0 0 1 .17-.369 1.442 1.442 0 0 0-1.228.969c-.167.675.297 1.514-.173 2.025-.152.167-.379.252-.527.423-.587.669.271 1.325.801 1.577 2.263 1.107 4.523 3.136 4.775 5.786.14 1.47-.363 3.019.155 4.416.413 1.12 1.408 1.893 2.257 2.738.849.846 1.628 1.956 1.423 3.133-.116.398-.21.803-.284 1.211-.038.678.372 1.31.874 1.77a4.505 4.505 0 0 0 3.222 1.164c.512-.025 1.017-.139 1.531-.123a1.692 1.692 0 0 1 1.35.602c.272.385.317.93.664 1.234.234.166.509.267.795.293.34.063.77.085.947-.214a.744.744 0 0 0 .076-.392 1.534 1.534 0 0 1-.764-.302z" opacity=".1"/>
    </g>
</svg>
