<svg xmlns="http://www.w3.org/2000/svg" width="329" height="279" viewBox="0 0 329 279">
    <defs>
        <linearGradient id="a" x1="32.718%" x2="68.852%" y1="4.162%" y2="100%">
            <stop offset="0%" stop-color="#C0D2FF"/>
            <stop offset="100%" stop-color="#0030FF"/>
        </linearGradient>
        <linearGradient id="b" x1="32.672%" x2="68.901%" y1="4.162%" y2="100%">
            <stop offset="0%" stop-color="#C0D2FF"/>
            <stop offset="100%" stop-color="#0030FF"/>
        </linearGradient>
        <linearGradient id="c" x1="4.162%" y1="12.887%" y2="90.483%">
            <stop offset="0%" stop-color="#C0D2FF"/>
            <stop offset="100%" stop-color="#0030FF"/>
        </linearGradient>
        <linearGradient id="d" x1="4.162%" y1="12.848%" y2="90.525%">
            <stop offset="0%" stop-color="#C0D2FF"/>
            <stop offset="100%" stop-color="#0030FF"/>
        </linearGradient>
        <linearGradient id="e" x1="32.744%" x2="68.823%" y1="4.162%" y2="100%">
            <stop offset="0%" stop-color="#C0D2FF"/>
            <stop offset="100%" stop-color="#0030FF"/>
        </linearGradient>
        <linearGradient id="f" x1="50%" x2="50%" y1="0%" y2="95.101%">
            <stop offset="0%" stop-color="#789CF7"/>
            <stop offset="100%" stop-color="#E4E9FF"/>
        </linearGradient>
        <linearGradient id="g" x1="50%" x2="50%" y1="100%" y2="0%">
            <stop offset="0%" stop-color="#9E9AB4"/>
            <stop offset="100%" stop-color="#65617D"/>
        </linearGradient>
        <linearGradient id="h" x1="50%" x2="50%" y1="0%" y2="95.101%">
            <stop offset="0%" stop-color="#789CF7"/>
            <stop offset="100%" stop-color="#E4E9FF"/>
        </linearGradient>
        <linearGradient id="i" x1="50%" x2="50%" y1="0%" y2="95.101%">
            <stop offset="0%" stop-color="#789CF7"/>
            <stop offset="100%" stop-color="#E4E9FF"/>
        </linearGradient>
        <linearGradient id="j" x1="50%" x2="50%" y1="0%" y2="95.101%">
            <stop offset="0%" stop-color="#789CF7"/>
            <stop offset="100%" stop-color="#E4E9FF"/>
        </linearGradient>
        <linearGradient id="k" x1="50%" x2="50%" y1="0%" y2="98.989%">
            <stop offset="0%" stop-color="#6C63FF"/>
            <stop offset="100%" stop-color="#FAFAFF"/>
        </linearGradient>
        <linearGradient id="l" x1="50%" x2="50%" y1="0%" y2="98.989%">
            <stop offset="0%" stop-color="#6C63FF"/>
            <stop offset="100%" stop-color="#FAFAFF"/>
        </linearGradient>
        <linearGradient id="m" x1="50.001%" x2="50.001%" y1="100.019%" y2="-.003%">
            <stop offset="0%" stop-color="gray" stop-opacity=".25"/>
            <stop offset="54%" stop-color="gray" stop-opacity=".12"/>
            <stop offset="100%" stop-color="gray" stop-opacity=".1"/>
        </linearGradient>
        <linearGradient id="n" x1="50%" x2="50%" y1="0%" y2="98.989%">
            <stop offset="0%" stop-color="#6C63FF"/>
            <stop offset="100%" stop-color="#FAFAFF"/>
        </linearGradient>
        <linearGradient id="o" x1="50%" x2="50%" y1="0%" y2="98.989%">
            <stop offset="0%" stop-color="#6C63FF"/>
            <stop offset="100%" stop-color="#FAFAFF"/>
        </linearGradient>
        <linearGradient id="p" x1="50%" x2="50%" y1="0%" y2="98.989%">
            <stop offset="0%" stop-color="#6C63FF"/>
            <stop offset="100%" stop-color="#FAFAFF"/>
        </linearGradient>
        <linearGradient id="q" x1="49.98%" x2="49.98%" y1="99.983%" y2=".001%">
            <stop offset="0%" stop-color="gray" stop-opacity=".25"/>
            <stop offset="54%" stop-color="gray" stop-opacity=".12"/>
            <stop offset="100%" stop-color="gray" stop-opacity=".1"/>
        </linearGradient>
        <linearGradient id="r" x1="50%" x2="50%" y1="0%" y2="98.989%">
            <stop offset="0%" stop-color="#6C63FF"/>
            <stop offset="100%" stop-color="#FAFAFF"/>
        </linearGradient>
        <linearGradient id="s" x1="50%" x2="50%" y1="0%" y2="98.989%">
            <stop offset="0%" stop-color="#6C63FF"/>
            <stop offset="100%" stop-color="#FAFAFF"/>
        </linearGradient>
    </defs>
    <g fill="none" fill-rule="nonzero">
        <g>
            <path fill="#1A3CFA" d="M203.872 36.363c-13.968 12.82-32.085 11.991-47.962 5.32-15.877-6.672-30.461-18.547-45.93-26.989C97.01 7.618 83.401 2.97 69.626.904c-19.715-2.96-41.732.652-55.468 21.37C-1.138 45.356.037 86.988 16.576 108.163c8.417 10.777 19.437 16.067 29.047 24.493 9.61 8.426 18.51 22.39 17.692 38.634-.758 15.022-9.568 26.573-18.685 33.813-7.046 5.594-15.723 11.704-16.572 23.295-.821 11.21 6.475 19.999 13.443 24.995 22.73 16.3 50.738 16.143 73.39-.411 8.075-5.908 15.492-13.765 23.964-18.363 22.243-12.083 46.755.078 70.309 4.53 19.933 3.765 40.376 1.812 59.799-5.71 11.663-4.516 23.372-11.43 31.566-24.283 5.91-9.275 9.592-21.015 13.047-32.609a1561.276 1561.276 0 0 0 10.628-37.346c2.038-7.528 4.047-15.2 4.575-23.25.955-14.59-3.068-29.015-8.547-41.327-13.007-29.238-34.915-49.796-58.642-55.018-23.726-5.222-48.826 4.977-67.228 27.295" opacity=".1"/>
            <g fill="#FFF">
                <path d="M148.94 147.695c-34.27 0-62.15-27.838-62.15-62.058s27.87-62.058 62.15-62.058c34.278 0 62.139 27.841 62.139 62.058s-27.882 62.058-62.14 62.058zm0-123.513c-33.938 0-61.545 27.57-61.545 61.455s27.598 61.455 61.544 61.455c33.947 0 61.545-27.57 61.545-61.455s-27.62-61.455-61.545-61.455z"/>
                <path d="M148.94 133.768c-26.578 0-48.205-21.592-48.205-48.131s21.627-48.131 48.204-48.131 48.202 21.592 48.202 48.131-21.625 48.131-48.202 48.131zm0-95.66c-26.249 0-47.601 21.322-47.601 47.529 0 26.207 21.352 47.528 47.6 47.528s47.598-21.321 47.598-47.528c0-26.207-21.362-47.528-47.598-47.528z"/>
                <path d="M148.94 118.81c-18.349 0-33.222-14.852-33.222-33.173s14.873-33.173 33.221-33.173 33.222 14.852 33.222 33.173c-.022 18.312-14.883 33.152-33.222 33.173zm0-65.743c-18.015 0-32.618 14.582-32.618 32.57s14.603 32.57 32.617 32.57c18.014 0 32.618-14.582 32.618-32.57-.022-17.979-14.613-32.548-32.618-32.57z"/>
            </g>
            <g transform="translate(315.396 115.053)">
                <ellipse cx="4.31" cy="6.529" fill="#6C63FF" opacity=".1" rx="4.31" ry="1.423"/>
                <path fill="url(#a)" d="M4.518 0s.562.733-.26 1.843c-.821 1.11-1.51 2.047-1.226 2.738 0 0 1.241-2.06 2.25-2.09 1.009-.03.348-1.267-.764-2.491z"/>
                <path fill="#000" d="M4.518 0a.992.992 0 0 1 .115.23c.984 1.157 1.51 2.234.562 2.261-.882.027-1.94 1.601-2.193 2 0 .03.018.06.03.09s1.241-2.06 2.25-2.09c1.009-.03.348-1.267-.764-2.491z" opacity=".1"/>
                <path fill="url(#b)" d="M1.546 0s-.564.733.26 1.843c.825 1.11 1.51 2.047 1.226 2.738 0 0-1.241-2.06-2.253-2.09C-.233 2.461.435 1.224 1.546 0z"/>
                <path fill="#000" d="M1.546 0a.92.92 0 0 0-.117.23C.444 1.386-.081 2.463.867 2.49c.882.027 1.942 1.601 2.195 2 0 .03-.018.06-.03.09S1.791 2.52.78 2.49C-.233 2.461.435 1.224 1.546 0z" opacity=".1"/>
                <path fill="#A8A8A8" d="M.67 4.47s1.574-.049 2.048-.387c.474-.337 2.416-.739 2.54-.199.124.54 2.365 2.69.604 2.714-1.76.025-4.128-.274-4.603-.563C.785 5.745.67 4.469.67 4.469z"/>
                <path fill="#000" d="M5.883 6.402c-1.776 0-4.128-.277-4.6-.564C.922 5.618.78 4.831.732 4.47H.67s.1 1.27.573 1.556c.474.287 2.824.58 4.603.564.513 0 .689-.187.68-.455-.067.163-.26.265-.644.268z" opacity=".2"/>
            </g>
            <g transform="translate(131.203 257.48)">
                <path fill="url(#c)" d="M16.049.015S4.557-.679 5.913 7.361c0 0-.268 1.42 1.021 2.066 0 0 .021-.603 1.178-.392.412.07.83.09 1.247.06.565-.038 1.101-.26 1.529-.63 0 0 3.228-1.333 4.485-6.604 0 0 .93-1.15.906-1.445l-1.94.826s.662 1.397.14 2.558c0 0-.06-2.506-.435-2.446-.076 0-1.006.483-1.006.483s1.139 2.433.278 4.2c0 0 .326-2.997-.634-4.023l-1.366.794s1.332 2.515.43 4.565c0 0 .232-3.145-.716-4.37l-1.239.963s1.254 2.476.49 4.176c0 0-.1-3.66-.759-3.92 0 0-1.08.95-1.244 1.342 0 0 .855 1.81.323 2.747 0 0-.326-2.44-.604-2.448 0 0-1.078 1.616-1.19 2.714a5.869 5.869 0 0 1 .928-2.88 3.236 3.236 0 0 0-1.65.853S6.253 5.407 8 5.308c0 0 .906-1.225 1.13-1.3 0 0-1.74-.145-2.794.323 0 0 .927-1.08 3.114-.604l1.208-.995s-2.29-.301-3.262.033c0 0 1.118-.956 3.591-.259l1.33-.796s-1.952-.42-3.115-.269c0 0 1.227-.66 3.504.058l.951-.428S12.226.79 11.81.748c-.417-.042-.441-.16-.441-.16a4.948 4.948 0 0 1 2.685.302s2.03-.748 1.996-.875z"/>
                <ellipse cx="8.133" cy="10.13" fill="#6C63FF" opacity=".1" rx="8.133" ry="1.372"/>
            </g>
            <g transform="translate(234.802 254.423)">
                <path fill="url(#d)" d="M16.049.015S4.572-.675 5.913 7.365c0 0-.268 1.42 1.021 2.065 0 0 .021-.603 1.178-.395.413.07.833.09 1.25.06a2.581 2.581 0 0 0 1.526-.63s3.231-1.33 4.485-6.601c0 0 .93-1.153.906-1.448l-1.951.844s.66 1.397.141 2.558c0 0-.063-2.51-.434-2.45-.076 0-1.01.483-1.01.483s1.14 2.434.282 4.204c0 0 .326-2.997-.638-4.026l-1.365.797s1.332 2.512.43 4.562c0 0 .232-3.145-.717-4.37l-1.235.957s1.25 2.478.486 4.18c0 0-.1-3.665-.755-3.94 0 0-1.08.954-1.247 1.346 0 0 .858 1.81.326 2.744 0 0-.326-2.437-.604-2.449 0 0-1.078 1.617-1.19 2.715a5.86 5.86 0 0 1 .93-2.88 3.251 3.251 0 0 0-1.651.853s.169-1.14 1.917-1.243c0 0 .906-1.224 1.13-1.3 0 0-1.74-.144-2.797.323 0 0 .93-1.08 3.114-.588l1.208-.995s-2.292-.301-3.262.033c0 0 1.118-.953 3.591-.26l1.33-.792S10.352 1.3 9.19 1.453c0 0 1.226-.66 3.507.055l.951-.426s-1.432-.28-1.851-.325c-.42-.046-.441-.16-.441-.16a4.957 4.957 0 0 1 2.688.301s2.041-.756 2.005-.883z"/>
                <ellipse cx="8.133" cy="10.13" fill="#6C63FF" opacity=".1" rx="8.133" ry="1.372"/>
            </g>
            <g transform="translate(.22 166.767)">
                <path fill="url(#e)" d="M14.104 0s1.075 1.405-.498 3.528c-1.574 2.124-2.872 3.92-2.347 5.239 0 0 2.374-3.942 4.307-3.996 1.933-.054.664-2.4-1.462-4.771z"/>
                <path fill="#000" d="M14.104 0c.093.136.166.284.217.44 1.888 2.214 2.89 4.277 1.079 4.33-1.689.05-3.712 3.062-4.198 3.825 0 .057.036.114.057.172 0 0 2.374-3.942 4.307-3.996 1.933-.054.664-2.4-1.462-4.771z" opacity=".1"/>
                <path fill="#FFD037" d="M16.103 1.791c0 .495-.054.905-.123.905-.07 0-.124-.401-.124-.905 0-.503.07-.262.139-.262.07 0 .108-.232.108.262z"/>
                <path fill="#FFD037" d="M16.792 2.382c-.435.239-.815.38-.849.32-.033-.06.302-.301.728-.537.426-.235.266-.063.302 0 .036.064.254-.018-.181.217z"/>
                <path fill="url(#e)" d="M8.414 0s-1.075 1.405.498 3.528c1.574 2.124 2.873 3.92 2.347 5.239 0 0-2.374-3.942-4.307-3.996C5.02 4.717 6.288 2.37 8.414 0z"/>
                <path fill="#000" d="M8.414 0a1.772 1.772 0 0 0-.217.44c-1.888 2.214-2.89 4.277-1.079 4.33 1.689.05 3.712 3.062 4.198 3.825a1.912 1.912 0 0 1-.057.172S8.885 4.825 6.952 4.77C5.02 4.717 6.288 2.37 8.414 0z" opacity=".1"/>
                <path fill="#FFD037" d="M6.415 1.791c0 .495.054.905.124.905s.123-.401.123-.905c0-.503-.069-.262-.139-.262-.069 0-.108-.232-.108.262z"/>
                <path fill="#FFD037" d="M5.726 2.382c.435.239.816.38.849.32.033-.06-.302-.301-.728-.537-.426-.235-.266-.063-.302 0-.036.064-.257-.018.181.217z"/>
                <ellipse cx="11.259" cy="17.799" fill="url(#f)" opacity=".116" rx="11.259" ry="1.725"/>
                <path fill="url(#g)" d="M17.067 6.873l-.055.437-.075.621-.033.26-.076.618-.03.26-.075.62-.864 7.054c-.076.63-1.106 1.122-2.35 1.122H9.021c-1.244 0-2.271-.491-2.35-1.122l-.863-7.05-.076-.622-.03-.259-.075-.618-.034-.26-.075-.62-.055-.438c-.042-.356.517-.658 1.208-.658h9.155c.712-.003 1.271.299 1.24.655z"/>
                <path fill="#9D9CB5" d="M16.997 7.31l-.075.621H5.593l-.075-.62zM16.892 8.19l-.076.619H5.702l-.079-.618zM16.783 9.068l-.076.622h-10.9l-.075-.622z"/>
            </g>
            <ellipse cx="198.424" cy="265.146" fill="url(#h)" opacity=".116" rx="25.381" ry="4.159"/>
            <ellipse cx="151.241" cy="160.597" fill="url(#i)" opacity=".116" rx="68.551" ry="3.124"/>
            <ellipse cx="57.311" cy="196.572" fill="url(#h)" opacity=".116" rx="25.381" ry="4.159"/>
            <ellipse cx="280.487" cy="159.652" fill="url(#j)" opacity=".116" rx="23.421" ry="3.836"/>
        </g>
        <g transform="translate(2.354 48.1)">
            <g opacity=".1">
                <path fill="#1A3CFA" d="M101.409 6.423H4.962a4.945 4.945 0 0 0-4.933 4.93v61.666a4.945 4.945 0 0 0 4.933 4.93h75.07s1.917 10.174-4.385 11.27c0 0 14.113 1.012 11.646-11.27h14.116a4.945 4.945 0 0 0 4.932-4.93V11.352a4.945 4.945 0 0 0-4.932-4.929z"/>
                <g fill="#000" opacity=".2" transform="translate(14.657 23.013)">
                    <rect width="76.45" height="4.657" x=".302" y=".265" rx="2.086"/>
                    <rect width="76.45" height="4.657" x=".302" y="21.078" rx="2.086"/>
                    <rect width="64.112" height="4.657" x=".302" y="31.481" rx="2.086"/>
                    <rect width="33.149" height="4.657" x=".302" y="10.671" rx="2.086"/>
                </g>
            </g>
            <path fill="#FFF" d="M101.196 7.048H6.82a4.945 4.945 0 0 0-4.932 4.93V71.57A4.945 4.945 0 0 0 6.82 76.5h74.032s1.921 10.174-4.384 11.267c0 0 14.112 1.011 11.646-11.268h13.082a4.942 4.942 0 0 0 4.928-4.929V11.978a4.942 4.942 0 0 0-4.928-4.93z"/>
            <g opacity=".2" transform="translate(15.76 22.866)">
                <rect width="76.45" height="4.657" x=".022" fill="url(#k)" rx="2.086"/>
                <rect width="76.45" height="4.657" x=".022" y="20.813" fill="url(#k)" rx="2.086"/>
                <rect width="64.112" height="4.657" x=".022" y="31.22" fill="url(#l)" rx="2.086"/>
                <rect width="33.149" height="4.657" x=".022" y="10.407" fill="#6C63FF" rx="2.086"/>
            </g>
            <path fill="#FFD2C6" d="M66.166 6.103l-5.23 11.116s-.774 2.086-1.27 2.472c-.497.387-2.695 6.99-2.695 6.99l-5.606 8.659-.368.589-2.208-.607-1.543-5.765.096-1.673v-.21s3.471-3.627 4.24-3.903c0 0 .604.07 1.763-2.74 1.16-2.811 2.209-3.422 2.209-3.422l.604-2.038 6.5-10.34s5.447-7.81 6.93-4.344c1.484 3.465-3.422 5.216-3.422 5.216zM44.449 85.063a1.25 1.25 0 0 1-.177.533c-.603.88-4.015 18.868-4.015 18.868.272 1.214-.494 3.634-.994 4.734s-1.598 6.82-1.598 6.82-.272 12.323-.986 14.247c-.714 1.924.228 6.051.228 6.051-.07 1.898 1.071 3.903 1.748 4.926.052.066.092.132.133.188.22.316.368.496.368.496.185.37.447.694.77.953.047.04.099.077.154.118a8.767 8.767 0 0 0 3.084 1.302l.107.022c.442.1.736.136.736.136l.273 1.471-2.915.604-5.558.368s-6.552.496-5.065-2.42c.104-.2.194-.407.268-.619.056-.14.107-.287.151-.434.895-2.803.291-6.21.291-6.21l-1.28-9.913c-2.088-9.24 1.648-19.53 1.648-19.53s-.327-.824.39-2.913c.718-2.09 0-6.654 0-6.654s-.368-5.886-.88-8.803a17.775 17.775 0 0 1-.198-3.705c.023-.726.09-1.451.199-2.17l12.551-1.663s.707 2.03.567 3.197z"/>
            <path fill="#000" d="M44.265 145.947l-2.915.603-5.558.368s-6.552.497-5.065-2.42c.105-.2.194-.406.269-.619.055-.14.106-.286.15-.434 1.135.036 2.255.262 3.313.67 1.867.736 3.273-1.159 3.273-1.159l.905-1.729.133-.25c.22.316.368.497.368.497.216.425.534.791.924 1.066l-.155.324-.88 1.84s1.127.114 2.669.367a1.193 1.193 0 0 0 1.45-.794l.107.022c.441.1.736.136.736.136l.276 1.512z" opacity=".1"/>
            <path fill="#626696" d="M46.963 147.319c-.22.99-6.357 1.295-6.357 1.295s-3.416-.331-4.373.467c-.957.798-3.776.607-3.886.607-.11 0-1.594-.059-2.176-2.722-.563-2.597.758-3.05.825-3.072a9.991 9.991 0 0 1 3.47.673c1.867.736 3.273-1.155 3.273-1.155l1.038-1.982c.22.316.368.496.368.496.215.428.532.795.924 1.07l-1.034 2.175s1.126.114 2.668.368c1.233.198 1.502-.806 1.557-1.21a1.25 1.25 0 0 0 0-.166s.96.276 2.142.607a2.207 2.207 0 0 1 1.561 2.549z"/>
            <path fill="#FFD2C6" d="M58.524 98.173c-.147.88-.298 3.157-.298 3.157.516 1.905-.806 6.433-.806 6.433l-.659 2.575c.295 3.311-1.814 11.37-1.814 11.37s-1.414 7.483-2.15 10.713a8.9 8.9 0 0 0 .368 5.393c.037.088.059.132.059.132 0 .062.026.121.044.18.019.06.048.177.077.261.17.451.419.867.737 1.229.12.145.252.28.393.405l.023.022a7.966 7.966 0 0 0 2.34 1.438l.369.147c.381.144.771.267 1.166.368.044.012.088.022.133.03l-.298 1.728-3.887-.993-5.208-1.688-2.577-1.472s.03-.14.081-.408v-.044c.022-.114.044-.25.077-.405.438-2.244 1.436-8.608.935-13.28-.622-5.793 1.793-13.79 2.382-15.696a9.511 9.511 0 0 0 .441-3.373c-.957-1.398-1.177-6.967-1.177-6.967s-1.76-3.598-3.217-7.412a19.487 19.487 0 0 1-1.05-3.856c-.17-.929-.24-1.873-.213-2.817 0 0 11.823-10.782 13.118-.342l.126 1.022c1.133 9.542.625 11.3.485 12.15z"/>
            <path fill="#000" d="M58.524 142.037l-.298 1.728-3.887-.993-5.208-1.688-2.577-1.472s.03-.14.081-.408v-.044c.022-.114.045-.25.078-.405l.368-.037h.03a4.906 4.906 0 0 1 2.182.295c.847.32 1.958.684 2.186.53.394-.169.82-.245 1.248-.221l.541-1.185.077-.18c.168.451.418.868.737 1.229.128.152.267.294.416.426l-.023.42-.029.592c.581.372 1.21.663 1.87.864.171.043.351.043.523 0l.368.148c.381.144.771.266 1.166.367.05.015.1.026.151.034z" opacity=".1"/>
            <path fill="#626696" d="M56.596 145.726c-1.086-.313-3.703-.81-4.127-.423-.423.386-4.048 0-4.048 0a2.209 2.209 0 0 1-1.874-1.103c-.736-1.174-.143-4.97-.143-4.97l.268-.026.45-.044h.029a4.85 4.85 0 0 1 2.182.294c.847.317 1.959.68 2.187.53.393-.17.82-.246 1.248-.22l.618-1.366c.169.451.418.867.736 1.23.128.151.267.294.416.426l-.051 1.011c.581.37 1.21.66 1.87.861a.736.736 0 0 0 .897-.283.555.555 0 0 0 .067-.15c.033.062.39.183 1.535.51 1.244-.07 2.444.471 2.996 2.156s-4.193 1.876-5.256 1.567z"/>
            <path fill="#000" d="M44.449 85.063c-.243.07-.464.136-.67.202a9.292 9.292 0 0 1-1.623.342c-3.471.49-9.202.195-11.017.081.024-.726.09-1.451.199-2.17l12.552-1.663s.699 2.042.559 3.208z" opacity=".1"/>
            <path fill="#0320C1" d="M55.388 82.017s-4.608.714-8.355 1.534c-1.252.272-2.407.556-3.261.835a10.02 10.02 0 0 1-1.623.342c-4.175.585-11.588.044-11.588.044-2.035-6.599 2.474-14.909 2.474-14.909-.107-.662.938-2.692.938-2.692l.019-.067.64-2.354h17.12l.21 1.012.434 2.06 2.687 12.753.305 1.442z"/>
            <path fill="#000" d="M58.039 86.02l-.104.044-2.002.886c-2.168 1-8.657 1.188-10.925 1.207-.17-.93-.24-1.874-.213-2.818 0 0 11.823-10.782 13.118-.342l.126 1.022z" opacity=".1"/>
            <path fill="#0320C1" d="M58.355 85l-.42.184-2.002.89c-2.208 1.016-8.904 1.196-11.042 1.207h-.563c-.99-.033-1.98-.96-1.98-1.203 0-.132-.104-.783-.192-1.342-.074-.45-.14-.835-.14-.835s-4.417-1.906-6.659-3.447c-1.682-1.144-1.258-9.274-.93-13.36.113-1.41.213-2.337.213-2.337l17.329 1.012 2.43.14 1.39.309.369.077s.993 7.262 1.472 7.865c.478.603.17 2.641.11 3.8a7.055 7.055 0 0 1-.162 1.471s.714 2.038.545 3.178a6.334 6.334 0 0 0 .232 2.392z"/>
            <ellipse cx="39.808" cy="17.602" fill="#FFD2C6" rx="7.1" ry="7.096"/>
            <path fill="#FFD2C6" d="M36.351 20.563s.493 6.721-.88 8.262c-1.372 1.542-4.954 4.455-4.954 4.455l1.104 4.565 6.221.717 7.266-7.758-1.653-2.034s-1.266-4.293-.22-6.437c1.045-2.145-6.884-1.77-6.884-1.77z"/>
            <path fill="#000" d="M51.365 35.34l-.368.589-2.208-.607-1.543-5.765.096-1.673.453-.652s2.422.06 2.315 2.26c-.107 1.93.994 5.112 1.255 5.848zM56.154 67.17s-1.752.39-3.758.652c-2.006.26-4.321.393-5.271-.159-1.594-.941-10.229-.673-12.706-.577-.177 0-.317 0-.427.018l.64-2.354h17.12l.21 1.012 2.429.14 1.391.308c.232.57.372.96.372.96z" opacity=".1"/>
            <path fill="#1A3CFA" d="M47.35 27.67s2.421.055 2.311 2.255c-.11 2.2 1.321 5.996 1.321 5.996l-.552 1.266s-.769 3.079-.165 3.851c.603.773 2.808.769 1.542 7.096 0 0-.272 4.73.386 6.272.66 1.541.66 5.224 1.65 6.765.99 1.541 2.315 5.117 2.315 5.117s-7.16 1.593-9.03.493c-1.87-1.1-13.375-.541-13.375-.541s.055-1.928 0-2.145a1.838 1.838 0 0 1 .276-1.405c.368-.522.99-1.401.659-2.17-.332-.77.828-1.906.22-3.098-.607-1.191-1.343-1.43-1.196-2.082.147-.65-.235-1.534-.673-2.082-.438-.548-3.416-6.364-3.416-6.364l-.493-2.725s-3.832-2.807-3.762-4.128c.07-1.32 1.45-3.149 1.45-3.149l3.68-3.616s2.036 2.207 4.017 1.431c1.98-.776 6.253-4.454 6.253-4.454s1.524-.824 1.634-1.428c.11-.603 1.046-.055 1.046-.055s1.376-.754 1.653-.49c.276.266 1.472.49 1.472.49l.776-1.1z"/>
            <path fill="#FFD2C6" d="M26.542 39.129l-1.174.916s-1.193 2.148-1.473 5.996c-.28 3.848-1.472 9.292-1.472 9.292l-2.311 4.131s-3.81 7.971-4.303 10.087c-.493 2.115-2.753 5.694-2.753 5.694s-7.653 6.872-2.312 8.093c5.34 1.221 5.503-5.47 5.503-5.47s1.248-1.376 1.45-2.31c.202-.935 6.971-12.901 6.971-12.901s2.37-3.219 1.874-4.922c0 0 3.08-7.243 3.08-9.06a32.161 32.161 0 0 0-.492-4.506l.493-3.797-3.081-1.243z"/>
            <path fill="#000" d="M42.395 54.296S37 57.117 35.954 57.264c-1.046.147 4.568-.588 4.568-.588l1.873-2.38zM46.797 56.495s-7.155 2.42-10.306 1.98c.015 0 7.83 1.486 10.306-1.98z" opacity=".1"/>
            <path fill="#000" d="M47.24 57.286S40.797 61.333 37 60.674c0 0 8.862 1.762 10.24.828l-3.965-1.104s4.406-2.325 3.964-3.112zM39.819 5.117C37.956 4.749 35.89 4.97 34.4 6.14c-1.104.868-1.84 2.207-3.08 2.84-.657.275-1.33.513-2.014.71a5.804 5.804 0 0 0-3.544 6.253c.195 1.104.706 2.097.957 3.17.449 1.921.055 3.933-.435 5.842a61.447 61.447 0 0 1-6.128 15.167 1.588 1.588 0 0 0-.306 1.02c.065.244.192.468.368.65 2.544 2.943 6.685 3.947 10.572 4.08 1.431.048 2.944 0 4.188-.696a6.33 6.33 0 0 0 2.043-1.872 9.928 9.928 0 0 0 1.907-6.404c-.107-1.84-.736-3.712-.262-5.496.05-.25.165-.481.332-.673.42-.427 1.104-.317 1.708-.386 1.616-.188 2.66-1.891 2.852-3.502.192-1.612-.213-3.241-.22-4.864a10.182 10.182 0 0 1 1.917-5.988c.538-.736 1.226-1.472 1.406-2.395.228-1.159-.445-2.012-1.027-2.943-.902-1.427-1.343-3.093-2.716-4.182a7.334 7.334 0 0 0-3.1-1.354z" opacity=".1"/>
            <path fill="#985C7E" d="M39.377 4.676c-1.859-.368-3.928-.148-5.418 1.026-1.104.864-1.84 2.207-3.081 2.84-.655.275-1.326.51-2.01.706a5.808 5.808 0 0 0-3.548 6.254c.195 1.103.707 2.096.96 3.174.45 1.92.052 3.929-.434 5.838a61.484 61.484 0 0 1-6.117 15.167 1.555 1.555 0 0 0-.302 1.015c.062.246.19.47.368.651 2.547 2.943 6.684 3.947 10.571 4.08 1.432.051 2.945 0 4.189-.692a6.344 6.344 0 0 0 2.043-1.876 9.928 9.928 0 0 0 1.895-6.39c-.106-1.839-.736-3.711-.257-5.5.05-.248.162-.48.327-.672.42-.427 1.105-.317 1.712-.368 1.616-.188 2.658-1.89 2.849-3.506.191-1.615-.21-3.237-.22-4.863a10.182 10.182 0 0 1 1.913-6.007c.537-.736 1.222-1.471 1.402-2.398.229-1.16-.441-2.009-1.023-2.943-.902-1.427-1.343-3.094-2.72-4.179a7.298 7.298 0 0 0-3.1-1.357z"/>
            <path fill="#000" d="M37 73.457s1.413 6.6 3.76 8.398L37 73.457z" opacity=".1"/>
            <g fill="#000" opacity=".1">
                <path d="M25.74 16.973a14.353 14.353 0 0 0-.247-.769c.074.258.158.515.247.769zM45.822 11.212c.017.208.007.417-.03.622-.184.93-.868 1.655-1.406 2.398a10.152 10.152 0 0 0-1.917 5.985c0 1.626.408 3.249.217 4.864-.191 1.614-1.233 3.31-2.849 3.505-.596.07-1.292-.044-1.708.368-.167.192-.28.424-.331.673-.468 1.788.154 3.657.257 5.5a9.928 9.928 0 0 1-1.891 6.39 6.381 6.381 0 0 1-2.043 1.875c-1.263.68-2.757.736-4.193.692-3.82-.129-7.884-1.104-10.438-3.94-.069.168-.09.35-.063.53.062.246.19.47.368.651 2.547 2.943 6.684 3.947 10.571 4.08 1.432.051 2.945 0 4.189-.692a6.381 6.381 0 0 0 2.043-1.876 9.928 9.928 0 0 0 1.895-6.39c-.106-1.839-.736-3.711-.257-5.5.05-.248.162-.48.327-.672.42-.427 1.105-.317 1.712-.368 1.616-.188 2.658-1.891 2.849-3.506.191-1.615-.21-3.237-.22-4.863a10.182 10.182 0 0 1 1.913-5.985c.537-.736 1.222-1.471 1.402-2.398a2.724 2.724 0 0 0-.397-1.943z"/>
            </g>
        </g>
        <g transform="translate(175.673)">
            <path fill="url(#m)" d="M135.464 52.349c1.176-3.93 0-7.86 0-7.86V40.79s1.343-7.25-4.637-11.902l-3.969-3.486s-2.226-1.9-2.867-2.022a2.921 2.921 0 0 0-.371-.056l-.119-.066c-.34-.582-.631-1.192-.868-1.823a1.699 1.699 0 0 0 1.413-.48c.143-.165.256-.352.334-.555.23-.514.267-1.136.464-1.683.171-.444.423-.854.742-1.209-.041.067-.082.13-.119.196.56-.695 1.295-1.294 1.818-2.03.105-.144.202-.295.289-.45l-.078.092c.742-1.169.953-2.588 1.165-3.949.102-.465.11-.945.022-1.412a4.699 4.699 0 0 0-.397-.895c-.86-1.775-.842-4-2.225-5.417-1.035-1.06-2.597-1.386-4.08-1.567-1.485-.181-3.032-.285-4.3-1.058a4.66 4.66 0 0 0-1.165-.64.962.962 0 0 0-1.146.426.738.738 0 0 1-.152.307.495.495 0 0 1-.442.026L112.81.613l.022.1h-.048l.07.31c.064 0 .13 0 .186.107l-.315.485a4.884 4.884 0 0 1-1.777-.37.833.833 0 0 0 0 .096h-.026c-.037.555.594.913.786 1.435.078.227.078.474 0 .702a1.597 1.597 0 0 1-.37.562c-.702.688-1.592.551-2.397.987a.51.51 0 0 0-.293.322.247.247 0 0 0-.026.177.414.414 0 0 0 .163.204c.235.188.491.347.764.473l-.23.222a8.758 8.758 0 0 0-2.332 7.97 8.785 8.785 0 0 0 5.374 6.342c.03.152.052.307.074.473v.045l.023.21-2.653 1.11a2.111 2.111 0 0 1-1.899-1.217c-.616-1.272-2.793 0-2.793 0s-6.651-.499-9.11.721c0 0-3.97-1.66-4.526-1.77-.557-.112-1.399-.555-1.792-.445-.393.111-.894-.739-1.172-.665-.278.074-.371-.551-1.284-.773-.912-.222-1.231.056-2.225-.943-.995-.998-9.167-4.924-9.167-4.924L72.15 9.568l-3.913-3.099-.07.13c-.023-.093-.05-.189-.075-.289a36.885 36.885 0 0 0-1.45-4.547c-.253-.6-.371-1.357-.702-.958-.207.24-.563-.285-1.112-.64a.926.926 0 0 0-1.38.4c-3.046 4.758-4.137 5.102-2.37 6.843 1.568 1.553 2.614 2.925 3.898 3.328l.152.048a.216.216 0 0 1-.085 0l7.419 8.855s5.364 4.651 9.055 6.145c3.69 1.493 3.409 1.937 3.409 1.937s11.176 5.646 12.909 5.546c1.732-.1 1.398 11.569.671 13.45-.727 1.883-1.899 15.5-1.899 15.5s-1.113 2.876.056 4.87c0 0 .26 3.815.026 4.728-1.02 1.564-2.471 4.218-2.708 6.95 0 .145-.03.282-.045.422a.96.96 0 0 1-.263.215s.096-.022.248-.074a14.01 14.01 0 0 1-.742 3.327 13.519 13.519 0 0 0-.912 4.807v8.796l-.738 5.453s-.894 4.13 0 5.091c.379.48.555 1.09.49 1.697a3.135 3.135 0 0 0 .57 1.978c.315.344.452.814.372 1.272-.297.958.437 11.14.437 11.14s-.215 2.806-.512 2.958c-.296.152.497 3.224.497 3.224s-3.02 2.51-2.251 3.841l.771 1.18-.204.2-.126.125a1.18 1.18 0 0 0-.768-.144 28.759 28.759 0 0 1-3.038 2.695c-1.361.98-5.067 2.4-5.067 2.4l-2.923.237h-.056s-1.398-.13-.616 2.03c.783 2.159 7.79 1.478 7.79 1.478l4.08-.643s7.301.033 9.39-.425c.875-.196 1.083-.658 1.027-1.132l-.022-.022a2.902 2.902 0 0 0-.65-1.286l.134-1.48c3.098-1.778-.875-5.28-.875-5.28s1.358-2.957 2.059-3.907c.7-.95.697-15.055.697-15.055s.371-5.095-.597-6.286a2.124 2.124 0 0 1 1.042-1.919c.69-.47 2.775-6.936 4.41-12.304l1.032 6.326s-.222 3.024.449 3.911c.252.337.352.763.274 1.176a5.215 5.215 0 0 0 .153 2.562c.074.354.263.673.537.91.598.296.635 1.35.857 1.571.223.222 1.603-.314 1.677.496.042.713.042 1.428 0 2.14l.449 13.137s-.742 1.11-.894 3.986c-.063 1.242-.297 1.948-.538 2.351a1.198 1.198 0 0 0 .111 1.412l.13.148-.553.425a1.2 1.2 0 0 0-.34 1.48c-.365.316-.5.82-.346 1.275.027.071.06.14.097.207a2.091 2.091 0 0 0-1.113.547 9.11 9.11 0 0 1-1.966 1.975 37.033 37.033 0 0 0-3.139 2.676 4.5 4.5 0 0 1-1.832 1.48 2.975 2.975 0 0 1-.553.162c-1.484.3-1.005 1.83.186 2.07 1.19.24 5.141 1.457 8.216.74 0 0 .913.37 2.252-.31 1.34-.681 4.388-1.48 4.388-1.48s1.677 0 1.9-.665c.06-.21.092-.428.096-.647l.048-.044-.044-.041a8.683 8.683 0 0 0-.249-2.14 17.625 17.625 0 0 0-.523-1.572.566.566 0 0 0 .052-.078c.638-1.076-.423-3.697-.423-3.697a7.072 7.072 0 0 1 1.265-1.479c.597-.44 2.163-11.953 2.163-11.953s-.074-2.958.742-4.282c.816-1.323-1.113-9.372-1.113-9.372s-.82-1.849-.52-2.51c.301-.663-.3-3.1-.3-3.1v-2.905c0-.347-.058-.692-.17-1.02-.23-.685-.572-1.997-.2-2.959.522-1.327 1.713-9.52 1.713-9.52s-.931-3.612.43-6.489c.11-.23.234-.454.371-.669 1.01-1.582.709-4.392.212-6.655a34.24 34.24 0 0 0-.242-1.01c-.037-.136-.074-.266-.107-.395l.16-.067s0-.218.048-.584a4.08 4.08 0 0 0 2.689-1.848s3.41-3.82 6.429-5.424c3.02-1.605 3.242-3.93 3.242-3.93-.45-.777.797-3.93.797-3.93l-.126-3.413zm-9.819 5.09l-3.227 3.731a.077.077 0 0 1 0-.022c-.839-1.16.782-3.764.782-3.764l2.668-5.956c-.023.77-.115 1.442-.35 1.76-.741.998 1.34 2.658 1.34 2.658-1.116-.01-1.228 1.594-1.228 1.594h.015z"/>
            <path fill="#CC818C" d="M68.804 8.54l-1.758 3.405a6.827 6.827 0 0 1-1.64-.34 6.215 6.215 0 0 1-3.85-3.328C59.983 4.81 62.587 2.57 63.8 1.91c1.213-.658 2.337-1.416 3.246.74a37.412 37.412 0 0 1 1.432 4.518c.2.82.326 1.372.326 1.372zM124.788 26.287l-2.812 4.181s-13.302 6.323-10.757-1.109c1.113-3.272 1.25-5.668 1.05-7.324v-.045c-.26-2.07-1.043-2.957-1.043-2.957s12.965-6.611 11.036-2.09a6.267 6.267 0 0 0-.46 2.977c.16 1.461.637 2.87 1.398 4.13a13.68 13.68 0 0 0 1.588 2.237z"/>
            <path fill="#444053" d="M120.76 109.028s1.914 7.994 1.112 9.313c-.8 1.32-.741 4.252-.741 4.252s-1.547 11.443-2.137 11.883a7.03 7.03 0 0 0-1.25 1.48s1.05 2.587.419 3.66a.87.87 0 0 1-.42.37c-.986.413-4.629-1.424-6.702-2.552a1.14 1.14 0 0 1-.55-.654 1.162 1.162 0 0 1 .338-1.265 1.203 1.203 0 0 1 .338-1.479l.545-.421-.126-.148a1.198 1.198 0 0 1-.111-1.405c.237-.4.467-1.11.53-2.333.149-2.862.883-3.96.883-3.96l-.441-13.055c.04-.708.04-1.418 0-2.126-.075-.806-1.436-.273-1.655-.495-.219-.222-.26-1.265-.846-1.56a1.64 1.64 0 0 1-.534-.903 5.24 5.24 0 0 1-.152-2.547 1.497 1.497 0 0 0-.27-1.168c-.665-.88-.442-3.886-.442-3.886l-1.017-6.286c-1.617 5.336-3.676 11.762-4.354 12.227a2.113 2.113 0 0 0-1.032 1.908c.957 1.172.59 6.234.59 6.234s0 14.005-.69 14.959c-.69.954-2.033 3.886-2.033 3.886s3.944 3.497.842 5.261l-.033.019c-3.164 1.76-9.712-3.15-9.712-3.15l.683-.68.2-.2-.742-1.176c-.76-1.32 2.226-3.812 2.226-3.812s-.794-3.08-.5-3.228c.292-.148.5-2.936.5-2.936s-.723-10.119-.43-11.07a1.475 1.475 0 0 0-.349-1.264 3.15 3.15 0 0 1-.564-1.963 2.331 2.331 0 0 0-.482-1.686c-.883-.954 0-5.061 0-5.061l.742-5.428v-8.644c0-1.658.301-3.301.89-4.851a14.6 14.6 0 0 0 .801-3.904c.242-2.78 1.74-5.483 2.75-7.025.533-.814.93-1.302.93-1.302l23.545-.92a31.895 31.895 0 0 0 .979 3.501c.493 2.255.79 5.047-.208 6.622-.14.211-.263.432-.37.662-1.347 2.858-.427 6.448-.427 6.448s-1.176 8.134-1.692 9.461c-.37.935-.03 2.24.2 2.92.11.328.166.67.167 1.014v2.888s.59 2.418.297 3.08c-.293.661.505 2.495.505 2.495z"/>
            <path fill="#000" d="M121.843 80.267a6.069 6.069 0 0 0-.371.662l-1.324-.074c.126-.68-.776-7.058-.776-7.058l2.671-.152c.497 2.27.798 5.065-.2 6.622z" opacity=".1"/>
            <path fill="#444053" d="M122.062 80.064c-.14.21-.264.432-.371.661l-1.328-.074c.13-.68-.772-7.061-.772-7.061l2.667-.148c.505 2.255.802 5.046-.196 6.622z"/>
            <path fill="#000" d="M122.062 80.064c-.14.21-.264.432-.371.661l-1.328-.074c.13-.68-.772-7.061-.772-7.061l2.667-.148c.505 2.255.802 5.046-.196 6.622z" opacity=".05"/>
            <path fill="#000" d="M118.163 139.605a.87.87 0 0 1-.42.37c-.986.413-4.629-1.424-6.702-2.552a1.14 1.14 0 0 1-.55-.654c1.18-.215 1.956 1.109 1.956 1.109a1.745 1.745 0 0 1 2.426.588c1.012 1.479 3.182.858 3.182.858s.045.1.108.28z" opacity=".1"/>
            <path fill="#FF748F" d="M118.775 144.1c-.223.659-1.877.659-1.877.659s-2.968.846-4.288 1.504c-1.32.658-2.226.31-2.226.31-3.038.7-6.937-.51-8.113-.739-1.176-.229-1.64-1.76-.185-2.052.187-.037.37-.093.545-.166a4.426 4.426 0 0 0 1.81-1.479 37.498 37.498 0 0 1 3.098-2.662 8.947 8.947 0 0 0 1.944-1.96c1.728-1.523 2.967.57 2.967.57a1.745 1.745 0 0 1 2.426.588c1.013 1.479 3.183.858 3.183.858s.371.99.571 1.704c.045.181.093.41.134.662.145.727.149 1.475.011 2.203z"/>
            <ellipse cx="113.715" cy="139.261" fill="#575988" rx="1" ry="1"/>
            <ellipse cx="111.987" cy="140.873" fill="#575988" rx="1" ry="1"/>
            <ellipse cx="110.228" cy="142.322" fill="#575988" rx="1" ry="1"/>
            <ellipse cx="111.137" cy="141.675" fill="#575988" rx="1" ry="1"/>
            <ellipse cx="112.888" cy="140.015" fill="#575988" rx="1" ry="1"/>
            <path fill="#DCE6F2" d="M118.775 144.1c-.223.659-1.877.659-1.877.659s-2.968.846-4.288 1.504c-1.32.658-2.226.31-2.226.31-3.038.7-6.937-.51-8.113-.739-1.176-.229-1.64-1.76-.185-2.052.187-.037.37-.093.545-.166 1.284.436 2.625.685 3.98.74 2.998.125 5.372 0 5.372 0l3.034-.973a5.089 5.089 0 0 1 1.877-.68 4.83 4.83 0 0 0 1.855-.806c.15.726.16 1.474.026 2.203z"/>
            <path fill="#575988" d="M111.222 145.997c-.169 0-.338-.017-.504-.052l.044-.214c.618.096 1.25.008 1.818-.252.27-.107.542-.232.805-.37.263-.136.63-.295.957-.417l.3-.104c.168-.055.334-.11.494-.18.093-.038.182-.082.27-.123.217-.113.446-.2.683-.259.123-.023.247-.039.371-.048.112-.007.224-.02.334-.04.221-.054.436-.133.638-.237.218-.11.449-.195.686-.251l.164-.03a.784.784 0 0 0 .474-.174l.16.152a.992.992 0 0 1-.6.24l-.153.026a2.907 2.907 0 0 0-.638.237c-.218.11-.448.195-.686.251a2.452 2.452 0 0 1-.371.045c-.116.008-.231.023-.345.044a2.81 2.81 0 0 0-.63.244l-.28.126c-.17.07-.34.129-.511.184l-.293.104c-.32.118-.634.266-.942.407-.308.14-.538.255-.816.37a3.936 3.936 0 0 1-1.429.321z" opacity=".5"/>
            <path fill="#000" d="M111.931 109.56s1.528-2.218 4.14-2.181c2.611.037 3.732-.292 3.732-.292s-1.673.987-2.83 1.11c-1.158.121-5.042 1.363-5.042 1.363zM112.814 110.074s1.38-.954 2.17-.99c.79-.038 1.484-.111 1.484-.111-.37.26-.78.458-1.213.587-.675.185-2.441.514-2.441.514zM113.107 110.732s2.08.167 2.1.718M93.754 79.816c.108.018 1.963-1.926 2.093-2.696.103-.485.393-.91.808-1.183 0 0 1.198.477.13 1.938-1.068 1.46-3.03 1.94-3.03 1.94zM122.25 16.921c-.422.999-.797 1.073-.715 2.041a7.37 7.37 0 0 1-1.684 1.32c-1.317.78-2.749 2.304-4.389 2.304a8.725 8.725 0 0 1-3.205-.603c-.26-2.07-1.042-2.958-1.042-2.958s12.957-6.625 11.036-2.104z" opacity=".1"/>
            <path fill="#CC818C" d="M124.235 13.402c0 4.829-3.927 8.744-8.773 8.744-4.845 0-8.773-3.915-8.773-8.744 0-4.83 3.928-8.744 8.773-8.744a8.784 8.784 0 0 1 6.205 2.56 8.726 8.726 0 0 1 2.568 6.184z"/>
            <path fill="#000" d="M124.788 26.287l-2.812 4.181s-13.302 6.323-10.757-1.109c1.113-3.272 1.25-5.668 1.05-7.324h.022c.157.549.245 1.115.263 1.686.041 1.138.07 2.588 2.912 3.061 4.737.795 7.282-2.16 7.727-2.74.455.8.99 1.552 1.595 2.245zM122.032 72.44c-5.68 2.458-25.332.37-25.332.37.061-.208.095-.423.1-.64.534-.814.931-1.302.931-1.302l23.544-.92s.382 1.039.757 2.492z" opacity=".1"/>
            <path fill="#1A3CFA" d="M112.302 22.238l-2.619 1.11a2.093 2.093 0 0 1-1.877-1.213c-.605-1.265-2.756 0-2.756 0s-6.57-.496-8.996.717c0 0-3.917-1.653-4.451-1.76-.534-.107-1.38-.551-1.766-.44-.386.11-.883-.717-1.157-.662-.275.056-.39-.55-1.273-.769-.883-.218-1.213.056-2.207-.935-.994-.991-9.047-4.896-9.047-4.896l-3.643-2.957-3.862-3.08s-2.43 4.562-3.145 4.289l7.337 8.8s5.297 4.62 8.94 6.103c3.643 1.483 3.365 1.927 3.365 1.927s11.04 5.608 12.75 5.501c1.71-.107 1.38 11.495.66 13.366-.72 1.87-1.874 15.4-1.874 15.4s-1.113 2.857.052 4.839c0 0 .278 4.067 0 4.784 0 0 19.776 2.108 25.384-.37 0 0 .828-9.128 0-10.285-.827-1.158.776-3.738.776-3.738l3.505-7.883 8.599-8.64s1.324-7.207-4.578-11.832l-3.92-3.464s-2.193-1.89-2.831-2.008c-.638-.118-.404 0-.404 0s-2.56 3.697-7.79 2.832c-2.842-.477-2.872-1.919-2.912-3.061a6.915 6.915 0 0 0-.26-1.675z"/>
            <path fill="#000" d="M123.078 51.846s-12.141.495-14.567 4.292c0 0 3.145-1.478 5.957-1.046 2.812.433 8.61-3.246 8.61-3.246zM109.668 65.108s5.739.37 6.956-.824c1.216-1.195 1.216-1.923 1.216-1.923l-8.172 2.747zM124.235 40.188s-4.855 5.72 1.05 8.194l-1.05-8.194zM95.487 29.134s1.765 3.59 2.648 3.83l-2.648-3.83zM89.53 27.592s4.414 3.96 5.24 4.344c0 0-4.58-4.344-5.24-4.344zM107.13 23.798s-4.25 6.323-1.483 10.175c-.022 0-1.55-4.566 1.484-10.175z" opacity=".1"/>
            <path fill="#CC818C" d="M117.84 71.704l-1.298 1.216-.182.17-1.502 1.417c-.111.08-.215.162-.323.236-6.12 4.374-7.348-2.27-7.348-2.27s-2.705 1.76-3.09.33c-.386-1.432 6.306-3.465 7.281-3.354.09.009.179.009.267 0 .483-.08.947-.245 1.373-.485a10.997 10.997 0 0 0 1.287-.78l3.535 3.52z"/>
            <path fill="#000" d="M124.458 13.402a8.738 8.738 0 0 1-4.288 7.516 5.096 5.096 0 0 1-.32-.636c-.315-.74-.507-1.512-.823-2.244a7.002 7.002 0 0 0-1.484-2.14.938.938 0 0 0-.37-.27 1.067 1.067 0 0 0-.805.221 3.649 3.649 0 0 1-1.225.536c-.446.1-.912-.04-1.227-.37-.342-.406-.293-1.005-.193-1.526.211-1.14.57-2.256.57-3.413s-.437-2.407-1.446-2.98c-.89-.503-1.995-.37-2.986-.647a3.22 3.22 0 0 1-.449-.155 8.798 8.798 0 0 1 9.589-1.992 8.748 8.748 0 0 1 5.468 8.1h-.011z" opacity=".1"/>
            <path fill="#585268" d="M108.808 5.904c-.16.085-.334.236-.286.414.03.083.086.154.16.203.408.33.88.571 1.387.71.99.266 2.1.14 2.99.647 1.005.573 1.45 1.819 1.446 2.976-.003 1.157-.37 2.278-.575 3.413-.096.525-.148 1.109.197 1.53.317.329.782.469 1.228.37.436-.1.85-.281 1.22-.532a1.06 1.06 0 0 1 .805-.222.98.98 0 0 1 .393.266 6.943 6.943 0 0 1 1.484 2.145c.32.739.512 1.508.824 2.244.277.756.799 1.399 1.484 1.826a1.86 1.86 0 0 0 2.225-.233c.512-.562.497-1.412.742-2.133.438-1.246 1.662-2.03 2.426-3.106.86-1.209 1.113-2.736 1.332-4.2.102-.462.11-.94.022-1.405a5.079 5.079 0 0 0-.39-.887c-.852-1.76-.834-3.975-2.195-5.383-1.024-1.054-2.575-1.376-4.036-1.553-1.462-.178-2.994-.289-4.248-1.054a4.678 4.678 0 0 0-1.15-.636.947.947 0 0 0-1.131.422.738.738 0 0 1-.152.306.484.484 0 0 1-.43.026l-1.944-.521.222.976a4.866 4.866 0 0 1-2.062-.37c-.037.551.586.91.779 1.424.143.481 0 1.002-.371 1.342-.72.699-1.603.562-2.396.995z"/>
            <path fill="#000" d="M100.932 137.316l-.078.88-.033.018c-3.164 1.76-9.712-3.15-9.712-3.15l.683-.68c.225.25.333.583.297.917l1.339.074 1.599 1.723s4.329.499 5.5.218h.405z" opacity=".1"/>
            <path fill="#FF748F" d="M100.38 142.104c-2.06.455-9.274.421-9.274.421l-4.029.64s-6.933.662-7.704-1.479c-.772-2.14.604-2.015.604-2.015h.052l2.886-.233s3.661-1.412 5.004-2.385a28.836 28.836 0 0 0 2.998-2.676s1.205-.233 1.183 1.157l1.339.074 1.599 1.719s4.329.503 5.501.222h.404l-.185 2.126.052.066c.256.33 1.41 1.952-.43 2.363z"/>
            <ellipse cx="92.909" cy="136.761" fill="#575988" rx="1" ry="1"/>
            <ellipse cx="87.723" cy="139.006" fill="#575988" rx="1" ry="1"/>
            <ellipse cx="85.052" cy="139.815" fill="#575988" rx="1" ry="1"/>
            <ellipse cx="89.084" cy="138.577" fill="#575988" rx="1" ry="1"/>
            <ellipse cx="86.384" cy="139.412" fill="#575988" rx="1" ry="1"/>
            <ellipse cx="90.46" cy="137.941" fill="#575988" rx="1" ry="1"/>
            <ellipse cx="91.822" cy="137.353" fill="#575988" rx="1" ry="1"/>
            <path fill="#DCE6F2" d="M100.38 142.104c-2.06.455-9.274.421-9.274.421l-4.029.64s-6.933.662-7.704-1.479c-.772-2.14.604-2.015.604-2.015h.052c.442.57 1.328 1.22 3.072 1.25l4.985.203 5.168-.37s4.822-.148 5.627-.31a11.717 11.717 0 0 0 1.929-.706c.256.332 1.41 1.955-.43 2.366z"/>
            <path fill="#575988" d="M87.448 142.68a3.263 3.263 0 0 1-.816-.1l.074-.199c.682.148 1.39.116 2.055-.092.245-.063.486-.133.742-.207a8.44 8.44 0 0 1 3.58-.403h.16c2.211.117 4.429.018 6.62-.296a2.468 2.468 0 0 0 1.418-.566l.16.156a2.69 2.69 0 0 1-1.54.628c-2.21.314-4.447.414-6.677.296h-.156a10.867 10.867 0 0 0-2.192.063c-.445.083-.885.193-1.317.329-.245.074-.49.148-.742.21a5.533 5.533 0 0 1-1.369.182z" opacity=".5"/>
            <path fill="#000" d="M117.84 71.704l-1.298 1.216-3.227-4.115c.34-.19.671-.396.99-.62l3.535 3.519z" opacity=".1"/>
            <path fill="#1A3CFA" d="M132.46 37.933l2.537 3.52v3.697s1.16 3.908 0 7.812l.13 3.41s-1.232 3.135-.79 3.904c0 0-.223 2.31-3.202 3.908-2.979 1.597-6.347 5.36-6.347 5.36s-1.268 2.422-4.689 1.872l-3.257 1.375-3.75-4.784 5.075-2.751s1.765-2.366 2.815-2.255l4.303-4.995s.112-1.594 1.213-1.594c0 0-2.04-1.649-1.324-2.64.716-.99.111-5.39.111-5.39l7.174-10.449z"/>
            <path fill="#000" d="M127.715 53.99s5.794-.107 6.51 1.376c.716 1.482-4.744-2.2-6.51-1.376zM116.382 72.802a1.949 1.949 0 0 1-1.847 1.941h-.104a1.944 1.944 0 0 1-1.947-1.94c.001-.216.037-.43.107-.633-.92-.74-.968-2.063-.946-2.725.483-.08.947-.244 1.373-.484.24.688.563 1.344.96 1.955a1.95 1.95 0 0 1 1.832.512c.367.364.572.859.572 1.374z" opacity=".1"/>
            <path fill="#575988" d="M113.192 68.532s-1.306.292-1.306.528c0 .237-.293 2.385 1.14 3.265 1.431.88 1.29-1.227 1.29-1.227s-1.235-1.89-1.124-2.566z"/>
            <ellipse cx="114.654" cy="72.802" fill="#E4AAB4" rx="1.951" ry="1.945"/>
            <ellipse cx="114.654" cy="72.802" fill="#DCE6F2" rx="1.673" ry="1.667"/>
            <path fill="#000" d="M107.057 73.553s4.121 3.409 9.418 1.25v1.648s-3.531 2.418-6.733.954c-3.2-1.464-2.685-3.852-2.685-3.852z" opacity=".1"/>
            <path fill="#000" d="M107.057 73.113s4.132 3.409 9.418 1.238v1.65s-3.531 2.417-6.733.953c-3.2-1.464-2.685-3.841-2.685-3.841z" opacity=".1"/>
            <path fill="#444053" d="M107.057 73.113s4.132 3.409 9.418 1.238v1.65s-3.531 2.417-6.733.953c-3.2-1.464-2.685-3.841-2.685-3.841z"/>
            <path fill="#000" d="M107.168 73.113s4.121 3.409 9.418 1.25v1.648s-3.542 2.407-6.732.954c-3.19-1.453-2.686-3.852-2.686-3.852z" opacity=".05"/>
            <path fill="#000" d="M94.125 134.365s5.52 1.01 6.329 1.228c.808.218-.223.606-.223.606s-5.056-.898-6.106-1.834zM93.98 131.452c.09 0 3.751-1.028 4.541-2.788M99.319 110.403s1.483 1.945 2.44 1.89c.958-.056-1.569-1.964-2.44-1.89zM100.142 113.631s.623 1.376 1.543.936" opacity=".1"/>
            <path fill="#000" d="M103.618 83.435l3.913 10.286s.553-6.618-.615-8.6a3.45 3.45 0 0 0-3.298-1.686z" opacity=".05"/>
            <path fill="#000" d="M68.804 8.54l-1.758 3.405a6.827 6.827 0 0 1-1.64-.34l-.152-.181c.72.273 3.146-4.293 3.146-4.293l.078.063c.2.795.326 1.346.326 1.346z" opacity=".1"/>
            <g fill="#000" opacity=".1">
                <path d="M113.252 1.933l-.034-.148-.63-.167.07.307c.198.016.396.018.594.008zM111.523 4.406l.067-.059c.37-.34.513-.858.37-1.338a1.814 1.814 0 0 0-.31-.5 4.834 4.834 0 0 1-.91-.266c-.037.551.586.906.78 1.424.085.238.087.5.003.74zM121.947 21.314a3.637 3.637 0 0 1-1.484-1.827c-.315-.74-.505-1.516-.824-2.244a6.895 6.895 0 0 0-1.483-2.14.939.939 0 0 0-.39-.27c-.287-.04-.579.04-.805.221a3.716 3.716 0 0 1-1.224.536 1.327 1.327 0 0 1-1.228-.37c-.341-.406-.293-1.005-.193-1.526.215-1.14.571-2.26.575-3.417.004-1.157-.441-2.403-1.45-2.957-.89-.507-1.996-.37-2.968-.647a3.773 3.773 0 0 1-1.387-.71l-.078-.07a2.374 2.374 0 0 0-.241.114c-.16.085-.33.237-.286.41a.44.44 0 0 0 .163.207c.41.328.882.569 1.388.707.99.27 2.096.144 2.986.65 1.009.57 1.45 1.82 1.45 2.958 0 1.139-.37 2.278-.575 3.413-.1.521-.148 1.109.193 1.527.316.329.782.469 1.228.37a3.716 3.716 0 0 0 1.224-.533c.227-.18.517-.262.805-.225.144.059.27.151.371.27a6.98 6.98 0 0 1 1.484 2.14c.319.74.508 1.512.823 2.244a3.63 3.63 0 0 0 1.484 1.85c.701.369 1.673.369 2.226-.234.143-.162.255-.348.33-.55a1.897 1.897 0 0 1-2.114.103zM125.115 18.522c.552-.695 1.276-1.286 1.795-2.018.103-.146.198-.296.286-.451-.668.846-1.584 1.53-2.081 2.47z"/>
            </g>
            <g opacity=".1">
                <path fill="#1A3CFA" d="M94.454 6.059H4.61a4.592 4.592 0 0 0-4.589 4.57v57.344a4.592 4.592 0 0 0 4.589 4.57H73.46s1.784 9.44-4.08 10.452c0 0 13.123.94 10.83-10.452h14.24a4.589 4.589 0 0 0 4.585-4.57V10.63a4.589 4.589 0 0 0-4.581-4.57z"/>
                <g fill="#000" opacity=".2" transform="translate(12.91 22.77)">
                    <rect width="71.097" height="4.318" x=".033" y=".033" rx="2.097"/>
                    <rect width="58.666" height="4.318" x=".033" y="19.333" rx="2.097"/>
                    <rect width="42.233" height="4.318" x=".033" y="9.683" rx="2.097"/>
                </g>
            </g>
            <path fill="#FFF" d="M93.524 7.368H5.757a4.596 4.596 0 0 0-4.589 4.573v55.27a4.592 4.592 0 0 0 4.59 4.57h68.848s1.784 9.44-4.08 10.453c0 0 13.124.939 10.831-10.452h12.164a4.589 4.589 0 0 0 4.585-4.57v-55.27a4.592 4.592 0 0 0-4.582-4.574z"/>
            <g opacity=".2" transform="translate(14.022 22.031)">
                <rect width="71.097" height="4.318" x=".067" y=".007" fill="url(#n)" rx="2.097"/>
                <rect width="58.666" height="4.318" x=".067" y="19.311" fill="url(#o)" rx="2.097"/>
                <rect width="42.233" height="4.318" x=".067" y="9.661" fill="url(#p)" rx="2.097"/>
            </g>
            <path fill="#FFD037" d="M152.439 125.762c0 .318-.033.577-.078.577-.044 0-.082-.26-.082-.577 0-.318.045-.166.09-.166.044 0 .07-.148.07.166z"/>
            <path fill="#FFD037" d="M152.88 126.143c-.278.151-.523.244-.541.203-.019-.04.185-.192.467-.344.282-.151.167-.04.19 0 .022.04.166-.01-.116.14zM146.218 125.762c0 .318.037.577.082.577.074-.183.1-.381.078-.577 0-.314-.045-.166-.09-.166-.044 0-.07-.148-.07.166z"/>
            <path fill="#FFD037" d="M145.777 126.143c.282.151.523.244.545.203.022-.04-.19-.192-.467-.344-.279-.151-.171-.04-.193 0-.023.04-.164-.01.115.14z"/>
        </g>
        <g transform="translate(134.936 115.846)">
            <path fill="url(#q)" d="M82.597 159.597c-.437-1.855-.722-3.485-.722-3.485s.1-2.022-.805-3.54v-4.242c.257-.678.572-1.332.942-1.956.671-1.175 0-5.478 0-5.478s-2.491-6.068-1.885-9.915c.607-3.847-5.115-17.092-5.115-17.092.035-1.277.216-2.546.538-3.782.06-.26.084-.526.072-.792a.851.851 0 0 0 0-.098v.033c-.086-2.532-2.09-7.297-2.09-7.297l.27-9.065s1.279-5.348-.808-12.526c-.722-2.502-1.195-4.509-1.49-6.053-.033-.177-.066-.362-.095-.506 4.296-.655 7.581-1.2 7.581-1.2s-2.483-10.44-4.166-12.248c-1.682-1.808-3.025-7.593-3.025-7.593s-.877-7.373.538-9.524c1.415-2.152 1.614-5.869 1.614-5.869s3.249-2.35 3.635-3.392c.386-1.041 1.083-3.391 1.083-4.632 0-1.24-.404-2.35-.27-3 .133-.652-.943-3.132-.405-4.307.14-.361.214-.745.217-1.132v-.033a16.015 16.015 0 0 0-.286-3.059 8.66 8.66 0 0 0-3.194-1.71l-.073-.282-.18-.723a4.361 4.361 0 0 0-.318-.192v-.268l-.032-1.059.509-2.38c.992-4.143-4.527-4.761-4.527-4.761a2.89 2.89 0 0 0-1.563-1.37c-1.112-.391-.185 6.23.335 6.652.39.319 1.596 2.394 2.166 3.414l.094.17c-.092.08-.176.168-.253.264l.21 1.446.032.22a6.026 6.026 0 0 0-.88 1.505s1.01 1.11.808 2.35c-.202 1.24.307 2.784.332 2.868-.058-.07-.769-.84-1.476-.651-.708.188-2.693.784-2.693.784s-1.48.26-1.343.586c.137.326-1.011 1.761-1.011 1.761l-3.971-3.775c-.036-.112-.08-.224-.116-.343a9.483 9.483 0 0 1-.36-1.653 9.43 9.43 0 0 0 1.27-.405 2.75 2.75 0 0 0 1.083-.705c.4-.477.477-1.124.64-1.717.317-1.161.992-2.195 1.476-3.298.82-1.858 1.095-3.91.794-5.92a3.913 3.913 0 0 0-.61-1.731c-.65-.897-1.827-1.259-2.686-1.975-.86-.716-1.408-1.808-2.404-2.34-.903-.484-2.004-.426-3.022-.26a16.26 16.26 0 0 0-5.635 2.054c-.581.344-1.217.742-1.885.622-.57-.105-.989-.564-1.36-1.001 0-.018 0-.037.017-.055l-.043-.05a7.014 7.014 0 0 0-.588 2.954c0 .159 0 .318.018.477V7.621a.724.724 0 0 1-.03.213 1.555 1.555 0 0 1-.36.54 2.835 2.835 0 0 0-.325.44c.015-.055.033-.11.054-.162a2.371 2.371 0 0 0-.411 1.258c-.023.326.083.648.296.897.199.195.416.37.65.524a7.598 7.598 0 0 0 3.61 7.897c.046.112.093.228.137.344.509 1.341.891 2.892.722 4.339 0 .108-.03.213-.05.318-.023.105-.098.108-.142.166 0 0-6.566.065-8.115-1.338-1.549-1.403-3.902 3.425-3.902 3.425s-2.354.455-2.823 0c-.47-.456-3.231-.066-3.231-.066a5.933 5.933 0 0 0-4.087-1.497 12.138 12.138 0 0 0-3.01-1.677l-.073-.026a3.381 3.381 0 0 0-1.48-.188s-3.231-2.675-4.173-4.107c-.942-1.432-5.415-6.758-5.448-6.784v-.256l-.05-.778a2.563 2.563 0 0 1-.4.036c-.026-.076-.055-.166-.091-.267a15.037 15.037 0 0 0-.953-2.195s0-.976.285-1.222-.12-3.833-.12-3.833-2.909-6.816-5.515-1.729c0 0-4.928 3.294-.79 7.127 0 0 1.649.8 1.88 1.447.155.412.722 1.562 1.083 2.325l.17.343-.047.04.061.64.025.246c-.78.445-1.306.882-1.18 1.215.23.565.389 1.156.473 1.76 0 0 5.696 7.16 6.436 10.234 0 0 15.34 9.13 20.386 9.78l-.873 4.568a36.58 36.58 0 0 0-.203 3.717c.065.98-.606 5.424-.606 5.424s-.874 6.508-1.614 7.434c-.74.926-.588 4.82-.588 4.82a33.004 33.004 0 0 1-1.011 5.543c-.722 2.48-.202 5.547-.202 5.547s-2.556 5.869 3.567 1.891c0 0 3.007-.188 6.469-.307v.361c0 .445 0 .93-.022 1.447-.047 3.362-.065 7.994.087 11.502.27 6.194 2.166 18.459 2.166 18.459v6.147c-.12.58-.18 1.17-.177 1.761a11.495 11.495 0 0 0 1.657 6.169l.473 4.107s1.104 2.709 1.126 4.34a2.51 2.51 0 0 1-.047.394 2.81 2.81 0 0 0-.054.629c-.061 1.866 1.061 6.328 1.061 6.328s.065 4.501.722 4.762c.574.224-.769 2.596-1.17 3.276 0-.044 0-.087-.025-.13l-.083.137c-.139.362-.21.747-.21 1.135a1.639 1.639 0 0 0 .748 1.584c1.278.781 1.964 1.447.877 1.696-.398.063-.794.146-1.184.25l-.057-.152a.723.723 0 0 0-.44.788c.007.534.144 1.057.4 1.526 1.083 2.415 1.805 3.326 1.805 3.326l.52-.057a2.79 2.79 0 0 1-.3.556 2.145 2.145 0 0 1-.762.677c-.28.17-.594.276-.92.314a2.601 2.601 0 0 0-1.906.93c-.672.87-1.083 2.053.234 3.095l4.813 1.663s8.274 1.085 7.837-.785c-.437-1.869-.722-3.489-.722-3.489a7.358 7.358 0 0 0-.672-3.298 4.424 4.424 0 0 0-.292-.484l.292-.033s.607-4.111 1.412-4.892c.188-.18.23-.318.184-.427.083-.224-.126-.361-.397-.43l-.058.163a3.932 3.932 0 0 0-.805-.09s-.267-2.152.607-2.933a.833.833 0 0 0 .17-.64 3.6 3.6 0 0 0-.091-.879l-.032.05c-.44-1.952-1.932-5.062-1.932-5.062s-.068-1.956.473-2.74c.542-.785-.069-10.631-.069-10.631s.203-4.762-.404-6.979c-.606-2.216.74-4.827.74-4.827v-.145l.018-.032-.08-.749v.044c-.136-1.259-.393-3.544-.58-4.6-.271-1.5.065-8.678.065-8.678l1.213-3.066 2.166 5.286 2.288 7.044s1.134 1.486 1.16 2.994c.005.073.005.147 0 .22a4.256 4.256 0 0 0-.026.474c-.04.889.204 1.766.697 2.506 0 0 .606 3.327 1.548 4.176.943.85.943 2.477.943 2.477s1.14 4.828 1.682 5.677c.451.723.476 2.68.473 3.28v.177s.159 1.725.151 3.175v.517a5.306 5.306 0 0 1-.14 1.135s0 .044-.022.069l.022-.246a12.447 12.447 0 0 0-.361 3.009c-.033 1.735.23 3.789 1.281 4.993 1.805 2.09 2.96 1.83 2.96 1.83s-.873 2.607-1.953 3.128a.61.61 0 0 0-.112.075c0-.05-.021-.1-.029-.151-.236.265-.35.618-.314.972-.079 1.147.643 3.009 1.333 3.866a2.1 2.1 0 0 0 .91.531l-.17.105a3.697 3.697 0 0 1-.361.177c-.174.077-.36.125-.55.141a2.576 2.576 0 0 0-1.905.93c-.672.867-1.083 2.05.234 3.091l4.813 1.663s8.22 1.064 7.783-.799z"/>
            <g opacity=".1">
                <path fill="#1A3CFA" d="M101.316 7.789H5.646A4.856 4.856 0 0 0 .81 12.634v61.689a4.856 4.856 0 0 0 4.837 4.845H80.33s1.88 10.002-4.3 11.076c0 0 13.837.994 11.419-11.076h13.867a4.856 4.856 0 0 0 4.838-4.845V12.634a4.856 4.856 0 0 0-4.838-4.845z"/>
                <g fill="#000" opacity=".2" transform="translate(16.48 35.583)">
                    <rect width="74.98" height="4.578" x=".029" y="10.287" rx="2.051"/>
                    <rect width="32.512" height="4.578" x=".029" y=".058" rx="2.051"/>
                </g>
            </g>
            <path fill="#FFF" d="M99.488 9.056H6.913a4.856 4.856 0 0 0-4.838 4.846v58.577a4.856 4.856 0 0 0 4.838 4.846H79.52s1.88 10.001-4.3 11.079c0 0 13.841.994 11.423-11.08h12.844a4.856 4.856 0 0 0 4.837-4.845V13.902a4.856 4.856 0 0 0-4.837-4.846z"/>
            <g opacity=".2" transform="translate(15.685 34.787)">
                <rect width="74.98" height="4.578" x=".018" y="10.276" fill="url(#r)" rx="2.051"/>
                <rect width="32.512" height="4.578" x=".018" y=".047" fill="url(#s)" rx="2.051"/>
            </g>
            <path fill="#2D293D" d="M50.987 162.685l-4.656-1.663c-1.286-1.041-.874-2.224-.228-3.095a2.49 2.49 0 0 1 1.845-.93c.317-.037.621-.145.892-.314.29-.164.538-.396.722-.676.342-.541.526-1.168.53-1.808 0 0 5.116-1.5 6.498 0 .25.271.459.577.621.907a7.604 7.604 0 0 1 .65 3.298s.263 1.63.682 3.49c.419 1.858-7.556.791-7.556.791zM73.781 160.382l-4.657-1.663c-1.285-1.042-.877-2.224-.227-3.092a2.464 2.464 0 0 1 1.844-.93c.184-.016.363-.064.531-.14.125-.05.245-.11.361-.177 1.3-.724 1.267-2.477 1.267-2.477s5.112-1.5 6.498 0c.188.201.352.425.488.665.88 1.519.783 3.544.783 3.544s.26 1.63.682 3.489c.423 1.859-7.57.781-7.57.781z"/>
            <path fill="#000" d="M56.62 154.202c.248.272.457.577.62.908l-7.664.89c.343-.541.527-1.168.53-1.808 0 0 5.116-1.49 6.513.01zM79.9 152.56v1.447c-1.188 1.967-6.953 1.537-8.628.55.125-.05.245-.11.361-.177 1.3-.724 1.267-2.477 1.267-2.477s5.112-1.5 6.498 0c.193.198.361.42.502.658z" opacity=".1"/>
            <path fill="#575988" d="M80.813 146.374a13.31 13.31 0 0 0-.913 1.956v5.153c-1.3 2.17-8.072 1.446-8.985.26-.914-1.186-1.888-4.238-.845-4.758 1.043-.521 1.888-3.132 1.888-3.132s-1.108.26-2.866-1.826c-1.758-2.086-1.239-6.718-.91-7.828.328-1.11 0-4.827 0-4.827s.065-2.607-.459-3.457c-.523-.85-1.628-5.674-1.628-5.674s0-1.63-.91-2.48c-.91-.85-1.498-4.173-1.498-4.173a4.29 4.29 0 0 1-.66-2.802c.198-1.63-1.105-3.392-1.105-3.392l-2.213-7.044-2.086-5.282-1.163 3.062s-.328 7.174-.065 8.678c.264 1.505.65 5.478.65 5.478s-1.303 2.611-.722 4.828c.581 2.216.39 6.978.39 6.978s.585 9.85.065 10.631c-.52.781-.455 2.741-.455 2.741s2.668 5.738 1.805 6.509c-.863.77-.588 2.936-.588 2.936s1.805 0 1.043.78c-.762.782-1.332 4.904-1.332 4.904l-7.874.911s-.722-.911-1.765-3.326c-1.043-2.416.195-2.17 1.246-2.412 1.05-.243.382-.915-.852-1.696-1.235-.781-.524-2.531-.524-2.531s1.888-3.197 1.238-3.46c-.65-.265-.722-4.76-.722-4.76s-1.303-5.35-.978-6.783c.325-1.432-1.043-4.892-1.043-4.892l-.455-4.111a11.322 11.322 0 0 1-1.444-7.76v-6.339s-1.805-12.261-2.083-18.459c-.166-3.977-.12-9.383-.065-12.764.032-1.895.065-3.15.065-3.15l28.14-2.943c.043 1.407.213 2.808.509 4.184.285 1.547.722 3.55 1.444 6.056 2.018 7.174.78 12.522.78 12.522l-.26 9.069s2.476 6.064 1.953 8.154a17.383 17.383 0 0 0-.52 3.782s5.534 13.242 4.95 17.089c-.585 3.847 1.804 9.915 1.804 9.915s.668 4.31.018 5.485z"/>
            <path fill="#000" d="M64.727 112.392l8.567-1.143s-4.852 4.958-8.567 1.143z" opacity=".05"/>
            <path fill="#000" d="M72.052 102.867s.292 3.034-1.563 4.177c.003 0 3.325-.524 1.563-4.177zM71.528 93.217s-7.158 5.9-9.747 5.423c-2.588-.477 9.747-5.423 9.747-5.423zM54.114 115.165s-5.437 1.237-5.6 3.424c-.162 2.188 5.6-3.424 5.6-3.424z" opacity=".1"/>
            <path fill="#000" d="M55.309 142.364s-7.682 1.446-5.502 2.412c2.18.965 5.776 1.76 5.776 1.76s2.462.13-.274-4.172z" opacity=".05"/>
            <g fill="#000" opacity=".05">
                <path d="M48.255 146.33a1.533 1.533 0 0 1-.7-1.117l-.08.138s-.722 1.76.52 2.53c.144.091.278.182.4.268.232-.043.477-.076.722-.133 1.04-.253.376-.904-.862-1.685zM58.153 145.806c.213-.195.206-.698.076-1.341a3.642 3.642 0 0 0-.437 1.89c.08-.206.204-.393.361-.549zM56.973 113.357a8.784 8.784 0 0 0-.52 2.398 9.455 9.455 0 0 1 .596-1.65l-.076-.748zM74.579 109.933c.053-.237.077-.48.072-.723-.097.484-.166.936-.213 1.334.025-.192.072-.398.14-.611zM56.785 136.546c.15-.467.216-.957.195-1.446a4.921 4.921 0 0 0-.36 1.83c.04-.135.095-.263.165-.384zM58.399 148.844a25.709 25.709 0 0 0-.895 4.006l-7.874.915s-.722-.915-1.765-3.327a7.816 7.816 0 0 1-.22-.575c-.473.217-.657.724-.04 2.141 1.043 2.412 1.762 3.327 1.762 3.327l7.884-.915s.585-4.108 1.364-4.893c.38-.383.134-.578-.216-.68zM47.995 137.132s.065 4.502.722 4.762c.328-.745.549-1.446.256-1.57-.653-.26-.722-4.762-.722-4.762s-1.3-5.347-.975-6.783c.325-1.435-1.043-4.892-1.043-4.892l-.455-4.108a11.308 11.308 0 0 1-1.444-7.763v-6.328s-1.805-12.262-2.083-18.441c-.166-3.978-.119-9.402-.065-12.764 0-.611.018-1.154.03-1.61l-.225.022s-.036 1.255-.065 3.153c-.057 3.378-.104 8.794.065 12.76.26 6.198 2.083 18.46 2.083 18.46v6.328a11.308 11.308 0 0 0 1.444 7.763l.459 4.083s1.368 3.456 1.043 4.892c-.325 1.435.975 6.798.975 6.798zM71.178 152.004a7.6 7.6 0 0 1-1.245-3.099c-.805.723.119 3.547.985 4.665.91 1.171 7.682 1.89 8.986-.26v-1.245c-1.762 1.75-7.852 1.049-8.726-.061zM81.077 144.635c-.36.625-.665 1.279-.913 1.956v.908c.148-.337.36-.781.653-1.31a3.907 3.907 0 0 0 .285-1.612.22.22 0 0 0-.025.058zM71.579 145.662c.248-.503.463-1.02.643-1.552 0 0-1.109.26-2.867-1.808-1.281-1.518-1.354-4.386-1.17-6.259-.328 1.107-.848 5.739.91 7.825 1.152 1.349 2.018 1.707 2.484 1.794zM68.182 131.198c.115 1.285.158 2.576.13 3.865.033-.204.078-.407.133-.607.329-1.106 0-4.824 0-4.824s.065-2.61-.454-3.456c-.52-.847-1.628-5.677-1.628-5.677s0-1.631-.91-2.477c-.91-.846-1.498-4.177-1.498-4.177a4.276 4.276 0 0 1-.654-2.802c.195-1.63-1.104-3.392-1.104-3.392l-2.217-7.047-2.083-5.283-1.173 3.066s0 .387-.04.991l.953-2.491 2.083 5.283 2.224 7.047s1.303 1.76 1.108 3.392a4.276 4.276 0 0 0 .654 2.802s.584 3.327 1.494 4.176c.91.85.913 2.477.913 2.477s1.109 4.828 1.629 5.677c.52.85.44 3.457.44 3.457z"/>
            </g>
            <path fill="#FFCDD3" d="M73.651 11.179l-.49 2.38.028 1.059.022.784-2.719.279-.303-.564c-.563-1.02-1.73-3.095-2.108-3.414-.502-.423-1.397-7.043-.321-6.653a2.846 2.846 0 0 1 1.512 1.374s5.34.63 4.38 4.755z"/>
            <path fill="#000" d="M73.21 15.417l-2.718.278-.303-.564a2.398 2.398 0 0 1 3-.495l.022.78z" opacity=".1"/>
            <path fill="#DCE6F2" d="M73.897 16.704l-3.585.832L70.24 17l-.206-1.447s1.419-1.894 3.47-.473l.176.723.217.9z"/>
            <path fill="#FFCDD3" d="M15.855 11.454l-3.823 2.054-.361-.724c-.361-.762-.906-1.912-1.054-2.325-.228-.632-1.823-1.446-1.823-1.446-4.004-3.833.765-7.127.765-7.127 2.527-5.087 5.34 1.729 5.34 1.729s.39 3.59.115 3.832c-.275.243-.278 1.223-.278 1.223.366.705.675 1.44.924 2.194.134.366.195.59.195.59z"/>
            <path fill="#000" d="M15.855 11.454l-3.823 2.054-.361-.724c.538-.448 2.455-2.003 3.083-1.934.3.037.604.045.906.025.134.355.195.579.195.579z" opacity=".1"/>
            <path fill="#DCE6F2" d="M16.245 12.625l-4.296 2.123-.087-.926-.061-.64s2.49-2.137 3.227-2.057c.372.054.75.054 1.123 0l.047.774.047.726z"/>
            <path fill="#FFCDD3" d="M63.233 27.01s-18.744 2.118-15.238.98c2.437-.796 3.404-2.347 3.61-4.072.162-1.447-.206-3.001-.7-4.34a18.685 18.685 0 0 0-1.676-3.391s14.329-7.893 11.462-.723a11.514 11.514 0 0 0-.812 3.399 9.517 9.517 0 0 0 .36 3.439 10.224 10.224 0 0 0 2.994 4.707z"/>
            <path fill="#000" d="M60.691 15.467a11.514 11.514 0 0 0-.812 3.4c-1.35 1.135-2.83 1.059-4.73 1.059-1.443 0-3.075.361-4.245-.362a18.685 18.685 0 0 0-1.675-3.391s14.329-7.887 11.462-.706z" opacity=".1"/>
            <ellipse cx="54.894" cy="12.662" fill="#FFCDD3" rx="7.751" ry="7.763"/>
            <path fill="#000" d="M63.233 27.01s-18.744 2.118-15.238.98c2.437-.796 3.404-2.347 3.61-4.072.931-1.013 2.805-1.743 4.01-2.13a5.59 5.59 0 0 1 3.398-.054c.436.13.852.322 1.234.571a10.224 10.224 0 0 0 2.986 4.704zM73.897 16.704l-3.585.832L70.24 17a3.163 3.163 0 0 1 3.44-1.18l.217.883zM16.245 12.625l-4.296 2.123-.087-.926a31.554 31.554 0 0 1 4.332-1.923l.05.726zM70.644 74.31c-7.256 1.149-17.588 2.642-19.227 2.143-1.357-.416-5.7-.361-9.48-.242.033-1.895.065-3.15.065-3.15l28.133-2.943c.043 1.41.213 2.812.509 4.191z" opacity=".1"/>
            <path fill="#656691" d="M77.882 72.602s-23.898 4.112-26.465 3.327c-2.567-.785-15.732.065-15.732.065-5.924 3.978-3.452-1.891-3.452-1.891s-.52-3.066.195-5.543c.486-1.817.82-3.671.997-5.543 0 0-.13-3.916.585-4.828.714-.91 1.563-7.438 1.563-7.438s.653-4.433.588-5.423c.003-1.242.068-2.483.195-3.718l.845-4.566c-4.884-.651-19.732-9.785-19.732-9.785-.722-3.063-6.25-10.24-6.25-10.24a7.459 7.459 0 0 0-.458-1.761c-.39-1.042 5.473-3.128 5.473-3.128s4.36 5.348 5.274 6.783c.913 1.436 4.036 4.108 4.036 4.108.49-.05.984.014 1.444.188l.076.022c1.048.415 2.03.98 2.917 1.678a5.648 5.648 0 0 1 3.97 1.5s2.672-.39 3.127.065c.455.456 2.737 0 2.737 0s2.277-4.827 3.776-3.424c1.498 1.403 7.851 1.338 7.851 1.338.849-1.128 2.91-1.938 4.199-2.354a5.616 5.616 0 0 1 3.397-.054c.48.137.933.356 1.34.647l3.855 3.782s1.108-1.446.978-1.76c-.13-.315 1.303-.587 1.303-.587s1.888-.589 2.603-.784c.715-.195 1.372.582 1.444.65-.022-.082-.513-1.663-.321-2.867.191-1.204-.784-2.35-.784-2.35 2.282-5.608 7.426-.911 7.426-.911s.585 3.066.065 4.238c-.52 1.171.52 3.655.39 4.306-.13.651.26 1.761.26 3.001s-.65 3.587-1.043 4.629c-.394 1.041-3.517 3.391-3.517 3.391s-.195 3.721-1.563 5.873c-1.368 2.151-.56 9.524-.56 9.524s1.304 5.753 2.943 7.593c1.639 1.84 4.025 12.247 4.025 12.247z"/>
            <path fill="#000" d="M43.045 29.685s-.722-2.151-1.368-2.347a15.485 15.485 0 0 1-1.888-.85l.419-.802s2.444.673 2.837 1.389c.394.715 0 2.61 0 2.61zM29.956 24.92c-.13.65-5.928 1.24-5.928 1.24l2.931-2.944.072.026c1.051.414 2.036.98 2.925 1.677z" opacity=".1"/>
            <ellipse cx="13.183" cy="15.97" fill="#575988" rx="1" ry="1"/>
            <ellipse cx="13.851" cy="17.015" fill="#575988" rx="1" ry="1"/>
            <ellipse cx="14.505" cy="17.977" fill="#575988" rx="1" ry="1"/>
            <ellipse cx="15.187" cy="19.022" fill="#575988" rx="1" ry="1"/>
            <ellipse cx="76.572" cy="18.964" fill="#575988" rx="1" ry="1"/>
            <ellipse cx="76.637" cy="19.926" fill="#575988" rx="1" ry="1"/>
            <ellipse cx="76.694" cy="20.888" fill="#575988" rx="1" ry="1"/>
            <path fill="#000" d="M43.078 47.36c-.061-.076 14.617 18.491 26.014 7.763 0 0-18.007 2.444-26.014-7.763zM34.645 57.014s8.783.239 9.7 2.77v2.636a1.676 1.676 0 0 1-1.632 0c-.884-.48-6.198-3.182-8.068-1.884v-3.522z" opacity=".1"/>
            <path fill="#656691" d="M34.807 57.014s8.4.228 9.278 2.643v2.506c-.486.27-1.077.27-1.563 0-.845-.455-5.924-3.033-7.715-1.808v-3.34z"/>
            <path fill="#000" d="M39.44 37.908a28.436 28.436 0 0 0 3.403 5.854 22.933 22.933 0 0 0 5.336 5.16s-8.596-9.803-8.74-11.014zM36.565 27.686s1.466 6.335 5.242 8.49l-5.242-8.49zM34.316 28.326c-.036-.116-1.3 5.011 4.87 7.85.015 0-2.62-.893-4.87-7.85zM72.673 24.077c-.098 0 3.047 2.003 3.899 2.932 0 0-2.044-3.062-3.9-2.932z" opacity=".1"/>
            <path fill="#2D293D" d="M52.8 19.698c.062.414.279.789.606 1.049.226.107.472.163.722.162 2.365.145 4.823.25 7.007-.661a2.65 2.65 0 0 0 1.083-.705c.39-.478.462-1.125.621-1.718.303-1.16.957-2.195 1.444-3.298a11.078 11.078 0 0 0 .765-5.919 3.928 3.928 0 0 0-.588-1.732c-.628-.897-1.769-1.258-2.6-1.97-.83-.713-1.36-1.809-2.328-2.344-.873-.484-1.938-.426-2.924-.26a15.414 15.414 0 0 0-5.494 2.054c-.56.343-1.177.741-1.805.622-.567-.109-.978-.586-1.343-1.03a7.242 7.242 0 0 0-.578 3.38c.03.169.03.341 0 .51a1.573 1.573 0 0 1-.36.539c-.586.676-.95 1.75-.362 2.433.25.3.636.463.881.767.437.546.289 1.327.278 2.028-.025.243.037.486.173.687.257.239.62.325.957.228a2.65 2.65 0 0 1 1.018-.098c.364.12.676.361.885.684 1.06 1.388 1.483 2.918 1.942 4.592z"/>
            <g fill="#000" opacity=".1">
                <path d="M62.467 18.942a2.62 2.62 0 0 1-1.083.724c-2.166.91-4.642.806-7.007.658a1.572 1.572 0 0 1-.722-.163 1.642 1.642 0 0 1-.606-1.049c-.459-1.67-.881-3.2-1.975-4.588a1.675 1.675 0 0 0-.884-.684 2.58 2.58 0 0 0-1.018.098c-.334.092-.69.006-.946-.228a1.043 1.043 0 0 1-.173-.69c0-.698.158-1.483-.278-2.025-.246-.308-.629-.467-.881-.767a1.535 1.535 0 0 1-.152-1.558c-.411.658-.592 1.504-.108 2.079.249.3.635.463.88.766.437.546.29 1.327.279 2.029-.025.242.036.485.173.687.257.238.62.325.957.228a2.65 2.65 0 0 1 1.018-.098c.364.12.676.361.884.683 1.083 1.389 1.516 2.918 1.975 4.593a1.227 1.227 0 0 0 1.335 1.21c2.365.146 4.823.25 7.007-.66a2.65 2.65 0 0 0 1.083-.706c.148-.189.261-.401.336-.629-.03.032-.06.062-.094.09zM47.388 7.632c.107-.112.188-.245.239-.39a1.51 1.51 0 0 0 0-.51 7.207 7.207 0 0 1 .36-2.81l-.043-.05a7.192 7.192 0 0 0-.577 3.38c.018.126.025.253.021.38z"/>
            </g>
            <path fill="#000" d="M51.417 24.402s9.682 1.284 10.552-.173M70.247 20.389s5.375 0 6.56 2.028" opacity=".1"/>
        </g>
    </g>
</svg>
