<svg xmlns="http://www.w3.org/2000/svg" width="480" height="480" viewBox="0 0 480 480">
    <defs>
        <linearGradient id="a" x1="32.217%" x2="69.397%" y1="4.162%" y2="100%">
            <stop offset="0%" stop-color="#C0D2FF"/>
            <stop offset="100%" stop-color="#0030FF"/>
        </linearGradient>
        <linearGradient id="b" x1="22.671%" x2="79.81%" y1="4.162%" y2="100%">
            <stop offset="0%" stop-color="#C0D2FF"/>
            <stop offset="100%" stop-color="#0030FF"/>
        </linearGradient>
        <linearGradient id="c" x1="4.162%" y1="28.267%" y2="73.706%">
            <stop offset="0%" stop-color="#C0D2FF"/>
            <stop offset="100%" stop-color="#0030FF"/>
        </linearGradient>
        <linearGradient id="d" x1="4.162%" y1="17.897%" y2="85.018%">
            <stop offset="0%" stop-color="#C0D2FF"/>
            <stop offset="100%" stop-color="#0030FF"/>
        </linearGradient>
        <linearGradient id="e" x1="4.162%" y1="5.939%" y2="98.062%">
            <stop offset="0%" stop-color="#C0D2FF"/>
            <stop offset="100%" stop-color="#0030FF"/>
        </linearGradient>
        <linearGradient id="f" x1="4.162%" y1="27.768%" y2="74.25%">
            <stop offset="0%" stop-color="#C0D2FF"/>
            <stop offset="100%" stop-color="#0030FF"/>
        </linearGradient>
        <linearGradient id="g" x1="4.162%" y1="18.296%" y2="84.583%">
            <stop offset="0%" stop-color="#C0D2FF"/>
            <stop offset="100%" stop-color="#0030FF"/>
        </linearGradient>
        <linearGradient id="h" x1="30.522%" x2="71.246%" y1="4.162%" y2="100%">
            <stop offset="0%" stop-color="#C0D2FF"/>
            <stop offset="100%" stop-color="#0030FF"/>
        </linearGradient>
        <linearGradient id="i" x1="4.162%" y1="28.273%" y2="73.7%">
            <stop offset="0%" stop-color="#C0D2FF"/>
            <stop offset="100%" stop-color="#0030FF"/>
        </linearGradient>
        <linearGradient id="j" x1="4.162%" y1="27.723%" y2="74.299%">
            <stop offset="0%" stop-color="#C0D2FF"/>
            <stop offset="100%" stop-color="#0030FF"/>
        </linearGradient>
        <linearGradient id="k" x1="42.437%" x2="58.249%" y1="4.162%" y2="100%">
            <stop offset="0%" stop-color="#C0D2FF"/>
            <stop offset="100%" stop-color="#0030FF"/>
        </linearGradient>
        <linearGradient id="l" x1="7.248%" x2="96.634%" y1="4.162%" y2="100%">
            <stop offset="0%" stop-color="#C0D2FF"/>
            <stop offset="100%" stop-color="#0030FF"/>
        </linearGradient>
        <linearGradient id="m" x1="15.255%" x2="87.9%" y1="4.162%" y2="100%">
            <stop offset="0%" stop-color="#C0D2FF"/>
            <stop offset="100%" stop-color="#0030FF"/>
        </linearGradient>
        <linearGradient id="n" x1="4.162%" y1="29.034%" y2="72.87%">
            <stop offset="0%" stop-color="#C0D2FF"/>
            <stop offset="100%" stop-color="#0030FF"/>
        </linearGradient>
        <linearGradient id="o" x1="5.23%" x2="98.835%" y1="4.162%" y2="100%">
            <stop offset="0%" stop-color="#C0D2FF"/>
            <stop offset="100%" stop-color="#0030FF"/>
        </linearGradient>
        <linearGradient id="p" x1="4.162%" y1="4.429%" y2="99.709%">
            <stop offset="0%" stop-color="#C0D2FF"/>
            <stop offset="100%" stop-color="#0030FF"/>
        </linearGradient>
        <linearGradient id="q" x1="32.726%" x2="68.843%" y1="4.162%" y2="100%">
            <stop offset="0%" stop-color="#C0D2FF"/>
            <stop offset="100%" stop-color="#0030FF"/>
        </linearGradient>
        <linearGradient id="r" x1="49.983%" x2="49.983%" y1="100.014%" y2=".005%">
            <stop offset="0%" stop-color="gray" stop-opacity=".25"/>
            <stop offset="54%" stop-color="gray" stop-opacity=".12"/>
            <stop offset="100%" stop-color="gray" stop-opacity=".1"/>
        </linearGradient>
        <linearGradient id="s" x1="49.5%" x2="49.5%" y1="61.148%" y2="39.148%">
            <stop offset="0%" stop-color="gray" stop-opacity=".25"/>
            <stop offset="54%" stop-color="gray" stop-opacity=".12"/>
            <stop offset="100%" stop-color="gray" stop-opacity=".1"/>
        </linearGradient>
        <linearGradient id="t" x1="49.992%" x2="49.992%" y1="100.019%" y2=".007%">
            <stop offset="0%" stop-color="gray" stop-opacity=".25"/>
            <stop offset="54%" stop-color="gray" stop-opacity=".12"/>
            <stop offset="100%" stop-color="gray" stop-opacity=".1"/>
        </linearGradient>
        <linearGradient id="u" x1="49.998%" x2="49.998%" y1="99.994%" y2="0%">
            <stop offset="0%" stop-color="gray" stop-opacity=".25"/>
            <stop offset="54%" stop-color="gray" stop-opacity=".12"/>
            <stop offset="100%" stop-color="gray" stop-opacity=".1"/>
        </linearGradient>
    </defs>
    <g fill="none" fill-rule="evenodd">
        <path fill="#FAFBFC" fill-rule="nonzero" d="M-370-256h1920v856H-370z"/>
        <path fill="#FFF" fill-opacity="0" d="M0 0h480v480H0z"/>
        <g fill-rule="nonzero" transform="translate(0 9)">
            <circle cx="38" cy="38" r="38" fill="#1A3CFA" opacity=".05"/>
            <path fill="#1A3CFA" d="M45.653 100.681c9.852 25.934-2.715 145.797-17.51 168.284-4.95 7.541-10.417 15.447-11.103 24.905-.828 11.57 5.895 22.205 13.87 29.157 14.546 12.67 34.412 16.587 51.725 10.194 14.96-5.524 27.538-18 42.63-23.028 25.236-8.424 51.987 5.54 73.6 22.94 15.298 12.299 31.681 27.286 50.124 24.651 12.977-1.853 23.99-12.47 31.465-24.97 3.61-6.034 6.749-12.798 12.003-16.869 3.124-2.423 6.793-3.706 10.463-4.623 33.509-8.347 69.072 12.023 102.137 1.547 22.335-7.059 40.142-27.646 51.216-51.333 11.073-23.687 16.242-140.432 20.547-166.93 3.059-18.823 5.598-39.157-1.433-56.468-7.44-18.329-24.661-29.44-41.969-31.522-17.307-2.082-34.665 3.665-50.61 11.77-19.92 10.152-39.449 24.363-61.193 24.41-14.809.036-28.931-6.587-43.089-11.64-23.672-8.44-48.288-12.635-72.817-16.505-23.486-3.706-47.203-7.153-70.83-4.964-16.716 1.546-31.48 8.993-47.702 12.44-10.574 2.247-21.198.588-31.576 4.353-12.78 4.658-25.923 15.452-26.63 32.45-.666 16.182 11.458 27.993 16.682 41.751z" opacity=".05"/>
            <ellipse cx="236.14" cy="437" fill="#1A3CFA" opacity=".05" rx="215.859" ry="26"/>
            <path fill="#1A3CFA" d="M338.625 11.012h-3.17a2.222 2.222 0 0 0 2.011-1.076c.42-.7.42-1.576 0-2.277a2.222 2.222 0 0 0-2.011-1.075h-25.701a2.218 2.218 0 0 0-2.115 2.214c0 1.183.93 2.157 2.115 2.214h3.17a2.218 2.218 0 0 0-2.115 2.213c0 1.183.93 2.158 2.115 2.214h-4.437a2.222 2.222 0 0 0-2.011 1.076 2.212 2.212 0 0 0 0 2.277 2.222 2.222 0 0 0 2.011 1.075h25.68a2.222 2.222 0 0 0 2.012-1.075c.42-.701.42-1.576 0-2.277a2.222 2.222 0 0 0-2.011-1.076h4.457a2.218 2.218 0 0 0 2.115-2.214c0-1.182-.931-2.157-2.115-2.213z" opacity=".05"/>
            <path fill="#DEE3F3" d="M190.122 64.427h-2.412a1.692 1.692 0 0 0 1.54-.815 1.684 1.684 0 0 0 0-1.74 1.692 1.692 0 0 0-1.54-.815h-19.543a1.689 1.689 0 0 0-1.599 1.685c0 .896.702 1.636 1.599 1.685h2.412a1.692 1.692 0 0 0-1.54.815 1.684 1.684 0 0 0 0 1.74c.322.535.915.849 1.54.815h-3.376a1.692 1.692 0 0 0-1.542.814 1.684 1.684 0 0 0 0 1.74c.323.536.916.85 1.542.816h19.543a1.692 1.692 0 0 0 1.54-.815 1.684 1.684 0 0 0 0-1.74 1.692 1.692 0 0 0-1.54-.815h3.376a1.689 1.689 0 0 0 1.599-1.685c0-.896-.702-1.636-1.599-1.685zM90.266 81.397h-3.17a2.222 2.222 0 0 0 2.012-1.076c.42-.7.42-1.576 0-2.277a2.222 2.222 0 0 0-2.011-1.075H61.416a2.218 2.218 0 0 0-2.115 2.214c0 1.183.93 2.157 2.115 2.214h3.17a2.218 2.218 0 0 0-2.115 2.214c0 1.182.93 2.157 2.114 2.213H60.15a2.218 2.218 0 0 0-2.115 2.214c0 1.183.93 2.157 2.115 2.214h25.68a2.222 2.222 0 0 0 2.012-1.075c.42-.701.42-1.576 0-2.277a2.222 2.222 0 0 0-2.011-1.076h4.436a2.218 2.218 0 0 0 2.115-2.213c0-1.183-.93-2.158-2.115-2.214z" opacity=".5"/>
        </g>
        <path stroke="#535461" stroke-width="1.009" d="M157.776 450.03s-7.35-24.909 1.378-43.238a39.267 39.267 0 0 0 3.19-24.682 66.061 66.061 0 0 0-3.503-11.585"/>
        <path fill="#4363EC" fill-rule="nonzero" d="M164.282 358.95c0 3.052-5.552 11.902-5.552 11.902s-5.553-8.85-5.553-11.902a5.537 5.537 0 0 1 2.644-5.138 5.562 5.562 0 0 1 5.787 0 5.537 5.537 0 0 1 2.643 5.138h.03zM173.422 375.854c-1.66 2.564-11.13 6.986-11.13 6.986s.173-10.431 1.833-12.995a5.554 5.554 0 0 1 5.014-2.86 5.553 5.553 0 0 1 4.848 3.133 5.531 5.531 0 0 1-.565 5.736zM173.024 404.752c-2.731 1.375-13.123.423-13.123.423s5.425-8.921 8.156-10.296a5.562 5.562 0 0 1 5.786.043 5.537 5.537 0 0 1-.8 9.824l-.02.006zM167.79 426.542c-2.459 1.813-12.886 2.634-12.886 2.634s3.836-9.706 6.299-11.525a5.56 5.56 0 0 1 7.352 1.448 5.533 5.533 0 0 1-.79 7.438l.024.005zM150.654 383.435c2.195 2.125 12.416 4.332 12.416 4.332s-2.523-10.13-4.699-12.26a5.56 5.56 0 0 0-5.53-1.677 5.546 5.546 0 0 0-4.027 4.137 5.534 5.534 0 0 0 1.84 5.468zM144.865 409.003c2.73 1.375 13.123.423 13.123.423s-5.406-8.92-8.137-10.27a5.557 5.557 0 0 0-7.086 2.622 5.535 5.535 0 0 0 2.1 7.245v-.02zM142.644 434.621c2.458 1.814 12.886 2.635 12.886 2.635s-3.836-9.707-6.3-11.525a5.56 5.56 0 0 0-5.75-.99 5.537 5.537 0 0 0-.811 9.876l-.025.004z"/>
        <path fill="url(#a)" fill-rule="nonzero" d="M24.282 5.95c0 3.052-5.552 11.902-5.552 11.902s-5.553-8.85-5.553-11.902A5.537 5.537 0 0 1 15.821.812a5.562 5.562 0 0 1 5.787 0 5.537 5.537 0 0 1 2.643 5.138h.03z" transform="translate(140 353)"/>
        <path fill="url(#b)" fill-rule="nonzero" d="M33.422 22.854c-1.66 2.564-11.13 6.986-11.13 6.986s.173-10.431 1.833-12.995a5.554 5.554 0 0 1 5.014-2.86 5.553 5.553 0 0 1 4.848 3.133 5.531 5.531 0 0 1-.565 5.736z" transform="translate(140 353)"/>
        <path fill="url(#c)" fill-rule="nonzero" d="M33.024 51.752c-2.731 1.375-13.123.423-13.123.423s5.425-8.921 8.156-10.296a5.562 5.562 0 0 1 5.786.043 5.537 5.537 0 0 1-.8 9.824l-.02.006z" transform="translate(140 353)"/>
        <path fill="url(#d)" fill-rule="nonzero" d="M27.79 73.542c-2.459 1.813-12.886 2.634-12.886 2.634s3.836-9.706 6.299-11.525a5.56 5.56 0 0 1 7.352 1.448 5.533 5.533 0 0 1-.79 7.438l.024.005z" transform="translate(140 353)"/>
        <path fill="url(#e)" fill-rule="nonzero" d="M10.654 30.435c2.195 2.125 12.416 4.332 12.416 4.332s-2.523-10.13-4.699-12.26a5.56 5.56 0 0 0-5.53-1.677 5.546 5.546 0 0 0-4.027 4.137 5.534 5.534 0 0 0 1.84 5.468z" transform="translate(140 353)"/>
        <path fill="url(#f)" fill-rule="nonzero" d="M4.865 56.003c2.73 1.375 13.123.423 13.123.423s-5.406-8.92-8.137-10.27a5.557 5.557 0 0 0-7.086 2.622 5.535 5.535 0 0 0 2.1 7.245v-.02z" transform="translate(140 353)"/>
        <path fill="url(#g)" fill-rule="nonzero" d="M2.644 81.621c2.458 1.814 12.886 2.635 12.886 2.635s-3.836-9.707-6.3-11.525a5.56 5.56 0 0 0-5.75-.99 5.537 5.537 0 0 0-.811 9.876l-.025.004z" transform="translate(140 353)"/>
        <g>
            <path stroke="#535461" stroke-width="1.009" d="M332.662 444.682s-7.348-24.908 1.378-43.238a39.267 39.267 0 0 0 3.19-24.682 66.061 66.061 0 0 0-3.503-11.585"/>
            <path fill="#4363EC" fill-rule="nonzero" d="M339.158 353.597c0 3.052-5.552 11.902-5.552 11.902s-5.552-8.85-5.552-11.902a5.547 5.547 0 0 1 5.537-5.132 5.547 5.547 0 0 1 5.537 5.132h.03zM348.314 370.501c-1.66 2.564-11.13 6.987-11.13 6.987s.172-10.432 1.833-12.996a5.554 5.554 0 0 1 5.014-2.86 5.553 5.553 0 0 1 4.848 3.133 5.531 5.531 0 0 1-.565 5.736zM347.93 399.399c-2.73 1.375-13.122.423-13.122.423s5.425-8.92 8.156-10.296a5.562 5.562 0 0 1 5.803.033 5.537 5.537 0 0 1-.836 9.84zM342.676 421.189c-2.458 1.813-12.885 2.634-12.885 2.634s3.835-9.706 6.299-11.524a5.56 5.56 0 0 1 7.352 1.448 5.533 5.533 0 0 1-.79 7.437l.024.005zM325.55 378.082c2.196 2.126 12.417 4.332 12.417 4.332s-2.523-10.13-4.699-12.26a5.56 5.56 0 0 0-5.53-1.677 5.546 5.546 0 0 0-4.027 4.137 5.534 5.534 0 0 0 1.84 5.468zM319.751 403.65c2.731 1.375 13.123.423 13.123.423s-5.425-8.92-8.156-10.296a5.557 5.557 0 0 0-7.086 2.623 5.535 5.535 0 0 0 2.1 7.245l.02.005zM317.536 429.268c2.458 1.814 12.885 2.635 12.885 2.635s-3.836-9.707-6.299-11.525a5.56 5.56 0 0 0-7.352 1.448 5.533 5.533 0 0 0 .79 7.437l-.024.005z"/>
            <path fill="url(#h)" fill-rule="nonzero" d="M23.471 5.132c0 3.052-5.552 11.902-5.552 11.902s-5.552-8.85-5.552-11.902A5.547 5.547 0 0 1 17.904 0a5.547 5.547 0 0 1 5.537 5.132h.03z" transform="translate(315.687 348.465)"/>
            <path fill="url(#b)" fill-rule="nonzero" d="M32.627 22.036c-1.66 2.564-11.13 6.987-11.13 6.987s.172-10.432 1.833-12.996a5.554 5.554 0 0 1 5.014-2.86 5.553 5.553 0 0 1 4.848 3.133 5.531 5.531 0 0 1-.565 5.736z" transform="translate(315.687 348.465)"/>
            <path fill="url(#i)" fill-rule="nonzero" d="M32.244 50.934c-2.731 1.375-13.123.423-13.123.423s5.425-8.92 8.156-10.296a5.562 5.562 0 0 1 5.803.033 5.537 5.537 0 0 1-.836 9.84z" transform="translate(315.687 348.465)"/>
            <path fill="url(#d)" fill-rule="nonzero" d="M26.99 72.724c-2.459 1.813-12.887 2.634-12.887 2.634s3.836-9.706 6.3-11.524a5.56 5.56 0 0 1 7.352 1.447 5.533 5.533 0 0 1-.79 7.438l.024.005z" transform="translate(315.687 348.465)"/>
            <path fill="url(#e)" fill-rule="nonzero" d="M9.864 29.617c2.195 2.126 12.416 4.332 12.416 4.332s-2.524-10.13-4.699-12.26a5.56 5.56 0 0 0-5.53-1.677 5.546 5.546 0 0 0-4.027 4.137 5.534 5.534 0 0 0 1.84 5.468z" transform="translate(315.687 348.465)"/>
            <path fill="url(#j)" fill-rule="nonzero" d="M4.064 55.185c2.731 1.375 13.123.423 13.123.423s-5.425-8.92-8.156-10.296a5.557 5.557 0 0 0-7.086 2.623 5.535 5.535 0 0 0 2.1 7.245l.02.005z" transform="translate(315.687 348.465)"/>
            <path fill="url(#d)" fill-rule="nonzero" d="M1.849 80.803c2.458 1.814 12.885 2.635 12.885 2.635s-3.836-9.707-6.299-11.525a5.56 5.56 0 0 0-7.352 1.448 5.533 5.533 0 0 0 .79 7.437l-.024.005z" transform="translate(315.687 348.465)"/>
        </g>
        <g transform="translate(13 364)">
            <path stroke="#4363EC" stroke-width=".998" d="M15.217 13.24s10.218 19.998 1.892 30.938c-8.327 10.94.759 40.754.759 40.754"/>
            <path fill="url(#k)" fill-rule="nonzero" d="M18.265 6.986c0 3.855-2.838 6.987-2.838 6.987s-2.838-3.127-2.838-6.987C12.59 3.126 15.427 0 15.427 0s2.838 3.132 2.838 6.986z"/>
            <path stroke="#4363EC" stroke-width=".998" d="M20.513 13.24S10.295 33.237 18.62 44.177c8.327 10.94-.759 40.754-.759 40.754"/>
            <path fill="#4363EC" fill-rule="nonzero" d="M17.488 6.986c0 3.855 2.838 6.987 2.838 6.987s2.838-3.127 2.838-6.987c0-3.86-2.838-6.986-2.838-6.986s-2.838 3.132-2.838 6.986z"/>
            <path fill="url(#k)" fill-rule="nonzero" d="M17.488 6.986c0 3.855 2.838 6.987 2.838 6.987s2.838-3.127 2.838-6.987c0-3.86-2.838-6.986-2.838-6.986s-2.838 3.132-2.838 6.986z"/>
            <path stroke="#4363EC" stroke-width=".998" d="M24.688 13.24s10.218 19.998 1.892 30.938c-8.327 10.94.759 40.754.759 40.754"/>
            <path fill="url(#k)" fill-rule="nonzero" d="M27.707 6.986c0 3.855-2.838 6.987-2.838 6.987s-2.838-3.127-2.838-6.987C22.031 3.126 24.87 0 24.87 0s2.838 3.132 2.838 6.986z"/>
            <path fill="url(#l)" fill-rule="nonzero" d="M26.113 23.009c-2.68 2.777-6.902 3.068-6.902 3.068s.128-4.215 2.808-6.987c2.68-2.77 6.902-3.068 6.902-3.068s-.146 4.204-2.808 6.987zM26.381 36.807c-2.68 2.777-6.902 3.068-6.902 3.068s.129-4.215 2.809-6.986c2.68-2.772 6.902-3.069 6.902-3.069s-.129 4.204-2.809 6.987z"/>
            <path fill="url(#m)" fill-rule="nonzero" d="M11.842 44.393c2.534 2.911 2.446 7.126 2.446 7.126s-4.198-.506-6.732-3.417c-2.534-2.911-2.447-7.127-2.447-7.127s4.199.507 6.733 3.418z"/>
            <path fill="#4363EC" fill-rule="nonzero" d="M14.178 14.986c3.223 2.13 4.268 6.218 4.268 6.218s-4.18.634-7.404-1.496c-3.223-2.131-4.268-6.218-4.268-6.218s4.198-.647 7.404 1.496z"/>
            <path fill="url(#n)" fill-rule="nonzero" d="M14.178 14.986c3.223 2.13 4.268 6.218 4.268 6.218s-4.18.634-7.404-1.496c-3.223-2.131-4.268-6.218-4.268-6.218s4.198-.647 7.404 1.496z"/>
            <path stroke="#4363EC" stroke-width=".998" d="M29.972 13.24S19.754 33.237 28.08 44.177c8.327 10.94-.759 40.754-.759 40.754"/>
            <path fill="#4363EC" fill-rule="nonzero" d="M26.948 6.986c0 3.855 2.837 6.987 2.837 6.987s2.838-3.127 2.838-6.987c0-3.86-2.838-6.986-2.838-6.986s-2.837 3.132-2.837 6.986z"/>
            <path fill="url(#k)" fill-rule="nonzero" d="M26.948 6.986c0 3.855 2.837 6.987 2.837 6.987s2.838-3.127 2.838-6.987c0-3.86-2.838-6.986-2.838-6.986s-2.837 3.132-2.837 6.986z"/>
            <path fill="#4363EC" fill-rule="nonzero" d="M27.765 23.306c-2.715 2.748-2.92 6.986-2.92 6.986s4.222-.239 6.937-2.987 2.92-6.986 2.92-6.986-4.222.239-6.937 2.987z"/>
            <path fill="url(#o)" fill-rule="nonzero" d="M27.765 23.306c-2.715 2.748-2.92 6.986-2.92 6.986s4.222-.239 6.937-2.987 2.92-6.986 2.92-6.986-4.222.239-6.937 2.987zM33.084 42.408c-2.715 2.748-2.92 6.986-2.92 6.986s4.222-.239 6.938-2.987c2.715-2.748 2.92-6.986 2.92-6.986s-4.24.239-6.938 2.987z"/>
            <path stroke="#4363EC" stroke-width=".998" d="M25.272 38.21s6.148-9.665 14.784-9.897M20.466 32.37s-6.148-9.664-14.784-9.897M19.666 46.169s6.149-9.665 14.785-9.898"/>
            <ellipse cx="39.758" cy="28.26" fill="url(#p)" fill-rule="nonzero" rx="1.594" ry="1.589"/>
            <ellipse cx="5.834" cy="22.555" fill="url(#p)" fill-rule="nonzero" rx="1.594" ry="1.589"/>
            <path stroke="#4363EC" stroke-width=".998" d="M24.192 49.336s-6.149-9.665-14.785-9.898"/>
            <ellipse cx="9.559" cy="39.532" fill="url(#p)" fill-rule="nonzero" rx="1.594" ry="1.589"/>
            <ellipse cx="34.568" cy="36.353" fill="url(#p)" fill-rule="nonzero" rx="1.594" ry="1.589"/>
            <path fill="#A8A8A8" fill-rule="nonzero" d="M58.192 73.294s-14.82-2.958-18.778-6.9c-3.959-3.941-21.733-10.834-23.712-5.909-1.98 4.926-26.68 21.676-9.88 24.633 16.799 2.958 39.524 3.942 44.464 1.968 4.94-1.974 7.906-13.792 7.906-13.792z"/>
            <path fill="#000" fill-rule="nonzero" d="M5.822 83.284c16.799 2.958 39.524 3.942 44.464 1.968 3.76-1.502 6.376-8.733 7.41-12.063l.496.105s-2.966 11.824-7.906 13.792c-4.94 1.968-27.665.984-44.464-1.968-4.847-.856-6.236-2.858-5.71-5.391.408 1.63 2.101 2.923 5.71 3.557z" opacity=".2"/>
        </g>
        <g fill-rule="nonzero">
            <path fill="url(#q)" d="M40.736 0s5.076 6.649-2.344 16.622c-7.42 9.974-13.537 18.442-11.06 24.68 0 0 11.193-18.575 20.303-18.835 9.11-.26 3.125-11.303-6.899-22.467z" transform="translate(408 391)"/>
            <path fill="#000" d="M448.736 391c.442.64.791 1.34 1.036 2.08 8.891 10.42 13.621 20.145 5.081 20.393-7.958.23-17.504 14.428-19.793 18.019.075.277.166.55.272.816 0 0 11.193-18.575 20.303-18.835 9.11-.26 3.125-11.309-6.899-22.473z" opacity=".1"/>
            <path fill="#FFD037" d="M458.172 399.438c0 2.333-.26 4.231-.605 4.231s-.606-1.892-.606-4.23c0-2.34.327-1.21.648-1.21s.563-1.118.563 1.21z"/>
            <path fill="#FFD037" d="M461.413 402.225c-2.053 1.118-3.84 1.813-3.992 1.505-.151-.309 1.381-1.42 3.435-2.533 2.053-1.112 1.241-.302 1.399 0 .157.302 1.205-.09-.842 1.028z"/>
            <path fill="url(#q)" d="M13.929 0s-5.076 6.649 2.344 16.622c7.42 9.974 13.537 18.442 11.06 24.68 0 0-11.194-18.575-20.303-18.835-9.11-.26-3.125-11.303 6.899-22.467z" transform="translate(408 391)"/>
            <path fill="#000" d="M421.929 391a8.196 8.196 0 0 0-1.036 2.08c-8.891 10.42-13.622 20.145-5.082 20.393 7.959.23 17.504 14.428 19.794 18.019a7.69 7.69 0 0 1-.273.816s-11.193-18.575-20.302-18.835c-9.11-.26-3.125-11.309 6.899-22.473z" opacity=".1"/>
            <path fill="#FFD037" d="M412.492 399.438c0 2.333.26 4.231.606 4.231.345 0 .606-1.892.606-4.23 0-2.34-.328-1.21-.649-1.21-.32 0-.563-1.118-.563 1.21z"/>
            <path fill="#FFD037" d="M409.252 402.225c2.053 1.118 3.84 1.813 3.991 1.505.152-.309-1.38-1.42-3.434-2.533-2.053-1.112-1.242-.302-1.4 0-.157.302-1.21-.09.843 1.028z"/>
            <path fill="#A8A8A8" d="M414.11 431.431s14.19-.435 18.466-3.475c4.277-3.04 21.805-6.65 22.89-1.814 1.083 4.836 21.325 24.245 5.305 24.372-16.02.127-37.225-2.49-41.495-5.084-4.27-2.593-5.167-13.999-5.167-13.999z"/>
            <path fill="#000" d="M461.055 448.84c-16.02.126-37.225-2.491-41.495-5.084-3.252-1.977-4.548-9.067-4.978-12.337h-.473s.897 11.424 5.167 14.017 25.475 5.217 41.495 5.084c4.627-.037 6.22-1.68 6.135-4.11-.642 1.48-2.38 2.4-5.85 2.43z" opacity=".2"/>
        </g>
        <g fill-rule="nonzero" transform="translate(173 134)">
            <path fill="url(#r)" d="M185.756 45.675c-2.799-7.243-10.015-24.265-14.767-20.888-6.004 4.269 6.004 23.126 6.004 23.126.34 3.462-6.41 10.666-10.029 14.258v-.45a1.555 1.555 0 0 1-.157.391l-.302-.163c-.08.287-.226.552-.426.775 0-.488-.032-.775-.032-.775-.695 2.922-12.82 6.625-12.82 6.625h-.892c-3.37 0-12.14-.755-16.203-7.21a35.77 35.77 0 0 0-7.95-9.208 6.8 6.8 0 0 0-3.77-1.419c-11.227-.715-20.318-6.357-22.134-7.56l-.334-.229-.072.209a26.603 26.603 0 0 1-1.226-1.913l-.197-.358c5.542-2.762 9.051-8.381 9.078-14.537v-.339a11.072 11.072 0 0 0 1.508-5.576V18.48l2.563-2.264c1.173-1.035 2.385-2.128 2.982-3.553.24-.577.347-1.2.314-1.822a3.146 3.146 0 0 0-1.206-2.824c-1.966-1.347-5.243 0-6.666-1.874-.655-.846-.537-1.998-.858-2.994-.656-2.023-3.015-3.116-5.198-3.15-2.183-.032-4.273.756-6.37 1.348A37.667 37.667 0 0 1 83.026 2.61a8.924 8.924 0 0 0-3.716.13 5.093 5.093 0 0 0-3.015 3.482 8.125 8.125 0 0 0-.289 1.783 11.172 11.172 0 0 0-2.844 7.425v5.004a11.164 11.164 0 0 0 2.72 7.281 16.244 16.244 0 0 0 6.862 11.87v.396l.086.052a26.727 26.727 0 0 1-.721 4.6v-.331s-9.177 4.848-19.008 4.965H62.02a7.352 7.352 0 0 0-5.243 1.952c-2.91 2.72-8.01 7.021-11.143 7.021-.656 0-17.2 3.208-19.939 3.742l-5.119-4.978-.157.293-.302-.293c-.56.043-1.116.123-1.665.24-2.621-3.084-7.865-10.255-9.078-19.879 0 0 11.32-12.8 7.158-24.727C12.979 2.474 3.193 24.26.414 30.826a5.21 5.21 0 0 0-.17 3.611L9.44 63.862a13.709 13.709 0 0 0-.728 7.158h-.105l6.7 8.531s5.04 2.135 12.925 2.096a45.475 45.475 0 0 0 16.871-3.215h1.553l-.295.11h7.977l5.073 15.234c-.17 1.386-2.621 20.732-4.588 25.06-.583 1.445-.847 2.998-.773 4.554.103 2.99.594 5.953 1.462 8.817l4.443-.162-.17.345c-3.762 7.659-10.048 21.304-13.764 34.058l-6.47 13.015 4.85 58.37h.197l.374.058c.524.078 1.31.195 2.346.325l-.38.65-10.69 17.57s-7.623 15.494 9.242 12.572c0 0 6.233-1.796 8.776-12.364l11.09-10.327s.518-6.858-2.621-9.598c-.197-3.169-.695-12.422.072-14.647.924-2.694-3.933-33.675-3.933-33.675s17.553-36.147 28.184-37.045a5.866 5.866 0 0 1 2.301.299c8.737 2.824 19.323 23.797 22.436 30.323l.144.3v.058l.118.254v.072l.105.22v.06l.092.201v.046l.079.162v.065l.059.124v.052l.039.091V183.79l.033.078 1.383 40.637.137.072h.066l-.118.84-.603 4.196s7.623 15.943 7.157 17.96c-.465 2.018 5.08 10.106 12.932 7.861 7.853-2.245 3.18-14.901 3.18-14.901l-7.565-15.475-.334-.69a14.859 14.859 0 0 0 2.124-1.568s-2.307-16.612 0-20.204c2.307-3.592 3.002-19.984 3.002-19.984s-1.62-11.225-4.392-16.164L117.82 125.29c3.48 3.215 6.187 4.47 8.448 4.386h.374a5.676 5.676 0 0 0 2.845-.703 8.017 8.017 0 0 0 1.31-.917c.078-.066.15-.138.217-.215 3.231-2.694-3.697-13.249-7.623-19.521-3.782-6.052 1.429-22.496 1.822-23.72.35-.254.726-.472 1.12-.65a6.958 6.958 0 0 1 2.57-.553c3.763.13 8.39 2.278 14.119 3.358a67.08 67.08 0 0 0 12.053.93h.236c1.606 0 3.061-.032 4.241-.078a7.204 7.204 0 0 0 3.08-.826 9.288 9.288 0 0 0 2.19-1.757l10.055-11.277-.263.124a5.571 5.571 0 0 0 0-3.97l10.625-18.22a6.886 6.886 0 0 0 .518-6.006z"/>
            <path fill="#444176" d="M66.385 244.775L55.682 254.96c-2.451 10.411-8.475 12.175-8.475 12.175-16.275 2.876-8.92-12.364-8.92-12.364L48.61 237.43l1.271-2.141s7.36-2.213 12.264-.885c.619.168 1.19.475 1.671.898 3.074 2.648 2.57 9.474 2.57 9.474zM132.383 253.853c-7.584 2.212-12.932-5.753-12.454-7.75.479-1.998-6.928-17.687-6.928-17.687l.577-4.138.537-3.833 12.454.885 1.173 2.447 7.302 15.259s4.922 12.604-2.661 14.817z"/>
            <path fill="#000" d="M63.934 237.032c-1.173 1.997-10.684.989-15.318.364l1.272-2.14s7.36-2.213 12.263-.886c.62.169 1.191.476 1.672.898.065 1.08.111 1.764.111 1.764zM127.755 223.764c-6.377 4.216-13.168 1.028-14.19.5l.537-3.832 12.454.885 1.2 2.447z" opacity=".1"/>
            <path fill="#565387" d="M129.486 201.613c-2.229 3.54 0 19.925 0 19.925-7.361 6.644-16.052 1.77-16.052 1.77l-1.311-40.065s-14.492-32.985-24.75-32.1c-10.258.885-27.201 36.525-27.201 36.525s4.68 30.545 3.788 33.187c-.891 2.642 0 15.493 0 15.493-1.56 2.655-17.835 0-17.835 0l-4.68-57.556 6.214-12.845c3.572-12.572 9.642-26.029 13.273-33.577a201.913 201.913 0 0 1 3.009-6.045l11.863-2.453 38.508-7.926 13.837 50.001c2.674 4.868 4.234 15.936 4.234 15.936s-.669 16.19-2.897 19.73z"/>
            <g fill="#000" opacity=".1">
                <path d="M117 223.308l-1.312-40.065s-14.492-32.985-24.75-32.1c-.458.045-.91.145-1.343.3 10.002 3.299 22.528 31.8 22.528 31.8l1.31 40.065a15.83 15.83 0 0 0 8.869 1.607 15.86 15.86 0 0 1-5.303-1.607z"/>
                <path d="M49.665 236.368l-4.68-57.556 6.24-12.865c3.572-12.572 9.642-26.029 13.273-33.577a201.913 201.913 0 0 1 3.008-6.045l11.864-2.453 35.152-7.256-.19-.696-38.528 7.952-11.863 2.453s-1.206 2.29-3.009 6.045c-3.644 7.548-9.7 21.031-13.273 33.577l-6.24 12.839 4.68 57.556s8.888 1.451 14.158 1.132c-3.547-.191-7.082-.56-10.592-1.106z"/>
            </g>
            <path fill="#CED2DF" d="M22.549 58.065s-12.71.65-10.926 13.944l3.565.443 5.349-5.752 2.674-4.868v-1.106l-.662-2.661z"/>
            <path fill="#000" d="M22.549 58.065s-12.71.65-10.926 13.944l3.565.443 5.349-5.752 2.674-4.868v-1.106l-.662-2.661z" opacity=".1"/>
            <path fill="#CED2DF" d="M163.936 62.932s10.487 5.531 7.807 11.954l-3.343 1.301-4.457-2.434-.656-5.752.446-3.982.203-1.087z"/>
            <path fill="#000" d="M163.936 62.932s10.487 5.531 7.807 11.954l-3.343 1.301-4.457-2.434-.656-5.752.446-3.982.203-1.087z" opacity=".1"/>
            <rect width="36.568" height="27.447" x="73.858" y="5.818" fill="#88455E" rx="13.724"/>
            <path fill="#EC8C9C" d="M22.464 59.945L14.657 72.31l-.655-2.2L3.397 35.804a5.242 5.242 0 0 1 .164-3.56c2.68-6.468 12.132-27.98 15.56-17.927 4.011 11.713-6.915 24.35-6.915 24.35 1.245 10.255 7.046 17.686 9.327 20.263.577.67.93 1.015.93 1.015zM162.265 65.255s12.263-11.511 11.798-16.157c0 0-11.595-18.591-5.794-22.775 4.588-3.332 11.555 13.456 14.256 20.595a6.918 6.918 0 0 1-.466 5.856l-14.656 25.762-5.138-13.281zM82.883 33.162s2.229 14.166-4.234 19.482c-6.463 5.316 18.51 5.284 18.51 5.284l8.92-8.193s-10.257-9.52-7.137-16.6l-16.059.027z"/>
            <path fill="#000" d="M82.437 49.319s9.59 7.086 19.172-.885l15.607 32.1-.892 39.18s-32.333 16.6-45.71 6.422c-13.379-10.177-2.23-15.493-2.23-15.493l-3.12-30.103 3.343-19.482s6.017-9.299 6.47-9.299c.452 0 7.36-2.44 7.36-2.44z" opacity=".1"/>
            <path fill="#EBF1F6" d="M82.437 48.876s9.59 7.1 19.179-.885l15.606 32.1-.891 39.18s-32.334 16.6-45.711 6.423C57.242 115.517 68.39 110.2 68.39 110.2l-3.12-30.102 3.343-19.483s6.017-9.298 6.47-9.298c.452 0 7.353-2.44 7.353-2.44z"/>
            <path fill="#000" d="M82.437 45.564s-9.09 5.141-18.962 4.887a7.016 7.016 0 0 0-5.04 1.913c-2.812 2.681-7.734 6.924-10.782 6.924-.656 0-19.625 3.761-19.625 3.761l-5.014-4.978S15.542 72.57 11.977 71.905l6.469 8.414s12.263 5.31 28.315-1.106h9.367l4.902 15.051s-2.451 20.368-4.457 24.792c-2.005 4.425.656 13.06.656 13.06l17.612-.65s.891-8.635 2.228-9.761c1.337-1.126-4.68-39.18-4.68-39.18s-4.011-21.474 10.704-29.217l-.656-7.744z" opacity=".1"/>
            <path fill="#000" d="M75.798 123.898a57.41 57.41 0 0 0-1.383 7.984l-13.483.508a201.913 201.913 0 0 1 3.009-6.046l11.857-2.446zM22.464 59.945L14.657 72.31l-.655-2.2c2.864-2.824 6.22-8.726 7.557-11.185.55.676.905 1.021.905 1.021z" opacity=".1"/>
            <path fill="#CED2DF" d="M82.437 45.564s-9.543 5.141-19.407 4.887a7.016 7.016 0 0 0-5.04 1.913c-2.813 2.681-7.735 6.924-10.783 6.924-.655 0-19.624 3.761-19.624 3.761l-5.034-4.984S15.077 72.563 11.51 71.899l6.47 8.414s12.263 5.31 28.315-1.107h9.366l4.903 15.045s-2.451 20.368-4.457 24.792c-2.006 4.425.655 13.06.655 13.06l17.612-.65s.892-8.635 2.229-9.761c1.337-1.126-4.68-39.18-4.68-39.18s-4.011-21.474 10.704-29.217l-.19-7.73z"/>
            <path fill="#000" d="M101.616 44.224s9.098 6.884 21.243 7.678c1.329.083 2.6.572 3.638 1.4a35.018 35.018 0 0 1 7.675 9.11c4.903 7.97 16.944 7.086 16.944 7.086s11.706-3.65 12.374-6.507c0 0 .335 15.617 7.695 11.843l-9.68 11.075a6.849 6.849 0 0 1-4.884 2.336c-3.637.143-9.956.189-15.291-.84-8.03-1.548-13.824-5.31-18.058-1.99 0 0-5.571 17.263-1.783 23.464 3.789 6.202 10.487 16.6 7.36 19.261-3.126 2.662-6.914 2.434-13.154-3.982s-6.915-17.264-6.915-17.264l1.56-27.89s-6.017-21.03-11.798-25.234l3.074-9.546z" opacity=".1"/>
            <path fill="#000" d="M172.07 74.554l-9.707 11.12a6.82 6.82 0 0 1-2.34 1.731 6.838 6.838 0 0 1-2.53.593c-3.638.15-9.956.195-15.292-.84-7.511-1.45-13.07-4.835-17.225-2.55a6.1 6.1 0 0 0-.839.552s-5.571 17.264-1.783 23.465c3.789 6.202 10.488 16.6 7.361 19.262a7.216 7.216 0 0 1-1.743 1.125c-2.806 1.256-6.286.17-11.412-5.108-6.24-6.422-6.915-17.263-6.915-17.263l1.56-27.89s-6.017-21.031-11.798-25.235l2.55-9.077c1.756 1.184 10.526 6.747 21.367 7.457 1.33.083 2.6.571 3.638 1.399a35.044 35.044 0 0 1 7.675 9.11c4.903 7.971 16.944 7.086 16.944 7.086a65.346 65.346 0 0 0 8.436-3.331c1.71-.833 3.218-1.744 3.932-2.603.2-.225.347-.492.426-.781 0 0 .341 15.539 7.695 11.778z" opacity=".1"/>
            <path fill="#CED2DF" d="M171.625 74.775l-9.701 11.134a6.814 6.814 0 0 1-1.888 1.51 6.842 6.842 0 0 1-2.976.813c-3.637.15-9.956.195-15.291-.84-7.243-1.399-12.677-4.6-16.773-2.772a6.072 6.072 0 0 0-1.311.775s-5.571 17.263-1.783 23.465c3.789 6.201 10.487 16.6 7.36 19.26a7.736 7.736 0 0 1-1.31.905c-2.884 1.582-6.45.651-11.857-4.886-6.24-6.423-6.915-17.264-6.915-17.264l1.56-27.89s-6.017-21.031-11.798-25.235l2.674-9.52.321.222c1.757 1.184 10.527 6.748 21.368 7.457 1.329.083 2.6.571 3.638 1.399a35.044 35.044 0 0 1 7.675 9.11c4.903 7.971 16.943 7.086 16.943 7.086a65.346 65.346 0 0 0 8.436-3.331c2.025-1.029 3.677-2.154 3.933-3.182v.56c.196 2.687 1.18 14.55 7.695 11.224z"/>
            <path fill="#000" d="M99.138 33.493H82.752c.36 2.587.464 5.202.308 7.81a16.948 16.948 0 0 0 17.317 1.235c-1.573-2.889-2.53-6.168-1.239-9.045z" opacity=".1"/>
            <ellipse cx="92.695" cy="27.845" fill="#EC8C9C" rx="16.275" ry="16.157"/>
            <path fill="#000" d="M89.313 24.969c1.816-.215 3.631-.852 5.42-.495 1.626.326 3.01 1.439 4.635 1.777 3.133.65 6.043-1.64 8.41-3.774l5.112-4.62c1.134-1.022 2.3-2.096 2.884-3.501.583-1.406.38-3.254-.866-4.139-1.868-1.301-5.086 0-6.436-1.848-.61-.833-.518-1.952-.833-2.948-.655-1.99-2.91-3.077-5.02-3.103-2.11-.026-4.13.741-6.148 1.301a35.64 35.64 0 0 1-13.11 1.243 8.436 8.436 0 0 0-3.585.123 4.988 4.988 0 0 0-2.91 3.43c-1.01 3.54.715 9.246 2.445 12.415 1.73 3.17 6.548 4.562 10.002 4.139z" opacity=".1"/>
            <path fill="#88455E" d="M89.313 24.527c1.816-.215 3.631-.853 5.42-.495 1.626.325 3.01 1.438 4.635 1.776 3.133.651 6.043-1.64 8.41-3.774l5.112-4.62c1.134-1.021 2.3-2.095 2.884-3.5.583-1.406.38-3.254-.866-4.14-1.868-1.3-5.086 0-6.436-1.847-.61-.833-.518-1.952-.833-2.948-.655-1.991-2.91-3.078-5.02-3.104-2.11-.026-4.13.742-6.148 1.301A35.64 35.64 0 0 1 83.36 4.42a8.436 8.436 0 0 0-3.585.124 4.988 4.988 0 0 0-2.91 3.43c-1.01 3.54.715 9.246 2.445 12.415 1.73 3.169 6.548 4.529 10.002 4.139z"/>
            <path fill="#000" d="M60.926 94.368s3.565.443 5.348 2.655c1.783 2.213 4.903 2.876 4.903 2.876M28.815 65.144s2.91 6.449 1.114 7.1c-1.796.65-1.114 5.31-1.114 5.31" opacity=".1"/>
            <g fill="#000" opacity=".1">
                <path d="M29.818 62.932s18.949-3.761 19.604-3.761c3.055 0 7.97-4.243 10.783-6.924a6.896 6.896 0 0 1 3.054-1.685h-.243a7.016 7.016 0 0 0-5.04 1.913c-2.812 2.68-7.734 6.924-10.782 6.924-.531 0-12.657 2.388-17.58 3.357l.204.176zM82.464 46.495v-.827a47.555 47.555 0 0 1-14.525 4.614 45.145 45.145 0 0 0 14.525-3.787zM59.031 131.993s-2.674-8.635-.655-13.06c2.019-4.425 4.457-24.793 4.457-24.793l-4.89-15.05h-9.392l-.57.22h7.7l4.884 15.058s-2.451 20.368-4.457 24.793c-2.006 4.424.655 13.06.655 13.06l17.612-.651v-.137l-15.344.56z"/>
            </g>
            <g fill="#000" opacity=".1">
                <path d="M129.486 124.581a7.736 7.736 0 0 1-1.311.905c-2.884 1.58-6.45.65-11.857-4.887-4.956-5.095-6.398-13.015-6.784-16.015l-.131 2.291s.655 10.847 6.915 17.264c5.407 5.557 8.973 6.468 11.857 4.886a7.736 7.736 0 0 0 1.31-.904c.938-.8.99-2.304.499-4.178-.122.244-.291.46-.498.638zM168.472 75.107l-6.312 7.242a6.814 6.814 0 0 1-1.888 1.51 6.842 6.842 0 0 1-2.976.813c-3.637.15-9.956.196-15.291-.839-7.243-1.399-12.677-4.6-16.773-2.772a6.072 6.072 0 0 0-1.311.774s-3.599 11.154-3.048 18.748c.426-7.1 3.048-15.208 3.048-15.208a6.072 6.072 0 0 1 1.31-.774c4.104-1.829 9.531 1.373 16.774 2.772 5.335 1.028 11.647.983 15.291.84a6.842 6.842 0 0 0 2.976-.814 6.815 6.815 0 0 0 1.888-1.49l9.707-11.121a3.845 3.845 0 0 1-3.395.319z"/>
            </g>
        </g>
        <g fill-rule="nonzero" transform="translate(0 96)">
            <path fill="url(#s)" d="M92.46 140.934c.16.154.403.186.598.078a2.051 2.051 0 0 1-.598-.078z"/>
            <path fill="url(#t)" d="M159.448 32.81c-1.183-.34-2.873-.895-4.904-1.6a25.465 25.465 0 0 0 4.542-9.086l-.17.065c.058-.202.118-.398.17-.607-3.898 1.573-8.21-1.09-10.957-4.51-2.748-3.42-4.602-7.663-7.612-10.81a34.771 34.771 0 0 0-4.036-3.452c-.888-.653-1.84-1.39-2.925-1.423-1.755-.052-3.13 1.658-4.819 2.16a6.618 6.618 0 0 1-3.358-.124c-4.359-.992-8.546-2.826-12.996-3.309a15.33 15.33 0 0 0-7.053.79c-2.235.842-3.254 2.52-5.061 3.864-1.972 1.443-5.824 1.41-8.118 1.664a58.58 58.58 0 0 1-8.388.346c-1.61-.138-3.23-.079-4.824.177-3.333.724-6.008 3.355-8.506 5.874a4.35 4.35 0 0 0-1.407 2.187c-.032.24-.032.484 0 .724a4.677 4.677 0 0 0 .335 1.926 25.388 25.388 0 0 0 3.228 6.377c1.019 1.45 2.208 2.813 2.787 4.53.274.844.418 1.724.427 2.611a18.86 18.86 0 0 1-.296 2.807 35.059 35.059 0 0 1-2.162 7.473 13.51 13.51 0 0 0-1.262 3.917 6.197 6.197 0 0 0 0 .835c-.165 4.308 4.213 7.409 5.061 11.69.07.356.111.716.125 1.078-.092 2.67-1.624 5.28-3.885 6.318.197.078.401.144.605.209-.195.121-.397.23-.605.326.414.157.835.294 1.262.405a29.152 29.152 0 0 0-6.382 7.833C60.658 88.135 9.15 115.673 9.15 115.673l.763.431-.618.398c-4.457 2.944-14.915 11.527-5.462 22.382 0 0 7.381-11.566 12.554-16.494.23-.222.46-.424.658-.614.23.352.301.782.197 1.188l33.865-18.896S63.143 95.7 66.502 93.813a27.809 27.809 0 0 1 7.631-3.263l-.394.163a15.562 15.562 0 0 1 3.885-.548c5.995.091 12.489 4.451 14.625 21.716 2.866 23.12 1.538 27.29.618 27.858a1.7 1.7 0 0 1-.335-.058c.028.024.06.046.092.065a1.773 1.773 0 0 1-.368-.065.529.529 0 0 0 .5.117.47.47 0 0 0 .374-.046c.151.01.303.01.454 0 0 .214-.016.431-.046.653-.046 0-.27.124 0 .137a42.653 42.653 0 0 0 0 4.204c-2.978.163-5.956.34-8.546.496l.23-1.22.106-.549c2.287-.183 4.456-.849 4.713-2.69.558-4.046-5.035-6.207-9.794-6.474-4.76-.268-33.3 1.618-33.3 1.618s-4.28 5.503 9.294 7.18l1.256.653c5.317 3.01 12.528 8.55 15.986 11.28l.48.378-1.552 1.253c8.394 1.887 16.512 33.74 20.989 48.302 4.476 14.563 14.27 14.034 22.388 11.873 7.605-2.023 8.545-23.955 8.67-26.71v-.28l13.528 16.592 1.025 1.26c.395.205.785.396 1.17.574 10.242 4.837 21.554-4.438 18.34-15.012-3.254-10.66-8.302-26.423-11.668-33.087-2.82-5.581-6.461-14.85-8.67-20.653.287-.114.566-.247.835-.398 0 0-.053-.26-.138-.737l.138-.072s-3.287-16.788-3.431-28.72v-.653-.385c2.445-.555 3.996-.77 3.996-.77l.046-.522-.282.058 1.36-15.463s4.996-10.554 1.17-14.947a9.204 9.204 0 0 1-2.241-4.57c-.657-4.04 0-10.782 8.907-16.383 13.711-8.636 19.063-15.665 19.063-15.665s.236-5.04-8.158-7.494zm-27.233 10.73v-7.147c2.544-.124 5.14.17 7.697 0a19.602 19.602 0 0 0 3.714-.62l.618.424a67.79 67.79 0 0 1-12.03 7.343zM93.334 155.575c1.006.691 2.018 1.41 3.01 2.134a155.743 155.743 0 0 0 1.203 6.188 48.73 48.73 0 0 0-4.213-8.322z"/>
            <path fill="#FFBDC6" d="M115.065 149.7l-.591 3.192-.454 2.441-.828 4.465-8.033 5.58s-.723-.613-1.92-1.586c-3.286-2.689-10.207-8.146-15.289-11.096a17.147 17.147 0 0 0-4.2-1.926l31.315-1.07z"/>
            <path fill="#000" d="M115.065 149.7l-.591 3.192c-1.771.098-3.547.008-5.299-.268l-18.74.268a59.321 59.321 0 0 1-2.491-.202 17.147 17.147 0 0 0-4.2-1.926l31.321-1.064z" opacity=".1"/>
            <path fill="#7679B4" d="M109.175 152.102s9.374 1.593 9.906-2.395c.533-3.989-4.818-6.09-9.36-6.39-4.542-.3-31.867 1.605-31.867 1.605s-4.818 6.377 12.581 7.441l18.74-.261z"/>
            <path fill="#000" d="M115.065 149.7l-.591 3.192-.454 2.441-.828 4.465-8.033 5.58s-.723-.613-1.92-1.586c-3.286-2.689-10.207-8.146-15.289-11.096a17.147 17.147 0 0 0-4.2-1.926l31.315-1.07z" opacity=".1"/>
            <path fill="#000" d="M115.065 149.7l-.591 3.192c-1.771.098-3.547.008-5.299-.268l-18.74.268a59.321 59.321 0 0 1-2.491-.202 17.147 17.147 0 0 0-4.2-1.926l31.321-1.064z" opacity=".1"/>
            <path fill="#000" d="M109.175 152.102s9.374 1.593 9.906-2.395c.533-3.989-4.818-6.09-9.36-6.39-4.542-.3-31.867 1.605-31.867 1.605s-4.818 6.377 12.581 7.441l18.74-.261z" opacity=".1"/>
            <path fill="#A66477" d="M80.661 21.027h48.99v57.688h-48.99z"/>
            <path fill="#000" d="M80.661 21.027h48.99v57.688h-48.99z" opacity=".1"/>
            <path fill="#FFBDC6" d="M23.237 119.792c-.809.202-1.834.973-2.984 2.095-4.95 4.857-12.01 16.247-12.01 16.247-9.045-10.692.966-19.145 5.259-22.05a22.981 22.981 0 0 1 1.735-1.083l8 4.79zM114.533 39.239s2.412 16.749 10.707 20.737c8.296 3.988-10.707 11.43-10.707 11.43l-25.971-9.57s14.724-4.784 11.779-18.877l14.192-3.72zM86.715 139.994l-.592 3.192-.453 2.441-.829 4.465-8.032 5.58s-.723-.613-1.92-1.586c-3.286-2.689-10.208-8.146-15.289-11.096a17.147 17.147 0 0 0-4.2-1.926l31.315-1.07z"/>
            <path fill="#000" d="M86.715 139.994l-.592 3.192c-1.77.098-3.547.008-5.298-.268l-18.74.268a59.323 59.323 0 0 1-2.492-.203 17.147 17.147 0 0 0-4.2-1.925l31.322-1.064z" opacity=".1"/>
            <path fill="#7679B4" d="M80.799 142.39s9.373 1.592 9.906-2.396c.532-3.988-4.819-6.116-9.374-6.377-4.555-.261-31.86 1.592-31.86 1.592s-4.819 6.378 12.58 7.442l18.748-.262z"/>
            <path fill="#000" d="M85.643 145.633l-.828 4.465-8.033 5.581s-.723-.614-1.919-1.586l10.622-8.649.158.19z" opacity=".1"/>
            <path fill="#7679B4" d="M138.643 206.494a33.95 33.95 0 0 1-1.117-.568l-.98-1.24-12.936-16.318v.287c-.085 2.709-1.019 24.314-8.289 26.305-7.763 2.128-17.136 2.656-21.415-11.697-4.28-14.354-12.049-45.724-20.081-47.584l11.91-9.706s7.888 9.138 11.109 17.937c-.118-.561-5.567-25.829-1.071-30.293h39.084s6.021 17.062 10.176 25.521c3.22 6.567 8.052 22.089 11.174 32.591 3.09 10.392-7.704 19.53-17.564 14.765z"/>
            <path fill="#000" d="M137.552 138.395c-6.027 3.544-32.53 2.102-41.168 1.527l-2.347-.17c-.256 0 .04-.143.04-.143l.243-2.415 6.422-16.214 34.404-19.79c-.696 2.081-.933 5.273-.874 8.935.171 11.736 3.28 28.27 3.28 28.27z" opacity=".1"/>
            <path fill="#F2F1F2" d="M137.552 137.605c-6.027 3.544-32.53 2.102-41.168 1.527l-2.347-.17h-.388l.428-.11 2.116-.555 4.549-18.08 34.404-19.805c-.696 2.083-.933 5.274-.874 8.936.171 11.717 3.28 28.257 3.28 28.257z"/>
            <path fill="#000" d="M134.272 109.322c-6.994 1.6-22.388 6.306-28.304 17.624-3.944 7.558-7.23 10.803-9.578 12.16l-2.346-.17.04-.143 2.116-.555 4.549-18.08 34.404-19.804c-.71 2.14-.94 5.306-.88 8.968zM15.204 115.007l8.033 4.785c-.809.202-1.834.973-2.984 2.095-.658-1.958-4.878-4.647-6.784-5.796a22.981 22.981 0 0 1 1.735-1.084zM92.63 139.27a.482.482 0 0 1-.565-.072c.184.051.375.075.566.071z" opacity=".1"/>
            <path fill="#565388" d="M110.78 58.912s-7.231.796-12.319-4.517c0 0-21.416 6.116-28.646 19.94-7.23 13.826-56.49 40.94-56.49 40.94s8.545 4.785 7.762 7.18l32.393-18.61s11.51-8.243 14.724-10.103c3.215-1.86 20.884-13.29 24.63 17.813 3.747 31.102 0 27.414 0 27.414s5.358 1.86 13.147-13.054c7.79-14.915 31.86-18.342 31.86-18.342l1.315-15.666s4.779-10.391 1.118-14.725a9.176 9.176 0 0 1-2.143-4.498c-.612-3.981 0-10.62 8.545-16.135 13.146-8.485 18.209-15.417 18.209-15.417s.268-5.053-7.764-7.442c-8.033-2.389-40.695-15.417-40.695-15.417l-1.072 4.517 25.702 18.08s-12.851 10.366-23.007 10.105c-.04-.046 1.834 7.67-7.27 7.937z"/>
            <path fill="#000" d="M115.742 46.53a51.907 51.907 0 0 1-1.479-6.528l-14.191 3.747a15.43 15.43 0 0 1-.323 8.126c5.93 1.571 12.23-.537 15.993-5.352v.007z" opacity=".1"/>
            <ellipse cx="103.956" cy="36.445" fill="#FFBDC6" rx="15.263" ry="15.156"/>
            <path fill="#000" d="M112.068 1.974c4.233.477 8.262 2.285 12.43 3.264a6.181 6.181 0 0 0 3.214.124c1.617-.496 2.932-2.18 4.601-2.128 1.032 0 1.972.731 2.8 1.403a33.521 33.521 0 0 1 3.859 3.401c2.873 3.1 4.66 7.278 7.283 10.646 2.623 3.368 6.757 5.992 10.485 4.445-2.531 9.791-10.84 17.278-19.819 17.885-3.582.242-7.23-.496-10.72.548-.866.35-1.779.57-2.709.653-1.972 0-3.602-1.821-4.851-3.59-2.919-4.164-5.259-8.89-8.545-12.682-1.085-1.254-2.367-2.448-3.898-2.677-1.532-.228-2.945.496-4.312 1.201-2.255 1.162-4.562 2.363-6.31 4.348-1.75 1.984-2.853 4.954-2.13 7.643.387 1.45 1.281 2.755 1.314 4.275 0 2.415-2.116 4.184-2.544 6.528a25.02 25.02 0 0 0-.105 2.976c-.19 3.225-2.307 5.875-4.529 7.892-.86.79-1.82 1.631-2.07 2.852-.171.829 0 1.71-.112 2.552-.322 2.095-2.426 3.153-4.286 3.427-2.172.316-4.39.055-6.428-.757 2.629-1.22 4.2-4.7 3.595-7.833-.828-4.314-5.193-7.408-4.825-11.808a13.592 13.592 0 0 1 1.21-3.883 35.348 35.348 0 0 0 2.064-7.363c.43-1.94.387-3.954-.125-5.875-.559-1.69-1.696-3.035-2.669-4.464a25.265 25.265 0 0 1-3.09-6.286 4.378 4.378 0 0 1-.295-2.076 4.296 4.296 0 0 1 1.315-2.154c2.392-2.487 4.956-5.078 8.137-5.796 1.52-.252 3.067-.31 4.602-.176 2.68.084 5.362-.03 8.026-.34 2.195-.254 5.916-.222 7.77-1.645 1.728-1.305 2.707-2.97 4.844-3.805a14.272 14.272 0 0 1 6.823-.725zM120.554 158.473s8.834 17.277 6.159 22.597M136.573 204.686l-12.936-16.318v.287s-.75-5.274 1.715-3.499c5.397 3.877 14.034 10.235 14.218 11.332.184 1.096-1.748 5.496-2.997 8.198z" opacity=".1"/>
            <g fill="#000" opacity=".1">
                <path d="M118.266 50.929s1.091 4.49-2.438 6.736c5.436-.927 5.672-5.124 5.508-6.951a17.248 17.248 0 0 1-3.07.215zM16.545 114.211s49.26-27.114 56.49-40.94c5.187-9.92 17.683-15.867 24.322-18.439-4.845 1.613-21.146 7.794-27.273 19.504-7.23 13.825-56.49 40.94-56.49 40.94l2.951-1.065zM127.85 48.82c8.381-2.61 16.394-9.053 16.394-9.053l-25.702-18.08.585-2.48-2.458-.98-1.071 4.517 25.701 18.08a62.11 62.11 0 0 1-13.449 7.997zM128.014 110.086a64.048 64.048 0 0 1 10.077-2.526l.046-.516a68.563 68.563 0 0 0-10.123 3.042zM96.864 137.938h-.237a.482.482 0 0 1-.565-.072c.184.051.374.075.565.072.88-.51 2.202-4.478-.565-27.454C93.104 85.954 81.496 87.88 75.139 90.7c6.495-1.776 15.434-.242 17.978 20.848 2.767 22.976 1.446 26.951.565 27.454a5.944 5.944 0 0 0 3.182-1.064zM93.682 139.008c-.19.004-.381-.02-.565-.072a.482.482 0 0 0 .565.072z"/>
            </g>
            <path fill="#A66477" d="M112.068 1.459c4.233.476 8.262 2.284 12.43 3.263a6.181 6.181 0 0 0 3.214.124c1.617-.496 2.932-2.18 4.601-2.128 1.032 0 1.972.731 2.8 1.404a33.521 33.521 0 0 1 3.859 3.4c2.873 3.101 4.66 7.278 7.283 10.647 2.623 3.368 6.757 5.992 10.485 4.445-2.531 9.79-10.84 17.277-19.819 17.884-3.582.242-7.23-.496-10.72.549-.866.35-1.779.57-2.709.652-1.972 0-3.602-1.82-4.851-3.59-2.919-4.164-5.259-8.89-8.545-12.682-1.085-1.253-2.367-2.448-3.898-2.676-1.532-.229-2.945.496-4.312 1.2-2.255 1.163-4.562 2.364-6.31 4.348-1.75 1.984-2.853 4.954-2.13 7.643.387 1.45 1.281 2.755 1.314 4.276 0 2.415-2.116 4.184-2.544 6.527a25.02 25.02 0 0 0-.105 2.976c-.19 3.225-2.307 5.875-4.529 7.892-.86.79-1.82 1.632-2.07 2.852-.171.83 0 1.71-.112 2.553-.322 2.095-2.426 3.152-4.286 3.426-2.172.317-4.39.055-6.428-.757 2.629-1.22 4.2-4.7 3.595-7.833-.828-4.314-5.193-7.408-4.825-11.807a13.592 13.592 0 0 1 1.21-3.884A35.348 35.348 0 0 0 76.73 34.8c.43-1.94.387-3.954-.125-5.874-.559-1.691-1.696-3.036-2.669-4.465a25.266 25.266 0 0 1-3.09-6.286 4.378 4.378 0 0 1-.295-2.076 4.296 4.296 0 0 1 1.315-2.154c2.392-2.487 4.956-5.078 8.137-5.796 1.52-.251 3.067-.31 4.602-.176 2.68.085 5.362-.029 8.026-.34 2.195-.254 5.916-.221 7.77-1.644 1.728-1.306 2.707-2.97 4.844-3.806a14.272 14.272 0 0 1 6.823-.724z"/>
        </g>
        <g fill-rule="nonzero" transform="translate(341 82)">
            <path fill="url(#u)" d="M137.681 16.97v-.241c0-.078 0-.17-.039-.248h-.104v-.54c-.26-6.029-8.587-18.861-11.926-15.115-2.924 3.291 1.487 11.616 3.735 15.363l.201.338-.11-.072s-9.296 27.76-10.394 28.84c-1.098 1.08-8.75 22.907-18.839 25.366-1.994.475-3.65.904-5.04 1.3l.11-.37c.65-2.127 1.449-4.137 1.773-6.504.325-2.368 0-5.236-1.195-6.387-.585-.573-1.3-.65-1.78-1.561a7.214 7.214 0 0 1-.494-2.504l-.857-10.524.598-.182c3.611-1.158 7.113-3.903 7.522-7.597a3.894 3.894 0 0 1-.383.124c.047-.215.084-.432.11-.65-3.033 1.196-5.846-1.952-8.77-3.363-4.813-2.361-10.315-.137-15.285.403-5.632.618-10.978-1.724-16.734-1.301-3.13.24-6.613 2.368-6.444 5.457.098 1.698 1.3 3.135 1.793 4.761 1.247 3.935-1.527 7.883-3.956 11.24-1.598 2.204-3.131 4.89-3.404 7.479-5.593-5.854-11.641-12.618-12.343-15.161L19.245 17.56s-.384.41-1 1.015c-.098-.3-.215-.65-.345-1.002C15.834 11.78 9.988-2.264 2.576.312c-7.412 2.576 3.072 16.97 7.633 22.706l.65.794a2.05 2.05 0 0 1-1.157-.052l18.046 30.992s3.28 5.932 6.288 7.545c0 0 22.418 28.3 22.691 33.958.273 5.658 10.082 20.754 10.082 20.754s3.28 24.528-2.462 28.84h.948c-.272.266-.552.56-.838.878-4.254 4.722-9.692 14.842-2.26 32.052 10.933 25.366 12.576 35.305 12.576 35.305s-20.787 1.08-24.88 1.886c-3.625.715-17.715 1.216-20.937 1.3-1.15-1.34-4.547-4.305-9.133 0-5.743 5.393-9.842 23.416-9.842 23.416s-2.189 14.556 5.197 10.777c0 0 8.75-12.13 11.206-12.67 1.221-.267 2.514-2.068 3.501-3.805l.052.033c.059 0 .3-.13.689-.287 1.819-.722 6.827-2.458 10.777-1.593 2.163.475 11.44.585 21.164.56-2.196 5.268-6.132 18.861-6.132 18.861s-1.644 12.677 3.813 12.157c3.898-.384 9.874-10.355 12.992-16.046 2.26-1.659 8.737-7.604 13.525-7.155l32.26-12.397s7.652-4.312 3.553-18.595c-3.248-11.356-12.492-34.602-16.143-43.662l-.11-.234c-.884-2.192-1.416-3.493-1.416-3.493a53.513 53.513 0 0 1-2.93-12.82c-.033-.345-.059-.696-.085-1.04a5.74 5.74 0 0 0 1.267-.735s-3.008-30.453 0-33.692l.052-.058v-.04l.052-.065.117-.15.143-.181c.162-.215.357-.482.578-.807 1.722-2.523 4.93-8.286 4.008-15.09a16.537 16.537 0 0 0-.143-.89 18.597 18.597 0 0 0-1.87-5.282c-.13-.69-.21-1.387-.241-2.088V88.82 88.353c0-.307.052-.651.097-.937v-.117c0-.118.02-.237.059-.358v-.15c0-.117.052-.234.078-.351v-.124c.039-.156.078-.312.13-.468v-.078c.039-.13.082-.258.13-.384l.058-.15.13-.311.065-.157c.052-.117.11-.234.169-.35l.045-.098c.078-.143.16-.284.247-.423l.072-.11.214-.306.104-.137.227-.273.104-.117c.117-.124.234-.247.364-.364 3.553-3.253 19.41-27.22 19.41-27.22s3.827-5.392 3.827-8.891c.214-.079 6.976-22.648 6.294-29.51zM95.112 218.434c-.39-3.694-.779-8.273-1.136-13.008l6.184 9.652s-.585 2.94-5.048 3.356z"/>
            <path fill="#493545" d="M30.632 216.393s-3.702-5.854-9.263-.527c-5.56 5.327-9.523 23.044-9.523 23.044s-2.118 14.31 5.028 10.595c0 0 8.445-11.922 10.848-12.449 2.404-.526 5.028-7.154 5.028-7.154l-2.118-13.51zM70.317 230.695s-5.028-2.387-6.613-.526c-1.585 1.86-6.88 20.397-6.88 20.397s-1.584 12.188 3.703 11.655c5.288-.533 14.552-19.617 14.552-19.617l-4.762-11.909z"/>
            <path fill="#000" d="M70.317 230.695s-5.028-2.387-6.613-.526c-1.585 1.86-6.88 20.397-6.88 20.397s-1.584 12.188 3.703 11.655c5.288-.533 14.552-19.617 14.552-19.617l-4.762-11.909z" opacity=".05"/>
            <path fill="#3E3D77" d="M87.778 194.669l11.375 17.75s-.792 3.974-7.672 3.18l-23.548 14.836s-2.046 18.062 4.495 16.423c1.059-.267 8.445-7.948 13.759-7.415l31.227-12.188s7.405-4.241 3.436-18.277c-3.97-14.036-17.091-46.583-17.091-46.583l-20.742 11.617 4.761 20.657z"/>
            <path fill="#000" d="M87.778 194.669l11.375 17.75s-.792 3.974-7.672 3.18l-23.548 14.836s-2.046 18.062 4.495 16.423c1.059-.267 8.445-7.948 13.759-7.415l31.227-12.188s7.405-4.241 3.436-18.277c-3.97-14.036-17.091-46.583-17.091-46.583l-20.742 11.617 4.761 20.657z" opacity=".05"/>
            <path fill="#3E3D77" d="M94.924 220.894c1.585 10.068-7.405 10.862-7.405 10.862s-40.484.793-45.246-.267c-4.761-1.06-11.114 1.854-11.114 1.854-8.205-5.035-1.586-17.484-1.586-17.484s16.936-.526 20.905-1.3c3.969-.774 24.074-1.874 24.074-1.874s-1.585-9.801-12.173-34.7c-7.191-16.91-1.95-26.861 2.189-31.499a17.43 17.43 0 0 1 3.631-3.2l32.546 1.587a42.329 42.329 0 0 0 .181 4.924 52.488 52.488 0 0 0 4.32 16.26c-1.851 0-13.758 11.129-13.758 11.129s1.845 33.646 3.436 43.708z"/>
            <path fill="#000" d="M31.951 216.92s16.935-.527 20.904-1.301c3.97-.774 24.075-1.854 24.075-1.854s-1.585-9.802-12.174-34.7c-7.19-16.91-1.949-26.862 2.19-31.5a17.43 17.43 0 0 1 3.63-3.2l30.156 1.47v-.942l-32.546-1.587a17.43 17.43 0 0 0-3.631 3.2c-4.119 4.644-9.38 14.589-2.19 31.5 10.615 24.878 12.187 34.68 12.187 34.68s-20.137 1.06-24.074 1.853c-3.937.794-20.905 1.3-20.905 1.3s-6.613 12.456 1.586 17.51c0 0 .246-.117.65-.286-5.451-5.613.142-16.143.142-16.143z" opacity=".1"/>
            <path fill="#493545" d="M63.964 46.056h16.403v41.587H63.964z"/>
            <path fill="#000" d="M63.964 46.056h16.403v41.587H63.964z" opacity=".1"/>
            <path fill="#493545" d="M89.747 39.955c.565.156 1.201.175 1.585.956a5.86 5.86 0 0 1 .383 1.951l1.033 12.852c.014.842.177 1.674.48 2.459.436.872 1.157.976 1.722 1.535 1.137 1.132 1.468 3.967 1.156 6.276-.311 2.31-1.097 4.287-1.715 6.375-.883 2.991-1.468 6.354-2.708 8.878-1.241 2.523-3.495 3.902-4.95 1.782-1.456-2.12-1.26-6.4-1.534-9.906-.454-5.854-2.734-10.901-2.89-16.794-.13-4.767 1.15-9.216 1.949-13.736.571-3.103.604-6.869 1.435-9.66.695 3.318 2.02 6.473 4.054 7.032z"/>
            <path fill="#000" d="M89.747 39.955c.565.156 1.201.175 1.585.956a5.86 5.86 0 0 1 .383 1.951l1.033 12.852c.014.842.177 1.674.48 2.459.436.872 1.157.976 1.722 1.535 1.137 1.132 1.468 3.967 1.156 6.276-.311 2.31-1.097 4.287-1.715 6.375-.883 2.991-1.468 6.354-2.708 8.878-1.241 2.523-3.495 3.902-4.95 1.782-1.456-2.12-1.26-6.4-1.534-9.906-.454-5.854-2.734-10.901-2.89-16.794-.13-4.767 1.15-9.216 1.949-13.736.571-3.103.604-6.869 1.435-9.66.695 3.318 2.02 6.473 4.054 7.032z" opacity=".1"/>
            <path fill="#C77485" d="M20.31 21.685l-6.347 5.3s-.753-.884-1.877-2.315C7.676 19.031-2.465 4.885 4.7 2.354c7.165-2.53 12.83 11.266 14.83 16.963.507 1.444.78 2.368.78 2.368zM134.875 19.831c-2.644 3.974-6.347 0-6.347 0s-.474-.709-1.143-1.854c-2.176-3.687-6.444-11.863-3.618-15.102 3.248-3.701 11.296 8.93 11.543 14.855a3.529 3.529 0 0 1-.435 2.101zM69.784 62.745s5.295 16.957 3.703 21.984c-1.592 5.028 11.381 10.882 11.381 10.882h14.818s5.294-10.862 3.969-14.043c-1.325-3.18-12.7-5.56-12.7-5.56s-6.613 0-6.347-17.75l-14.824 4.487z"/>
            <path fill="#000" d="M20.31 21.685l-6.347 5.3s-.753-.884-1.877-2.315c2.306-.41 5.885-3.779 7.451-5.353.5 1.444.773 2.368.773 2.368zM134.875 19.831c-2.644 3.974-6.347 0-6.347 0s-.474-.709-1.143-1.854l.084-.266c1.715 1.229 7.049.182 7.841 0a3.529 3.529 0 0 1-.435 2.12zM100.913 149.79c-8.185 3.74-34.78-2.92-36.378-3.317a17.43 17.43 0 0 1 3.632-3.2l32.545 1.587a42.329 42.329 0 0 0 .201 4.93z" opacity=".1"/>
            <path fill="#FFAAC4" d="M73.227 77.315s-6.347 2.12-15.344-6.095c0 0-20.137-19.87-21.437-24.637l-15.59-27.318s-6.613 7.155-9.264 6.095l17.462 30.465s3.176 5.854 6.087 7.415c0 0 21.697 27.818 21.956 33.379.26 5.561 9.777 20.455 9.777 20.455s3.177 24.105-2.384 28.346c0 0 30.954 7.948 37.567 2.647 0 0-2.91-29.92 0-33.113 0 0 8.997-10.595 2.91-22.25 0 0-1.3-6.355 2.118-9.536 3.417-3.18 18.786-26.758 18.786-26.758s3.703-5.3 3.703-8.741c0 0 6.88-23.311 5.847-29.405 0 0-6.087 1.3-7.939 0 0 0-8.997 27.317-10.055 28.345-1.06 1.027-8.445 22.517-18.254 24.904-9.81 2.387-11.375 3.44-11.375 3.44s19.046 11.923 9.79 17.217c-9.257 5.294-24.36-14.855-24.36-14.855z"/>
            <path fill="#000" d="M85.251 66.823a50.684 50.684 0 0 1-.383-7.525L70.051 63.8c.39.988.7 2.006.929 3.044 1.695.748 3.982 2.517 5.95 2.517a13.48 13.48 0 0 0 8.321-2.537z" opacity=".1"/>
            <ellipse cx="76.664" cy="54.797" fill="#C77485" rx="13.759" ry="13.776"/>
            <path fill="#000" d="M60.293 33.574c-3.027.234-6.405 2.329-6.236 5.366.091 1.672 1.234 3.083 1.735 4.683 1.201 3.87-1.475 7.753-3.827 11.057-2.351 3.304-4.547 7.682-2.533 11.18a27.567 27.567 0 0 0 1.858 2.427c2.488 3.363 2.455 7.902 3.56 11.942 2.928 10.729 13.72 17.297 24.58 14.959a13.11 13.11 0 0 1-2.76-8.859c.15-2.315.897-4.735 0-6.874-1.156-2.752-4.547-3.838-6.295-6.244-1.747-2.407-1.63-5.744-.786-8.612.845-2.868 2.306-5.528 3.008-8.455.173-.854.39-1.699.65-2.53 1.22-3.474 4.872-5.49 8.445-6.355 3.572-.865 7.327-.917 10.816-2.055 3.488-1.139 6.879-3.805 7.282-7.467-2.937 1.177-5.658-1.893-8.49-3.304-4.665-2.316-9.985-.137-14.792.397-5.477.611-10.673-1.659-16.215-1.256z" opacity=".1"/>
            <path fill="#493545" d="M60.027 33.047c-3.027.235-6.405 2.329-6.236 5.366.09 1.672 1.234 3.083 1.734 4.683 1.202 3.87-1.474 7.753-3.826 11.057-2.351 3.305-4.547 7.682-2.533 11.181a27.567 27.567 0 0 0 1.858 2.426c2.488 3.363 2.455 7.903 3.56 11.942 2.928 10.729 13.72 17.297 24.58 14.96a13.11 13.11 0 0 1-2.76-8.86c.15-2.315.896-4.734 0-6.874-1.157-2.752-4.548-3.838-6.295-6.244-1.747-2.407-1.63-5.743-.786-8.612.845-2.868 2.306-5.528 3.008-8.455.173-.854.39-1.699.65-2.53 1.22-3.473 4.871-5.49 8.444-6.355 3.573-.865 7.328-.917 10.816-2.055 3.489-1.138 6.88-3.805 7.282-7.467-2.936 1.177-5.658-1.893-8.49-3.304-4.664-2.315-9.985-.137-14.792.397-5.463.605-10.64-1.691-16.214-1.256z"/>
            <path fill="#000" d="M90.292 85.4s5.51 4.923 6.594 7.095M102.213 114.805s-6.88 0-10.056.793c-3.177.794-10.849 0-10.849 0" opacity=".1"/>
            <g fill="#000" opacity=".1">
                <path d="M97.568 92.15a6.608 6.608 0 0 1-1.903.73 7.268 7.268 0 0 0 5.08-.73c9.263-5.3-9.79-17.216-9.79-17.216h-3.177s19.053 11.922 9.79 17.217zM135.466 18.725c0-.169-.039-.331-.065-.481a31.041 31.041 0 0 1-3.293.5c1.116.124 2.243.117 3.358-.019zM67.673 145.4c5.554-4.24 2.384-28.345 2.384-28.345s-9.523-14.836-9.79-20.397c-.266-5.561-21.956-33.38-21.956-33.38-2.91-1.586-6.087-7.414-6.087-7.414S14.23 26.459 11.586 25.399l17.461 30.465s3.177 5.854 6.087 7.415c0 0 21.697 27.818 21.957 33.379.26 5.561 9.783 20.416 9.783 20.416s3.177 24.105-2.384 28.346c0 0 19.027 4.884 30.434 4.442-11.433-.403-27.251-4.462-27.251-4.462zM73.383 77.523l-.156-.202a4.179 4.179 0 0 1-.552.124c.247.032.48.058.708.078z"/>
            </g>
            <g fill="#000" opacity=".1">
                <path d="M135.401 18.212l-.162.032c-.28 8.137-5.918 27.252-5.918 27.252 0 3.441-3.703 8.742-3.703 8.742s-15.344 23.577-18.787 26.758c-3.443 3.18-2.117 9.535-2.117 9.535l.032.065c-.104-2.14.156-5.457 2.345-7.486 3.437-3.18 18.787-26.758 18.787-26.758s3.703-5.301 3.703-8.742c0 .04 6.88-23.272 5.82-29.398zM101.803 112.814c.397 2.25.13-.13.267 2.12 0 0 6.496-7.629 4.722-17.06.533 8.43-4.989 14.94-4.989 14.94z"/>
            </g>
        </g>
    </g>
</svg>
