<svg xmlns="http://www.w3.org/2000/svg" width="247" height="200" viewBox="0 0 247 200">
    <defs>
        <linearGradient id="a" x1="50%" x2="50%" y1="0%" y2="95.101%">
            <stop offset="0%" stop-color="#789CF7"/>
            <stop offset="100%" stop-color="#E4E9FF"/>
        </linearGradient>
        <linearGradient id="b" x1="4.162%" y1="6.226%" y2="97.749%">
            <stop offset="0%" stop-color="#C0D2FF"/>
            <stop offset="100%" stop-color="#0030FF"/>
        </linearGradient>
        <linearGradient id="c" x1="4.162%" y1="31.419%" y2="70.268%">
            <stop offset="0%" stop-color="#C0D2FF"/>
            <stop offset="100%" stop-color="#0030FF"/>
        </linearGradient>
        <linearGradient id="d" x1="4.162%" y1="30.504%" y2="71.266%">
            <stop offset="0%" stop-color="#C0D2FF"/>
            <stop offset="100%" stop-color="#0030FF"/>
        </linearGradient>
        <linearGradient id="e" x1="4.162%" y1="31.534%" y2="70.143%">
            <stop offset="0%" stop-color="#C0D2FF"/>
            <stop offset="100%" stop-color="#0030FF"/>
        </linearGradient>
        <linearGradient id="f" x1="31.669%" x2="69.996%" y1="4.162%" y2="100%">
            <stop offset="0%" stop-color="#C0D2FF"/>
            <stop offset="100%" stop-color="#0030FF"/>
        </linearGradient>
        <linearGradient id="g" x1="30.703%" x2="71.049%" y1="4.162%" y2="100%">
            <stop offset="0%" stop-color="#C0D2FF"/>
            <stop offset="100%" stop-color="#0030FF"/>
        </linearGradient>
        <linearGradient id="h" x1="29.491%" x2="72.372%" y1="4.162%" y2="100%">
            <stop offset="0%" stop-color="#C0D2FF"/>
            <stop offset="100%" stop-color="#0030FF"/>
        </linearGradient>
        <linearGradient id="i" x1="4.162%" y1="20.181%" y2="82.527%">
            <stop offset="0%" stop-color="#C0D2FF"/>
            <stop offset="100%" stop-color="#0030FF"/>
        </linearGradient>
        <linearGradient id="j" x1="4.162%" y1="31.704%" y2="69.957%">
            <stop offset="0%" stop-color="#C0D2FF"/>
            <stop offset="100%" stop-color="#0030FF"/>
        </linearGradient>
        <linearGradient id="k" x1="4.162%" y1="31.11%" y2="70.605%">
            <stop offset="0%" stop-color="#C0D2FF"/>
            <stop offset="100%" stop-color="#0030FF"/>
        </linearGradient>
        <linearGradient id="l" x1="28.879%" x2="73.039%" y1="4.162%" y2="100%">
            <stop offset="0%" stop-color="#C0D2FF"/>
            <stop offset="100%" stop-color="#0030FF"/>
        </linearGradient>
        <linearGradient id="m" x1="10.41%" x2="93.185%" y1="4.162%" y2="100%">
            <stop offset="0%" stop-color="#C0D2FF"/>
            <stop offset="100%" stop-color="#0030FF"/>
        </linearGradient>
        <linearGradient id="n" x1="29.342%" x2="72.533%" y1="4.162%" y2="100%">
            <stop offset="0%" stop-color="#C0D2FF"/>
            <stop offset="100%" stop-color="#0030FF"/>
        </linearGradient>
        <linearGradient id="o" x1="31.178%" x2="70.531%" y1="4.162%" y2="100%">
            <stop offset="0%" stop-color="#C0D2FF"/>
            <stop offset="100%" stop-color="#0030FF"/>
        </linearGradient>
        <linearGradient id="p" x1="11.289%" x2="92.226%" y1="4.162%" y2="100%">
            <stop offset="0%" stop-color="#C0D2FF"/>
            <stop offset="100%" stop-color="#0030FF"/>
        </linearGradient>
        <linearGradient id="q" x1="4.162%" y1="29.831%" y2="72%">
            <stop offset="0%" stop-color="#C0D2FF"/>
            <stop offset="100%" stop-color="#0030FF"/>
        </linearGradient>
        <linearGradient id="r" x1="4.162%" y1="31.736%" y2="69.923%">
            <stop offset="0%" stop-color="#C0D2FF"/>
            <stop offset="100%" stop-color="#0030FF"/>
        </linearGradient>
        <linearGradient id="s" x1="4.162%" y1="31.228%" y2="70.476%">
            <stop offset="0%" stop-color="#C0D2FF"/>
            <stop offset="100%" stop-color="#0030FF"/>
        </linearGradient>
        <linearGradient id="t" x1="32.596%" x2="68.985%" y1="4.162%" y2="100%">
            <stop offset="0%" stop-color="#C0D2FF"/>
            <stop offset="100%" stop-color="#0030FF"/>
        </linearGradient>
        <linearGradient id="u" x1="50%" x2="50%" y1="0%" y2="95.101%">
            <stop offset="0%" stop-color="#789CF7"/>
            <stop offset="100%" stop-color="#E4E9FF"/>
        </linearGradient>
        <linearGradient id="v" x1="50%" x2="50%" y1="100%" y2="0%">
            <stop offset="0%" stop-color="#9E9AB4"/>
            <stop offset="100%" stop-color="#65617D"/>
        </linearGradient>
        <linearGradient id="w" x1="49.994%" x2="49.994%" y1="100%" y2="0%">
            <stop offset="0%" stop-color="gray" stop-opacity=".25"/>
            <stop offset="54%" stop-color="gray" stop-opacity=".12"/>
            <stop offset="100%" stop-color="gray" stop-opacity=".1"/>
        </linearGradient>
        <linearGradient id="x" x1="50%" x2="50%" y1="0%" y2="100%">
            <stop offset="0%" stop-color="#9D9CB5"/>
            <stop offset="100%" stop-color="#CCCBDB"/>
        </linearGradient>
        <linearGradient id="y" x1="49.994%" x2="49.994%" y1="100.005%" y2="0%">
            <stop offset="0%" stop-color="gray" stop-opacity=".25"/>
            <stop offset="54%" stop-color="gray" stop-opacity=".12"/>
            <stop offset="100%" stop-color="gray" stop-opacity=".1"/>
        </linearGradient>
        <linearGradient id="z" x1="50%" x2="50%" y1="0%" y2="100%">
            <stop offset="0%" stop-color="#9D9CB5"/>
            <stop offset="100%" stop-color="#CCCBDB"/>
        </linearGradient>
        <linearGradient id="A" x1="50.003%" x2="50.003%" y1="100%" y2="-.018%">
            <stop offset="0%" stop-color="gray" stop-opacity=".25"/>
            <stop offset="54%" stop-color="gray" stop-opacity=".12"/>
            <stop offset="100%" stop-color="gray" stop-opacity=".1"/>
        </linearGradient>
        <linearGradient id="B" x1="50%" x2="50%" y1="0%" y2="100%">
            <stop offset="0%" stop-color="#9D9CB5"/>
            <stop offset="100%" stop-color="#CCCBDB"/>
        </linearGradient>
        <linearGradient id="C" x1="49.998%" x2="49.998%" y1="100%" y2="0%">
            <stop offset="0%" stop-color="gray" stop-opacity=".25"/>
            <stop offset="54%" stop-color="gray" stop-opacity=".12"/>
            <stop offset="100%" stop-color="gray" stop-opacity=".1"/>
        </linearGradient>
        <linearGradient id="D" x1="50%" x2="50%" y1="0%" y2="100%">
            <stop offset="0%" stop-color="#9D9CB5"/>
            <stop offset="100%" stop-color="#CCCBDB"/>
        </linearGradient>
        <linearGradient id="E" x1="50.002%" x2="50.002%" y1="99.996%" y2=".002%">
            <stop offset="0%" stop-color="gray" stop-opacity=".25"/>
            <stop offset="54%" stop-color="gray" stop-opacity=".12"/>
            <stop offset="100%" stop-color="gray" stop-opacity=".1"/>
        </linearGradient>
        <linearGradient id="F" x1="50%" x2="50%" y1="0%" y2="100%">
            <stop offset="0%" stop-color="#9D9CB5"/>
            <stop offset="100%" stop-color="#CCCBDB"/>
        </linearGradient>
        <linearGradient id="G" x1="50%" x2="50%" y1="100.025%" y2="0%">
            <stop offset="0%" stop-color="gray" stop-opacity=".25"/>
            <stop offset="54%" stop-color="gray" stop-opacity=".12"/>
            <stop offset="100%" stop-color="gray" stop-opacity=".1"/>
        </linearGradient>
        <linearGradient id="H" x1="50%" x2="50%" y1="0%" y2="100%">
            <stop offset="0%" stop-color="#9D9CB5"/>
            <stop offset="100%" stop-color="#CCCBDB"/>
        </linearGradient>
        <linearGradient id="I" x1="4.162%" x2="4.162%" y1="-178.692%" y2="100%">
            <stop offset="0%" stop-color="#C0D2FF"/>
            <stop offset="100%" stop-color="#0030FF"/>
        </linearGradient>
        <linearGradient id="J" x1="4.162%" x2="4.162%" y1="-178.692%" y2="100%">
            <stop offset="0%" stop-color="#C0D2FF"/>
            <stop offset="100%" stop-color="#0030FF"/>
        </linearGradient>
        <linearGradient id="K" x1="49.969%" x2="49.969%" y1="100%" y2="-.017%">
            <stop offset="0%" stop-color="gray" stop-opacity=".25"/>
            <stop offset="54%" stop-color="gray" stop-opacity=".12"/>
            <stop offset="100%" stop-color="gray" stop-opacity=".1"/>
        </linearGradient>
    </defs>
    <g fill="none" fill-rule="evenodd">
        <ellipse cx="149.399" cy="195.788" fill="url(#a)" fill-rule="nonzero" opacity=".116" rx="25.243" ry="4.208"/>
        <path fill="#1A3CFA" fill-rule="nonzero" d="M148.34 24.731c-10.335 8.72-23.742 8.157-35.479 3.62-11.736-4.536-22.547-12.615-33.99-18.356A95.799 95.799 0 0 0 49.008.615c-14.585-2.012-30.877.44-41.041 14.536C-3.352 30.85-2.481 59.164 9.76 73.583c6.226 7.33 14.38 10.927 21.492 16.652 7.112 5.724 13.69 15.226 13.086 26.274-.56 10.227-7.081 18.079-13.823 23.01-5.214 3.803-11.635 7.96-12.274 15.841-.61 7.627 4.79 13.602 9.947 17.002 16.816 11.087 37.531 10.98 54.29-.28 5.98-4.017 11.473-9.358 17.742-12.49 16.457-8.218 34.595.053 52.02 3.08 14.75 2.562 29.877 1.235 44.247-3.881 8.63-3.071 17.293-7.767 23.357-16.516 4.372-6.309 7.096-14.294 9.652-22.179a985.64 985.64 0 0 0 7.865-25.402c1.509-5.119 2.996-10.331 3.385-15.812.708-9.924-2.27-19.723-6.324-28.11-9.614-19.9-25.823-33.883-43.369-37.436-17.545-3.552-36.136 3.386-49.751 18.566" opacity=".1"/>
        <path fill="#4363EC" fill-rule="nonzero" d="M118.257 47.908v-1.561H93.52c-1.138 0-.444 1.57-.444 1.57h-13.44v35.02h59.011V47.908h-20.39z" opacity=".2"/>
        <path stroke="#535461" stroke-width="1.237" d="M198.14 102.1s7.438-13.106 18.648-16.882a22.907 22.907 0 0 0 11.611-8.64 38.153 38.153 0 0 0 3.425-6.129"/>
        <path fill="url(#b)" fill-rule="nonzero" d="M45.536 18.155c-1.275 1.233-7.219 2.508-7.219 2.508s1.457-5.87 2.734-7.105a3.232 3.232 0 0 1 4.553.068 3.191 3.191 0 0 1-.068 4.53z" transform="translate(193.323 49.87)"/>
        <path fill="url(#c)" fill-rule="nonzero" d="M42.174 28.773c-1.744.345-7.43-1.799-7.43-1.799s4.432-4.139 6.177-4.484a3.23 3.23 0 0 1 3.048 1.03 3.19 3.19 0 0 1 .627 3.142 3.214 3.214 0 0 1-2.422 2.111z" transform="translate(193.323 49.87)"/>
        <path fill="url(#d)" fill-rule="nonzero" d="M29.93 40.278c-1.68-.578-5.5-5.283-5.5-5.283s5.928-1.35 7.608-.77a3.193 3.193 0 1 1 1.054 5.448c-.87.749-2.075.98-3.162.605z" transform="translate(193.323 49.87)"/>
        <path fill="url(#e)" fill-rule="nonzero" d="M18.697 46.902c-1.754-.284-6.319-4.276-6.319-4.276s5.613-2.324 7.37-2.038a3.216 3.216 0 0 1 2.488 2.033 3.19 3.19 0 0 1-.525 3.16 3.23 3.23 0 0 1-3.014 1.128v-.007z" transform="translate(193.323 49.87)"/>
        <path fill="url(#f)" fill-rule="nonzero" d="M29.786 22.394c0 1.77 3.218 6.9 3.218 6.9s3.224-5.128 3.224-6.898a3.201 3.201 0 0 0-1.585-2.848 3.237 3.237 0 0 0-3.272 0 3.201 3.201 0 0 0-1.585 2.848v-.002z" transform="translate(193.323 49.87)"/>
        <path fill="url(#g)" fill-rule="nonzero" d="M16.75 30.306c.53 1.688 5.145 5.635 5.145 5.635s1.532-5.853 1.001-7.541a3.212 3.212 0 0 0-2.362-2.307 3.23 3.23 0 0 0-3.159.985 3.19 3.19 0 0 0-.616 3.235l-.01-.007z" transform="translate(193.323 49.87)"/>
        <path fill="#4363EC" fill-rule="nonzero" d="M198.459 89.597c.236 1.754 4.117 6.412 4.117 6.412s2.504-5.51 2.268-7.264a3.206 3.206 0 0 0-1.926-2.717 3.236 3.236 0 0 0-3.311.443 3.196 3.196 0 0 0-1.136 3.126h-.012z"/>
        <path fill="#000" fill-rule="nonzero" d="M238.858 68.026c-1.274 1.233-7.218 2.508-7.218 2.508s1.456-5.87 2.733-7.105a3.232 3.232 0 0 1 4.554.068 3.191 3.191 0 0 1-.069 4.53zM235.497 78.644c-1.744.345-7.43-1.799-7.43-1.799s4.432-4.14 6.177-4.484a3.23 3.23 0 0 1 3.048 1.03 3.19 3.19 0 0 1 .627 3.142 3.214 3.214 0 0 1-2.422 2.11zM223.253 90.149c-1.68-.578-5.5-5.283-5.5-5.283s5.928-1.35 7.608-.77a3.193 3.193 0 1 1 1.054 5.448c-.87.749-2.075.98-3.162.605zM212.02 96.773c-1.754-.285-6.32-4.276-6.32-4.276s5.614-2.325 7.37-2.038a3.216 3.216 0 0 1 2.49 2.032 3.19 3.19 0 0 1-.526 3.16 3.23 3.23 0 0 1-3.014 1.129v-.007zM223.11 72.264c0 1.77 3.217 6.901 3.217 6.901s3.224-5.128 3.224-6.898a3.201 3.201 0 0 0-1.585-2.848 3.237 3.237 0 0 0-3.272 0 3.201 3.201 0 0 0-1.585 2.848v-.003zM210.072 80.177c.532 1.688 5.146 5.635 5.146 5.635s1.532-5.853 1.001-7.541a3.212 3.212 0 0 0-2.362-2.307 3.23 3.23 0 0 0-3.159.985 3.19 3.19 0 0 0-.616 3.235l-.01-.007zM198.459 89.597c.236 1.754 4.117 6.412 4.117 6.412s2.504-5.51 2.268-7.264a3.206 3.206 0 0 0-1.926-2.717 3.236 3.236 0 0 0-3.311.443 3.196 3.196 0 0 0-1.136 3.126h-.012z" opacity=".25"/>
        <path stroke="#535461" stroke-width="1.237" d="M198.57 101.84s1.459-14.98 10.15-22.947a22.745 22.745 0 0 0 7.093-12.578c.427-2.304.64-4.643.635-6.986"/>
        <path fill="url(#h)" fill-rule="nonzero" d="M28.592 4.406c-.666 1.643-5.58 5.203-5.58 5.203s-1.06-5.96-.394-7.603a3.229 3.229 0 0 1 5.523-.777c.71.901.881 2.11.451 3.172v.005z" transform="translate(193.323 49.87)"/>
        <path fill="url(#i)" fill-rule="nonzero" d="M29.845 15.474c-1.454 1.02-7.525 1.35-7.525 1.35s2.36-5.572 3.82-6.588a3.234 3.234 0 0 1 3.206-.287 3.203 3.203 0 0 1 1.853 2.62 3.196 3.196 0 0 1-1.354 2.905z" transform="translate(193.323 49.87)"/>
        <path fill="url(#j)" fill-rule="nonzero" d="M23.335 30.921c-1.772.148-7.18-2.613-7.18-2.613s4.87-3.623 6.642-3.77a3.227 3.227 0 0 1 2.914 1.364c.656.94.759 2.156.269 3.192a3.22 3.22 0 0 1-2.645 1.827z" transform="translate(193.323 49.87)"/>
        <path fill="url(#k)" fill-rule="nonzero" d="M15.765 41.504c-1.72.446-7.523-1.37-7.523-1.37s4.186-4.388 5.902-4.831a3.222 3.222 0 0 1 3.925 2.296 3.202 3.202 0 0 1-2.308 3.905h.004z" transform="translate(193.323 49.87)"/>
        <path fill="url(#l)" fill-rule="nonzero" d="M15.919 14.629c.72 1.618 5.752 5.01 5.752 5.01s.857-5.987.137-7.605a3.23 3.23 0 0 0-4.249-1.643 3.2 3.2 0 0 0-1.652 4.226l.012.012z" transform="translate(193.323 49.87)"/>
        <path fill="url(#m)" fill-rule="nonzero" d="M7.223 27.13c1.18 1.328 6.996 3.07 6.996 3.07s-.984-5.968-2.157-7.3a3.232 3.232 0 0 0-4.544-.293 3.19 3.19 0 0 0-.295 4.52v.002z" transform="translate(193.323 49.87)"/>
        <path fill="#4363EC" fill-rule="nonzero" d="M193.766 90.28c.944 1.508 6.374 4.203 6.374 4.203s.059-6.048-.886-7.555a3.232 3.232 0 0 0-4.394-.997 3.195 3.195 0 0 0-1.096 4.35h.002z"/>
        <path stroke="#535461" stroke-width="1.237" d="M36.23 134.367s-9.205-11.348-8.627-22.735A22.016 22.016 0 0 0 23.93 98.14a37.193 37.193 0 0 0-4.326-5.259"/>
        <path fill="url(#n)" fill-rule="nonzero" d="M19.927 85.703c.661 1.585-.304 7.368-.304 7.368s-4.797-3.404-5.458-4.99a3.099 3.099 0 0 1 1.69-4.055 3.127 3.127 0 0 1 4.077 1.68l-.005-.003z"/>
        <path fill="url(#o)" fill-rule="nonzero" d="M28.356 92.515c-.311 1.686-4.284 6.013-4.284 6.013s-2.174-5.457-1.853-7.138a3.108 3.108 0 0 1 2.018-2.4 3.133 3.133 0 0 1 3.093.567 3.095 3.095 0 0 1 1.026 2.958z"/>
        <path fill="url(#p)" fill-rule="nonzero" d="M34.385 107.593c-1.126 1.301-6.753 3.041-6.753 3.041s.897-5.792 2.023-7.093a3.132 3.132 0 0 1 4.316-.228 3.093 3.093 0 0 1 .405 4.28h.009z"/>
        <path fill="#4363EC" fill-rule="nonzero" d="M36.368 120.026c-.888 1.47-6.137 4.132-6.137 4.132s-.102-5.87.788-7.33a3.13 3.13 0 0 1 4.263-1.03 3.095 3.095 0 0 1 1.086 4.228z"/>
        <path fill="url(#q)" fill-rule="nonzero" d="M18.136 101.331c1.602.632 7.4-.418 7.4-.418s-3.494-4.72-5.094-5.353a3.128 3.128 0 0 0-3.978 1.769 3.1 3.1 0 0 0 1.672 4.002z"/>
        <path fill="url(#r)" fill-rule="nonzero" d="M20.642 115.846c1.719.127 6.935-2.599 6.935-2.599s-4.754-3.465-6.472-3.592a3.127 3.127 0 0 0-2.813 1.344 3.09 3.09 0 0 0-.236 3.096 3.121 3.121 0 0 0 2.577 1.751h.01z"/>
        <path fill="url(#s)" fill-rule="nonzero" d="M25.023 129.613c1.672.415 7.278-1.41 7.278-1.41s-4.098-4.2-5.77-4.608a3.122 3.122 0 0 0-3.782 2.262 3.103 3.103 0 0 0 2.274 3.763v-.007z"/>
        <path fill="url(#t)" fill-rule="nonzero" d="M232.891 153.414s1.801 2.348-.83 5.87c-2.632 3.522-4.804 6.523-3.926 8.73 0 0 3.973-6.575 7.204-6.662 3.232-.086 1.11-3.989-2.448-7.938z"/>
        <path fill="#000" fill-rule="nonzero" d="M232.891 153.414c.157.226.281.474.369.735 3.153 3.686 4.834 7.126 1.803 7.213-2.832.08-6.213 5.102-7.025 6.372.027.098.06.195.097.289 0 0 3.973-6.574 7.204-6.661 3.232-.087 1.11-3.999-2.448-7.948z" opacity=".1"/>
        <path fill="#FFD037" fill-rule="nonzero" d="M236.241 156.398c0 .827-.094 1.494-.208 1.494-.113 0-.207-.667-.207-1.494 0-.826.115-.434.236-.434.12 0 .179-.39.179.434z"/>
        <path fill="#FFD037" fill-rule="nonzero" d="M237.388 157.384c-.727.395-1.362.632-1.416.533-.054-.098.49-.502 1.218-.897.727-.394.441-.108.496 0 .054.108.432-.03-.298.364z"/>
        <path fill="url(#t)" fill-rule="nonzero" d="M223.379 153.414s-1.801 2.348.83 5.87c2.633 3.522 4.804 6.523 3.926 8.73 0 0-3.973-6.575-7.204-6.662-3.232-.086-1.11-3.989 2.448-7.938z"/>
        <path fill="#000" fill-rule="nonzero" d="M223.379 153.414a2.812 2.812 0 0 0-.368.735c-3.156 3.686-4.835 7.126-1.804 7.213 2.833.08 6.213 5.102 7.025 6.372a3.456 3.456 0 0 1-.097.289s-3.973-6.574-7.204-6.661c-3.232-.087-1.11-3.999 2.448-7.948z" opacity=".1"/>
        <path fill="#FFD037" fill-rule="nonzero" d="M220.027 156.398c0 .827.094 1.494.208 1.494.113 0 .207-.667.207-1.494 0-.826-.115-.434-.236-.434-.12 0-.18-.39-.18.434z"/>
        <path fill="#FFD037" fill-rule="nonzero" d="M218.88 157.384c.73.395 1.364.632 1.416.533.052-.098-.491-.502-1.218-.897-.727-.394-.441-.108-.496 0-.054.108-.43-.03.298.364z"/>
        <ellipse cx="228.135" cy="183.069" fill="url(#u)" fill-rule="nonzero" opacity=".116" rx="18.832" ry="2.874"/>
        <path fill="url(#v)" fill-rule="nonzero" d="M237.827 164.865l-.09.73-.127 1.033-.052.432-.125 1.033-.057.432-.125 1.034-1.442 11.74c-.127 1.049-1.85 1.878-3.93 1.878h-7.488c-2.08 0-3.8-.817-3.93-1.879l-1.442-11.74-.128-1.033-.051-.432-.128-1.033-.054-.432-.125-1.033-.092-.73c-.071-.594.861-1.094 2.037-1.094h15.314c1.176 0 2.108.5 2.035 1.094z"/>
        <path fill="#9D9CB5" fill-rule="nonzero" d="M237.738 165.595l-.128 1.033h-18.952l-.125-1.033zM237.558 167.06l-.127 1.033H218.84l-.13-1.033zM237.376 168.525l-.125 1.031H219.02l-.128-1.03z"/>
        <path fill="url(#w)" fill-rule="nonzero" d="M189.707 43.663h-.199c.312-.352.472-.705.446-1.017l-1.794-1.784.685-1.526h-2.306l.427-1.19H185.6l-15.12 5.01s-.017.209 0 .507h-9.738V87.3h42.29V43.663h-13.324z"/>
        <path fill="#FFF" fill-rule="nonzero" d="M161.055 43.815h41.653v43.024h-41.653z"/>
        <path fill="#000" fill-rule="nonzero" d="M189.59 43.815c-1.972 2.89-15.153 6.697-15.153 6.697l.082-3.013h-2.438a1.37 1.37 0 0 0-.675-1.507c-.708-.387-.777-1.644-.767-2.177h18.952z" opacity=".1"/>
        <path fill="url(#x)" fill-rule="nonzero" d="M185.543 38.375l-14.893 4.93s-.17 1.926.756 2.426c.536.299.81.912.675 1.508h2.438l-.082 3.012s15.65-4.52 15.397-7.448l-1.766-1.758.673-1.508h-2.273l.423-1.174-1.348.012z"/>
        <path fill="#4363EC" fill-rule="nonzero" d="M168.755 57.765h26.253v1.472h-26.253zM168.755 61.734h26.253v1.472h-26.253zM168.755 65.699h26.253v1.472h-26.253zM168.755 69.425h26.253v1.472h-26.253zM168.755 73.39h26.253v1.472h-26.253zM168.755 77.122h26.253v1.472h-26.253z" opacity=".2"/>
        <path fill="url(#y)" fill-rule="nonzero" d="M48.579 40.127h-.1c.746-1.902 1.436-3.757 1.405-4.112-.066-.704-1.485.827-1.55.444-.067-.382 0-1.834-.645-1.834s-1.034.754-1.417.754c-.382 0-1.938-.253-1.938-.253l-1.98 5H27.436v46.606h37.021V40.127H48.58z"/>
        <path fill="#FFF" fill-rule="nonzero" d="M27.851 40.385h36.184v46.034H27.851z"/>
        <path fill="#000" fill-rule="nonzero" d="M48.52 40.385c-.763 1.97-1.622 4.046-1.818 4.541-.38.94-.63.44-1.074.315-.444-.125-1.008.124-1.26 0-.253-.125-1.735 0-1.735 0 .016-.23.016-.462 0-.693-.034-.249-1.738 0-1.738 0l1.624-4.163h6z" opacity=".1"/>
        <path fill="url(#z)" fill-rule="nonzero" d="M44.367 35.447L40.895 44.3s1.704-.251 1.735 0c.018.23.018.46 0 .69 0 0 1.485-.126 1.737 0 .253.127.82-.126 1.261 0 .441.127.694.627 1.074-.314.38-.942 3.156-7.66 3.092-8.35-.064-.69-1.451.818-1.515.44-.064-.379 0-1.81-.63-1.81s-1.01.744-1.388.744c-.378 0-1.894-.252-1.894-.252z"/>
        <path fill="#4363EC" fill-rule="nonzero" d="M32.818 52.614H59.07v1.472H32.818zM32.818 55.56H59.07v1.471H32.818zM32.818 58.264H59.07v1.472H32.818zM32.818 60.972H59.07v1.472H32.818zM32.818 63.677H59.07v1.472H32.818zM32.818 66.619H59.07v1.472H32.818z" opacity=".2"/>
        <path fill="url(#A)" fill-rule="nonzero" d="M185.12 109.037h-.099c.916-2.348 1.76-4.642 1.72-5.071-.077-.862-1.82 1.019-1.888.55-.068-.47 0-2.264-.79-2.264-.791 0-1.266.939-1.74.939s-2.375-.315-2.375-.315l-2.44 6.161h-18.282v57.5H204.6v-57.5h-19.48z"/>
        <path fill="#FFF" fill-rule="nonzero" d="M159.589 109.436h44.585v56.727h-44.585z"/>
        <path fill="#000" fill-rule="nonzero" d="M185.033 109.436c-.93 2.41-1.974 4.931-2.217 5.537-.472 1.16-.776.54-1.322.387-.545-.152-1.243.153-1.555 0-.312-.152-2.139 0-2.139 0 .02-.283.02-.568 0-.852-.04-.307-2.138 0-2.138 0l1.99-5.072h7.38z" opacity=".1"/>
        <path fill="url(#B)" fill-rule="nonzero" d="M179.939 103.35l-4.277 10.907s2.098-.31 2.138 0c.02.283.02.567 0 .85 0 0 1.827-.153 2.139 0 .312.152 1.01-.153 1.555 0 .546.152.855.775 1.322-.385.468-1.16 3.888-9.44 3.81-10.289-.078-.85-1.79 1.005-1.867.542-.078-.462 0-2.233-.777-2.233-.776 0-1.244.918-1.71.918-.468 0-2.333-.31-2.333-.31z"/>
        <path fill="#4363EC" fill-rule="nonzero" d="M168.755 125.312h26.253v2.176h-26.253zM168.755 137.386h26.253v2.176h-26.253zM168.755 149.504h26.253v2.176h-26.253z" opacity=".2"/>
        <path fill="url(#C)" fill-rule="nonzero" d="M56.172 111.003v-6.943h-9.798v6.943H25.916v54.703h48.052v-54.703z"/>
        <path fill="#FFF" fill-rule="nonzero" d="M26.423 111.28H73.46v54.069H26.423z"/>
        <path fill="#000" fill-rule="nonzero" d="M46.449 111.28h9.593v7.366h-9.593z" opacity=".1"/>
        <path fill="url(#D)" fill-rule="nonzero" d="M46.449 104.417h9.593v13.977h-9.593z"/>
        <path fill="#4363EC" fill-rule="nonzero" d="M36.814 124.384h26.253v2.176H36.814zM36.814 128.076h26.253v2.176H36.814zM36.814 131.773h26.253v2.176H36.814zM36.814 135.506h26.253v2.176H36.814zM56.042 139.591h7.027v5.65h-7.027zM36.814 146.58h7.027v5.648h-7.027z" opacity=".2"/>
        <path fill="url(#E)" fill-rule="nonzero" d="M123.656 110.916h-.066a467.14 467.14 0 0 0 1.34-5.344l-3.262 1.526s-2.315-3.052-3.172-2.543c-.857.51-2.738 1.78-2.738 1.78l-2.498-1.273-.956 5.854H92.583v42.237l1.267.754c1.046-.373 2.767-1.007 2.767-1.007l-.791 2.183.533.315.9-.81.332 1.547 1.07.637 1.687-1.069-.472 1.799 1.584.939 4.606-1.721-1.388 3.635.913.544 2.084-.364s-.094.726-.153 1.512l2.091 1.245c.857-.331 1.664-.658 1.664-.658s-.082.794-.12 1.574l1.402.835c1.107-.643 2.516-1.519 2.516-1.519l-1.18 2.184h26.65v-54.792h-16.89z"/>
        <path fill="#FFF" fill-rule="nonzero" d="M140.021 111.28v54.069h-26.138l1.167-2.153s-1.381.861-2.467 1.498l-1.374-.827c.038-.768.12-1.552.12-1.552s-.793.322-1.633.648l-2.051-1.228c.059-.775.148-1.49.148-1.49l-2.041.358-.895-.537 1.36-3.588-4.516 1.7-1.556-.94.454-1.774-1.653 1.054-1.048-.627-.325-1.526-.883.803-.524-.312.776-2.153s-1.687.624-2.714.993l-1.242-.742V111.28h47.035z"/>
        <path fill="#4363EC" fill-rule="nonzero" d="M103.375 128.076h26.253v2.176h-26.253zM103.375 133.632h26.253v2.176h-26.253zM103.375 139.225h26.253v2.176h-26.253zM103.375 144.78h5.259v2.176h-5.26z" opacity=".2"/>
        <path fill="#000" fill-rule="nonzero" d="M123.455 111.28c-1.28 5.02-3.144 11.974-3.63 11.852-.756-.204-1.936-1.643-1.936-1.643s-2.776 2.594-4.121 1.256c-1.346-1.339-3.199-.42-3.199-.42l1.794-11.048 11.092.003z" opacity=".1"/>
        <path fill="url(#F)" fill-rule="nonzero" d="M113.263 105.515l-2.694 16.572s1.85-.92 3.196.42c1.346 1.341 4.124-1.26 4.124-1.26s1.18 1.437 1.936 1.643c.755.207 4.881-16.872 4.881-16.872l-3.198 1.507s-2.271-3.015-3.114-2.512c-.842.502-2.684 1.759-2.684 1.759l-2.447-1.257z"/>
        <path fill="url(#G)" fill-rule="nonzero" d="M135.262 33.212v-1.59h-25.05c-1.149 0-.445 1.59-.445 1.59h-13.61v35.44H155.9V33.198l-20.638.014z"/>
        <path fill="#FFF" fill-rule="nonzero" d="M96.534 33.381h59.007V68.41H96.534z"/>
        <path fill="#000" fill-rule="nonzero" d="M135.158 39.094h-23.413s-.253-2.7.569-3.2c.821-.5-2.337-2.262-2.337-2.262a2.61 2.61 0 0 1-.092-.25h25.273v.816s3.22 2.825 0 4.896z" opacity=".1"/>
        <path fill="url(#H)" fill-rule="nonzero" d="M110.418 31.813h24.74v2.134s3.22 2.817 0 4.895h-23.413s-.253-2.7.569-3.2c.821-.5-2.337-2.26-2.337-2.26s-.694-1.57.441-1.57z"/>
        <path fill="url(#I)" fill-rule="nonzero" d="M.017.076h44.514v1.472H.017z" opacity=".35" transform="translate(103.766 44.33)"/>
        <path fill="url(#J)" fill-rule="nonzero" d="M.017.057h26.591v1.472H.017z" opacity=".35" transform="translate(103.766 47.1)"/>
        <path fill="url(#I)" fill-rule="nonzero" d="M.017.042h44.514v1.472H.017z" opacity=".35" transform="translate(103.766 49.87)"/>
        <path fill="url(#I)" fill-rule="nonzero" d="M.017.024h44.514v1.472H.017z" opacity=".35" transform="translate(103.766 52.641)"/>
        <path fill="url(#I)" fill-rule="nonzero" d="M.017.005h44.514v1.472H.017z" opacity=".35" transform="translate(103.766 55.412)"/>
        <path fill="url(#K)" fill-rule="nonzero" d="M166.607 195.036c-.423-1.789-.682-3.357-.682-3.357s.097-1.947-.782-3.407v-4.081c.25-.65.554-1.28.912-1.878.651-1.132 0-5.274 0-5.274s-2.413-5.84-1.825-9.542c.588-3.703-4.957-16.447-4.957-16.447.034-1.23.21-2.452.522-3.642.057-.25.081-.507.07-.763v-.094.03c-.082-2.442-2.022-7.02-2.022-7.02l.26-8.727s1.238-5.147-.782-12.053c-.708-2.411-1.16-4.339-1.445-5.827l-.092-.486c4.162-.632 7.339-1.158 7.339-1.158s-2.415-10.05-4.044-11.805c-1.628-1.757-2.934-7.28-2.934-7.28s-.85-7.092.522-9.156c1.371-2.064 1.563-5.652 1.563-5.652s3.13-2.259 3.521-3.263c.392-1.005 1.044-3.264 1.044-4.462 0-1.197-.392-2.26-.26-2.888.132-.626-.913-3.012-.392-4.144a3.038 3.038 0 0 0 .208-1.122v-.012a15.286 15.286 0 0 0-.276-2.947s-1.416-1.242-3.095-1.643l-.068-.27-.177-.705a3.327 3.327 0 0 0-.31-.183v-.256l-.028-1.019.491-2.294c.96-3.991-4.386-4.58-4.386-4.58a2.792 2.792 0 0 0-1.513-1.33c-1.076-.377-.179 5.997.324 6.404.38.307 1.548 2.305 2.11 3.287l.092.162a2.204 2.204 0 0 0-.236.256l.203 1.383.03.21c-.353.44-.64.928-.851 1.45 0 0 .98 1.066.783 2.258-.196 1.193.3 2.68.324 2.762-.06-.066-.746-.808-1.433-.627-.687.18-2.597.753-2.597.753s-1.435.252-1.303.566c.133.315-.98 1.695-.98 1.695l-3.854-3.634a8.795 8.795 0 0 1-.446-1.92c.42-.1.832-.23 1.232-.39.406-.138.772-.37 1.067-.68.387-.469.472-1.082.62-1.643.305-1.117.962-2.113 1.431-3.172a10.281 10.281 0 0 0 .77-5.698 3.73 3.73 0 0 0-.593-1.667c-.628-.862-1.77-1.212-2.596-1.9-.826-.688-1.364-1.735-2.332-2.252-.874-.47-1.94-.41-2.925-.25-1.929.315-3.782.985-5.464 1.976-.562.331-1.18.704-1.827.596-.553-.098-.959-.54-1.315-.96a.468.468 0 0 1 .016-.054l-.042-.05a6.734 6.734 0 0 0-.6 2.87c0 .153 0 .305.02.47v.162a.827.827 0 0 1 0 .131c0 .068-.01.136-.03.202a1.498 1.498 0 0 1-.36.519 2.83 2.83 0 0 0-.314.425c.016-.052.033-.103.052-.155a2.258 2.258 0 0 0-.4 1.207c-.02.315.084.626.291.866.192.188.403.356.628.503a7.302 7.302 0 0 0 3.517 7.602c.045.108.087.219.132.33.491 1.29.862 2.793.708 4.18a6.331 6.331 0 0 1-.047.306c-.05.052-.097.106-.14.16 0 0-6.372.06-7.862-1.29-1.49-1.35-3.777 3.288-3.777 3.288s-2.282.441-2.738 0c-.455-.442-3.13-.061-3.13-.061s-1.63-1.57-3.977-1.444a11.8 11.8 0 0 0-2.92-1.616l-.073-.025a3.321 3.321 0 0 0-1.435-.181s-3.13-2.583-4.041-3.954c-.912-1.371-5.262-6.504-5.28-6.528l-.017-.234-.05-.747c-.129.02-.259.031-.39.033l-.087-.258c-.25-.729-.559-1.436-.925-2.114 0 0 0-.939.276-1.174.276-.234-.113-3.688-.113-3.688s-2.821-6.56-5.347-1.663c0 0-4.775 3.168-.767 6.857 0 0 1.598.772 1.825 1.382.149.397.691 1.503 1.057 2.24.062.123.116.235.163.33l-.045.037.06.615.023.235c-.755.427-1.268.847-1.143 1.174.224.543.377 1.113.456 1.695 0 0 5.542 6.905 6.26 9.861 0 0 14.871 8.789 19.757 9.418l-.847 4.393s-.262 2.637-.196 3.578c.066.942-.588 5.213-.588 5.213s-.847 6.276-1.565 7.154c-.717.878-.585 4.647-.585 4.647a31.56 31.56 0 0 1-.98 5.337c-.708 2.385-.193 5.334-.193 5.334s-2.479 5.652 3.455 1.822c0 0 2.913-.18 6.267-.293v.33c0 .43-.014.896-.019 1.386-.044 3.236-.063 7.695.083 11.069.26 5.963 2.087 17.767 2.087 17.767v5.928a7.968 7.968 0 0 0-.173 1.695 10.99 10.99 0 0 0 1.608 5.936l.404 3.914s1.071 2.606 1.092 4.163c-.005.127-.02.254-.047.378-.04.2-.057.403-.052.606-.061 1.796 1.027 6.09 1.027 6.09s.066 4.333.708 4.584c.557.214-.743 2.496-1.133 3.15 0-.041-.016-.081-.023-.124a3.54 3.54 0 0 1-.08.132 3.06 3.06 0 0 0-.204 1.094 1.573 1.573 0 0 0 .723 1.524c1.239.754 1.905 1.38.854 1.643-.387.06-.77.137-1.15.235a5.783 5.783 0 0 1-.054-.145.704.704 0 0 0-.43.758c-.028.317.079.78.39 1.47 1.044 2.322 1.766 3.203 1.766 3.203l.5-.057a2.705 2.705 0 0 1-.29.535c-.19.273-.444.496-.739.65a2.231 2.231 0 0 1-.89.304 2.528 2.528 0 0 0-1.848.894c-.65.836-1.058 1.977.236 2.978l4.664 1.6s8.026 1.036 7.594-.753c-.432-1.789-.682-3.357-.682-3.357s.09-1.747-.652-3.175a3.793 3.793 0 0 0-.283-.47l.283-.032s.586-3.954 1.37-4.696c.179-.174.219-.308.176-.409.083-.216-.122-.343-.384-.413l-.057.155a3.825 3.825 0 0 0-.779-.087s-.262-2.07.585-2.818c.14-.172.2-.396.166-.615a3.308 3.308 0 0 0-.088-.843c0 .014-.019.033-.03.047-.428-1.878-1.872-4.867-1.872-4.867s-.066-1.878.455-2.634c.522-.756-.063-10.235-.063-10.235s.195-4.581-.392-6.715c-.588-2.135.708-4.647.708-4.647s0-.05-.014-.136l.016-.033s-.028-.282-.075-.72a.313.313 0 0 0-.017.041c-.13-1.211-.38-3.409-.562-4.426-.262-1.444.064-8.349.064-8.349l1.18-2.949 2.087 5.083 2.219 6.781s1.097 1.433 1.123 2.884c0 .07 0 .14-.014.21-.017.151-.026.303-.026.454-.039.856.198 1.703.675 2.416 0 0 .588 3.2 1.502 4.017.913.818.91 2.386.91 2.386s1.11 4.644 1.632 5.461c.439.688.472 2.583.458 3.158v.17s.153 1.66.149 3.052c0 .171 0 .338-.017.495v-.035a4.98 4.98 0 0 1-.135 1.13.498.498 0 0 0-.018.063c0-.078 0-.158.018-.235-.227.948-.336 1.92-.325 2.895-.03 1.67.236 3.649 1.241 4.809 1.761 2.01 2.87 1.758 2.87 1.758s-.85 2.51-1.888 3.013a.68.68 0 0 0-.11.07c0-.05-.02-.096-.027-.145-.217.187-.304.526-.304.939-.076 1.103.623 2.897 1.291 3.721.247.24.549.417.88.512-.053.037-.108.07-.165.101a3.135 3.135 0 0 1-.358.167 1.726 1.726 0 0 1-.532.138 2.503 2.503 0 0 0-1.853.883c-.649.834-1.057 1.975.236 2.975l4.665 1.601s8.011 1.034 7.584-.756z"/>
        <path fill="#2D293D" fill-rule="nonzero" d="M135.977 198.002l-4.513-1.601c-1.246-1-.85-2.142-.22-2.978a2.414 2.414 0 0 1 1.788-.894c.306-.037.6-.14.861-.303.285-.158.528-.38.708-.65.33-.52.509-1.121.515-1.736 0 0 4.957-1.444 6.312 0 .242.261.444.556.6.876.708 1.428.632 3.175.632 3.175s.253 1.566.66 3.357c.41 1.792-7.343.754-7.343.754zM158.064 195.79l-4.513-1.601c-1.244-1-.847-2.142-.22-2.975a2.403 2.403 0 0 1 1.788-.895c.178-.017.353-.064.516-.138.12-.048.235-.104.347-.167 1.263-.69 1.23-2.385 1.23-2.385s4.957-1.444 6.312 0c.182.195.34.41.472.64.85 1.461.756 3.41.756 3.41s.252 1.568.663 3.357c.41 1.79-7.35.754-7.35.754z"/>
        <path fill="#000" fill-rule="nonzero" d="M141.435 189.84c.242.261.444.556.6.876l-7.427.857c.33-.52.509-1.12.515-1.735 0 0 4.957-1.44 6.312.002zM163.999 188.27v1.383c-1.155 1.892-6.742 1.479-8.364.528.12-.048.235-.104.347-.167 1.263-.69 1.23-2.385 1.23-2.385s4.957-1.444 6.312 0c.182.195.342.41.475.64z" opacity=".1"/>
        <path fill="#1A3CFA" fill-rule="nonzero" d="M164.881 182.308c-.346.6-.641 1.229-.882 1.878v4.964c-1.263 2.07-7.828 1.38-8.71.251-.883-1.13-1.83-4.08-.822-4.583 1.008-.502 1.827-3.012 1.827-3.012s-1.074.25-2.778-1.759c-1.704-2.01-1.2-6.466-.88-7.532.318-1.066 0-4.647 0-4.647s.063-2.51-.442-3.327c-.505-.817-1.565-5.461-1.565-5.461s0-1.569-.885-2.386c-.885-.817-1.452-4.017-1.452-4.017a4.106 4.106 0 0 1-.63-2.698c.189-1.57-1.074-3.266-1.074-3.266l-2.146-6.779-2.018-5.085-1.135 2.951s-.317 6.905-.064 8.35c.252 1.443.63 5.273.63 5.273s-1.26 2.51-.694 4.644c.567 2.134.38 6.718.38 6.718s.567 9.478.061 10.232c-.505.754-.44 2.637-.44 2.637s2.596 5.522 1.767 6.276c-.828.754-.569 2.818-.569 2.818s1.768 0 1.01.753c-.757.754-1.326 4.696-1.326 4.696l-7.63.88s-.707-.88-1.708-3.202.189-2.07 1.204-2.322c1.015-.251.373-.878-.826-1.644-1.2-.765-.506-2.449-.506-2.449s1.83-3.075 1.2-3.327c-.63-.25-.694-4.583-.694-4.583s-1.263-5.147-.945-6.527c.319-1.38-1.022-4.687-1.022-4.687l-.441-3.956c-2.273-3.89-1.388-7.469-1.388-7.469v-6.081s-1.768-11.801-2.02-17.765c-.161-3.82-.116-9.033-.064-12.285.03-1.824.063-3.033.063-3.033l27.264-2.818s-.029 1.252.495 4.03c.277 1.488.709 3.416 1.398 5.827 1.957 6.905.758 12.052.758 12.052l-.253 8.723s2.398 5.84 1.888 7.847a16.609 16.609 0 0 0-.505 3.642s5.37 12.74 4.801 16.452c-.568 3.712 1.768 9.542 1.768 9.542s.63 4.132 0 5.264z"/>
        <path fill="#000" fill-rule="nonzero" d="M149.293 149.6l8.3-1.098s-4.703 4.771-8.3 1.099z" opacity=".05"/>
        <path fill="#000" fill-rule="nonzero" d="M156.393 140.437s.283 2.918-1.515 4.017c0 0 3.22-.502 1.515-4.017zM155.883 131.146s-6.937 5.68-9.46 5.21c-2.524-.47 9.46-5.21 9.46-5.21zM139.006 152.27s-5.269 1.19-5.43 3.288c-.16 2.096 5.43-3.288 5.43-3.288z" opacity=".1"/>
        <path fill="#000" fill-rule="nonzero" d="M140.165 178.446s-7.447 1.383-5.332 2.324c2.115.942 5.585 1.693 5.585 1.693s2.398.127-.253-4.017z" opacity=".05"/>
        <g fill="#000" fill-rule="nonzero" opacity=".05">
            <path d="M133.329 182.263a1.46 1.46 0 0 1-.682-1.073l-.076.132s-.694 1.695.505 2.449l.39.253c.22-.04.458-.07.69-.129 1.014-.251.372-.878-.827-1.632zM142.922 181.761c.203-.188.196-.67.07-1.29-.334.487-.415 1.243-.422 1.818.078-.199.198-.379.352-.528zM141.775 150.53a8.377 8.377 0 0 0-.503 2.309 9.048 9.048 0 0 1 .576-1.585l-.073-.723zM158.832 147.234c.054-.225.078-.455.071-.686-.096.47-.165.904-.215 1.285.042-.195.09-.395.144-.599zM141.595 172.848c.104-.155.16-.671.19-1.395-.237.458-.334 1.198-.364 1.761.043-.128.102-.251.174-.366zM143.16 184.687c-.519 1.408-.87 3.855-.87 3.855l-7.632.878s-.708-.878-1.709-3.2a7.808 7.808 0 0 1-.215-.554c-.458.209-.637.68-.038 2.059 1.01 2.322 1.71 3.202 1.71 3.202l7.63-.885s.57-3.954 1.327-4.696c.373-.375.135-.566-.203-.66zM133.076 173.412s.064 4.332.694 4.583c.32-.716.532-1.409.236-1.51-.63-.249-.694-4.58-.694-4.58s-1.262-5.15-.944-6.53c.319-1.381-1.01-4.708-1.01-4.708l-.441-3.954c-2.274-3.893-1.388-7.471-1.388-7.471v-6.086s-1.768-11.804-2.02-17.767c-.161-3.818-.117-9.03-.065-12.283 0-.589.022-1.11.031-1.55l-.22.022s-.033 1.209-.063 3.033c-.052 3.252-.097 8.453.064 12.285.252 5.964 2.02 17.765 2.02 17.765v6.09s-.885 3.579 1.388 7.47l.441 3.956s1.325 3.327 1.01 4.696c-.313 1.368.961 6.539.961 6.539zM155.543 187.725a7.295 7.295 0 0 1-1.208-2.982c-.78.704.116 3.416.944 4.49.883 1.129 7.447 1.819 8.71-.252v-1.195c-1.695 1.683-7.61 1.007-8.446-.061zM165.136 180.632c-.347.6-.643 1.228-.885 1.878v.88c.144-.321.35-.75.633-1.256.182-.326.257-.901.276-1.556-.01.02-.017.04-.024.054zM155.93 181.62c.242-.482.45-.98.624-1.49 0 0-1.074.25-2.779-1.757-1.239-1.463-1.31-4.226-1.133-6.027-.318 1.068-.821 5.524.88 7.532 1.12 1.315 1.958 1.66 2.409 1.742zM152.64 167.699c.111 1.237.153 2.48.125 3.722.033-.197.076-.391.13-.583.319-1.066 0-4.644 0-4.644s.064-2.512-.441-3.327c-.506-.815-1.589-5.462-1.589-5.462s0-1.57-.883-2.385c-.883-.815-1.452-4.017-1.452-4.017a4.115 4.115 0 0 1-.63-2.7c.19-1.569-1.074-3.264-1.074-3.264l-2.145-6.781-2.019-5.084-1.137 2.95s-.017.37-.038.953l.923-2.397 2.018 5.085 2.146 6.779s1.262 1.695 1.074 3.266a4.106 4.106 0 0 0 .63 2.698s.569 3.202 1.452 4.017c.882.815.899 2.386.899 2.386s1.074 4.646 1.58 5.46c.504.816.431 3.328.431 3.328z"/>
        </g>
        <path fill="#FFCDD3" fill-rule="nonzero" d="M157.946 52.216l-.472 2.292.029 1.02.019.753-2.644.258-.295-.542c-.546-.982-1.676-2.98-2.044-3.287-.487-.409-1.355-6.781-.312-6.403a2.754 2.754 0 0 1 1.466 1.32s5.179.598 4.253 4.59z"/>
        <path fill="#000" fill-rule="nonzero" d="M157.512 56.27l-2.634.27-.295-.543c.377-.388 1.456-1.268 2.908-.47l.021.742z" opacity=".1"/>
        <path fill="#DCE6F2" fill-rule="nonzero" d="M158.182 57.509l-3.477.812-.073-.516-.196-1.383s1.372-1.822 3.362-.458l.172.704.212.84z"/>
        <path fill="#FFCDD3" fill-rule="nonzero" d="M101.928 52.451l-3.702 1.982s-.141-.291-.335-.704c-.354-.735-.878-1.844-1.022-2.24-.22-.61-1.768-1.381-1.768-1.381-3.878-3.689.744-6.858.744-6.858 2.445-4.896 5.174 1.662 5.174 1.662s.378 3.456.11 3.689c-.266.232-.266 1.174-.266 1.174a14.21 14.21 0 0 1 1.065 2.676z"/>
        <path fill="#000" fill-rule="nonzero" d="M101.928 52.451l-3.702 1.982s-.141-.291-.335-.704c.522-.435 2.377-1.93 2.986-1.862.291.036.586.043.878.02.111.353.173.564.173.564z" opacity=".1"/>
        <path fill="#DCE6F2" fill-rule="nonzero" d="M102.308 53.569l-4.167 2.043-.082-.893-.069-.624s2.413-2.057 3.126-1.977c.36.053.727.053 1.088 0l.047.747.057.704z"/>
        <path fill="#FFCDD3" fill-rule="nonzero" d="M147.841 67.429s-18.161 2.038-14.767.94c2.36-.766 3.305-2.262 3.498-3.92.16-1.387-.198-2.888-.675-4.179a17.942 17.942 0 0 0-1.624-3.264s13.885-7.598 11.094-.704a11.036 11.036 0 0 0-.786 3.273 9.15 9.15 0 0 0 .357 3.313 9.855 9.855 0 0 0 2.903 4.541z"/>
        <path fill="#000" fill-rule="nonzero" d="M145.38 56.316a11.036 11.036 0 0 0-.787 3.273c-1.308 1.092-2.743 1.021-4.584 1.021-1.416 0-2.981.34-4.112-.338a17.942 17.942 0 0 0-1.624-3.263s13.885-7.598 11.106-.693z" opacity=".1"/>
        <ellipse cx="139.764" cy="53.618" fill="#FFCDD3" fill-rule="nonzero" rx="7.511" ry="7.471"/>
        <path fill="#000" fill-rule="nonzero" d="M147.841 67.429s-18.161 2.038-14.767.94c2.36-.766 3.305-2.262 3.498-3.92.904-.972 2.722-1.676 3.888-2.05a5.473 5.473 0 0 1 3.305-.053 4.55 4.55 0 0 1 1.196.554 9.855 9.855 0 0 0 2.88 4.529zM158.182 57.509l-3.477.812-.073-.516c.98-1.245 2.214-1.395 3.338-1.134l.212.838zM102.308 53.569l-4.167 2.043-.082-.893c1.49-.873 3.984-1.772 4.201-1.85l.048.7zM155.026 112.951c-7.034 1.104-17.044 2.543-18.633 2.062-1.317-.4-5.526-.357-9.19-.235.031-1.824.064-3.033.064-3.033l27.264-2.818s-.029 1.247.495 4.024z" opacity=".1"/>
        <path fill="#0320C1" fill-rule="nonzero" d="M162.042 111.308s-23.161 3.956-25.65 3.202c-2.487-.753-15.245.064-15.245.064-5.743 3.827-3.345-1.822-3.345-1.822s-.505-2.95.189-5.335a32.48 32.48 0 0 0 .944-5.337s-.125-3.756.569-4.644c.694-.888 1.513-7.157 1.513-7.157s.632-4.268.569-5.21c-.064-.941.188-3.578.188-3.578l.824-4.386c-4.72-.627-19.12-9.415-19.12-9.415-.694-2.952-6.059-9.862-6.059-9.862a7.248 7.248 0 0 0-.441-1.695c-.38-1.005 5.301-3.013 5.301-3.013s4.228 5.147 5.11 6.528c.884 1.38 3.914 3.956 3.914 3.956a3.05 3.05 0 0 1 1.388.18c.026 0 .048.015.074.022.026.007 0 0 0 0 1.416.49 2.832 1.613 2.832 1.613 2.273-.124 3.85 1.444 3.85 1.444s2.597-.376 3.029.064c.432.439 2.65 0 2.65 0s2.21-4.647 3.661-3.288c1.452 1.36 7.61 1.287 7.61 1.287.822-1.085 2.819-1.862 4.068-2.263a5.473 5.473 0 0 1 3.304-.054 4.2 4.2 0 0 1 1.299.624l3.736 3.64s1.074-1.381.944-1.696c-.13-.314 1.263-.563 1.263-.563s1.83-.566 2.524-.754c.694-.188 1.331.559 1.388.625-.024-.08-.498-1.6-.314-2.76.184-1.16-.758-2.26-.758-2.26 2.21-5.4 7.195-.878 7.195-.878s.569 2.95.063 4.08c-.505 1.13.506 3.522.378 4.142-.127.62.253 1.695.253 2.888 0 1.193-.63 3.454-1.01 4.461-.38 1.008-3.42 3.252-3.42 3.252s-.192 3.578-1.516 5.65c-1.325 2.07-.505 9.156-.505 9.156s1.262 5.525 2.832 7.28c1.57 1.753 3.92 11.812 3.92 11.812z"/>
        <path fill="#000" fill-rule="nonzero" d="M128.278 70.002s-.694-2.07-1.325-2.26c-.628-.23-1.24-.503-1.831-.815l.406-.773s2.372.646 2.75 1.336c.377.69 0 2.512 0 2.512zM115.592 65.42c-.125.628-5.743 1.192-5.743 1.192l2.833-2.832.07.024c1.436.493 2.84 1.615 2.84 1.615z" opacity=".1"/>
        <ellipse cx="99.341" cy="56.802" fill="#575988" fill-rule="nonzero" rx="1" ry="1"/>
        <ellipse cx="99.987" cy="57.807" fill="#575988" fill-rule="nonzero" rx="1" ry="1"/>
        <ellipse cx="100.62" cy="58.734" fill="#575988" fill-rule="nonzero" rx="1" ry="1"/>
        <ellipse cx="101.281" cy="59.737" fill="#575988" fill-rule="nonzero" rx="1" ry="1"/>
        <ellipse cx="160.77" cy="59.683" fill="#575988" fill-rule="nonzero" rx="1" ry="1"/>
        <ellipse cx="160.833" cy="60.608" fill="#575988" fill-rule="nonzero" rx="1" ry="1"/>
        <ellipse cx="160.89" cy="61.536" fill="#575988" fill-rule="nonzero" rx="1" ry="1"/>
        <path fill="#000" fill-rule="nonzero" d="M128.308 87.013c-.056-.072 14.163 17.798 25.213 7.472 0-.005-17.45 2.355-25.213-7.472zM120.136 96.304s8.512.235 9.404 2.668v2.533a1.63 1.63 0 0 1-1.583 0c-.86-.47-6.005-3.052-7.82-1.81v-3.39z" opacity=".1"/>
        <path fill="#000" fill-rule="nonzero" d="M120.294 96.304s8.142.221 8.994 2.543v2.416a1.56 1.56 0 0 1-1.516 0c-.819-.439-5.743-2.918-7.478-1.726v-3.233zM124.784 77.917s.975 2.494 3.305 5.635a22.171 22.171 0 0 0 5.167 4.964s-8.33-9.434-8.472-10.599zM121.999 68.077s1.416 6.105 5.08 8.17l-5.08-8.17zM119.82 68.695c-.035-.113-1.26 4.822 4.721 7.553-.002 0-2.542-.857-4.721-7.553zM157.002 64.604c-.094 0 2.95 1.928 3.777 2.818 0 .007-1.988-2.944-3.777-2.818z" opacity=".1"/>
        <path fill="#2D293D" fill-rule="nonzero" d="M137.734 60.39c.106.385.236.807.585 1.01.22.105.463.159.708.157 2.29.14 4.672.235 6.791-.637.395-.14.75-.373 1.032-.68.375-.458.448-1.08.6-1.644.297-1.115.93-2.113 1.387-3.172a10.606 10.606 0 0 0 .744-5.696 3.844 3.844 0 0 0-.574-1.67c-.609-.861-1.713-1.211-2.518-1.897-.805-.686-1.32-1.735-2.257-2.252-.845-.47-1.888-.41-2.833-.25a14.981 14.981 0 0 0-5.287 1.974c-.543.333-1.14.716-1.768.599-.548-.104-.944-.562-1.298-.991a6.91 6.91 0 0 0-.564 3.254c.024.163.018.33-.017.49a1.455 1.455 0 0 1-.35.517c-.563.653-.917 1.686-.358 2.348.236.287.616.444.852.735.425.526.281 1.28.272 1.951a.99.99 0 0 0 .165.662c.212.256.6.277.927.221.329-.056.664-.167.987-.094.353.117.655.349.86.658 1.057 1.326 1.47 2.808 1.914 4.407z"/>
        <g fill="#000" fill-rule="nonzero" opacity=".1">
            <path d="M147.102 59.664a2.564 2.564 0 0 1-1.031.681c-2.125.878-4.502.777-6.791.634a1.577 1.577 0 0 1-.708-.155c-.347-.204-.472-.624-.586-1.01-.444-1.61-.857-3.08-1.914-4.418a1.651 1.651 0 0 0-.86-.658c-.323-.073-.658.038-.986.094-.328.056-.708.035-.928-.22a.99.99 0 0 1-.165-.663c0-.671.151-1.427-.271-1.95-.236-.294-.61-.45-.855-.736-.35-.415-.34-.977-.144-1.5-.401.634-.576 1.449-.106 2 .236.29.616.444.852.738.423.523.281 1.28.272 1.95a.99.99 0 0 0 .165.663c.212.256.6.277.927.22.329-.056.664-.166.987-.093.353.116.655.348.86.657 1.057 1.338 1.47 2.818 1.914 4.419.106.383.236.805.585 1.01.22.106.463.159.708.155 2.29.143 4.672.234 6.791-.634.395-.14.75-.374 1.032-.681.143-.182.253-.387.326-.606-.024.035-.048.07-.074.103zM132.489 48.78c.104-.109.185-.238.236-.379.035-.161.04-.327.016-.49a6.953 6.953 0 0 1 .352-2.703l-.04-.05a6.906 6.906 0 0 0-.564 3.255c.011.122.011.244 0 .366z"/>
        </g>
        <path fill="#000" fill-rule="nonzero" d="M136.393 64.917s9.383 1.237 10.225-.165M154.642 61.057s5.212 0 6.359 1.948" opacity=".1"/>
    </g>
</svg>
