<svg xmlns="http://www.w3.org/2000/svg" width="40" height="40" viewBox="0 0 40 40">
    <g fill="#FFF" fill-rule="evenodd">
        <circle cx="20" cy="20" r="20" opacity=".1"/>
        <path d="M13.378 17.81h2.924v10.189h-2.924v-10.19zm1.388-1.275h-.022c-1.058 0-1.744-.779-1.744-1.765 0-1.006.706-1.77 1.786-1.77 1.079 0 1.742.762 1.763 1.767 0 .987-.684 1.768-1.783 1.768zM28 28h-3.315v-5.274c0-1.38-.519-2.321-1.66-2.321-.871 0-1.356.635-1.582 1.248-.085.22-.072.526-.072.833V28h-3.284s.042-9.341 0-10.19h3.284v1.599c.194-.7 1.244-1.697 2.919-1.697 2.078 0 3.71 1.466 3.71 4.621V28z"/>
    </g>
</svg>
