<svg xmlns="http://www.w3.org/2000/svg" width="139" height="40" viewBox="0 0 139 40">
    <g fill="none" fill-rule="evenodd">
        <path fill="#FFF" d="M123.562 39.866H8.33c-4.6 0-8.33-3.42-8.33-7.64V8.16C0 3.941 3.73.519 8.33.519h115.232c3.082 0 5.912 1.563 7.358 4.06l6.96 12.032a7.086 7.086 0 0 1 0 7.164l-6.96 12.032c-1.446 2.498-4.276 4.06-7.358 4.06"/>
        <path fill="#1A3CFA" d="M20.266 11.663a6.69 6.69 0 0 1 2.706.552c.843.367 1.623.92 2.34 1.655v-1.79h4.018v16.226h-4.019V26.59c-.785.755-1.571 1.3-2.36 1.633-.79.332-1.646.5-2.567.5-2.069 0-3.86-.813-5.369-2.438-1.51-1.627-2.265-3.647-2.265-6.063 0-2.506.73-4.559 2.191-6.159 1.462-1.601 3.237-2.401 5.325-2.401zm36.696 0c2.522 0 4.573.818 6.155 2.453 1.58 1.635 2.37 3.795 2.37 6.48l-.015.774H52.558c.187 1.155.686 2.072 1.495 2.753.81.681 1.843 1.021 3.1 1.021 1.502 0 2.792-.531 3.873-1.595l3.386 1.61c-.844 1.213-1.855 2.11-3.033 2.692-1.178.582-2.577.873-4.196.873-2.514 0-4.56-.803-6.14-2.41-1.582-1.604-2.372-3.615-2.372-6.031 0-2.476.788-4.532 2.363-6.167 1.577-1.635 3.551-2.454 5.928-2.454zm32.705.417v7.815c0 1.521.102 2.578.31 3.169.206.592.538 1.05.996 1.38.457.327 1.02.492 1.69.492.669 0 1.237-.161 1.705-.486.468-.323.815-.797 1.04-1.423.167-.467.251-1.467.251-2.998V12.08h4.02v6.875c0 2.833-.22 4.773-.662 5.816-.54 1.273-1.335 2.25-2.386 2.93-1.05.681-2.385 1.023-4.005 1.023-1.758 0-3.178-.399-4.263-1.194-1.085-.795-1.848-1.903-2.29-3.325-.314-.985-.47-2.774-.47-5.369V12.08h4.064zm20.983-.418c2.523 0 4.574.819 6.155 2.454 1.58 1.635 2.371 3.795 2.371 6.48l-.015.774h-12.914c.187 1.155.685 2.072 1.495 2.753s1.843 1.021 3.1 1.021c1.502 0 2.792-.531 3.872-1.595l3.387 1.61c-.845 1.213-1.856 2.11-3.034 2.692-1.177.582-2.577.873-4.195.873-2.514 0-4.561-.803-6.141-2.41-1.581-1.604-2.371-3.615-2.371-6.031 0-2.476.788-4.532 2.363-6.167 1.576-1.635 3.55-2.454 5.927-2.454zm-75.134.418l4.048 9.575L43.6 12.08h4.076l-6.818 16.226h-2.607L31.42 12.08h4.096zm41.378-.418c1.587 0 2.935.562 4.042 1.686.932.954 1.397 2.366 1.397 4.235v10.723h-3.975v-7.105c0-1.937-.086-3.223-.258-3.859-.17-.635-.47-1.119-.896-1.452-.426-.333-.952-.499-1.579-.499a2.94 2.94 0 0 0-2.093.826c-.583.552-.986 1.315-1.212 2.287-.11.475-.169 1.469-.176 2.982v6.82h-4.02V12.08h4.02v1.663c.911-.778 1.737-1.32 2.477-1.623a5.92 5.92 0 0 1 2.273-.458zm-55.81 3.759c-1.242 0-2.274.444-3.096 1.334-.822.89-1.232 2.031-1.232 3.423 0 1.402.418 2.555 1.254 3.46.836.905 1.866 1.357 3.089 1.357 1.263 0 2.31-.445 3.14-1.334.832-.89 1.249-2.056 1.249-3.498 0-1.41-.417-2.555-1.248-3.43-.832-.874-1.883-1.312-3.155-1.312zm36.076-.314c-1.12 0-2.104.319-2.95.955-.53.398-1.022 1.1-1.475 2.103h8.717a4.08 4.08 0 0 0-1.57-2.208c-.782-.566-1.69-.85-2.722-.85zm53.689 0c-1.121 0-2.105.319-2.95.955-.531.398-1.023 1.1-1.475 2.103h8.717a4.083 4.083 0 0 0-1.571-2.208c-.782-.566-1.688-.85-2.721-.85z"/>
    </g>
</svg>
