<svg xmlns="http://www.w3.org/2000/svg" width="40" height="40" viewBox="0 0 40 40">
    <g fill="#FFF" fill-rule="evenodd">
        <circle cx="20" cy="20" r="20" opacity=".1"/>
        <path d="M25.895 15.134a3.383 3.383 0 0 0 1.42-1.884 6.266 6.266 0 0 1-2.053.826A3.146 3.146 0 0 0 22.904 13c-1.784 0-3.23 1.526-3.23 3.408 0 .267.027.527.082.776-2.684-.143-5.065-1.498-6.66-3.561a3.543 3.543 0 0 0-.437 1.714c0 1.182.57 2.225 1.438 2.837a3.116 3.116 0 0 1-1.465-.426v.042c0 1.652 1.113 3.03 2.593 3.342-.271.08-.556.12-.852.12-.208 0-.411-.021-.607-.06.41 1.352 1.604 2.34 3.018 2.365A6.273 6.273 0 0 1 12 24.97a8.81 8.81 0 0 0 4.953 1.531c5.945 0 9.193-5.193 9.193-9.696 0-.149-.002-.296-.008-.441a6.754 6.754 0 0 0 1.612-1.765 6.193 6.193 0 0 1-1.855.536z"/>
    </g>
</svg>
